<svg width="40" height="40" viewBox="0 0 40 40" fill="none" xmlns="http://www.w3.org/2000/svg">
<path d="M20.1368 0.00769492C20.6092 0.0738697 20.7307 0.163129 20.9415 0.327796C21.7015 0.923369 21.6876 2.27764 20.8261 2.8332C20.663 2.93939 20.4784 3.01326 20.2861 3.05174C19.883 3.13022 19.2645 3.08559 18.6876 3.12868C11.1753 3.70117 4.36449 9.69384 3.23371 17.5933C2.5091 22.6549 4.21987 28.0273 7.77373 31.7347C11.6291 35.7544 17.5384 37.6981 23.0938 36.6685C29.8692 35.4128 35.6231 29.6755 36.72 22.6472C37.5461 17.3609 35.7031 11.7176 31.863 7.9379C30.1446 6.24813 28.0661 4.94156 25.7969 4.10592L25.6615 4.04897C25.2661 3.83506 25.2246 3.7535 25.0999 3.58883C24.5738 2.89322 24.7953 1.74825 25.5846 1.31272C26.3292 0.901824 27.2507 1.33889 28.1261 1.72824C34.7554 4.67533 39.5338 11.4221 39.9677 18.8398C40.3292 25.0233 37.6384 31.3222 32.8569 35.342C27.6476 39.7233 20.1461 41.1807 13.6353 38.9985C6.84142 36.7193 1.47986 30.5651 0.264472 23.3705C-1.00322 15.8789 2.35832 7.77477 8.8045 3.41954C12.0737 1.20961 15.9953 0.0061558 19.9907 0C20.0384 0.0030779 20.0876 0.00461702 20.1368 0.00769492ZM18.4538 18.4766V10.7773C18.4645 10.4556 18.4922 10.4018 18.543 10.2617C18.7291 9.73539 19.223 9.32911 19.783 9.25216C19.9845 9.22446 20.0322 9.23985 20.0984 9.24139C20.4184 9.27524 20.4707 9.30602 20.6061 9.36604C21.1522 9.60304 21.5107 10.174 21.5322 10.7773V18.4766H29.2276C29.263 18.4766 29.2984 18.4782 29.3323 18.4797C29.72 18.5197 29.8307 18.5797 30.0276 18.6998C30.88 19.2199 30.9938 20.6527 30.1153 21.2729C29.9153 21.416 29.68 21.5083 29.4369 21.5407C29.3446 21.5545 29.3215 21.553 29.2276 21.5561H21.5322V29.2539C21.5184 29.6432 21.4661 29.7571 21.3599 29.9618C20.8799 30.8867 19.3768 31.0514 18.7353 30.1419C18.5938 29.9402 18.5015 29.7063 18.4676 29.4632C18.4553 29.3708 18.4568 29.3478 18.4538 29.2539V21.5561H10.7568C10.3691 21.5422 10.2537 21.4883 10.0491 21.3822C9.13065 20.9066 8.94604 19.4108 9.87066 18.7582C10.0707 18.6167 10.3045 18.5243 10.5476 18.4905C10.6399 18.4782 10.6645 18.4797 10.7568 18.4766H18.4538Z" fill="#767676"/>
</svg>
