<svg width="149" height="171" viewBox="0 0 149 171" fill="none" xmlns="http://www.w3.org/2000/svg">
<path d="M82.7958 66.4659C82.699 66.5628 82.6021 66.5628 82.5053 66.5628C82.4084 66.5628 82.2147 66.4659 82.2147 66.3691L81.7304 65.4973H81.6335C81.4398 65.4973 81.246 65.4005 81.1492 65.3036L80.1806 63.3664C79.9868 63.3664 79.89 63.3664 79.6963 63.3664C79.5994 63.3664 79.4057 63.2695 79.4057 63.0758L78.5339 61.1385C78.437 61.2354 78.3402 61.2354 78.2433 61.2354C78.0496 61.2354 77.9527 61.1385 77.9527 60.9448L77.1778 59.0076C77.081 59.1044 76.9841 59.1044 76.7904 59.1044C76.5967 59.1044 76.4998 58.9107 76.4998 58.8138L75.8218 56.586C75.7249 56.586 75.628 56.6829 75.5312 56.586C75.4343 56.586 75.2406 56.3923 75.2406 56.2954L74.4657 53.9707C74.3688 54.0676 74.272 54.0676 74.0783 54.0676C73.8845 54.0676 73.7877 53.8739 73.7877 53.777L73.0128 51.1617C72.9159 51.2586 72.7222 51.2586 72.5285 51.2586C72.4316 51.1617 72.3347 51.0649 72.2379 50.8712L71.9473 48.5465C71.8504 48.5465 71.7536 48.5465 71.5598 48.5465C71.463 48.4496 71.3661 48.3527 71.3661 48.2559L70.9787 45.9312H70.8818C70.7849 46.0281 70.5912 46.0281 70.3975 45.9312C70.3006 45.8343 70.2038 45.7375 70.1069 45.5437L69.9132 43.3159C69.8163 43.4128 69.7195 43.4128 69.7195 43.4128C69.6226 43.4128 69.5257 43.4128 69.5257 43.3159C69.4289 43.2191 69.332 43.1222 69.332 42.9285L69.4289 40.6038H69.332C69.2352 40.7006 69.0414 40.6038 68.9446 40.6038C68.8477 40.5069 68.7508 40.4101 68.7508 40.2163L68.8477 37.7948L68.7508 37.8916C68.654 37.9885 68.4603 37.8916 68.3634 37.8916C68.2665 37.7948 68.1697 37.6979 68.1697 37.5042V34.7921H68.0728C67.9759 34.8889 67.7822 34.7921 67.6854 34.6952C67.5885 34.5983 67.4916 34.5015 67.4916 34.3078L67.6854 32.6611C67.5885 32.6611 67.3948 32.6611 67.2979 32.5642C67.2011 32.4674 67.2011 32.2736 67.2011 32.1768L67.5885 30.627H67.3948C67.2979 30.627 67.2011 30.5301 67.1042 30.4333C67.0073 30.3364 67.0073 30.1427 67.1042 30.0458L67.5885 28.7866L67.3948 28.6898C67.2979 28.6898 67.1042 28.496 67.1042 28.3992C67.1042 28.3023 67.1042 28.1086 67.2011 28.0117C67.1042 28.1086 67.0073 28.1086 66.9105 28.2054C66.7167 29.4646 66.6199 31.0144 66.8136 32.8548C67.2979 36.8262 68.7508 42.7347 69.6226 45.1563C70.1069 46.5124 70.8818 48.4496 71.5598 50.1931C72.2379 51.8398 72.819 53.1958 72.9159 53.6802C73.1096 54.5519 74.1751 56.4892 75.8218 59.0076C77.4684 61.6228 80.3743 65.4973 80.9555 66.0785C81.0523 66.1754 81.1492 66.2722 81.246 66.3691C81.5366 66.6597 82.0209 67.144 82.6021 67.6283C82.9896 67.5314 83.2801 67.4346 83.6676 67.3377C83.5707 67.3377 83.5707 67.2408 83.5707 67.2408L82.7958 66.4659Z" fill="white"/>
<path d="M80.0838 66.9504C79.3089 66.2724 76.403 62.2042 74.7564 59.6857C73.594 57.8454 72.0443 55.4238 71.7537 54.1646C71.6568 53.6803 71.0756 52.3242 70.3976 50.7744C69.7196 49.0309 68.8478 46.9968 68.4604 45.6407C67.5886 43.1223 66.1357 37.2137 65.6514 33.1455C65.4576 31.5957 65.5545 30.1428 65.6514 28.9805C65.2639 29.1742 64.9733 29.4648 64.5859 29.7554C64.6827 29.8522 64.6827 29.9491 64.5859 30.1428L64.1016 31.3052H64.1984C64.2953 31.3052 64.3921 31.402 64.489 31.4989C64.5859 31.5957 64.5859 31.6926 64.5859 31.8863L64.1984 33.2424C64.2953 33.2424 64.3921 33.2424 64.489 33.3393C64.5859 33.4361 64.6827 33.533 64.5859 33.7267L64.3921 35.2765C64.489 35.1796 64.6827 35.2765 64.7796 35.3734C64.8765 35.4702 64.9733 35.5671 64.9733 35.7608V38.1824L65.167 38.0855C65.2639 37.9886 65.4576 38.0855 65.5545 38.0855C65.6514 38.1824 65.7482 38.2792 65.7482 38.4729V40.9914H65.8451C65.9419 40.8945 66.1357 40.9914 66.2325 40.9914C66.3294 41.0882 66.4263 41.1851 66.4263 41.3788L66.3294 43.6066C66.4263 43.6066 66.5231 43.6066 66.62 43.6066C66.7168 43.7035 66.8137 43.8004 66.9106 43.9941L67.1043 46.2219C67.2011 46.125 67.3949 46.125 67.4917 46.2219C67.5886 46.3188 67.6855 46.4156 67.7823 46.5125L68.1698 48.934C68.2666 48.934 68.4604 48.934 68.5572 48.934C68.6541 49.0309 68.7509 49.1278 68.7509 49.2246L69.0415 51.4525C69.1384 51.3556 69.2352 51.3556 69.429 51.4525C69.5258 51.4525 69.6227 51.6462 69.7196 51.743L70.4945 54.2615C70.5913 54.1646 70.6882 54.1646 70.8819 54.1646C71.0756 54.1646 71.1725 54.3583 71.1725 54.4552L71.9474 56.9736C72.0442 56.9736 72.1411 56.8767 72.238 56.9736C72.3348 56.9736 72.5286 57.1673 72.5286 57.2642L73.2066 59.3952C73.3035 59.3952 73.4003 59.2983 73.4972 59.3952C73.6909 59.3952 73.7878 59.492 73.7878 59.6857L74.5627 61.623C74.6595 61.623 74.7564 61.623 74.8532 61.623C75.047 61.623 75.1438 61.7198 75.2407 61.9136L76.1125 63.9477C76.2093 63.8508 76.3062 63.8508 76.4999 63.8508C76.5968 63.8508 76.7905 63.9477 76.7905 64.0445L77.5654 65.5943C77.5654 65.5943 77.6622 65.5943 77.7591 65.5943C77.9528 65.5943 78.1466 65.6912 78.2434 65.788L78.9215 67.0472C79.0183 66.9504 79.1152 66.9504 79.212 66.9504C79.3089 66.9504 79.4058 67.0473 79.5026 67.1441L79.8901 67.919H79.9869C80.1807 67.919 80.2775 68.0159 80.3744 68.1127L80.4712 68.2096C80.665 68.2096 80.9556 68.1127 81.1493 68.1127C80.7618 67.8221 80.4712 67.5316 80.2775 67.241C80.2775 67.0473 80.1807 66.9504 80.0838 66.9504Z" fill="white"/>
<path d="M86.0892 66.4656C85.8955 66.5624 85.7018 66.4656 85.6049 66.2718L85.1206 65.4969C85.0237 65.4969 84.9269 65.5938 84.9269 65.5938C84.7331 65.5938 84.6363 65.4969 84.5394 65.3032L84.152 64.4315C84.0551 64.4315 83.9583 64.5283 83.8614 64.4315C83.7645 64.4315 83.5708 64.3346 83.5708 64.2377L83.1834 63.366H83.0865C82.8928 63.366 82.699 63.2691 82.6022 63.0754L81.6336 61.4287C81.5367 61.4287 81.4398 61.5256 81.2461 61.4287C81.1493 61.4287 80.9555 61.3319 80.9555 61.1382L80.1806 59.2978C80.0838 59.2978 79.9869 59.2978 79.9869 59.2978C79.7932 59.2978 79.6963 59.2009 79.5995 59.0072L78.9214 57.1668C78.8246 57.1668 78.7277 57.2637 78.6308 57.1668C78.4371 57.1668 78.3403 56.9731 78.3403 56.8762L77.7591 54.8421C77.6622 54.8421 77.5654 54.8421 77.4685 54.8421C77.2748 54.8421 77.1779 54.6484 77.1779 54.5515L76.4999 52.3237C76.403 52.4206 76.3061 52.4206 76.2093 52.4206C76.0156 52.4206 75.9187 52.2268 75.9187 52.13L75.2407 49.6116C75.1438 49.7084 74.9501 49.7084 74.8532 49.6116C74.6595 49.5147 74.5626 49.4179 74.5626 49.2241L74.272 46.9963C74.1752 46.9963 74.0783 46.9963 73.9815 46.9963C73.8846 46.8994 73.7877 46.8026 73.7877 46.7057L73.4003 44.5747C73.3034 44.6716 73.1097 44.6716 72.916 44.5747C72.7223 44.4779 72.6254 44.381 72.6254 44.1873L72.4317 42.1532C72.3348 42.2501 72.1411 42.2501 72.0442 42.1532C71.8505 42.0563 71.8505 41.9595 71.8505 41.7658L71.9474 39.5379C71.8505 39.6348 71.6568 39.5379 71.463 39.5379C71.3662 39.4411 71.2693 39.3442 71.2693 39.1505L71.3662 36.8258H71.2693C71.1725 36.9226 70.9787 36.9226 70.8819 36.8258C70.785 36.7289 70.6882 36.6321 70.6882 36.4383V33.9199C70.5913 34.0168 70.3976 33.9199 70.3007 33.8231C70.2038 33.7262 70.107 33.6293 70.107 33.4356L70.3007 31.8858C70.2038 31.8858 70.0101 31.8858 70.0101 31.789C69.9133 31.6921 69.8164 31.4984 69.9133 31.4015L70.3007 29.9486H70.2038C70.107 29.9486 70.0101 29.8517 69.9133 29.7549C69.8164 29.658 69.8164 29.4643 69.9133 29.3674L70.3976 28.2051L70.2038 28.1082C70.107 28.1082 70.0101 28.0113 69.9133 27.8176C69.9133 27.7208 69.9133 27.527 70.0101 27.4302L70.4944 26.7521C70.4944 26.7521 70.3976 26.7521 70.3976 26.6553C69.9133 26.849 69.5258 27.0427 69.1384 27.1396C69.1384 27.1396 69.1384 27.2364 69.0415 27.2364L68.4603 28.0113C68.5572 28.0113 68.654 28.1082 68.7509 28.2051C68.8478 28.3019 68.8478 28.3988 68.7509 28.5925L68.2666 29.7549H68.3635C68.4603 29.7549 68.5572 29.8517 68.654 29.9486C68.7509 30.0454 68.7509 30.1423 68.7509 30.336L68.3635 31.6921C68.4603 31.6921 68.5572 31.789 68.654 31.789C68.7509 31.8858 68.8478 31.9827 68.7509 32.1764L68.5572 33.7262C68.654 33.6293 68.8478 33.7262 68.9446 33.8231C69.0415 33.9199 69.1384 34.0168 69.1384 34.2105V36.8258L69.3321 36.7289C69.4289 36.6321 69.6227 36.7289 69.7195 36.7289C69.6227 36.9226 69.6227 37.0195 69.6227 37.2132L69.5258 39.6348H69.6227C69.7195 39.5379 69.9133 39.6348 70.0101 39.6348C70.107 39.7316 70.2038 39.8285 70.2038 40.0222V42.2501C70.3007 42.2501 70.3976 42.2501 70.4944 42.2501C70.5913 42.3469 70.6882 42.4438 70.785 42.6375L70.9787 44.8653C71.0756 44.7685 71.2693 44.7685 71.3662 44.8653C71.463 44.9622 71.5599 45.0591 71.6568 45.1559L72.0442 47.4806C72.1411 47.3837 72.3348 47.4806 72.4317 47.4806C72.5285 47.5775 72.6254 47.6743 72.6254 47.7712L72.916 49.999C73.0128 49.9022 73.1097 49.9022 73.3034 49.999C73.4003 50.0959 73.4972 50.1927 73.594 50.2896L74.4658 52.7112C74.5626 52.6143 74.6595 52.6143 74.8532 52.6143C75.0469 52.6143 75.1438 52.7112 75.1438 52.9049L75.9187 55.4233C76.0156 55.4233 76.1124 55.4233 76.2093 55.4233C76.403 55.4233 76.4999 55.617 76.4999 55.7139L77.1779 57.748C77.2748 57.748 77.3716 57.6511 77.4685 57.748C77.5654 57.748 77.7591 57.8448 77.7591 58.0386L78.534 59.9758C78.6308 59.9758 78.7277 59.9758 78.8246 59.9758C79.0183 59.9758 79.1151 60.0727 79.212 60.2664L80.0838 62.3005C80.1806 62.2036 80.2775 62.2036 80.4712 62.2036C80.5681 62.2036 80.6649 62.3005 80.7618 62.3974L81.5367 63.9472C81.5367 63.9472 81.6336 63.9472 81.7304 63.9472C81.9241 63.9472 82.1179 64.044 82.2147 64.1409L82.8928 65.4001C82.9896 65.3032 83.0865 65.3032 83.1834 65.3032C83.2802 65.3032 83.4739 65.4001 83.4739 65.4969L83.8614 66.2718H83.9582C84.152 66.2718 84.2488 66.3687 84.3457 66.4656L84.7331 67.0467C85.2175 66.853 85.7986 66.6593 86.2829 66.3687H86.1861C86.1861 66.4656 86.1861 66.4656 86.0892 66.4656Z" fill="white"/>
<path d="M78.7273 68.1126C78.6304 68.1126 78.5336 68.0157 78.4367 67.9188L77.9524 67.0471H77.8555C77.6618 67.0471 77.4681 66.9502 77.3712 66.8534L76.4026 64.9161C76.3057 65.013 76.112 65.013 76.0152 65.013C75.9183 65.013 75.7246 64.9161 75.7246 64.7224L74.8528 62.7851C74.7559 62.7851 74.6591 62.882 74.5622 62.882C74.3685 62.882 74.2716 62.7851 74.1748 62.5914L73.3999 60.6542C73.303 60.751 73.2062 60.751 73.0124 60.751C72.8187 60.751 72.7218 60.5573 72.7218 60.4605L72.0438 58.3295C71.9469 58.3295 71.8501 58.4264 71.7532 58.3295C71.5595 58.3295 71.4626 58.1358 71.4626 58.0389L70.6877 55.6174C70.5909 55.7142 70.494 55.7142 70.3003 55.7142C70.1066 55.7142 70.0097 55.5205 70.0097 55.4236L69.2348 52.8084C69.1379 52.9052 68.9442 52.9052 68.7505 52.9052C68.6536 52.8084 68.4599 52.7115 68.4599 52.5178L68.1693 50.1931C68.0725 50.1931 67.9756 50.1931 67.7819 50.1931C67.685 50.0962 67.5882 49.9994 67.5882 49.9025L67.2007 47.5778H67.1038C67.007 47.6747 66.8133 47.6747 66.6195 47.5778C66.5227 47.4809 66.4258 47.3841 66.3289 47.1904L66.1352 44.9625C66.0384 45.0594 65.8446 45.0594 65.6509 44.9625C65.5541 44.8657 65.4572 44.7688 65.4572 44.5751L65.5541 42.1535L65.4572 42.2504C65.3603 42.3473 65.1666 42.2504 65.0697 42.2504C64.9729 42.1535 64.876 42.0567 64.876 41.8629L64.9729 39.3445L64.7792 39.2477C64.6823 39.3445 64.4886 39.2477 64.3917 39.2477C64.2948 39.1508 64.198 39.054 64.198 38.8602V36.1481H64.1011C64.0043 36.245 63.8105 36.1481 63.7137 36.0512C63.6168 35.9544 63.5199 35.8575 63.5199 35.6638L63.7137 34.0171C63.6168 34.0171 63.4231 34.0171 63.3262 33.9203C63.2294 33.8234 63.1325 33.6297 63.2294 33.5328L63.6168 31.983H63.4231C63.3262 31.983 63.1325 31.8862 63.1325 31.7893C63.0356 31.6924 63.0356 31.4987 63.1325 31.4018L63.4231 30.627C63.2294 30.8207 62.9388 31.0144 62.7451 31.2081C62.8419 31.305 62.8419 31.4018 62.7451 31.5956L62.2607 32.8548H62.3576C62.4545 32.8548 62.5513 32.9516 62.6482 33.0485C62.7451 33.1454 62.7451 33.2422 62.7451 33.436L62.3576 34.792C62.4545 34.792 62.5513 34.792 62.6482 34.8889C62.7451 34.9857 62.8419 35.1795 62.8419 35.2763L62.6482 36.8261H62.7451C62.8419 36.7293 63.0356 36.8261 63.1325 36.8261C63.2294 36.923 63.3262 37.0198 63.3262 37.2136V39.9257L63.5199 39.8288C63.6168 39.732 63.8105 39.732 64.0043 39.8288C64.1011 39.9257 64.198 40.0226 64.198 40.2163L64.1011 42.7347L64.198 42.6378C64.2948 42.541 64.4886 42.6378 64.5854 42.6378C64.6823 42.7347 64.7792 42.8316 64.7792 43.0253V45.2531C64.876 45.1563 64.9729 45.2531 65.1666 45.2531C65.2635 45.35 65.3603 45.4468 65.4572 45.6406L65.6509 47.8684C65.7478 47.7715 65.9415 47.7715 66.0384 47.8684C66.1352 47.9653 66.2321 48.0621 66.3289 48.159L66.7164 50.7743C66.8133 50.6774 67.007 50.7743 67.1038 50.7743C67.2007 50.8711 67.2976 50.968 67.2976 51.0648L67.5882 53.1958C67.685 53.0989 67.7819 53.0989 67.9756 53.1958C68.0725 53.1958 68.1693 53.3895 68.2662 53.4864L69.0411 55.9079C69.1379 55.8111 69.2348 55.8111 69.4285 55.8111C69.6223 55.8111 69.7191 55.9079 69.7191 56.1017L70.494 58.5232C70.5909 58.5232 70.6877 58.4264 70.7846 58.5232C70.9783 58.5232 71.0752 58.7169 71.0752 58.8138L71.7532 60.751C71.8501 60.751 71.9469 60.6542 72.0438 60.751C72.1407 60.751 72.3344 60.8479 72.3344 61.0416L73.1093 62.882C73.2062 62.882 73.303 62.882 73.3999 62.882C73.5936 62.882 73.6905 62.9789 73.7873 63.1726L74.6591 65.1098C74.7559 65.013 74.8528 65.013 74.9497 65.013C75.0465 65.013 75.2403 65.1098 75.2403 65.2067L76.0152 66.6596H76.112C76.3057 66.6596 76.4995 66.7565 76.5963 66.8534L77.1775 68.0157C77.2744 67.9188 77.3712 67.9188 77.4681 67.9188C77.5649 67.9188 77.7587 68.0157 77.7587 68.1126L77.9524 68.5C78.3398 68.5 78.8242 68.5 79.2116 68.4031L79.1147 68.1126C78.921 68.1126 78.8242 68.1126 78.7273 68.1126Z" fill="white"/>
<path d="M87.2513 65.304C87.0576 65.304 86.9607 65.2071 86.8638 65.1102L86.1858 64.2385C86.1858 64.3353 85.9921 64.3353 85.8952 64.3353C85.7983 64.3353 85.6046 64.2385 85.6046 64.0447L85.1203 63.2699H85.0234C84.8297 63.2699 84.636 63.173 84.5391 63.0761L83.6674 61.2357C83.5705 61.3326 83.4737 61.3326 83.2799 61.3326C83.1831 61.3326 82.9893 61.2357 82.9893 61.042L82.2144 59.2016C82.1176 59.2016 82.0207 59.2016 82.0207 59.2016C81.827 59.2016 81.7301 59.1048 81.6333 58.9111L80.9552 57.0707C80.8584 57.1675 80.7615 57.1675 80.6647 57.0707C80.4709 57.0707 80.3741 56.877 80.3741 56.7801L79.7929 54.746C79.696 54.746 79.5992 54.746 79.5023 54.746C79.3086 54.746 79.2117 54.5523 79.2117 54.4554L78.5337 52.2276C78.4368 52.3244 78.34 52.3244 78.2431 52.2276C78.0494 52.2276 77.9525 52.0339 77.9525 51.937L77.2745 49.4186C77.1776 49.5154 76.9839 49.5154 76.887 49.4186C76.7902 49.3217 76.6933 49.2249 76.5964 49.0311L76.3059 46.8033C76.209 46.8033 76.1121 46.8033 76.0153 46.8033C75.9184 46.7064 75.8216 46.6096 75.7247 46.5127L75.3372 44.3818C75.2404 44.4786 75.0467 44.4786 74.8529 44.3818C74.7561 44.2849 74.6592 44.188 74.5623 43.9943L74.3686 41.9602C74.2718 42.0571 74.078 42.0571 73.9812 41.9602C73.7875 41.8633 73.7874 41.7665 73.7874 41.5728V39.3449C73.6906 39.4418 73.4969 39.3449 73.4 39.3449C73.3031 39.2481 73.2063 39.1512 73.2063 38.9575L73.3031 36.6328H73.2063C73.1094 36.7297 72.9157 36.7297 72.8188 36.6328C72.722 36.5359 72.6251 36.4391 72.6251 36.2453V33.7269C72.5282 33.8238 72.3345 33.7269 72.2377 33.6301C72.1408 33.5332 72.0439 33.3395 72.0439 33.2426L72.2377 31.6928C72.1408 31.6928 71.9471 31.6928 71.8502 31.596C71.5596 31.596 71.5596 31.4991 71.5596 31.3054L71.9471 29.8524H71.8502C71.7533 29.8524 71.6565 29.7556 71.5596 29.6587C71.4628 29.5619 71.4628 29.3681 71.5596 29.2713L72.0439 28.1089H71.8502C71.7533 28.1089 71.6565 27.9152 71.5596 27.8183C71.5596 27.7215 71.5596 27.5278 71.6565 27.4309L72.1408 26.7529C72.0439 26.7529 71.9471 26.5591 71.8502 26.4623C71.8502 26.3654 71.8502 26.3654 71.8502 26.2686C71.6565 26.3654 71.3659 26.3654 71.1722 26.4623C71.1722 26.4623 71.1722 26.4623 71.1722 26.5591C71.269 26.656 71.1722 26.8497 71.0753 26.9466L70.591 27.5278C70.6879 27.5278 70.7847 27.6246 70.8816 27.7215C70.9785 27.8183 70.9785 27.9152 70.8816 28.1089L70.4941 29.1744H70.591C70.6879 29.1744 70.7847 29.2713 70.8816 29.3681C70.9785 29.465 70.9785 29.5619 70.9785 29.7556L70.591 31.0148C70.6879 31.0148 70.7847 31.1117 70.7847 31.1117C70.8816 31.2085 70.9785 31.3054 70.9785 31.4991L70.8816 32.952C70.9785 32.952 71.1722 32.952 71.269 33.0489C71.3659 33.1458 71.4628 33.2426 71.4628 33.4363V35.9548H71.5596C71.6565 35.8579 71.8502 35.8579 71.9471 35.9548C72.0439 36.0516 72.1408 36.1485 72.1408 36.3422L72.0439 38.6669C72.1408 38.57 72.3345 38.57 72.4314 38.6669C72.5282 38.7638 72.6251 38.8606 72.6251 39.0543V41.1853C72.722 41.1853 72.8188 41.1853 72.9157 41.1853C73.0126 41.2822 73.1094 41.379 73.2063 41.5728L73.4 43.6069C73.4969 43.51 73.6906 43.51 73.7874 43.6069C73.8843 43.7037 74.078 43.8006 74.078 43.8974L74.4655 46.1253C74.5623 46.1253 74.6592 46.1253 74.7561 46.1253C74.8529 46.2221 74.9498 46.319 74.9498 46.4159L75.2404 48.45C75.3372 48.45 75.4341 48.45 75.531 48.45C75.6278 48.45 75.8216 48.6437 75.8216 48.7405L76.4996 51.0652C76.5964 51.0652 76.6933 50.9684 76.7902 51.0652C76.9839 51.0652 77.0808 51.259 77.0808 51.3558L77.7588 53.6805C77.8557 53.6805 77.9525 53.6805 78.0494 53.6805C78.2431 53.6805 78.34 53.8742 78.34 53.9711L78.9211 55.9083C79.018 55.9083 79.1149 55.9083 79.1149 55.9083C79.3086 55.9083 79.4054 56.0052 79.4054 56.1989L80.0835 58.0393C80.1803 58.0393 80.1803 58.0393 80.2772 58.0393C80.4709 58.0393 80.5678 58.1362 80.6647 58.3299L81.4396 60.2671C81.5364 60.1703 81.6333 60.1703 81.7301 60.2671C81.827 60.2671 82.0207 60.364 82.0207 60.4608L82.7956 61.9138H82.8925C83.0862 61.9138 83.2799 62.0106 83.3768 62.2044L83.958 63.3667C84.0548 63.3667 84.1517 63.2698 84.2485 63.3667C84.3454 63.3667 84.5391 63.4636 84.5391 63.5604L84.9266 64.3353H85.0234C85.2172 64.3353 85.314 64.4322 85.4109 64.5291L85.8952 65.2071C85.9921 65.2071 86.0889 65.2071 86.1858 65.304L86.8638 65.8851C87.0575 65.7883 87.1544 65.8851 87.2513 65.982C87.3481 65.8851 87.5419 65.7883 87.6387 65.7883L87.3481 65.304C87.445 65.2071 87.3481 65.304 87.2513 65.304Z" fill="white"/>
<path d="M76.0158 68.0161C75.8221 68.0161 75.6284 67.9192 75.5315 67.8223L74.5629 66.0788C74.466 66.1757 74.3692 66.1757 74.1754 66.1757C74.0786 66.1757 73.8849 66.0788 73.8849 65.8851L73.11 64.0447C73.0131 64.0447 72.9162 64.1416 72.8194 64.1416C72.6256 64.1416 72.5288 64.0447 72.4319 63.851L71.657 62.0106C71.5602 62.1075 71.4633 62.1075 71.2696 62.1075C71.0759 62.1075 70.979 61.9138 70.979 61.8169L70.301 59.7828C70.2041 59.7828 70.1072 59.8796 70.0104 59.7828C69.8166 59.7828 69.7198 59.5891 69.7198 59.4922L69.0417 57.1675C68.9449 57.2644 68.848 57.2644 68.6543 57.2644C68.4606 57.2644 68.3637 57.0707 68.3637 56.9738L67.5888 54.3585C67.492 54.4554 67.2982 54.4554 67.1045 54.4554C67.0076 54.3585 66.8139 54.2617 66.8139 54.0679L66.5233 51.7432C66.4265 51.7432 66.3296 51.7432 66.1359 51.7432C66.039 51.6464 65.9422 51.5495 65.9422 51.4527L65.5547 49.2248L65.4579 49.3217C65.361 49.4185 65.1673 49.4185 64.9735 49.3217C64.8767 49.2248 64.7798 49.128 64.683 48.9342L64.4892 46.7064C64.3924 46.8033 64.1986 46.8033 64.0049 46.7064C63.8112 46.6095 63.8112 46.5127 63.8112 46.319V43.8974L63.7143 43.9943C63.6175 44.0911 63.4238 44.0911 63.3269 43.9943C63.23 43.8974 63.1332 43.8006 63.1332 43.6068L63.23 41.0884H63.0363C62.9394 41.1853 62.7457 41.0884 62.6489 41.0884C62.552 40.9916 62.4551 40.8947 62.4551 40.701V37.892L62.3583 37.9888C62.2614 38.0857 62.0677 37.9888 61.9708 37.892C61.874 37.7951 61.874 37.7951 61.7771 37.6982C61.7771 37.7951 61.7771 37.7951 61.7771 37.892L61.3896 38.8606L61.9708 39.8292C62.0677 39.9261 62.0677 40.0229 62.0677 40.2167L61.874 40.7978L62.6489 42.3476C62.7457 42.5413 62.7457 42.6382 62.552 42.8319L62.1645 43.3162L63.23 45.0598C63.3269 45.2535 63.3269 45.4472 63.23 45.5441L63.0363 45.8347L64.1018 47.7719C64.1986 47.8688 64.1986 48.0625 64.1018 48.2562L63.9081 48.5468L65.361 50.2903C65.4579 50.484 65.4579 50.6778 65.361 50.8715L64.7798 51.3558L66.039 52.9056C66.1359 53.0993 66.1359 53.293 66.039 53.4868L65.8453 53.6805L67.2014 55.2303C67.3951 55.424 67.3951 55.6177 67.2014 55.8114L66.9108 56.1989L68.3637 57.6518C68.4606 57.7487 68.5574 57.9424 68.4606 58.0393L68.3637 58.8142L69.6229 59.9765C69.7198 60.0734 69.8166 60.1702 69.7198 60.364L69.6229 61.3326L70.6884 62.3012C70.7853 62.3981 70.8821 62.4949 70.8821 62.6886C70.8821 62.7855 70.7853 62.8824 70.6884 62.9792L71.8507 64.0447C71.9476 64.1416 72.0445 64.3353 71.9476 64.529L71.8507 65.0133L73.3037 66.0788C73.4974 66.1757 73.4974 66.3694 73.4974 66.5631V66.66L74.1754 66.8537C74.3692 66.9506 74.5629 67.1443 74.466 67.338V67.7255L75.8221 68.2098H75.919C76.1127 68.2098 76.3064 68.2098 76.4033 68.2098L76.2095 67.8223C76.1127 68.0161 76.1127 68.0161 76.0158 68.0161Z" fill="white"/>
<path d="M72.7222 67.2413C72.6253 67.2413 72.5284 67.1444 72.4316 67.0475C72.3347 66.9507 72.3347 66.8538 72.4316 66.6601L72.5284 66.4664L71.0755 65.4009C70.8818 65.304 70.8818 65.1103 70.8818 64.9166L70.9786 64.4323L69.6226 63.173C69.5257 63.0762 69.4288 62.9793 69.5257 62.7856C69.5257 62.6887 69.6226 62.5919 69.6226 62.495L68.7508 61.7201C68.654 61.6233 68.5571 61.5264 68.5571 61.3327L68.654 60.3641L67.3947 59.2017C67.2979 59.1048 67.201 58.9111 67.2979 58.8143L67.3947 58.0394L66.0387 56.5864C65.845 56.3927 65.845 56.199 66.0387 56.0053L66.4261 55.6178L65.0701 54.068C64.8763 53.8743 64.8763 53.6806 65.0701 53.4868L65.2638 53.2931L64.0046 51.7433C63.9077 51.5496 63.9077 51.3559 64.0046 51.1622L64.4889 50.581L63.1328 48.8375C63.036 48.6437 63.036 48.45 63.1328 48.2563L63.4234 47.8688L62.3579 45.9316C62.2611 45.7379 62.2611 45.5442 62.3579 45.4473L62.5516 45.1567L61.4862 43.5101C61.3893 43.3163 61.3893 43.1226 61.4862 43.0257L61.8736 42.5414L60.905 40.9916C60.905 40.8948 60.905 40.7979 60.905 40.7011L61.0019 40.1199L60.4207 39.1513C60.3238 39.0544 60.3238 38.8607 60.4207 38.7638L60.8081 37.7952L60.227 37.1172C60.1301 37.0203 60.1301 36.8266 60.1301 36.7297L60.4207 35.7611L60.0332 34.8893C60.0332 34.7925 59.9364 34.6956 60.0332 34.5988L60.1301 34.0176C57.418 37.6983 55.8682 42.0571 55.8682 46.9002C55.8682 57.4582 63.4234 66.1758 73.4971 68.0162L73.5939 67.5318L72.7222 67.2413Z" fill="white"/>
<path d="M77.3714 25.3965C75.9185 25.3965 74.5624 25.4933 73.2064 25.7839L73.0126 25.9777C73.1095 25.9777 73.1095 26.0745 73.2064 26.1714C73.3032 26.2682 73.2064 26.462 73.1095 26.5588L72.6252 27.2369C72.722 27.2369 72.8189 27.3337 72.9158 27.4306C73.0126 27.5274 73.0126 27.6243 72.9158 27.818L72.5283 29.0772H72.6252C72.722 29.0772 72.8189 29.1741 72.9158 29.271C73.0126 29.3678 73.0126 29.4647 73.0126 29.6584L72.722 30.9176C72.8189 30.9176 72.9158 31.0145 72.9158 31.0145C73.0126 31.1113 73.1095 31.2082 73.0126 31.4019L72.9158 32.8549C73.0126 32.8549 73.2064 32.8549 73.3032 32.9517C73.4001 33.0486 73.4969 33.1454 73.4969 33.3392V35.8576L73.5938 35.7607C73.6907 35.6639 73.8844 35.7607 73.9813 35.7607C74.0781 35.8576 74.175 35.9544 74.175 36.1482L74.0781 38.4729C74.175 38.376 74.3687 38.4729 74.5624 38.4729C74.6593 38.5697 74.7561 38.6666 74.7561 38.8603V40.9913C74.853 40.9913 74.9499 40.9913 75.0467 40.9913C75.2405 41.0881 75.3373 41.185 75.3373 41.3787L75.531 43.4128C75.6279 43.316 75.8216 43.316 75.9185 43.4128C76.0154 43.5097 76.2091 43.6065 76.2091 43.7034L76.4028 45.9312C76.4997 45.9312 76.5965 45.9312 76.6934 45.9312C76.7902 46.0281 76.8871 46.125 76.8871 46.2218L77.1777 48.2559C77.2746 48.2559 77.3714 48.2559 77.4683 48.2559C77.5651 48.2559 77.7589 48.4496 77.7589 48.5465L78.4369 50.8712C78.5338 50.7743 78.6306 50.7743 78.7275 50.8712C78.9212 50.8712 79.0181 51.0649 79.0181 51.1618L79.6961 53.4865C79.793 53.4865 79.8898 53.4865 79.9867 53.4865C80.1804 53.4865 80.2773 53.6802 80.2773 53.7771L80.8585 55.7143C80.9553 55.7143 81.0522 55.7143 81.149 55.7143C81.3428 55.7143 81.4396 55.8112 81.4396 56.0049L82.1177 57.8453C82.2145 57.8453 82.2145 57.8453 82.3114 57.8453C82.5051 57.8453 82.602 57.9421 82.6988 58.1359L83.4737 60.0731C83.5706 59.9762 83.6675 59.9762 83.7643 59.9762C83.8612 59.9762 84.0549 60.0731 84.0549 60.17L84.8298 61.6229H84.9267C85.1204 61.6229 85.3141 61.7197 85.411 61.9135L85.9921 63.0758C86.089 63.0758 86.1859 62.979 86.2827 63.0758C86.3796 63.0758 86.4765 63.1727 86.5733 63.2695L87.1545 63.9476C87.2513 63.9476 87.2513 63.8507 87.3482 63.8507C87.5419 63.8507 87.6388 63.9476 87.7357 64.0444L88.22 64.7225C88.3168 64.7225 88.4137 64.7225 88.5106 64.8193L88.7043 65.0131C94.8066 61.3323 98.8748 54.552 98.8748 46.8999C98.8748 35.0827 89.2855 25.3965 77.3714 25.3965Z" fill="white"/>
<path d="M61.099 33.7266L60.9053 34.6952L61.2927 35.567C61.3896 35.6639 61.3896 35.7607 61.2927 35.8576L61.0021 36.7293L61.5833 37.4074C61.5833 37.5042 61.6802 37.5042 61.6802 37.6011V37.5042L61.8739 35.8576C61.777 35.8576 61.5833 35.8576 61.4864 35.7607C61.3896 35.6639 61.2927 35.4701 61.3896 35.3733L61.777 33.8235H61.5833C61.4864 33.8235 61.3896 33.7266 61.2927 33.6298C61.1959 33.5329 61.1959 33.3392 61.2927 33.2423L61.4864 32.6611C61.2927 32.8549 61.099 33.1454 60.9053 33.3392V33.2423C61.099 33.3392 61.1959 33.5329 61.099 33.7266Z" fill="white"/>
<path fill-rule="evenodd" clip-rule="evenodd" d="M108.504 13.6562C113.302 18.4548 116.924 24.1135 119.233 30.2852C121.149 35.4459 122.16 40.9687 122.16 46.6576C122.16 50.0829 121.798 53.448 121.073 56.7224C120.41 59.7555 119.444 62.7131 118.191 65.5349C115.883 70.7258 112.623 75.5092 108.489 79.6438C107.447 80.685 106.361 81.6658 105.244 82.6014C96.8997 89.5276 86.5028 93.3001 75.5175 93.3001C73.3445 93.3001 71.1867 93.1492 69.0741 92.8624C60.7446 91.7156 52.9432 88.3506 46.364 83.0692C45.0361 81.9978 43.7535 80.851 42.5312 79.6287C33.7188 70.8163 28.875 59.1066 28.875 46.6425C28.875 34.1783 33.7188 22.4687 42.5312 13.6562C51.3437 4.84382 63.0533 0 75.5175 0C75.9853 0 76.438 0 76.8906 0.0150907C83.681 0.211258 90.23 1.85604 96.1754 4.79855C100.687 7.01674 104.852 10.0045 108.504 13.6562ZM96.4772 9.25003L97.0657 17.8965L82.2022 23.872L82.4054 25.9854C81.6443 25.7492 80.8655 25.5531 80.0715 25.3998L79.8331 22.9214L71.1264 12.4642L54.4823 28.2631L55.9621 37.6349C54.7395 40.2299 54.0093 43.1025 53.8918 46.1324L42.667 51.8484L53.6373 71.8122L68.2291 74.1209L71.0691 68.4735C71.8299 68.643 72.6056 68.7732 73.3939 68.8616L69.6174 76.4146L71.6696 89.3465C72.9371 89.4521 74.2198 89.5125 75.5175 89.5125C86.4274 89.5125 96.4017 85.4232 103.977 78.6781L103.479 77.1691L90.4563 64.8558H88.7296C89.9719 63.9599 91.117 62.9375 92.1459 61.8075L91.7692 62.9696L103.434 73.9399L113.408 66.6968C115.188 63.3318 116.547 59.6951 117.376 55.8925L108.76 45.5711L97.7711 49.1514C97.8398 48.4435 97.875 47.7259 97.875 47C97.875 46.9051 97.8744 46.8104 97.8732 46.7159L108.398 43.2925L115.686 31.6734C112.125 22.1367 105.259 14.1844 96.4772 9.25003ZM70.9 9.55182L74.5215 3.78753C59.2054 4.1346 45.851 12.5547 38.5475 24.9434L52.3849 27.1314L70.9 9.55182ZM32.6474 46.6425C32.6474 59.8762 38.6683 71.7217 48.1295 79.5985L51.6002 72.793L38.8192 49.5397H38.8342L32.7682 43.4736C32.6927 44.5299 32.6474 45.5862 32.6474 46.6425Z" fill="white"/>
<path d="M144.334 127.824C144.334 127.508 144.117 127.191 143.684 126.874C143.25 126.541 142.584 126.124 141.684 125.624C140.8 125.124 140.092 124.699 139.559 124.349C139.025 123.983 138.559 123.574 138.159 123.124C137.775 122.658 137.584 122.158 137.584 121.624C137.584 121.024 137.867 120.383 138.434 119.699C139.017 119.016 139.725 118.441 140.559 117.974C141.392 117.508 142.159 117.274 142.859 117.274C143.709 117.274 144.7 117.374 145.834 117.574C146.984 117.758 147.817 117.966 148.334 118.199V122.374H146.759C146.309 121.541 145.767 120.891 145.134 120.424C144.517 119.958 143.875 119.724 143.209 119.724C142.875 119.724 142.609 119.824 142.409 120.024C142.209 120.208 142.109 120.433 142.109 120.699C142.109 121.049 142.325 121.391 142.759 121.724C143.209 122.058 143.917 122.499 144.884 123.049C146.167 123.749 147.15 124.383 147.834 124.949C148.534 125.516 148.884 126.166 148.884 126.899C148.884 127.516 148.584 128.166 147.984 128.849C147.4 129.516 146.675 130.083 145.809 130.549C144.959 131.016 144.175 131.249 143.459 131.249C142.542 131.249 141.45 131.158 140.184 130.974C138.934 130.774 138.042 130.558 137.509 130.324V125.999H139.084C139.584 126.883 140.2 127.574 140.934 128.074C141.667 128.558 142.392 128.799 143.109 128.799C143.475 128.799 143.767 128.708 143.984 128.524C144.217 128.324 144.334 128.091 144.334 127.824Z" fill="white"/>
<path d="M128.202 117.274C129.435 117.274 130.535 117.566 131.502 118.149C132.468 118.716 133.218 119.499 133.752 120.499C134.302 121.499 134.577 122.608 134.577 123.824C134.577 125.141 134.152 126.374 133.302 127.524C132.452 128.658 131.385 129.566 130.102 130.249C128.835 130.916 127.61 131.249 126.427 131.249C125.21 131.249 124.11 130.966 123.127 130.399C122.16 129.816 121.402 129.024 120.852 128.024C120.318 127.024 120.052 125.916 120.052 124.699C120.052 123.383 120.477 122.158 121.327 121.024C122.177 119.874 123.235 118.966 124.502 118.299C125.785 117.616 127.018 117.274 128.202 117.274ZM126.752 120.174C126.052 120.174 125.518 120.458 125.152 121.024C124.802 121.574 124.627 122.399 124.627 123.499C124.627 124.899 124.91 126.066 125.477 126.999C126.043 127.916 126.843 128.374 127.877 128.374C128.56 128.374 129.077 128.091 129.427 127.524C129.793 126.941 129.977 126.099 129.977 124.999C129.977 123.599 129.693 122.449 129.127 121.549C128.56 120.633 127.768 120.174 126.752 120.174Z" fill="white"/>
<path d="M114.036 120.825C113.436 120.825 112.836 121.091 112.236 121.625V128.375L116.036 129.375L115.236 131H105.761V129.6L107.986 127.725V122.05L105.761 120.65V119.25L110.961 117.05L111.911 119.825L114.186 117.475C114.536 117.341 114.944 117.275 115.411 117.275C116.277 117.275 117.019 117.475 117.636 117.875C118.269 118.275 118.711 118.825 118.961 119.525L116.561 122.525H114.986C114.969 121.925 114.886 121.5 114.736 121.25C114.586 120.983 114.352 120.85 114.036 120.85V120.825Z" fill="white"/>
<path d="M97.7574 117.274C99.5074 117.274 100.857 117.941 101.807 119.274C102.774 120.608 103.241 122.458 103.207 124.824H94.2074C94.3741 125.841 94.7324 126.658 95.2824 127.274C95.8324 127.874 96.5491 128.174 97.4324 128.174C98.5991 128.174 100.274 127.591 102.457 126.424L103.207 127.849L99.4074 130.874C98.4241 131.124 97.2824 131.249 95.9824 131.249C94.7658 131.249 93.6658 130.966 92.6824 130.399C91.7158 129.816 90.9574 129.024 90.4074 128.024C89.8741 127.024 89.6074 125.916 89.6074 124.699C89.6074 123.383 90.0324 122.158 90.8824 121.024C91.7324 119.874 92.7908 118.966 94.0574 118.299C95.3408 117.616 96.5741 117.274 97.7574 117.274ZM96.3824 120.174C95.6491 120.174 95.0991 120.424 94.7324 120.924C94.3658 121.408 94.1658 122.158 94.1324 123.174H98.9074C98.7741 122.141 98.5241 121.383 98.1574 120.899C97.8074 120.416 97.2074 120.174 96.3574 120.174H96.3824Z" fill="white"/>
<path d="M86.5738 130.975H77.7238V129.575L80.0738 127.6V122.15H71.5988V128.55L74.3738 129.35L73.5738 130.975H64.7238V129.575L67.0738 127.6V113.75L64.2988 112.95L65.1238 111.325H73.9738V112.725L71.5988 114.725V120.225H80.0738V113.75L77.2988 112.95L78.1238 111.325H86.9738V112.725L84.5988 114.725V128.575L87.3738 129.35L86.5738 130.975Z" fill="white"/>
<path d="M61.9914 108.925C62.5747 108.925 63.2414 109 63.9914 109.15C64.7414 109.3 65.2831 109.466 65.6164 109.65V114.125H64.0414C63.6414 113.391 63.1414 112.816 62.5414 112.4C61.9581 111.966 61.3664 111.75 60.7664 111.75C60.1497 111.75 59.6747 112.008 59.3414 112.525C59.0247 113.041 58.8664 113.791 58.8664 114.775V118.275H63.0664V119.925H58.8664V128.375L62.6664 129.375L61.8664 131H52.3914V129.6L54.6164 127.725V119.925H51.9414V118.275H54.6164V116.35C54.6164 115.033 54.9997 113.808 55.7664 112.675C56.5331 111.525 57.4914 110.616 58.6414 109.95C59.8081 109.266 60.9247 108.925 61.9914 108.925Z" fill="white"/>
<path d="M46.4332 120.825C45.8332 120.825 45.2332 121.091 44.6332 121.625V128.375L48.4332 129.375L47.6332 131H38.1582V129.6L40.3832 127.725V122.05L38.1582 120.65V119.25L43.3582 117.05L44.3082 119.825L46.5832 117.475C46.9332 117.341 47.3415 117.275 47.8082 117.275C48.6749 117.275 49.4165 117.475 50.0332 117.875C50.6665 118.275 51.1082 118.825 51.3582 119.525L48.9582 122.525H47.3832C47.3665 121.925 47.2832 121.5 47.1332 121.25C46.9832 120.983 46.7499 120.85 46.4332 120.85V120.825Z" fill="white"/>
<path d="M35.8885 131H30.1885V128.85L27.4885 131.075C27.0385 131.209 26.5301 131.275 25.9635 131.275C24.6801 131.275 23.6635 130.934 22.9135 130.25C22.1635 129.55 21.7885 128.609 21.7885 127.425V122.05L19.5635 120.775V119.375L24.4635 117.2H26.0385V125.55C26.0385 126.35 26.1551 126.909 26.3885 127.225C26.6218 127.542 27.0385 127.7 27.6385 127.7C28.5051 127.7 29.3551 127.417 30.1885 126.85V122.05L27.9635 120.775V119.375L32.8635 117.2H34.4385V128.625L36.6885 129.375L35.8885 131Z" fill="white"/>
<path d="M18.875 117.774L17.5 118.324L13.975 113.249H11.65V128.649L14.45 129.374L13.625 130.999H4.775V129.599L7.125 127.749V113.249H4.9L1.375 118.324L0 117.774V110.899L1.8 111.349H17.075L18.875 110.899V117.774Z" fill="white"/>
<path d="M52.5426 155.909C52.5426 157.827 52.1964 159.484 51.5039 160.881C50.8114 162.277 49.8615 163.355 48.6541 164.112C47.4467 164.87 46.0677 165.249 44.517 165.249C42.9664 165.249 41.5874 164.87 40.38 164.112C39.1726 163.355 38.2227 162.277 37.5302 160.881C36.8377 159.484 36.4915 157.827 36.4915 155.909C36.4915 153.991 36.8377 152.334 37.5302 150.938C38.2227 149.541 39.1726 148.464 40.38 147.706C41.5874 146.948 42.9664 146.57 44.517 146.57C46.0677 146.57 47.4467 146.948 48.6541 147.706C49.8615 148.464 50.8114 149.541 51.5039 150.938C52.1964 152.334 52.5426 153.991 52.5426 155.909ZM50.4119 155.909C50.4119 154.335 50.1486 153.006 49.6218 151.923C49.101 150.84 48.3937 150.02 47.5 149.464C46.6122 148.907 45.6179 148.629 44.517 148.629C43.4162 148.629 42.4189 148.907 41.5252 149.464C40.6374 150.02 39.9302 150.84 39.4034 151.923C38.8826 153.006 38.6222 154.335 38.6222 155.909C38.6222 157.483 38.8826 158.812 39.4034 159.895C39.9302 160.978 40.6374 161.798 41.5252 162.354C42.4189 162.911 43.4162 163.189 44.517 163.189C45.6179 163.189 46.6122 162.911 47.5 162.354C48.3937 161.798 49.101 160.978 49.6218 159.895C50.1486 158.812 50.4119 157.483 50.4119 155.909ZM59.0501 165L54.8952 151.364H57.0969L60.0444 161.804H60.1864L63.0984 151.364H65.3356L68.212 161.768H68.354L71.3015 151.364H73.5032L69.3484 165H67.2887L64.3058 154.524H64.0927L61.1097 165H59.0501ZM78.3683 156.797V165H76.2731V151.364H78.2972V153.494H78.4748C78.7944 152.802 79.2797 152.246 79.9308 151.825C80.5818 151.399 81.4222 151.186 82.4521 151.186C83.3754 151.186 84.1832 151.375 84.8757 151.754C85.5682 152.127 86.1068 152.695 86.4915 153.459C86.8762 154.216 87.0685 155.175 87.0685 156.335V165H84.9734V156.477C84.9734 155.406 84.6952 154.571 84.1388 153.974C83.5825 153.37 82.819 153.068 81.8484 153.068C81.1796 153.068 80.5818 153.213 80.055 153.503C79.5342 153.793 79.1229 154.216 78.821 154.773C78.5192 155.329 78.3683 156.004 78.3683 156.797ZM96.6144 165.284C95.3005 165.284 94.1671 164.994 93.2142 164.414C92.2673 163.828 91.5363 163.011 91.0214 161.964C90.5124 160.91 90.2579 159.685 90.2579 158.288C90.2579 156.892 90.5124 155.661 91.0214 154.595C91.5363 153.524 92.2525 152.689 93.1698 152.092C94.0931 151.488 95.1703 151.186 96.4014 151.186C97.1116 151.186 97.8129 151.304 98.5054 151.541C99.1979 151.778 99.8282 152.163 100.396 152.695C100.965 153.222 101.417 153.92 101.755 154.79C102.092 155.661 102.261 156.732 102.261 158.004V158.892H91.7494V157.081H100.13C100.13 156.312 99.9762 155.625 99.6684 155.021C99.3666 154.418 98.9345 153.941 98.3722 153.592C97.8159 153.243 97.1589 153.068 96.4014 153.068C95.5669 153.068 94.8448 153.275 94.2352 153.69C93.6315 154.098 93.1669 154.631 92.8414 155.288C92.5158 155.945 92.3531 156.649 92.3531 157.401V158.608C92.3531 159.638 92.5306 160.511 92.8857 161.227C93.2468 161.937 93.7469 162.479 94.3861 162.852C95.0253 163.219 95.7681 163.402 96.6144 163.402C97.1649 163.402 97.662 163.325 98.1059 163.171C98.5557 163.011 98.9434 162.775 99.2689 162.461C99.5944 162.141 99.846 161.745 100.024 161.271L102.048 161.839C101.835 162.526 101.477 163.13 100.973 163.651C100.47 164.165 99.8489 164.568 99.1091 164.858C98.3693 165.142 97.5377 165.284 96.6144 165.284ZM105.448 165V151.364H107.472V153.423H107.614C107.863 152.749 108.312 152.201 108.964 151.781C109.615 151.361 110.348 151.151 111.165 151.151C111.319 151.151 111.511 151.154 111.742 151.159C111.973 151.165 112.148 151.174 112.266 151.186V153.317C112.195 153.299 112.032 153.272 111.778 153.237C111.529 153.195 111.266 153.175 110.988 153.175C110.325 153.175 109.733 153.314 109.212 153.592C108.697 153.864 108.289 154.243 107.987 154.728C107.691 155.208 107.543 155.755 107.543 156.371V165H105.448Z" fill="white"/>
</svg>
