<svg width="18" height="18" viewBox="0 0 18 18" fill="none" xmlns="http://www.w3.org/2000/svg">
<path d="M15.9293 2.074H13.9638V0.799154C13.9638 0.361522 13.6212 0 13.2065 0H12.2868C11.8721 0 11.5295 0.361522 11.5295 0.799154V2.05497H6.9494V0.799154C6.9494 0.361522 6.6068 0 6.19207 0H5.27244C4.85771 0 4.5151 0.361522 4.5151 0.799154V2.05497H2.54963C1.50378 2.05497 0.674316 2.94926 0.674316 4.03383V16.0211C0.674316 17.1247 1.52181 18 2.54963 18H15.9112C16.9571 18 17.7866 17.1057 17.7866 16.0211V4.03383C17.8046 2.96829 16.9571 2.074 15.9293 2.074ZM16.7407 16.0402C16.7407 16.5159 16.3801 16.8964 15.9293 16.8964H2.54963C2.09883 16.8964 1.7382 16.5159 1.7382 16.0402V6.69767H16.7227V16.0402H16.7407Z" fill="#2254B2"/>
<path d="M3.86577 11.055H5.84927C6.11975 11.055 6.33613 10.8267 6.33613 10.5413V8.96198C6.33613 8.67657 6.11975 8.44824 5.84927 8.44824H3.86577C3.59529 8.44824 3.37891 8.67657 3.37891 8.96198V10.5413C3.36087 10.8077 3.59529 11.055 3.86577 11.055Z" fill="#2254B2"/>
<path d="M8.26567 11.055H10.2492C10.5197 11.055 10.736 10.8267 10.736 10.5413V8.96198C10.736 8.67657 10.5197 8.44824 10.2492 8.44824H8.26567C7.99519 8.44824 7.77881 8.67657 7.77881 8.96198V10.5413C7.77881 10.8077 7.99519 11.055 8.26567 11.055Z" fill="#2254B2"/>
<path d="M12.6836 11.055H14.6671C14.9376 11.055 15.154 10.8267 15.154 10.5413V8.96198C15.154 8.67657 14.9376 8.44824 14.6671 8.44824H12.6836C12.4132 8.44824 12.1968 8.67657 12.1968 8.96198V10.5413C12.1968 10.8077 12.4132 11.055 12.6836 11.055Z" fill="#2254B2"/>
<path d="M3.86577 15.2406H5.84927C6.11975 15.2406 6.33613 15.0122 6.33613 14.7268V13.1475C6.33613 12.8621 6.11975 12.6338 5.84927 12.6338H3.86577C3.59529 12.6338 3.37891 12.8621 3.37891 13.1475V14.7268C3.36087 14.9932 3.59529 15.2406 3.86577 15.2406Z" fill="#2254B2"/>
<path d="M8.26567 15.2406H10.2492C10.5197 15.2406 10.736 15.0122 10.736 14.7268V13.1475C10.736 12.8621 10.5197 12.6338 10.2492 12.6338H8.26567C7.99519 12.6338 7.77881 12.8621 7.77881 13.1475V14.7268C7.77881 14.9932 7.99519 15.2406 8.26567 15.2406Z" fill="#2254B2"/>
<path d="M13.2066 15.4881C13.2787 15.5642 13.3869 15.5642 13.4591 15.4881L15.5688 13.2619C15.6409 13.1858 15.6409 13.0716 15.5688 12.9955L14.9737 12.3676C14.9016 12.2915 14.7934 12.2915 14.7213 12.3676L13.3328 13.8327L12.6116 13.0716C12.5394 12.9955 12.4312 12.9955 12.3591 13.0716L11.7641 13.6996C11.6919 13.7757 11.6919 13.8898 11.7641 13.9659L13.2066 15.4881Z" fill="#2254B2"/>
</svg>
