<svg width="14" height="18" viewBox="0 0 14 18" fill="none" xmlns="http://www.w3.org/2000/svg">
<path fill-rule="evenodd" clip-rule="evenodd" d="M1.00002 17.502C1.00002 17.7772 1.22375 18.0003 1.50037 18.0003H12.4998C12.7762 18.0003 13.0002 17.7804 13.0002 17.502V4.49834C13.0002 4.22315 12.7765 4.00006 12.4998 4.00006H1.50037C1.22403 4.00006 1.00002 4.21997 1.00002 4.49834V17.502ZM14.0002 1.50471C14.0002 1.22597 13.7813 1.00002 13.4987 1.00002H10.6247C10.5559 1.00002 10.4572 0.957045 10.4149 0.914754L9.85553 0.355385C9.65926 0.159112 9.27231 0 9.00244 0H4.99778C4.7229 0 4.34382 0.156253 4.14469 0.355385L3.58532 0.914754C3.53823 0.961842 3.4393 1.00002 3.37549 1.00002H0.501473C0.224517 1.00002 0 1.2217 0 1.50471V2.49535C0 2.77409 0.219911 3.00005 0.498276 3.00005H13.5019C13.7771 3.00005 14.0002 2.77837 14.0002 2.49535V1.50471Z" fill="#FF5757"/>
</svg>
