<svg width="26" height="25" viewBox="0 0 26 25" fill="none" xmlns="http://www.w3.org/2000/svg">
<path d="M6.18169 1.43214C5.87294 1.71362 5.67602 2.11547 5.67602 2.56738V14.6751L8.75688 11.5943V2.56738C8.75688 2.1412 8.58235 1.75609 8.30507 1.47881C8.28802 1.46146 8.26702 1.44867 8.24915 1.43214H8.71205C8.76314 1.66192 8.95847 1.83727 9.20365 1.83727H9.92837C10.1736 1.83727 10.3689 1.66192 10.42 1.43214H10.882C10.5726 1.71362 10.3744 2.11547 10.3744 2.56738V9.97684L13.4552 6.89598V2.56738C13.4552 2.1412 13.2858 1.75609 13.0033 1.47881C12.726 1.1964 12.3409 1.02695 11.9148 1.02695C11.8539 1.02695 11.796 1.03799 11.7368 1.04492C11.7476 1.00349 11.7623 0.963435 11.7623 0.91866C11.7623 0.635118 11.5326 0.405184 11.2488 0.405184H10.42C10.3689 0.175352 10.1736 0 9.92837 0H9.20365C8.95847 0 8.76309 0.175352 8.712 0.405184H7.36962C7.28952 0.405184 7.21609 0.427109 7.14852 0.459818C7.08094 0.427109 7.00757 0.405184 6.92736 0.405184H5.58478C5.53374 0.175352 5.33831 0 5.09307 0H4.3684C4.12327 0 3.92784 0.175352 3.8768 0.405184H3.04774C2.76394 0.405184 2.53427 0.635118 2.53427 0.91866C2.53427 0.963384 2.54895 1.00338 2.55973 1.04477C2.5011 1.03799 2.44364 1.02695 2.3832 1.02695C1.53242 1.02695 0.842773 1.71665 0.842773 2.56738V24.3473C0.842773 24.6309 1.07266 24.8608 1.35625 24.8608H3.41015C3.69375 24.8608 3.92363 24.6309 3.92363 24.3473V2.56738C3.92363 2.11603 3.72604 1.71388 3.41673 1.43214H3.8768C3.92789 1.66192 4.12327 1.83727 4.3684 1.83727H5.09307C5.33831 1.83727 5.53358 1.66192 5.58478 1.43214H6.18169Z" fill="#009688"/>
<path d="M25.4521 1.06912L25.089 0.706042C24.6879 0.305017 24.0376 0.305017 23.6366 0.706042L17.8779 6.46473H17.8759C17.8242 6.46462 15.6362 6.45923 15.7759 6.45959C15.5037 6.45451 15.2367 6.56742 15.0467 6.75741C13.4864 8.31786 8.09122 13.7129 5.90674 15.8973C5.80409 16 5.72713 16.1232 5.67573 16.2516C5.58335 16.4929 5.58335 16.7548 5.67573 16.9961V24.3491C5.67573 24.6327 5.90561 24.8626 6.1892 24.8626H8.24311C8.52675 24.8626 8.75658 24.6327 8.75658 24.3491V20.1951L8.81312 20.2516C9.21363 20.6521 9.86574 20.6521 10.2662 20.2516L10.3741 20.1437V24.3491C10.3741 24.6327 10.604 24.8626 10.8876 24.8626H12.9415C13.2251 24.8626 13.4549 24.6327 13.4549 24.3491V17.0629L19.4009 11.1168C19.5961 10.9217 19.7039 10.6599 19.7039 10.3825C19.7035 10.3308 19.6875 8.14929 19.6885 8.28762V8.28495L25.452 2.52144C25.8531 2.12041 25.8531 1.4702 25.4521 1.06912Z" fill="#009688"/>
<path d="M18.3504 22.0367C20.0519 22.0367 21.4312 20.6574 21.4312 18.9559C21.4312 17.2543 20.0519 15.875 18.3504 15.875C16.6489 15.875 15.2695 17.2543 15.2695 18.9559C15.2695 20.6574 16.6489 22.0367 18.3504 22.0367Z" fill="#009688"/>
<path d="M6.18169 1.43214C5.87294 1.71362 5.67602 2.11547 5.67602 2.56738V14.6751L8.75688 11.5943V2.56738C8.75688 2.1412 8.58235 1.75609 8.30507 1.47881C8.28802 1.46146 8.26702 1.44867 8.24915 1.43214H8.71205C8.76314 1.66192 8.95847 1.83727 9.20365 1.83727H9.92837C10.1736 1.83727 10.3689 1.66192 10.42 1.43214H10.882C10.5726 1.71362 10.3744 2.11547 10.3744 2.56738V9.97684L13.4552 6.89598V2.56738C13.4552 2.1412 13.2858 1.75609 13.0033 1.47881C12.726 1.1964 12.3409 1.02695 11.9148 1.02695C11.8539 1.02695 11.796 1.03799 11.7368 1.04492C11.7476 1.00349 11.7623 0.963435 11.7623 0.91866C11.7623 0.635118 11.5326 0.405184 11.2488 0.405184H10.42C10.3689 0.175352 10.1736 0 9.92837 0H9.20365C8.95847 0 8.76309 0.175352 8.712 0.405184H7.36962C7.28952 0.405184 7.21609 0.427109 7.14852 0.459818C7.08094 0.427109 7.00757 0.405184 6.92736 0.405184H5.58478C5.53374 0.175352 5.33831 0 5.09307 0H4.3684C4.12327 0 3.92784 0.175352 3.8768 0.405184H3.04774C2.76394 0.405184 2.53427 0.635118 2.53427 0.91866C2.53427 0.963384 2.54895 1.00338 2.55973 1.04477C2.5011 1.03799 2.44364 1.02695 2.3832 1.02695C1.53242 1.02695 0.842773 1.71665 0.842773 2.56738V24.3473C0.842773 24.6309 1.07266 24.8608 1.35625 24.8608H3.41015C3.69375 24.8608 3.92363 24.6309 3.92363 24.3473V2.56738C3.92363 2.11603 3.72604 1.71388 3.41673 1.43214H3.8768C3.92789 1.66192 4.12327 1.83727 4.3684 1.83727H5.09307C5.33831 1.83727 5.53358 1.66192 5.58478 1.43214H6.18169Z" fill="#009688"/>
<path d="M25.4521 1.06912L25.089 0.706042C24.6879 0.305017 24.0376 0.305017 23.6366 0.706042L17.8779 6.46473H17.8759C17.8242 6.46462 15.6362 6.45923 15.7759 6.45959C15.5037 6.45451 15.2367 6.56742 15.0467 6.75741C13.4864 8.31786 8.09122 13.7129 5.90674 15.8973C5.80409 16 5.72713 16.1232 5.67573 16.2516C5.58335 16.4929 5.58335 16.7548 5.67573 16.9961V24.3491C5.67573 24.6327 5.90561 24.8626 6.1892 24.8626H8.24311C8.52675 24.8626 8.75658 24.6327 8.75658 24.3491V20.1951L8.81312 20.2516C9.21363 20.6521 9.86574 20.6521 10.2662 20.2516L10.3741 20.1437V24.3491C10.3741 24.6327 10.604 24.8626 10.8876 24.8626H12.9415C13.2251 24.8626 13.4549 24.6327 13.4549 24.3491V17.0629L19.4009 11.1168C19.5961 10.9217 19.7039 10.6599 19.7039 10.3825C19.7035 10.3308 19.6875 8.14929 19.6885 8.28762V8.28495L25.452 2.52144C25.8531 2.12041 25.8531 1.4702 25.4521 1.06912Z" fill="#009688"/>
<path d="M18.3504 22.0367C20.0519 22.0367 21.4312 20.6574 21.4312 18.9559C21.4312 17.2543 20.0519 15.875 18.3504 15.875C16.6489 15.875 15.2695 17.2543 15.2695 18.9559C15.2695 20.6574 16.6489 22.0367 18.3504 22.0367Z" fill="#009688"/>
</svg>
