<svg width="18" height="18" viewBox="0 0 18 18" fill="none" xmlns="http://www.w3.org/2000/svg">
<path d="M10.6861 12.4025C11.182 12.4025 11.5841 12.0004 11.5841 11.5044C11.5841 11.0085 11.182 10.6064 10.6861 10.6064C10.1901 10.6064 9.78809 11.0085 9.78809 11.5044C9.78809 12.0004 10.1901 12.4025 10.6861 12.4025Z" fill="#009688"/>
<path d="M7.29351 7.21398C7.78947 7.21398 8.19152 6.81193 8.19152 6.31597C8.19152 5.82002 7.78947 5.41797 7.29351 5.41797C6.79756 5.41797 6.39551 5.82002 6.39551 6.31597C6.39551 6.81193 6.79756 7.21398 7.29351 7.21398Z" fill="#009688"/>
<path d="M17.6508 8.23171C17.2118 7.79268 17.0521 6.99446 17.2916 6.41574C17.531 5.85698 17.2517 5.19845 16.6929 4.95898C16.1341 4.71951 15.6752 4.04102 15.6752 3.42239C15.6752 2.80377 15.1763 2.30488 14.5776 2.30488C13.959 2.30488 13.2805 1.8459 13.041 1.28714C12.8016 0.728381 12.163 0.449002 11.5843 0.68847C11.0255 0.927938 10.2073 0.768293 9.76829 0.329268C9.32927 -0.109756 8.63082 -0.109756 8.21175 0.329268C7.77273 0.768293 6.9745 0.927938 6.39579 0.68847C5.83703 0.449002 5.17849 0.728381 4.93902 1.28714C4.69956 1.8459 4.02106 2.30488 3.40244 2.30488C2.78381 2.30488 2.30488 2.80377 2.30488 3.42239C2.30488 4.04102 1.8459 4.71951 1.28714 4.95898C0.728381 5.19845 0.449002 5.83703 0.68847 6.41574C0.927938 6.9745 0.768293 7.79268 0.329268 8.23171C-0.109756 8.67073 -0.109756 9.36918 0.329268 9.78825C0.768293 10.2273 0.927938 11.0255 0.68847 11.6042C0.449002 12.163 0.728381 12.8215 1.28714 13.061C1.8459 13.3004 2.30488 13.9789 2.30488 14.5976C2.30488 15.2162 2.80377 15.6951 3.40244 15.6951C4.02106 15.6951 4.69956 16.1541 4.93902 16.7129C5.17849 17.2716 5.81707 17.551 6.39579 17.3115C6.95455 17.0721 7.77273 17.2317 8.21175 17.6707C8.65077 18.1098 9.34922 18.1098 9.76829 17.6707C10.2073 17.2317 11.0055 17.0721 11.5843 17.3115C12.143 17.551 12.8016 17.2716 13.041 16.7129C13.2805 16.1541 13.959 15.6951 14.5776 15.6951C15.1962 15.6951 15.6752 15.1962 15.6752 14.5976C15.6752 13.9989 16.1341 13.3004 16.6929 13.061C17.2517 12.8215 17.531 12.1829 17.2916 11.6042C17.0521 11.0455 17.2118 10.2273 17.6508 9.78825C18.0698 9.36918 18.0698 8.65078 17.6508 8.23171ZM5.59756 6.31596C5.59756 5.37805 6.35588 4.61973 7.29379 4.61973C8.23171 4.61973 8.99002 5.37805 8.99002 6.31596C8.99002 7.25388 8.23171 8.01219 7.29379 8.01219C6.35588 8.01219 5.59756 7.25388 5.59756 6.31596ZM6.81486 12.4423C6.73503 12.5421 6.6153 12.602 6.49556 12.602C6.41574 12.602 6.33592 12.582 6.2561 12.5222C6.0765 12.3825 6.05654 12.143 6.17627 11.9634L11.3448 5.17849C11.4845 4.99889 11.7239 4.97894 11.9035 5.09867C12.0831 5.23836 12.1031 5.47783 11.9834 5.65743L6.81486 12.4423ZM10.6863 13.2007C9.74834 13.2007 8.99002 12.4423 8.99002 11.5044C8.99002 10.5665 9.74834 9.8082 10.6863 9.8082C11.6242 9.8082 12.3825 10.5665 12.3825 11.5044C12.3825 12.4423 11.6242 13.2007 10.6863 13.2007Z" fill="#009688"/>
</svg>
