<svg width="15" height="18" viewBox="0 0 15 18" fill="none" xmlns="http://www.w3.org/2000/svg">
<path d="M7.29277 3.94523C7.39323 3.94523 7.49274 3.98341 7.56928 4.05976L10.7449 7.2275C10.898 7.38021 10.898 7.6274 10.7449 7.77915C10.6684 7.8555 10.5689 7.89368 10.4684 7.89368C10.368 7.89368 10.2685 7.8555 10.1919 7.77915L7.01625 4.61141C6.86316 4.4587 6.86316 4.21151 7.01625 4.05976C7.0928 3.98341 7.19326 3.94523 7.29277 3.94523ZM9.17289 0.279297C8.83705 0.279297 8.50216 0.407189 8.24573 0.662969C8.24478 0.662969 0.110988 8.77742 0.110988 8.77742C0.0420979 8.84805 0 8.94349 0 9.04944L0.00287041 14.3951C0.00478413 14.4925 0.0430555 14.5889 0.117687 14.6633C0.188489 14.734 0.279387 14.7712 0.37125 14.7769L5.74281 14.7779C5.83084 14.7779 5.91408 14.7521 5.9801 14.7025L14.1501 6.55283C14.663 6.04223 14.663 5.21473 14.1511 4.70318H14.1501L10.1 0.663178H10.0991C10.0991 0.663178 10.0991 0.662224 10.0981 0.662224C9.84263 0.407387 9.50775 0.279297 9.17289 0.279297ZM0.820877 16.9404C0.60464 16.9404 0.429534 17.1151 0.429534 17.3308C0.429534 17.5465 0.604628 17.7212 0.820877 17.7212H10.8931C11.1084 17.7212 11.2835 17.5465 11.2835 17.3308C11.2835 17.1151 11.1084 16.9404 10.8931 16.9404H0.820877Z" fill="#2254B2"/>
</svg>
