<svg width="13" height="13" viewBox="0 0 13 13" fill="none" xmlns="http://www.w3.org/2000/svg">
<path d="M10.6031 8.23204C10.5528 8.28926 10.5152 8.35651 10.4928 8.42935C10.4704 8.50218 10.4637 8.57894 10.4731 8.65455L10.8585 11.9046C10.8789 12.0768 10.8526 12.2513 10.7823 12.4098C10.7121 12.5683 10.6005 12.7049 10.4592 12.8054C10.2957 12.9195 10.1014 12.9811 9.90202 12.9818C9.75509 12.9817 9.61028 12.9467 9.47951 12.8797L6.73551 11.5239C6.66259 11.4908 6.58343 11.4737 6.50336 11.4737C6.42328 11.4737 6.34413 11.4908 6.27121 11.5239L3.51792 12.8982C3.3633 12.9761 3.19038 13.0104 3.01775 12.9973C2.84513 12.9842 2.67934 12.9243 2.53824 12.824C2.39697 12.7235 2.28534 12.5868 2.21509 12.4283C2.14483 12.2699 2.11853 12.0954 2.13895 11.9232L2.52432 8.67313C2.53377 8.59751 2.52707 8.52075 2.50466 8.44792C2.48225 8.37508 2.44464 8.30783 2.39431 8.25061L0.244608 5.81305C0.131894 5.68651 0.0544591 5.53254 0.0200815 5.36661C-0.0142961 5.20067 -0.00440631 5.02861 0.0487576 4.86771C0.101921 4.7068 0.196488 4.56272 0.322958 4.44993C0.449429 4.33714 0.603351 4.25962 0.769266 4.22514L3.80114 3.61227C3.88055 3.59827 3.95571 3.56632 4.02089 3.51884C4.08607 3.47136 4.13954 3.40962 4.17722 3.33833L5.65369 0.515396C5.73568 0.359857 5.85858 0.229653 6.00913 0.138827C6.15968 0.0480014 6.33217 0 6.508 0C6.68383 0 6.85632 0.0480014 7.00687 0.138827C7.15742 0.229653 7.28032 0.359857 7.36231 0.515396L8.82021 3.33833C8.85694 3.40854 8.90897 3.4696 8.97246 3.51701C9.03594 3.56442 9.10926 3.59697 9.187 3.61227L12.2142 4.22514C12.3805 4.25898 12.535 4.33604 12.662 4.44856C12.7891 4.56109 12.8842 4.7051 12.9379 4.8661C12.9915 5.0271 13.0018 5.1994 12.9677 5.36564C12.9336 5.53188 12.8563 5.6862 12.7435 5.81305L10.6031 8.23204Z" fill="#D9D9D9"/>
</svg>
