<svg width="113" height="128" viewBox="0 0 113 128" fill="none" xmlns="http://www.w3.org/2000/svg">
<path d="M17.1526 39.2983C16.8049 40.0885 16.4217 40.9418 16.0859 41.7754C15.7501 42.609 15.4024 43.4663 15.0982 44.3196C14.474 45.9832 13.9736 47.6906 13.6009 49.4279L13.4863 50.06L13.4468 50.297C13.4468 50.3642 13.4468 50.4511 13.4231 50.5301C13.4081 50.9148 13.416 51.3 13.4468 51.6837C13.5219 52.5173 13.6562 53.4102 13.8419 54.303C14.1738 56.0927 14.5965 57.9377 15.0271 59.755L13.0004 60.5451C12.0556 58.8229 11.2511 57.0274 10.5944 55.1761C10.2485 54.2126 9.96866 53.2266 9.75688 52.225C9.63823 51.6708 9.56425 51.108 9.53564 50.542C9.53564 50.3839 9.53564 50.2338 9.53564 50.0639C9.53564 49.8941 9.53564 49.7044 9.5633 49.5938L9.64231 48.8037C9.76036 47.7861 9.94112 46.7767 10.1836 45.7814C10.4048 44.7937 10.6892 43.8337 10.9737 42.8855C11.2581 41.9374 11.6137 41.005 11.989 40.0885C12.1747 39.6302 12.3841 39.1758 12.5658 38.7215C12.7476 38.2672 12.9609 37.8326 13.2137 37.3467L17.1526 39.2983Z" fill="#E4897B"/>
<path d="M14.9206 59.2217L16.4614 60.7269L13.0994 62.3072C13.0994 62.3072 12.2855 60.881 12.8505 59.593L14.9206 59.2217Z" fill="#E4897B"/>
<path d="M17.7061 62.9666L14.8655 64.1281L13.1035 62.291L16.4616 60.7266L17.7061 62.9666Z" fill="#E4897B"/>
<path opacity="0.4" d="M75.2477 61.3471C69.6578 60.7194 64.3795 58.4486 60.0801 54.8216C55.7806 51.1946 52.6531 46.3742 51.0928 40.97C49.5325 35.5658 49.6095 29.8202 51.3141 24.4598C53.0187 19.0993 56.2743 14.3645 60.6695 10.8541C65.0646 7.34361 70.4018 5.21505 76.0065 4.73749C81.6112 4.25992 87.2316 5.45479 92.1573 8.17103C97.083 10.8873 101.093 15.0029 103.68 19.9977C106.267 24.9925 107.315 30.6422 106.691 36.2325C106.277 39.9467 105.135 43.5429 103.33 46.8155C101.526 50.0881 99.0937 52.973 96.1735 55.3054C93.2534 57.6377 89.9023 59.3718 86.3118 60.4084C82.7212 61.4451 78.9616 61.764 75.2477 61.3471Z" fill="#FAFAFA"/>
<path opacity="0.4" d="M95.9414 10.6676L52.6814 45.2321C52.4997 44.8371 52.3219 44.442 52.156 44.0469C51.0714 41.4672 50.3777 38.7403 50.0977 35.9559L87.4632 6.10059C90.531 7.12388 93.3991 8.66888 95.9414 10.6676Z" fill="#FAFAFA"/>
<path opacity="0.4" d="M105.925 25.8108L65.2526 58.3052C61.3887 56.291 58.0403 53.4144 55.4668 49.8981L99.8765 14.4131C102.739 17.6988 104.808 21.5984 105.925 25.8108Z" fill="#FAFAFA"/>
<path d="M46.3997 22.208L46.0244 22.0816C46.6744 20.1635 47.4914 18.3062 48.4659 16.5309L48.8096 16.7205C47.848 18.4759 47.0416 20.3121 46.3997 22.208ZM51.1959 12.9871L50.8759 12.754C54.1226 8.36394 58.3718 4.81369 63.2692 2.39925L63.4469 2.75481C58.6052 5.14433 54.4047 8.65664 51.1959 12.9989V12.9871ZM94.4914 3.29606C93.2004 2.6036 91.8648 1.99781 90.4933 1.48269L90.6356 1.11133C92.0205 1.63853 93.3692 2.25617 94.6732 2.96025L94.4914 3.29606Z" fill="#2254B2"/>
<path opacity="0.3" d="M46.3997 22.208L46.0244 22.0816C46.6744 20.1635 47.4914 18.3062 48.4659 16.5309L48.8096 16.7205C47.848 18.4759 47.0416 20.3121 46.3997 22.208ZM51.1959 12.9871L50.8759 12.754C54.1226 8.36394 58.3718 4.81369 63.2692 2.39925L63.4469 2.75481C58.6052 5.14433 54.4047 8.65664 51.1959 12.9989V12.9871ZM94.4914 3.29606C93.2004 2.6036 91.8648 1.99781 90.4933 1.48269L90.6356 1.11133C92.0205 1.63853 93.3692 2.25617 94.6732 2.96025L94.4914 3.29606Z" fill="black"/>
<path d="M107.825 18.5494C104.167 10.9622 97.7295 5.07373 89.8471 2.10468C81.9647 -0.864376 73.242 -0.686295 65.4873 2.60201C57.7327 5.89031 51.5408 12.0366 48.1953 19.7668C44.8498 27.4969 44.6073 36.218 47.5181 44.1222C44.879 45.0466 42.2715 46.0382 39.6799 47.0615C35.9425 48.5443 32.2394 50.093 28.5706 51.7075C24.9043 53.3312 21.2539 54.9866 17.639 56.717C15.8256 57.5664 14.036 58.4632 12.2305 59.3323C11.2913 59.7359 10.4403 60.3198 9.72578 61.0509C9.33913 61.4557 8.9986 61.9022 8.71046 62.3822C8.35889 62.95 8.09266 63.5663 7.92032 64.2114C7.62305 65.374 7.7516 66.6046 8.28274 67.6806C8.81387 68.7566 9.71252 69.6071 10.8162 70.0782C11.429 70.3352 12.0757 70.5029 12.7362 70.576C13.2941 70.6392 13.8574 70.6392 14.4152 70.576C15.4291 70.4529 16.4089 70.1321 17.2992 69.6317C19.0889 68.727 20.8904 67.8539 22.6682 66.9255C26.2239 65.1122 29.7795 63.2198 33.2916 61.2997C36.8038 59.3797 40.3199 57.3688 43.7491 55.3066C46.1195 53.8725 48.5136 52.4068 50.8603 50.8739C55.3666 57.9877 62.437 63.0952 70.6064 65.1381C78.7759 67.1809 87.4182 66.0025 94.7424 61.8469C102.067 57.6914 107.511 50.8773 109.949 42.8167C112.386 34.756 111.628 26.0668 107.833 18.5494H107.825ZM89.8655 56.2903C85.2742 58.5565 80.1141 59.4105 75.0376 58.7442C69.9611 58.0779 65.1961 55.9212 61.3452 52.547C57.4943 49.1727 54.7304 44.7323 53.403 39.7873C52.0756 34.8423 52.2442 29.6148 53.8877 24.7656C55.5311 19.9165 58.5756 15.6635 62.636 12.5445C66.6964 9.42555 71.5905 7.5806 76.6994 7.24296C81.8083 6.90532 86.9027 8.09016 91.3382 10.6477C95.7738 13.2052 99.3514 17.0205 101.619 21.6112C103.124 24.6599 104.015 27.9754 104.239 31.3682C104.463 34.7611 104.017 38.1649 102.926 41.3853C101.834 44.6057 100.119 47.5795 97.8781 50.1369C95.6373 52.6943 92.9145 54.7853 89.8655 56.2903Z" fill="#2254B2"/>
<path opacity="0.3" d="M107.825 18.5494C104.167 10.9622 97.7295 5.07373 89.8471 2.10468C81.9647 -0.864376 73.242 -0.686295 65.4873 2.60201C57.7327 5.89031 51.5408 12.0366 48.1953 19.7668C44.8498 27.4969 44.6073 36.218 47.5181 44.1222C44.879 45.0466 42.2715 46.0382 39.6799 47.0615C35.9425 48.5443 32.2394 50.093 28.5706 51.7075C24.9043 53.3312 21.2539 54.9866 17.639 56.717C15.8256 57.5664 14.036 58.4632 12.2305 59.3323C11.2913 59.7359 10.4403 60.3198 9.72578 61.0509C9.33913 61.4557 8.9986 61.9022 8.71046 62.3822C8.35889 62.95 8.09266 63.5663 7.92032 64.2114C7.62305 65.374 7.7516 66.6046 8.28274 67.6806C8.81387 68.7566 9.71252 69.6071 10.8162 70.0782C11.429 70.3352 12.0757 70.5029 12.7362 70.576C13.2941 70.6392 13.8574 70.6392 14.4152 70.576C15.4291 70.4529 16.4089 70.1321 17.2992 69.6317C19.0889 68.727 20.8904 67.8539 22.6682 66.9255C26.2239 65.1122 29.7795 63.2198 33.2916 61.2997C36.8038 59.3797 40.3199 57.3688 43.7491 55.3066C46.1195 53.8725 48.5136 52.4068 50.8603 50.8739C55.3666 57.9877 62.437 63.0952 70.6064 65.1381C78.7759 67.1809 87.4182 66.0025 94.7424 61.8469C102.067 57.6914 107.511 50.8773 109.949 42.8167C112.386 34.756 111.628 26.0668 107.833 18.5494H107.825ZM89.8655 56.2903C85.2742 58.5565 80.1141 59.4105 75.0376 58.7442C69.9611 58.0779 65.1961 55.9212 61.3452 52.547C57.4943 49.1727 54.7304 44.7323 53.403 39.7873C52.0756 34.8423 52.2442 29.6148 53.8877 24.7656C55.5311 19.9165 58.5756 15.6635 62.636 12.5445C66.6964 9.42555 71.5905 7.5806 76.6994 7.24296C81.8083 6.90532 86.9027 8.09016 91.3382 10.6477C95.7738 13.2052 99.3514 17.0205 101.619 21.6112C103.124 24.6599 104.015 27.9754 104.239 31.3682C104.463 34.7611 104.017 38.1649 102.926 41.3853C101.834 44.6057 100.119 47.5795 97.8781 50.1369C95.6373 52.6943 92.9145 54.7853 89.8655 56.2903Z" fill="black"/>
<path d="M28.0728 25.1903C28.0728 25.4234 28.1952 25.613 28.3493 25.613C28.5034 25.613 28.6258 25.4234 28.6258 25.1903C28.6258 24.9572 28.5034 24.7676 28.3493 24.7676C28.1952 24.7676 28.0728 24.973 28.0728 25.1903Z" fill="#263238"/>
<path d="M28.1831 25.6133C28.4627 26.3288 28.8389 27.0027 29.3012 27.6163C29.1413 27.7306 28.9584 27.8086 28.7653 27.8448C28.5722 27.8809 28.3735 27.8744 28.1831 27.8257V25.6133Z" fill="#DE5753"/>
<path d="M27.2546 23.8905C27.2325 23.8905 27.2108 23.8855 27.191 23.8759C27.1711 23.8664 27.1537 23.8524 27.14 23.8352C27.1194 23.805 27.1112 23.7681 27.1171 23.7321C27.123 23.696 27.1425 23.6636 27.1716 23.6416C27.3456 23.5096 27.5489 23.4217 27.7642 23.3852C27.9795 23.3488 28.2004 23.3649 28.4082 23.4322C28.4268 23.4373 28.4442 23.4462 28.4592 23.4584C28.4742 23.4707 28.4864 23.4859 28.4952 23.5031C28.5039 23.5204 28.5089 23.5393 28.5099 23.5586C28.5109 23.5779 28.5078 23.5972 28.5009 23.6153C28.4939 23.6333 28.4833 23.6497 28.4696 23.6634C28.456 23.677 28.4396 23.6877 28.4215 23.6947C28.4035 23.7016 28.3842 23.7047 28.3649 23.7037C28.3455 23.7027 28.3267 23.6977 28.3094 23.689C28.1444 23.6384 27.9696 23.6281 27.7998 23.6591C27.63 23.69 27.4701 23.7612 27.3336 23.8668C27.3102 23.8823 27.2827 23.8906 27.2546 23.8905Z" fill="#263238"/>
<path d="M20.0923 26.9482C20.4874 29.0698 20.922 32.9612 19.4365 34.3795C19.4365 34.3795 20.0173 36.5326 23.964 36.5326C28.3098 36.5326 26.0342 34.3795 26.0342 34.3795C23.6638 33.8106 23.7309 32.0565 24.1418 30.4051L20.0923 26.9482Z" fill="#E4897B"/>
<path d="M17.6623 35.4982C18.1324 34.7673 17.3423 32.9935 17.3423 32.9935C17.3423 32.9935 24.3271 31.2354 27.1834 33.9337C27.776 34.4908 27.1202 35.3125 27.1202 35.3125L17.6623 35.4982Z" fill="#2254B2"/>
<path opacity="0.1" d="M17.6623 35.4982C18.1324 34.7673 17.3423 32.9935 17.3423 32.9935C17.3423 32.9935 24.3271 31.2354 27.1834 33.9337C27.776 34.4908 27.1202 35.3125 27.1202 35.3125L17.6623 35.4982Z" fill="black"/>
<path d="M6.10669 116.104C5.73928 116.104 5.15063 115.491 4.9768 115.262C4.96932 115.251 4.96533 115.238 4.96533 115.224C4.96533 115.211 4.96932 115.198 4.9768 115.187C4.98317 115.176 4.99241 115.167 5.00353 115.161C5.01465 115.154 5.02725 115.151 5.04001 115.151C5.08346 115.151 6.05138 115.238 6.31608 115.582C6.34486 115.618 6.36542 115.66 6.37633 115.705C6.38725 115.75 6.38825 115.797 6.37929 115.843C6.37585 115.902 6.35424 115.958 6.31745 116.004C6.28065 116.05 6.23047 116.083 6.17386 116.1L6.10669 116.104ZM5.19014 115.313C5.47854 115.645 5.94077 116.021 6.1383 115.973C6.1383 115.973 6.21731 115.953 6.24102 115.827C6.24621 115.801 6.24536 115.773 6.23851 115.747C6.23167 115.721 6.21902 115.697 6.20151 115.677C5.90884 115.455 5.5567 115.326 5.19014 115.305V115.313Z" fill="#2254B2"/>
<path d="M5.23364 115.305C5.16271 115.313 5.09123 115.313 5.0203 115.305C5.00782 115.304 4.99589 115.3 4.98605 115.292C4.9762 115.284 4.96887 115.274 4.96499 115.262C4.95944 115.251 4.95654 115.239 4.95654 115.226C4.95654 115.214 4.95944 115.202 4.96499 115.191C4.99265 115.167 5.5734 114.563 6.01193 114.563C6.0644 114.561 6.11653 114.571 6.16488 114.592C6.21323 114.612 6.2567 114.643 6.29243 114.681C6.33176 114.714 6.35867 114.759 6.36873 114.81C6.37879 114.86 6.37138 114.912 6.34773 114.958C6.23316 115.179 5.62871 115.305 5.23364 115.305ZM5.18228 115.167C5.57735 115.167 6.1502 115.045 6.24502 114.871C6.24502 114.871 6.27267 114.819 6.20946 114.756C6.18647 114.731 6.15829 114.712 6.1269 114.699C6.0955 114.686 6.06166 114.68 6.02773 114.681C5.70387 114.755 5.40952 114.925 5.18228 115.167Z" fill="#2254B2"/>
<path d="M32.1776 125.072C31.8781 125.07 31.5794 125.042 31.2847 124.989C31.2701 124.986 31.2569 124.978 31.2475 124.967C31.2381 124.955 31.2331 124.941 31.2333 124.926C31.2311 124.912 31.2329 124.898 31.2386 124.885C31.2442 124.873 31.2533 124.862 31.2649 124.855C31.3084 124.831 32.3198 124.25 32.8057 124.384C32.8508 124.395 32.8933 124.414 32.9306 124.441C32.968 124.468 32.9994 124.503 33.023 124.542C33.0539 124.586 33.0706 124.639 33.0706 124.693C33.0706 124.746 33.0539 124.799 33.023 124.843C32.9084 125.02 32.5489 125.072 32.1776 125.072ZM31.5099 124.886C32.0472 124.965 32.782 124.961 32.9163 124.772C32.9361 124.748 32.9519 124.704 32.9163 124.621C32.8861 124.572 32.8379 124.537 32.782 124.523C32.4739 124.444 31.8615 124.704 31.5099 124.886Z" fill="#2254B2"/>
<path d="M31.3001 124.993C31.2872 124.996 31.2736 124.996 31.2606 124.993C31.2497 124.986 31.2412 124.975 31.2362 124.963C31.2313 124.951 31.2301 124.938 31.233 124.925C31.2598 124.514 31.4176 124.122 31.6834 123.807C31.7371 123.761 31.8002 123.727 31.8684 123.707C31.9366 123.687 32.0082 123.682 32.0784 123.693C32.2681 123.693 32.3234 123.807 32.3352 123.882C32.3866 124.21 31.6952 124.839 31.3436 124.997L31.3001 124.993ZM32.0073 123.807C31.9204 123.807 31.8362 123.838 31.7703 123.894C31.5469 124.144 31.4085 124.458 31.3752 124.791C31.7308 124.574 32.2049 124.084 32.1654 123.886C32.1654 123.886 32.1654 123.819 32.031 123.807H32.0073Z" fill="#2254B2"/>
<path d="M28.1079 124.921H31.0117L31.3001 118.201H28.3963L28.1079 124.921Z" fill="#E4897B"/>
<path d="M2.25098 113.386L4.6767 114.974L10.0338 110.451L7.60416 108.858L2.25098 113.386Z" fill="#E4897B"/>
<path d="M5.07561 114.823L2.55507 112.757C2.51054 112.72 2.45469 112.7 2.39704 112.7C2.3394 112.7 2.28355 112.72 2.23902 112.757L0.160955 114.388C0.110751 114.428 0.0702069 114.479 0.0423395 114.537C0.0144722 114.595 0 114.658 0 114.722C0 114.786 0.0144722 114.85 0.0423395 114.908C0.0702069 114.965 0.110751 115.016 0.160955 115.056C1.05381 115.763 1.52394 116.064 2.63409 116.972C3.31755 117.529 5.0045 119.236 5.95661 120.006C6.90873 120.777 7.78183 119.947 7.46577 119.548C6.04748 117.75 5.49043 116.214 5.32845 115.262C5.30046 115.089 5.21054 114.933 5.07561 114.823Z" fill="#263238"/>
<path d="M30.9921 124.586H27.8315C27.7739 124.586 27.718 124.606 27.6729 124.642C27.6277 124.677 27.596 124.727 27.5827 124.783L27.0098 127.363C26.9954 127.426 26.9954 127.491 27.0099 127.553C27.0243 127.616 27.0528 127.674 27.0931 127.724C27.1335 127.774 27.1847 127.814 27.2428 127.841C27.3009 127.868 27.3644 127.882 27.4286 127.881C28.5703 127.861 30.2217 127.794 31.6598 127.794C33.3388 127.794 34.7927 127.885 36.7601 127.885C37.9453 127.885 38.2851 126.68 37.7833 126.573C35.5156 126.075 33.6588 126.024 31.6993 124.811C31.489 124.672 31.2442 124.594 30.9921 124.586Z" fill="#263238"/>
<path d="M13.7158 35.2453C11.1992 36.4305 9.76514 44.3714 9.76514 44.3714L15.9164 46.8247C16.8167 44.6262 17.5446 42.3609 18.0932 40.0493C18.9386 36.391 16.2917 34.0206 13.7158 35.2453Z" fill="#263238"/>
<path d="M16.979 39.7216C15.458 41.2624 14.7627 44.2807 14.4585 46.2442L15.9321 46.8329C16.8069 44.6967 17.52 42.4979 18.0655 40.255C17.9351 39.4174 17.6111 39.0816 16.979 39.7216Z" fill="#203048"/>
<path d="M30.4983 35.1899C30.4983 35.1899 33.5877 38.6823 30.6721 60.2767H15.1499C15.0432 57.9063 16.5405 46.2716 14.2412 35.0437C15.9566 34.7111 17.6921 34.492 19.4364 34.3879C21.6336 34.2574 23.8367 34.2574 26.034 34.3879C27.5406 34.5395 29.0331 34.8076 30.4983 35.1899Z" fill="#263238"/>
<path d="M31.9167 43.5732L29.3014 39.0654C28.7965 41.1686 28.5904 43.3325 28.689 45.4932C28.7601 47.0419 30.1784 52.7783 31.4545 53.6158C31.7931 50.2793 31.9474 46.9267 31.9167 43.5732Z" fill="#203048"/>
<path d="M32.28 38.2754C32.675 40.1954 33.0701 42.1629 33.4928 44.0908C33.9156 46.0187 34.3541 47.9546 34.8637 49.8232C34.9941 50.2855 35.1166 50.7596 35.2588 51.202L35.3655 51.5418L35.4168 51.7117V51.6919C35.3892 51.6564 35.3576 51.6524 35.3813 51.6919C35.5436 51.8693 35.7512 51.999 35.9818 52.0672C36.3552 52.2062 36.7398 52.3133 37.1314 52.3872C38.9993 52.6833 40.8904 52.8063 42.7809 52.7547L43.1562 54.9038C42.6268 55.0737 42.133 55.1962 41.6115 55.3187C41.09 55.4411 40.5764 55.5438 40.051 55.6229C38.9639 55.8038 37.8616 55.8779 36.7601 55.8441C36.1478 55.8276 35.5388 55.7482 34.9427 55.607C34.1849 55.4413 33.4727 55.1108 32.8568 54.6391C32.4545 54.3143 32.1225 53.9111 31.881 53.4539C31.8177 53.3354 31.7624 53.2011 31.7111 53.0865L31.64 52.9008L31.4938 52.5058C31.2923 52.004 31.1264 51.5102 30.9446 51.0164C30.277 49.041 29.7199 47.0459 29.23 45.0548C28.7402 43.0636 28.3174 41.0764 27.9658 39.0339L32.28 38.2754Z" fill="#E4897B"/>
<path d="M26.6229 37.3072C25.8051 39.9581 29.1198 47.8634 29.1198 47.8634L35.7214 46.2042C35.7214 46.2042 35.4685 42.0954 33.9633 38.8361C31.6956 33.9215 27.6027 34.1269 26.6229 37.3072Z" fill="#263238"/>
<path d="M42.7253 52.7548L46.0123 52.6719L44.432 56.0932C44.432 56.0932 43.0928 56.2709 41.9945 54.4655L40.8369 53.0827L42.1683 52.818C42.3516 52.7795 42.5381 52.7583 42.7253 52.7548Z" fill="#E4897B"/>
<path d="M48.0865 53.3079L46.206 56.1445L44.4321 56.0932L46.0124 52.6719L48.0865 53.3079Z" fill="#E4897B"/>
<path d="M31.3005 118.201L31.1503 121.666H28.2466L28.3967 118.201H31.3005Z" fill="#CE6F64"/>
<path d="M7.60382 108.858L10.0335 110.451L7.26801 112.781L4.84229 111.193L7.60382 108.858Z" fill="#CE6F64"/>
<path d="M20.2737 24.6888C20.4475 27.561 20.4041 29.2558 21.854 30.7294C24.0348 32.9536 27.5864 31.6381 28.2738 28.7541C28.8941 26.1703 28.5069 21.9036 25.6941 20.7579C25.0734 20.5074 24.3993 20.4186 23.7349 20.5C23.0706 20.5814 22.4378 20.8303 21.896 21.2232C21.3541 21.6162 20.921 22.1403 20.6373 22.7465C20.3535 23.3527 20.2284 24.021 20.2737 24.6888Z" fill="#E4897B"/>
<path d="M16.8923 24.1834C17.6074 26.8027 19.2904 29.8211 21.4672 30.0146C24.1695 30.2517 25.3903 27.4585 25.7458 24.5745C27.3656 23.4644 26.5162 22.2436 28.1399 22.0896C30.2259 21.892 29.5582 18.0757 26.8125 17.4633C26.8125 17.4633 27.733 19.1819 25.8011 18.3127C23.9639 17.4396 21.9227 17.0857 19.8988 17.2895C19.8988 17.2895 22.364 18.5221 19.9541 19.0712C17.5442 19.6204 16.8252 21.1058 17.9353 22.0026C17.9353 22.0066 16.4222 22.4609 16.8923 24.1834Z" fill="#263238"/>
<path d="M24.0982 25.1662C24.1513 25.8801 24.4388 26.5565 24.916 27.0902C25.5481 27.7894 26.2079 27.3549 26.3185 26.5055C26.4212 25.743 26.2118 24.459 25.4375 24.0718C24.6632 23.6847 24.0468 24.3049 24.0982 25.1662Z" fill="#E4897B"/>
<path d="M25.1646 60.2764C25.1646 60.2764 27.9933 80.7607 25.7651 88.9702C22.2332 101.968 8.72973 112.939 8.72973 112.939L4.15088 109.937C4.15088 109.937 15.6513 100.672 17.0578 89.788C18.322 80.018 15.1496 68.2015 15.1496 60.2725L25.1646 60.2764Z" fill="#2254B2"/>
<path opacity="0.1" d="M25.1646 60.2764C25.1646 60.2764 27.9933 80.7607 25.7651 88.9702C22.2332 101.968 8.72973 112.939 8.72973 112.939L4.15088 109.937C4.15088 109.937 15.6513 100.672 17.0578 89.788C18.322 80.018 15.1496 68.2015 15.1496 60.2725L25.1646 60.2764Z" fill="black"/>
<path d="M26.334 71.9866C25.581 71.1239 24.7519 70.3306 23.8569 69.6162C24.3389 76.2652 24.734 86.1143 24.2955 93.1109C24.8851 91.7696 25.3763 90.3872 25.7651 88.9746C26.8516 84.9646 26.737 78.0391 26.334 71.9866Z" fill="#2254B2"/>
<path opacity="0.3" d="M26.334 71.9866C25.581 71.1239 24.7519 70.3306 23.8569 69.6162C24.3389 76.2652 24.734 86.1143 24.2955 93.1109C24.8851 91.7696 25.3763 90.3872 25.7651 88.9746C26.8516 84.9646 26.737 78.0391 26.334 71.9866Z" fill="black"/>
<path d="M10.5747 111.916C10.5945 111.916 8.80089 113.101 8.80089 113.101L3.79932 109.822L5.37959 108.515L10.5747 111.916Z" fill="#2254B2"/>
<path opacity="0.3" d="M10.5747 111.916C10.5945 111.916 8.80089 113.101 8.80089 113.101L3.79932 109.822L5.37959 108.515L10.5747 111.916Z" fill="black"/>
<path d="M30.6724 60.2764C30.6724 60.2764 35.0419 78.8051 35.35 87.6586C35.6977 97.5827 32.2329 120.994 32.2329 120.994H27.3143C27.3143 120.994 26.7099 97.401 26.4926 88.3618C26.2516 78.5048 20.4678 60.2764 20.4678 60.2764H30.6724Z" fill="#2254B2"/>
<path opacity="0.1" d="M30.6724 60.2764C30.6724 60.2764 35.0419 78.8051 35.35 87.6586C35.6977 97.5827 32.2329 120.994 32.2329 120.994H27.3143C27.3143 120.994 26.7099 97.401 26.4926 88.3618C26.2516 78.5048 20.4678 60.2764 20.4678 60.2764H30.6724Z" fill="black"/>
<path d="M33.1767 119.039C33.2004 119.039 32.9002 121.078 32.9002 121.078H26.9188L26.7568 119.256L33.1767 119.039Z" fill="#2254B2"/>
<path opacity="0.3" d="M33.1767 119.039C33.2004 119.039 32.9002 121.078 32.9002 121.078H26.9188L26.7568 119.256L33.1767 119.039Z" fill="black"/>
<path d="M106.296 42.4707C106.632 42.7868 106.897 43.0554 107.173 43.3557C107.45 43.6559 107.711 43.9483 107.963 44.2525C108.477 44.8569 108.959 45.493 109.425 46.133C110.356 47.4168 111.185 48.7722 111.902 50.1864L112.048 50.4748C112.12 50.6144 112.179 50.7598 112.226 50.9094C112.322 51.1984 112.38 51.4985 112.4 51.8022C112.426 52.3379 112.352 52.8737 112.183 53.3825C111.894 54.2277 111.465 55.0183 110.915 55.7213C109.922 56.9962 108.751 58.1218 107.438 59.0636L106.454 57.9337C106.916 57.3924 107.398 56.8117 107.829 56.2309C108.267 55.6682 108.663 55.074 109.014 54.4531C109.342 53.9114 109.585 53.3224 109.733 52.7069C109.784 52.4868 109.794 52.259 109.761 52.0353C109.747 51.9601 109.723 51.887 109.69 51.818C109.675 51.7877 109.658 51.7587 109.639 51.7311L109.512 51.5178C108.75 50.2754 107.923 49.0741 107.035 47.9187C106.596 47.338 106.126 46.7809 105.652 46.2318C105.419 45.9552 105.178 45.6866 104.937 45.4179C104.696 45.1493 104.435 44.8806 104.226 44.6712L106.296 42.4707Z" fill="#E4897B"/>
<path d="M106.834 57.6021L103.883 57.1201L105.428 59.7039C105.428 59.7039 107.328 59.6367 107.869 58.5187L106.834 57.6021Z" fill="#E4897B"/>
<path d="M101.702 58.3132L103.108 60.411L105.427 59.7039L103.882 57.1201L101.702 58.3132Z" fill="#E4897B"/>
<path d="M106.692 125.036C106.491 125.053 106.291 124.999 106.127 124.882C106.077 124.835 106.041 124.777 106.02 124.711C106 124.646 105.997 124.577 106.012 124.511C106.015 124.468 106.029 124.427 106.054 124.393C106.078 124.358 106.111 124.33 106.15 124.313C106.494 124.159 107.395 124.736 107.497 124.803C107.509 124.81 107.518 124.821 107.523 124.834C107.528 124.847 107.529 124.861 107.525 124.874C107.524 124.888 107.518 124.9 107.509 124.91C107.499 124.92 107.487 124.927 107.474 124.929C107.218 124.994 106.955 125.03 106.692 125.036ZM106.296 124.424C106.268 124.419 106.238 124.419 106.21 124.424C106.192 124.432 106.177 124.445 106.167 124.461C106.156 124.477 106.151 124.495 106.15 124.515C106.14 124.559 106.141 124.605 106.153 124.648C106.166 124.692 106.189 124.732 106.221 124.764C106.372 124.898 106.759 124.918 107.276 124.815C106.98 124.619 106.646 124.486 106.296 124.424Z" fill="#2254B2"/>
<path d="M107.481 124.926H107.446C107.165 124.764 106.624 124.136 106.691 123.792C106.704 123.738 106.734 123.689 106.777 123.654C106.82 123.618 106.873 123.597 106.928 123.594C106.982 123.587 107.036 123.591 107.087 123.608C107.139 123.624 107.186 123.652 107.225 123.689C107.549 123.974 107.553 124.827 107.553 124.874C107.552 124.886 107.548 124.898 107.542 124.908C107.536 124.919 107.527 124.927 107.517 124.934L107.481 124.926ZM106.976 123.741H106.944C106.857 123.741 106.837 123.788 106.83 123.824C106.79 124.025 107.126 124.507 107.406 124.732C107.413 124.401 107.318 124.075 107.134 123.8C107.11 123.778 107.082 123.761 107.051 123.751C107.021 123.741 106.988 123.737 106.956 123.741H106.976Z" fill="#2254B2"/>
<path d="M93.2278 125.036C92.9756 125.06 92.7229 124.996 92.5127 124.854C92.4654 124.812 92.4288 124.759 92.4061 124.7C92.3834 124.641 92.3753 124.577 92.3824 124.514C92.3849 124.476 92.3971 124.439 92.4179 124.406C92.4386 124.374 92.4671 124.347 92.5009 124.329C92.8683 124.123 94.0456 124.724 94.1799 124.799C94.1922 124.807 94.2021 124.818 94.2084 124.831C94.2146 124.845 94.2171 124.859 94.2155 124.874C94.2132 124.888 94.2066 124.901 94.1967 124.91C94.1868 124.92 94.174 124.927 94.1602 124.929C93.8535 124.994 93.5413 125.03 93.2278 125.036ZM92.7024 124.424C92.6572 124.421 92.6121 124.43 92.572 124.451C92.5578 124.458 92.5458 124.469 92.5374 124.482C92.529 124.495 92.5246 124.511 92.5246 124.526C92.5186 124.567 92.5226 124.609 92.5364 124.649C92.5501 124.688 92.5732 124.723 92.6036 124.751C92.7853 124.913 93.2713 124.941 93.9271 124.83C93.5447 124.627 93.1306 124.489 92.7024 124.424Z" fill="#2254B2"/>
<path d="M94.148 124.925H94.1164C93.7647 124.767 93.0655 124.135 93.1208 123.791C93.1208 123.712 93.1919 123.614 93.3855 123.594C93.4562 123.586 93.5277 123.593 93.5957 123.614C93.6636 123.635 93.7265 123.67 93.7805 123.716C94.1519 124.024 94.223 124.822 94.223 124.858C94.2246 124.87 94.2228 124.882 94.2179 124.893C94.2131 124.905 94.2053 124.914 94.1954 124.921C94.1804 124.928 94.1638 124.929 94.148 124.925ZM93.4408 123.74H93.3973C93.2709 123.74 93.263 123.803 93.259 123.819C93.2274 124.02 93.7015 124.522 94.0492 124.74C94.0149 124.402 93.8769 124.083 93.6541 123.827C93.5942 123.776 93.5194 123.745 93.4408 123.74Z" fill="#2254B2"/>
<path d="M98.8177 33.3887C98.7031 35.1744 98.395 38.8011 99.7659 39.8046C99.7659 39.8046 99.517 41.6338 96.2814 42.0604C92.7257 42.5227 94.3495 40.5157 94.3495 40.5157C96.234 39.7967 95.993 38.3626 95.4794 37.051L98.8177 33.3887Z" fill="#E4897B"/>
<path d="M91.4578 30.2318C91.4383 30.2318 91.4189 30.2276 91.4012 30.2194C91.3835 30.2112 91.3677 30.1993 91.3551 30.1844C91.2421 30.0503 91.0992 29.9448 90.938 29.8761C90.7767 29.8075 90.6016 29.7778 90.4267 29.7893C90.4082 29.7927 90.3892 29.7922 90.3709 29.788C90.3526 29.7838 90.3354 29.7759 90.3202 29.7648C90.305 29.7538 90.2923 29.7397 90.2828 29.7235C90.2732 29.7073 90.2671 29.6894 90.2647 29.6708C90.2602 29.6336 90.2706 29.5962 90.2935 29.5666C90.3164 29.537 90.3501 29.5177 90.3872 29.5127C90.6102 29.4939 90.8345 29.5293 91.0409 29.616C91.2473 29.7027 91.4297 29.838 91.5724 30.0105C91.5895 30.0311 91.6004 30.0561 91.604 30.0827C91.6075 30.1092 91.6034 30.1362 91.5923 30.1606C91.5812 30.185 91.5634 30.2057 91.541 30.2204C91.5186 30.235 91.4925 30.2431 91.4657 30.2436L91.4578 30.2318Z" fill="#263238"/>
<path d="M90.8412 31.9814C90.7011 32.5481 90.4844 33.093 90.1973 33.6012C90.3291 33.6722 90.475 33.7133 90.6246 33.7214C90.7741 33.7296 90.9236 33.7048 91.0625 33.6486L90.8412 31.9814Z" fill="#DE5753"/>
<path d="M90.9993 31.5471C91.0309 31.7841 90.9322 31.9896 90.7781 32.0133C90.624 32.037 90.4699 31.8552 90.4423 31.6182C90.4146 31.3812 90.5094 31.1757 90.6635 31.156C90.8176 31.1362 90.9717 31.2942 90.9993 31.5471Z" fill="#263238"/>
<path d="M90.7346 31.1602L90.146 31.0693C90.146 31.0693 90.4937 31.4763 90.7346 31.1602Z" fill="#263238"/>
<path d="M97.4037 124.862H94.4407L94.2432 118.008H97.2062L97.4037 124.862Z" fill="#E4897B"/>
<path d="M110.856 124.862H107.893L106.94 118.008H109.903L110.856 124.862Z" fill="#E4897B"/>
<path d="M107.711 124.53H111.037C111.094 124.53 111.149 124.55 111.192 124.587C111.235 124.624 111.263 124.676 111.27 124.732L111.665 127.367C111.673 127.433 111.666 127.501 111.645 127.564C111.625 127.628 111.591 127.686 111.546 127.736C111.501 127.785 111.447 127.825 111.385 127.852C111.324 127.879 111.258 127.893 111.191 127.892C110.034 127.873 109.473 127.805 108.011 127.805C107.11 127.805 105.795 127.896 104.554 127.896C103.314 127.896 103.246 126.668 103.764 126.557C106.083 126.059 106.45 125.372 107.229 124.712C107.365 124.599 107.534 124.535 107.711 124.53Z" fill="#263238"/>
<path d="M94.3419 124.53H97.6644C97.7216 124.53 97.7771 124.55 97.8207 124.587C97.8642 124.624 97.8929 124.675 97.9015 124.732L98.2966 127.367C98.3038 127.433 98.2969 127.501 98.2764 127.564C98.2558 127.628 98.222 127.686 98.1773 127.736C98.1325 127.785 98.0777 127.825 98.0166 127.852C97.9555 127.879 97.8893 127.893 97.8225 127.892C96.6649 127.873 96.1039 127.805 94.6422 127.805C93.7414 127.805 91.8767 127.896 90.6362 127.896C89.3957 127.896 89.3285 126.668 89.846 126.557C92.1651 126.059 93.0777 125.372 93.8599 124.712C93.9958 124.599 94.1655 124.535 94.3419 124.53Z" fill="#263238"/>
<path d="M94.2432 118.008L94.3459 121.544H97.3089L97.2062 118.008H94.2432Z" fill="#CE6F64"/>
<path d="M109.903 118.008H106.94L107.434 121.544H110.393L109.903 118.008Z" fill="#CE6F64"/>
<path d="M98.8573 29.6904C99.0588 32.6218 99.2049 33.8584 97.9328 35.5453C96.0167 38.0777 92.3742 37.6866 91.2996 34.8737C90.3317 32.3413 90.1658 27.9758 92.8601 26.443C93.4529 26.1033 94.1226 25.9206 94.8057 25.9124C95.4888 25.9042 96.1627 26.0706 96.7634 26.3959C97.3642 26.7212 97.8719 27.1946 98.2383 27.7712C98.6047 28.3478 98.8178 29.0084 98.8573 29.6904Z" fill="#E4897B"/>
<path d="M100.564 32.4124C102.208 33.329 103.428 31.0692 103.428 31.0692C103.428 31.0692 100.481 31.3892 100.746 29.6351C101.094 27.3081 99.4264 24.4794 95.2466 24.8429C95.0135 24.8627 94.7923 24.8903 94.575 24.9259C94.1374 24.7185 93.6426 24.6649 93.1707 24.7739C92.6989 24.8829 92.2777 25.148 91.9754 25.5264C90.7902 25.6251 89.1902 27.0395 90.2766 28.9082C90.3529 28.6934 90.4711 28.496 90.6243 28.3274C90.7152 29.4217 91.6712 31.16 92.8643 31.2746C93.1211 32.7719 92.1256 34.5063 92.4693 36.0707C92.9789 38.3266 96.7834 38.8362 96.7834 38.8362C96.6522 38.5545 96.6034 38.2414 96.6425 37.9332C96.6817 37.6249 96.8072 37.3339 97.0047 37.094C99.5884 38.2792 101.291 37.1216 101.291 37.1216C99.5291 36.4658 100.062 35.2964 100.062 35.2964C100.671 35.5665 101.36 35.5903 101.986 35.3626C102.611 35.135 103.124 34.6736 103.417 34.0756C102.831 34.1034 102.251 33.9612 101.744 33.666C101.238 33.3709 100.828 32.9355 100.564 32.4124Z" fill="#263238"/>
<path d="M93.8955 31.7248C93.9024 32.0062 93.8536 32.2861 93.7519 32.5485C93.6502 32.8109 93.4976 33.0506 93.3028 33.2537C92.7814 33.795 92.1414 33.4157 91.9675 32.7243C91.8135 32.1001 91.9004 31.069 92.5799 30.7846C92.7294 30.7258 92.8913 30.7053 93.0508 30.7251C93.2102 30.7448 93.3622 30.8041 93.493 30.8975C93.6237 30.9909 93.729 31.1155 93.7993 31.26C93.8696 31.4045 93.9026 31.5643 93.8955 31.7248Z" fill="#E4897B"/>
<path d="M96.3564 59.0363C96.3564 59.0363 97.1071 78.5369 98.8928 89.986C100.331 99.2385 106.719 120.857 106.719 120.857H110.757C110.757 120.857 107.426 99.9772 106.695 90.8314C104.846 67.6843 109.647 62.7144 105.115 57.8945L96.3564 59.0363Z" fill="#263238"/>
<path d="M99.7303 65.2028C99.7303 65.2028 97.9051 64.8867 96.8384 68.3633C97.2334 74.9491 97.909 83.6881 98.8927 89.9855C99.11 91.3879 99.4419 93.0788 99.8488 94.9317C99.0784 83.8066 99.7303 65.2028 99.7303 65.2028Z" fill="#161F33"/>
<path d="M93.2079 59.4473C93.2079 59.4473 89.8814 81.022 90.075 90.0493C90.2765 99.4401 93.7176 120.865 93.7176 120.865H97.7196C97.7196 120.865 97.0875 99.9972 97.4391 90.7763C97.8342 80.7218 101.939 58.3135 101.939 58.3135L93.2079 59.4473Z" fill="#263238"/>
<path d="M111.341 121.047H105.972L105.554 119.245L111.302 119.285L111.341 121.047Z" fill="#2254B2"/>
<path opacity="0.2" d="M111.341 121.047H105.972L105.554 119.245L111.302 119.285L111.341 121.047Z" fill="black"/>
<path d="M104.914 39.8082C106.459 39.9583 108.805 44.3476 108.805 44.3476L104.906 47.3382C104.906 47.3382 101.678 44.5056 102.061 42.9135C102.46 41.2581 103.432 39.6699 104.914 39.8082Z" fill="#2254B2"/>
<path opacity="0.1" d="M104.914 39.8082C106.459 39.9583 108.805 44.3476 108.805 44.3476L104.906 47.3382C104.906 47.3382 101.678 44.5056 102.061 42.9135C102.46 41.2581 103.432 39.6699 104.914 39.8082Z" fill="black"/>
<path d="M103.748 41.6964C103.354 41.5903 102.947 41.545 102.539 41.5621C102.332 41.994 102.172 42.447 102.061 42.9132C101.666 44.4935 104.906 47.338 104.906 47.338L105.194 47.1168L103.748 41.6964Z" fill="#2254B2"/>
<path opacity="0.3" d="M103.748 41.6964C103.354 41.5903 102.947 41.545 102.539 41.5621C102.332 41.994 102.172 42.447 102.061 42.9132C101.666 44.4935 104.906 47.338 104.906 47.338L105.194 47.1168L103.748 41.6964Z" fill="black"/>
<path d="M91.8844 45.9118C90.7584 48.7602 89.5732 51.6561 88.629 54.5124C88.5658 54.6941 88.5144 54.868 88.4591 55.0458L88.3248 55.4843C88.2881 55.6134 88.2881 55.7502 88.3248 55.8793C88.5478 56.3733 88.9016 56.7968 89.348 57.1041C90.5292 57.9516 91.8162 58.6409 93.1763 59.1545L92.8207 60.6083C91.1476 60.3877 89.5297 59.86 88.0483 59.0517C87.1366 58.5647 86.3941 57.8126 85.9188 56.8947C85.646 56.308 85.5512 55.6542 85.6462 55.0141C85.6552 54.9358 85.6684 54.858 85.6857 54.7811L85.7253 54.6151L85.7924 54.3149C85.8398 54.1134 85.8872 53.9198 85.9386 53.7223C86.3337 52.142 86.8394 50.6407 87.3727 49.1513C87.906 47.6619 88.4631 46.1923 89.0912 44.7266L91.8844 45.9118Z" fill="#E4897B"/>
<path d="M89.4862 41.9143C89.4862 41.9143 88.1508 42.5899 93.2077 59.4475L105.131 57.8909C104.293 53.0632 103.898 50.0725 104.914 39.8086C103.204 39.6862 101.487 39.6862 99.7777 39.8086C97.9574 39.9145 96.1472 40.1521 94.3613 40.5198C92.0739 41.0294 89.4862 41.9143 89.4862 41.9143Z" fill="#2254B2"/>
<path opacity="0.1" d="M89.4862 41.9143C89.4862 41.9143 88.1508 42.5899 93.2077 59.4475L105.131 57.8909C104.293 53.0632 103.898 50.0725 104.914 39.8086C103.204 39.6862 101.487 39.6862 99.7777 39.8086C97.9574 39.9145 96.1472 40.1521 94.3613 40.5198C92.0739 41.0294 89.4862 41.9143 89.4862 41.9143Z" fill="black"/>
<path d="M105.218 57.1676L105.902 58.1592C105.953 58.2382 105.866 58.333 105.732 58.3528L93.2278 59.9884C93.1211 59.9884 93.0223 59.9607 93.0065 59.8936L92.7616 58.8387C92.7418 58.7676 92.8288 58.6926 92.9473 58.6768L105.021 57.0965C105.057 57.0907 105.094 57.0942 105.129 57.1066C105.163 57.119 105.194 57.14 105.218 57.1676Z" fill="#2254B2"/>
<path opacity="0.2" d="M105.218 57.1676L105.902 58.1592C105.953 58.2382 105.866 58.333 105.732 58.3528L93.2278 59.9884C93.1211 59.9884 93.0223 59.9607 93.0065 59.8936L92.7616 58.8387C92.7418 58.7676 92.8288 58.6926 92.9473 58.6768L105.021 57.0965C105.057 57.0907 105.094 57.0942 105.129 57.1066C105.163 57.119 105.194 57.14 105.218 57.1676Z" fill="black"/>
<path d="M103.772 58.7275L104.096 58.6841C104.159 58.6841 104.202 58.6367 104.195 58.5972L103.863 57.2302C103.85 57.2069 103.83 57.1886 103.805 57.1786C103.781 57.1685 103.754 57.1672 103.728 57.1749L103.404 57.2144C103.337 57.2144 103.294 57.2618 103.306 57.3053L103.638 58.6683C103.645 58.7117 103.709 58.7354 103.772 58.7275Z" fill="#263238"/>
<path d="M95.9338 59.7394L96.2578 59.696C96.321 59.696 96.3684 59.6485 96.3565 59.609L96.0247 58.2421C96.0117 58.219 95.9916 58.2008 95.9674 58.1901C95.9432 58.1794 95.9162 58.1769 95.8904 58.1828L95.5664 58.2263C95.5032 58.2263 95.4558 58.2737 95.4676 58.3132L95.7995 59.6802C95.8074 59.7394 95.8706 59.7631 95.9338 59.7394Z" fill="#263238"/>
<path d="M90.0435 47.6342C90.3714 49.1592 90.8336 51.091 91.5092 53.5365L91.6553 47.3379L90.0435 47.6342Z" fill="#2254B2"/>
<path opacity="0.3" d="M90.0435 47.6342C90.3714 49.1592 90.8336 51.091 91.5092 53.5365L91.6553 47.3379L90.0435 47.6342Z" fill="black"/>
<path d="M89.4862 41.9137C88.0047 42.5102 86.7207 47.579 86.7207 47.579L91.8171 50.06C91.8171 50.06 94.2784 43.8614 93.1761 42.6525C92.0739 41.4435 91.1929 41.2302 89.4862 41.9137Z" fill="#2254B2"/>
<path opacity="0.1" d="M89.4862 41.9137C88.0047 42.5102 86.7207 47.579 86.7207 47.579L91.8171 50.06C91.8171 50.06 94.2784 43.8614 93.1761 42.6525C92.0739 41.4435 91.1929 41.2302 89.4862 41.9137Z" fill="black"/>
<path d="M98.403 121.047H93.034L92.6152 119.245L98.5926 119.285L98.403 121.047Z" fill="#2254B2"/>
<path opacity="0.2" d="M98.403 121.047H93.034L92.6152 119.245L98.5926 119.285L98.403 121.047Z" fill="black"/>
<path d="M93.2591 58.665L92.8285 58.4872C92.7226 58.4441 92.6073 58.4298 92.4941 58.4458C92.3809 58.4617 92.274 58.5073 92.1841 58.5779C92.0943 58.6485 92.0247 58.7416 91.9824 58.8478C91.9402 58.954 91.9268 59.0695 91.9435 59.1825L92.2556 61.2408C92.2706 61.3438 92.3083 61.4422 92.366 61.5289C92.4236 61.6156 92.4998 61.6884 92.589 61.7421C92.6782 61.7958 92.7782 61.829 92.8818 61.8393C92.9854 61.8496 93.09 61.8368 93.188 61.8018C93.3447 61.7449 93.4913 61.6636 93.6226 61.5608C93.7655 61.4423 93.8785 61.2919 93.9526 61.1217C94.0267 60.9516 94.0598 60.7664 94.0493 60.581L94.0058 59.7277C93.9983 59.4971 93.9236 59.2737 93.791 59.0849C93.6584 58.8962 93.4735 58.7502 93.2591 58.665Z" fill="#E4897B"/>
</svg>
