<svg width="21" height="19" viewBox="0 0 21 19" fill="none" xmlns="http://www.w3.org/2000/svg">
<path d="M20.3 8.3655H16.702C16.5408 7.77235 16.1889 7.24871 15.7006 6.87539C15.2123 6.50207 14.6147 6.2998 14 6.2998C13.3853 6.2998 12.7877 6.50207 12.2994 6.87539C11.8111 7.24871 11.4592 7.77235 11.298 8.3655H0.7C0.514348 8.3655 0.336301 8.43925 0.205025 8.57053C0.0737498 8.70181 0 8.87985 0 9.0655C0 9.25116 0.0737498 9.4292 0.205025 9.56048C0.336301 9.69176 0.514348 9.7655 0.7 9.7655H11.298C11.4592 10.3587 11.8111 10.8823 12.2994 11.2556C12.7877 11.6289 13.3853 11.8312 14 11.8312C14.6147 11.8312 15.2123 11.6289 15.7006 11.2556C16.1889 10.8823 16.5408 10.3587 16.702 9.7655H20.3C20.4857 9.7655 20.6637 9.69176 20.795 9.56048C20.9263 9.4292 21 9.25116 21 9.0655C21 8.87985 20.9263 8.70181 20.795 8.57053C20.6637 8.43925 20.4857 8.3655 20.3 8.3655Z" fill="#009688"/>
<path d="M0.7 3.4657H2.898C3.0592 4.05886 3.4111 4.58249 3.89942 4.95581C4.38773 5.32914 4.98533 5.5314 5.6 5.5314C6.21467 5.5314 6.81227 5.32914 7.30058 4.95581C7.7889 4.58249 8.1408 4.05886 8.302 3.4657H20.3C20.4857 3.4657 20.6637 3.39195 20.795 3.26067C20.9263 3.1294 21 2.95135 21 2.7657C21 2.58005 20.9263 2.402 20.795 2.27073C20.6637 2.13945 20.4857 2.0657 20.3 2.0657H8.302C8.1408 1.47254 7.7889 0.948907 7.30058 0.575586C6.81227 0.202264 6.21467 0 5.6 0C4.98533 0 4.38773 0.202264 3.89942 0.575586C3.4111 0.948907 3.0592 1.47254 2.898 2.0657H0.7C0.514348 2.0657 0.336301 2.13945 0.205025 2.27073C0.0737498 2.402 0 2.58005 0 2.7657C0 2.95135 0.0737498 3.1294 0.205025 3.26067C0.336301 3.39195 0.514348 3.4657 0.7 3.4657Z" fill="#009688"/>
<path d="M20.3 14.6653H8.302C8.1408 14.0722 7.7889 13.5485 7.30058 13.1752C6.81227 12.8019 6.21467 12.5996 5.6 12.5996C4.98533 12.5996 4.38773 12.8019 3.89942 13.1752C3.4111 13.5485 3.0592 14.0722 2.898 14.6653H0.7C0.514348 14.6653 0.336301 14.7391 0.205025 14.8703C0.0737498 15.0016 0 15.1797 0 15.3653C0 15.551 0.0737498 15.729 0.205025 15.8603C0.336301 15.9916 0.514348 16.0653 0.7 16.0653H2.898C3.0592 16.6585 3.4111 17.1821 3.89942 17.5554C4.38773 17.9287 4.98533 18.131 5.6 18.131C6.21467 18.131 6.81227 17.9287 7.30058 17.5554C7.7889 17.1821 8.1408 16.6585 8.302 16.0653H20.3C20.4857 16.0653 20.6637 15.9916 20.795 15.8603C20.9263 15.729 21 15.551 21 15.3653C21 15.1797 20.9263 15.0016 20.795 14.8703C20.6637 14.7391 20.4857 14.6653 20.3 14.6653Z" fill="#009688"/>
</svg>
