<svg width="29" height="28" viewBox="0 0 29 28" fill="none" xmlns="http://www.w3.org/2000/svg">
<path d="M26.9062 15.2685H25.1362C24.987 15.2698 24.8394 15.3007 24.7022 15.3593C24.5649 15.4179 24.4406 15.5031 24.3365 15.6101C24.2324 15.717 24.1505 15.8435 24.0955 15.9822C24.0405 16.121 24.0136 16.2693 24.0162 16.4185V26.8385C24.0216 27.1375 23.9094 27.4266 23.7036 27.6436C23.4978 27.8606 23.2151 27.9881 22.9162 27.9985H18.4662C18.3249 27.9998 18.1846 27.9731 18.0537 27.9199C17.9227 27.8668 17.8035 27.7882 17.7031 27.6887C17.6027 27.5892 17.523 27.4708 17.4686 27.3403C17.4142 27.2098 17.3862 27.0699 17.3862 26.9285V19.8085C17.3862 19.6671 17.3582 19.5272 17.3038 19.3967C17.2494 19.2662 17.1697 19.1478 17.0693 19.0483C16.9689 18.9489 16.8497 18.8702 16.7187 18.8171C16.5878 18.7639 16.4476 18.7372 16.3062 18.7385H11.7262C11.5849 18.7372 11.4446 18.7639 11.3137 18.8171C11.1827 18.8702 11.0635 18.9489 10.9631 19.0483C10.8627 19.1478 10.783 19.2662 10.7286 19.3967C10.6742 19.5272 10.6462 19.6671 10.6462 19.8085V26.9285C10.6462 27.0699 10.6182 27.2098 10.5638 27.3403C10.5094 27.4708 10.4297 27.5892 10.3293 27.6887C10.2289 27.7882 10.1097 27.8668 9.97875 27.9199C9.84777 27.9731 9.70756 27.9998 9.56621 27.9985H5.11621C4.81735 27.9881 4.53457 27.8606 4.32881 27.6436C4.12304 27.4266 4.01078 27.1375 4.01621 26.8385V16.4185C4.01886 16.2701 3.99224 16.1226 3.93789 15.9845C3.88354 15.8464 3.80251 15.7204 3.69943 15.6136C3.59635 15.5068 3.47325 15.4213 3.33714 15.3621C3.20104 15.3029 3.05461 15.2711 2.90621 15.2685H1.12621C0.898268 15.26 0.677797 15.185 0.491914 15.0528C0.306031 14.9206 0.162843 14.7369 0.0799645 14.5244C-0.00291359 14.3119 -0.0218673 14.0798 0.0254351 13.8567C0.0727375 13.6336 0.184233 13.4291 0.346205 13.2685L12.4762 0.658504C12.6751 0.450373 12.9141 0.284713 13.1788 0.171533C13.4435 0.0583525 13.7283 0 14.0162 0C14.3041 0 14.589 0.0583525 14.8536 0.171533C15.1183 0.284713 15.3573 0.450373 15.5562 0.658504L27.6862 13.2885C27.8417 13.45 27.9476 13.6527 27.9912 13.8727C28.0348 14.0926 28.0143 14.3204 27.9321 14.529C27.8499 14.7376 27.7096 14.9182 27.5277 15.0493C27.3458 15.1804 27.1301 15.2565 26.9062 15.2685Z" fill="#11377F"/>
</svg>
