<svg width="14" height="19" viewBox="0 0 14 19" fill="none" xmlns="http://www.w3.org/2000/svg">
<path d="M13.3125 17.265H9.13373C9.18031 17.2007 9.22688 17.1364 9.26903 17.0654L13.0618 10.4979C13.6764 9.43391 13.9999 8.22692 14 6.99825C14.0001 5.76958 13.6766 4.56255 13.0622 3.49853C12.4478 2.43451 11.5641 1.55101 10.5 0.936878C9.43578 0.322742 8.22867 -0.000380794 7 3.36773e-07C5.77133 -0.000380794 4.56422 0.322742 3.50005 0.936878C2.43587 1.55101 1.55216 2.43451 0.937753 3.49853C0.323352 4.56255 -7.33954e-05 5.76958 1.24933e-08 6.99825C7.34204e-05 8.22692 0.323643 9.43391 0.938172 10.4979L4.73097 17.0654C4.77312 17.1364 4.81969 17.2007 4.86627 17.265H0.687537C0.540473 17.265 0.399433 17.3234 0.295444 17.4274C0.191454 17.5314 0.133033 17.6724 0.133033 17.8195C0.133033 17.9666 0.191454 18.1076 0.295444 18.2116C0.399433 18.3156 0.540473 18.374 0.687537 18.374H13.3125C13.4595 18.374 13.6006 18.3156 13.7046 18.2116C13.8085 18.1076 13.867 17.9666 13.867 17.8195C13.867 17.6724 13.8085 17.5314 13.7046 17.4274C13.6006 17.3234 13.4595 17.265 13.3125 17.265ZM3.59757 6.969C3.59537 6.29559 3.79306 5.63668 4.16558 5.07569C4.53811 4.51471 5.06873 4.07689 5.69024 3.81766C6.31176 3.55844 6.99622 3.48948 7.65696 3.6195C8.31769 3.74953 8.92499 4.07271 9.40193 4.5481C9.87888 5.02349 10.204 5.62973 10.3362 6.29004C10.4684 6.95034 10.4017 7.63503 10.1445 8.25739C9.88729 8.87975 9.4512 9.41179 8.89144 9.78614C8.33167 10.1605 7.67341 10.3603 7 10.3603C6.09989 10.3592 5.23683 10.0019 4.59932 9.36642C3.96181 8.73099 3.60167 7.86909 3.59757 6.969ZM7 9.25133C6.54593 9.25133 6.10208 9.11653 5.7247 8.86404C5.34731 8.61154 5.05336 8.2527 4.88011 7.83298C4.70686 7.41327 4.66209 6.95157 4.75149 6.50639C4.84088 6.06121 5.06041 5.65258 5.38227 5.33228C5.70412 5.01199 6.1138 4.79444 6.55941 4.7072C7.00502 4.61997 7.4665 4.66697 7.88537 4.84226C8.30424 5.01754 8.66165 5.31322 8.91232 5.69183C9.16298 6.07044 9.29562 6.51493 9.29343 6.969C9.28991 7.57515 9.0468 8.1553 8.61715 8.58288C8.18749 9.01046 7.60616 9.25076 7 9.25133Z" fill="#11377F"/>
</svg>
