<svg width="359" height="312" viewBox="0 0 359 312" fill="none" xmlns="http://www.w3.org/2000/svg">
<g opacity="0.22">
<path d="M347.146 286.872H319.485V287.081H347.146V286.872Z" fill="#EBEBEB"/>
<path d="M248.028 289.144H240.771V289.352H248.028V289.144Z" fill="#EBEBEB"/>
<path d="M318.65 279.121H302.623V279.33H318.65V279.121Z" fill="#EBEBEB"/>
<path d="M51.2877 280.524H15.2168V280.733H51.2877V280.524Z" fill="#EBEBEB"/>
<path d="M64.0151 280.524H58.7285V280.733H64.0151V280.524Z" fill="#EBEBEB"/>
<path d="M159.442 284.049H81.2031V284.258H159.442V284.049Z" fill="#EBEBEB"/>
<path d="M169.338 236.185H8.07589C6.81257 236.183 5.60175 235.68 4.70923 234.786C3.81671 233.892 3.31543 232.68 3.31543 231.417V4.72705C3.32643 3.47098 3.83256 2.26997 4.72389 1.38489C5.61523 0.499813 6.81977 0.00215172 8.07589 0H169.338C170.603 0 171.816 0.502427 172.71 1.39675C173.605 2.29108 174.107 3.50404 174.107 4.76881V231.417C174.107 232.681 173.605 233.894 172.71 234.789C171.816 235.683 170.603 236.185 169.338 236.185ZM8.07589 0.167034C6.86794 0.169247 5.71023 0.65065 4.85687 1.50558C4.0035 2.36051 3.52422 3.5191 3.52422 4.72705V231.417C3.52422 232.625 4.0035 233.783 4.85687 234.638C5.71023 235.493 6.86794 235.974 8.07589 235.977H169.338C170.547 235.974 171.706 235.493 172.56 234.639C173.415 233.784 173.896 232.625 173.898 231.417V4.72705C173.896 3.51834 173.415 2.35976 172.56 1.50507C171.706 0.650379 170.547 0.169242 169.338 0.167034H8.07589Z" fill="#EBEBEB"/>
<path d="M349.994 236.185H188.723C187.459 236.183 186.247 235.68 185.353 234.786C184.459 233.892 183.956 232.681 183.954 231.417V4.72705C183.967 3.47022 184.475 2.26921 185.368 1.38437C186.261 0.499521 187.466 0.00212825 188.723 0H349.994C351.248 0.00434663 352.451 0.502979 353.34 1.38782C354.23 2.27266 354.735 3.47242 354.746 4.72705V231.417C354.746 232.678 354.246 233.889 353.355 234.783C352.464 235.677 351.256 236.181 349.994 236.185ZM188.723 0.167034C187.514 0.169242 186.356 0.650379 185.501 1.50507C184.646 2.35976 184.165 3.51834 184.163 4.72705V231.417C184.165 232.625 184.646 233.784 185.501 234.639C186.356 235.493 187.514 235.974 188.723 235.977H349.994C351.202 235.974 352.361 235.493 353.216 234.639C354.07 233.784 354.552 232.625 354.554 231.417V4.72705C354.552 3.51834 354.07 2.35976 353.216 1.50507C352.361 0.650379 351.202 0.169242 349.994 0.167034H188.723Z" fill="#EBEBEB"/>
<path d="M105.356 62.4711C105.358 61.8424 105.505 61.2226 105.788 60.661C106.071 60.0994 106.481 59.6116 106.985 59.2362C107.489 58.8607 108.074 58.6081 108.693 58.4985C109.312 58.3888 109.949 58.425 110.551 58.6042C110.371 57.3904 110.455 56.152 110.797 54.9735C111.139 53.795 111.732 52.7043 112.534 51.7759C113.337 50.8474 114.33 50.1031 115.446 49.5937C116.563 49.0843 117.776 48.8219 119.003 48.8244C119.532 48.825 120.061 48.8725 120.582 48.9664C121.425 47.5851 122.694 46.5151 124.197 45.9175C125.701 45.3198 127.358 45.227 128.92 45.6528C130.481 46.0787 131.861 47.0002 132.853 48.2787C133.846 49.5572 134.395 51.1233 134.42 52.7414H134.546C136.371 52.7414 138.121 53.4664 139.412 54.757C140.702 56.0476 141.427 57.798 141.427 59.6231C141.427 61.4483 140.702 63.1987 139.412 64.4893C138.121 65.7799 136.371 66.5049 134.546 66.5049H109.282C108.23 66.4787 107.231 66.0419 106.497 65.288C105.763 64.5341 105.354 63.523 105.356 62.4711Z" fill="#F0F0F0"/>
<path d="M200.106 98.3745C200.106 97.3047 200.531 96.2787 201.287 95.5222C202.043 94.7657 203.07 94.3407 204.139 94.3407C204.532 94.3406 204.923 94.3968 205.3 94.5077C205.12 93.2939 205.204 92.0555 205.546 90.877C205.888 89.6985 206.481 88.6078 207.283 87.6794C208.086 86.7509 209.079 86.0066 210.195 85.4972C211.312 84.9878 212.525 84.7254 213.752 84.7279C214.279 84.727 214.805 84.7774 215.322 84.8782C216.164 83.4931 217.433 82.4193 218.938 81.819C220.444 81.2188 222.104 81.1247 223.667 81.551C225.231 81.9773 226.614 82.9007 227.606 84.182C228.599 85.4632 229.147 87.0326 229.169 88.6532H229.295C231.12 88.6532 232.87 89.3782 234.161 90.6688C235.451 91.9594 236.176 93.7098 236.176 95.535C236.176 97.3601 235.451 99.1105 234.161 100.401C232.87 101.692 231.12 102.417 229.295 102.417H204.031C202.978 102.391 201.977 101.953 201.243 101.197C200.509 100.441 200.101 99.4279 200.106 98.3745Z" fill="#F0F0F0"/>
<path d="M94.6324 132.574C94.6312 131.946 94.4834 131.326 94.2007 130.764C93.918 130.203 93.5082 129.715 93.0038 129.339C92.4995 128.964 91.9146 128.711 91.2955 128.602C90.6764 128.492 90.0403 128.528 89.4377 128.708C89.618 127.494 89.5341 126.255 89.1919 125.077C88.8497 123.898 88.2572 122.808 87.4548 121.879C86.6524 120.951 85.659 120.206 84.5426 119.697C83.4261 119.188 82.2129 118.925 80.9858 118.928C80.4562 118.931 79.928 118.981 79.4073 119.078C78.568 117.691 77.2995 116.615 75.7939 116.013C74.2883 115.411 72.6277 115.317 71.0634 115.743C69.4992 116.17 68.1166 117.095 67.1251 118.378C66.1336 119.661 65.5872 121.232 65.5686 122.853H65.4433C63.6181 122.853 61.8677 123.578 60.5771 124.869C59.2866 126.159 58.5615 127.91 58.5615 129.735C58.5615 131.56 59.2866 133.31 60.5771 134.601C61.8677 135.892 63.6181 136.617 65.4433 136.617H90.7071C91.7602 136.59 92.761 136.152 93.4949 135.397C94.2287 134.641 94.6371 133.628 94.6324 132.574Z" fill="#F0F0F0"/>
<path d="M21.5557 78.5057C21.5549 78.1149 21.6456 77.7292 21.8205 77.3797C21.9954 77.0301 22.2496 76.7264 22.5629 76.4926C22.8761 76.2589 23.2397 76.1017 23.6246 76.0336C24.0095 75.9655 24.405 75.9884 24.7794 76.1004C24.7431 75.8459 24.7235 75.5892 24.721 75.3321C24.721 74.6345 24.8584 73.9438 25.1253 73.2994C25.3922 72.6549 25.7835 72.0694 26.2767 71.5762C26.77 71.0829 27.3555 70.6917 27.9999 70.4247C28.6444 70.1578 29.3351 70.0204 30.0326 70.0204C30.3632 70.0212 30.6931 70.052 31.0181 70.1123C31.5395 69.2493 32.328 68.5799 33.264 68.2055C34.2001 67.8311 35.2328 67.7721 36.2054 68.0374C37.178 68.3028 38.0377 68.878 38.6539 69.676C39.2702 70.4739 39.6095 71.451 39.6204 72.4591H39.6955C40.2735 72.4335 40.8507 72.5253 41.3923 72.7289C41.9338 72.9325 42.4285 73.2437 42.8466 73.6436C43.2646 74.0436 43.5973 74.5241 43.8246 75.0562C44.0519 75.5882 44.169 76.1608 44.169 76.7393C44.169 77.3179 44.0519 77.8904 43.8246 78.4225C43.5973 78.9545 43.2646 79.435 42.8466 79.835C42.4285 80.235 41.9338 80.5461 41.3923 80.7497C40.8507 80.9533 40.2735 81.0451 39.6955 81.0196H24.0194C23.3607 81.0086 22.7329 80.7386 22.2718 80.2681C21.8107 79.7976 21.5534 79.1645 21.5557 78.5057Z" fill="#F0F0F0"/>
<path d="M339.779 104.396C339.779 103.731 339.515 103.094 339.045 102.624C338.575 102.154 337.938 101.89 337.274 101.89C337.03 101.888 336.788 101.925 336.555 101.999C336.596 101.742 336.616 101.482 336.614 101.222C336.614 99.8133 336.054 98.4623 335.058 97.4662C334.062 96.47 332.711 95.9104 331.302 95.9104C330.974 95.9112 330.647 95.942 330.325 96.0023C329.802 95.1415 329.012 94.4742 328.076 94.1013C327.14 93.7284 326.109 93.67 325.137 93.9349C324.164 94.1998 323.305 94.7737 322.688 95.57C322.07 96.3663 321.729 97.3417 321.715 98.3491H321.639C320.505 98.3491 319.418 98.7996 318.616 99.6015C317.814 100.403 317.363 101.491 317.363 102.625C317.363 103.759 317.814 104.847 318.616 105.649C319.418 106.451 320.505 106.901 321.639 106.901H337.349C338 106.882 338.618 106.609 339.072 106.141C339.526 105.674 339.779 105.047 339.779 104.396Z" fill="#F0F0F0"/>
<path d="M238.683 273.81H277.618V73.8621H238.683L238.683 273.81Z" fill="#E0E0E0"/>
<path d="M185.984 78.2306H321.005L311.326 21.1553H176.312L185.984 78.2306Z" fill="#E6E6E6"/>
<path d="M291.473 39.0354C291.767 40.6013 292.584 42.021 293.791 43.0618C294.997 44.1027 296.521 44.7031 298.113 44.7647C298.828 44.7853 299.539 44.6418 300.19 44.3452C300.841 44.0486 301.416 43.6068 301.87 43.0537C302.324 42.5006 302.645 41.8508 302.809 41.1543C302.973 40.4577 302.975 39.7329 302.815 39.0354C302.518 37.4626 301.695 36.0376 300.481 34.9948C299.266 33.952 297.733 33.3535 296.134 33.2978C295.421 33.2834 294.714 33.4318 294.068 33.7316C293.421 34.0315 292.851 34.475 292.402 35.0283C291.953 35.5815 291.635 36.2301 291.474 36.9245C291.314 37.6189 291.313 38.3409 291.473 39.0354Z" fill="#F5F5F5"/>
<path d="M275.889 39.036C276.188 40.6073 277.012 42.0304 278.226 43.0715C279.44 44.1127 280.972 44.7099 282.571 44.7652C283.286 44.7862 283.996 44.6428 284.647 44.3462C285.298 44.0496 285.872 43.6076 286.326 43.0542C286.779 42.5008 287.099 41.8508 287.262 41.1542C287.425 40.4576 287.426 39.7329 287.264 39.036C286.97 37.4618 286.148 36.035 284.933 34.9917C283.718 33.9484 282.184 33.351 280.583 33.2984C279.868 33.2804 279.159 33.426 278.508 33.7242C277.858 34.0223 277.285 34.4651 276.832 35.0186C276.379 35.5722 276.059 36.2219 275.896 36.9181C275.732 37.6144 275.73 38.3387 275.889 39.036Z" fill="#F5F5F5"/>
<path d="M270.423 43.3875C272.446 41.3215 272.102 37.7026 269.654 35.3044C267.206 32.9061 263.581 32.6367 261.557 34.7027C259.533 36.7686 259.877 40.3875 262.325 42.7858C264.773 45.184 268.399 45.4534 270.423 43.3875Z" fill="#F5F5F5"/>
<path d="M244.737 39.0355C245.033 40.6082 245.856 42.033 247.071 43.0747C248.286 44.1163 249.819 44.7125 251.419 44.7648C252.134 44.7854 252.844 44.6419 253.496 44.3453C254.147 44.0487 254.721 43.6069 255.175 43.0538C255.629 42.5007 255.951 41.8509 256.114 41.1544C256.278 40.4579 256.28 39.733 256.121 39.0355C255.827 37.4688 255.01 36.0481 253.804 35.0058C252.598 33.9635 251.074 33.3614 249.481 33.2979C248.762 33.2721 248.047 33.412 247.39 33.7067C246.734 34.0015 246.154 34.4432 245.695 34.9978C245.237 35.5523 244.912 36.2049 244.746 36.905C244.58 37.6052 244.577 38.3341 244.737 39.0355Z" fill="#F5F5F5"/>
<path d="M229.162 39.0354C229.456 40.6013 230.273 42.021 231.479 43.0618C232.685 44.1027 234.209 44.7031 235.801 44.7647C236.517 44.7853 237.227 44.6418 237.878 44.3452C238.53 44.0486 239.104 43.6068 239.558 43.0537C240.012 42.5006 240.333 41.8508 240.497 41.1543C240.661 40.4577 240.663 39.7329 240.503 39.0354C240.207 37.4626 239.383 36.0376 238.169 34.9948C236.955 33.952 235.422 33.3535 233.822 33.2978C233.109 33.2834 232.403 33.4318 231.756 33.7316C231.11 34.0315 230.54 34.475 230.09 35.0283C229.641 35.5815 229.324 36.2301 229.163 36.9245C229.002 37.6189 229.002 38.3409 229.162 39.0354Z" fill="#F5F5F5"/>
<path d="M213.603 39.0362C213.901 40.6075 214.725 42.0306 215.939 43.0718C217.153 44.1129 218.685 44.7102 220.284 44.7655C220.998 44.7848 221.708 44.6403 222.358 44.3432C223.008 44.046 223.582 43.604 224.035 43.0511C224.488 42.4981 224.808 41.8489 224.972 41.153C225.135 40.4571 225.137 39.733 224.978 39.0362C224.685 37.4688 223.869 36.0472 222.663 35.0047C221.456 33.9622 219.931 33.3606 218.338 33.2986C217.62 33.2741 216.905 33.415 216.25 33.7103C215.594 34.0056 215.016 34.4475 214.558 35.0019C214.1 35.5563 213.776 36.2084 213.611 36.9078C213.445 37.6073 213.442 38.3355 213.603 39.0362Z" fill="#F5F5F5"/>
<path d="M208.11 43.3767C210.134 41.3108 209.79 37.6918 207.342 35.2936C204.894 32.8954 201.268 32.626 199.245 34.6919C197.221 36.7579 197.565 40.3768 200.013 42.775C202.461 45.1732 206.086 45.4426 208.11 43.3767Z" fill="#F5F5F5"/>
<path d="M182.426 39.0355C182.721 40.6082 183.545 42.033 184.759 43.0746C185.974 44.1163 187.508 44.7125 189.107 44.7647C189.822 44.7854 190.533 44.6419 191.184 44.3453C191.835 44.0487 192.41 43.6069 192.864 43.0538C193.318 42.5006 193.639 41.8509 193.803 41.1543C193.967 40.4578 193.969 39.733 193.809 39.0355C193.512 37.4626 192.689 36.0376 191.475 34.9948C190.261 33.952 188.727 33.3536 187.128 33.2979C186.412 33.277 185.7 33.4205 185.048 33.7176C184.396 34.0147 183.821 34.4573 183.367 35.0114C182.913 35.5656 182.592 36.2165 182.429 36.9141C182.266 37.6117 182.265 38.3374 182.426 39.0355Z" fill="#F5F5F5"/>
<path d="M293.778 52.7826C294.074 54.3552 294.897 55.78 296.112 56.8217C297.327 57.8633 298.86 58.4595 300.46 58.5118C301.175 58.5324 301.885 58.3889 302.537 58.0923C303.188 57.7958 303.762 57.354 304.216 56.8008C304.67 56.2477 304.992 55.598 305.155 54.9014C305.319 54.2049 305.321 53.4801 305.162 52.7826C304.864 51.2104 304.04 49.7862 302.826 48.7437C301.612 47.7011 300.08 47.1022 298.48 47.045C297.764 47.024 297.053 47.1676 296.401 47.4647C295.749 47.7617 295.174 48.2043 294.72 48.7585C294.266 49.3126 293.945 49.9635 293.781 50.6611C293.618 51.3588 293.617 52.0845 293.778 52.7826Z" fill="#F5F5F5"/>
<path d="M278.22 52.7826C278.518 54.3539 279.342 55.777 280.556 56.8182C281.771 57.8593 283.303 58.4566 284.901 58.5119C285.617 58.5341 286.328 58.3918 286.98 58.0957C287.632 57.7996 288.208 57.3578 288.662 56.8043C289.116 56.2507 289.437 55.6002 289.601 54.903C289.764 54.2057 289.765 53.4803 289.603 52.7826C289.309 51.2158 288.493 49.7951 287.287 48.7529C286.08 47.7106 284.556 47.1085 282.964 47.045C282.244 47.0192 281.529 47.1591 280.873 47.4538C280.216 47.7486 279.636 48.1903 279.178 48.7448C278.719 49.2994 278.394 49.952 278.228 50.6521C278.062 51.3522 278.059 52.0812 278.22 52.7826Z" fill="#F5F5F5"/>
<path d="M262.643 52.7823C262.937 54.3482 263.754 55.7678 264.961 56.8087C266.167 57.8495 267.691 58.4499 269.283 58.5115C269.998 58.5321 270.709 58.3886 271.36 58.092C272.011 57.7955 272.586 57.3537 273.04 56.8005C273.494 56.2474 273.815 55.5977 273.979 54.9011C274.143 54.2046 274.145 53.4798 273.985 52.7823C273.691 51.2155 272.874 49.7948 271.668 48.7525C270.462 47.7103 268.938 47.1081 267.345 47.0447C266.63 47.0254 265.919 47.1701 265.268 47.4677C264.617 47.7652 264.042 48.2078 263.589 48.7615C263.135 49.3153 262.814 49.9654 262.65 50.6623C262.486 51.3592 262.484 52.0844 262.643 52.7823Z" fill="#F5F5F5"/>
<path d="M247.068 52.7823C247.362 54.3482 248.179 55.7678 249.385 56.8087C250.591 57.8496 252.115 58.45 253.708 58.5115C254.423 58.5322 255.133 58.3887 255.784 58.0921C256.436 57.7955 257.01 57.3537 257.464 56.8006C257.918 56.2474 258.239 55.5977 258.403 54.9012C258.567 54.2046 258.569 53.4798 258.41 52.7823C258.111 51.2101 257.288 49.7859 256.074 48.7434C254.86 47.7009 253.327 47.1019 251.728 47.0447C251.016 47.0319 250.31 47.1814 249.664 47.4817C249.019 47.7821 248.45 48.2255 248.001 48.7784C247.551 49.3313 247.234 49.9791 247.073 50.6728C246.911 51.3665 246.909 52.0879 247.068 52.7823Z" fill="#F5F5F5"/>
<path d="M231.492 52.7826C231.786 54.3485 232.603 55.7681 233.81 56.809C235.016 57.8498 236.54 58.4502 238.132 58.5118C238.848 58.5341 239.559 58.3917 240.211 58.0957C240.863 57.7996 241.438 57.3578 241.893 56.8042C242.347 56.2507 242.668 55.6002 242.831 54.9029C242.994 54.2057 242.995 53.4802 242.834 52.7826C242.54 51.2158 241.723 49.7951 240.517 48.7528C239.311 47.7106 237.787 47.1084 236.194 47.045C235.478 47.024 234.767 47.1676 234.115 47.4647C233.463 47.7617 232.888 48.2043 232.433 48.7585C231.979 49.3126 231.658 49.9635 231.495 50.6611C231.332 51.3588 231.331 52.0845 231.492 52.7826Z" fill="#F5F5F5"/>
<path d="M215.907 52.7823C216.204 54.3543 217.028 55.7783 218.242 56.8197C219.457 57.8611 220.99 58.4578 222.589 58.5116C223.303 58.5309 224.013 58.3864 224.663 58.0893C225.313 57.7921 225.886 57.3501 226.339 56.7972C226.792 56.2442 227.113 55.595 227.276 54.8991C227.44 54.2032 227.442 53.4791 227.282 52.7823C226.989 51.2155 226.172 49.7948 224.966 48.7526C223.76 47.7103 222.235 47.1082 220.643 47.0447C219.924 47.0202 219.21 47.1611 218.554 47.4564C217.899 47.7517 217.32 48.1936 216.863 48.748C216.405 49.3024 216.081 49.9545 215.915 50.6539C215.75 51.3534 215.747 52.0816 215.907 52.7823Z" fill="#F5F5F5"/>
<path d="M200.332 52.7823C200.626 54.3482 201.443 55.7678 202.649 56.8087C203.855 57.8495 205.379 58.4499 206.971 58.5115C207.687 58.5321 208.397 58.3886 209.048 58.092C209.7 57.7955 210.274 57.3537 210.728 56.8005C211.182 56.2474 211.503 55.5977 211.667 54.9011C211.831 54.2046 211.833 53.4798 211.673 52.7823C211.38 51.2155 210.563 49.7948 209.357 48.7525C208.151 47.7103 206.627 47.1081 205.034 47.0447C204.318 47.0254 203.608 47.1701 202.956 47.4677C202.305 47.7652 201.731 48.2078 201.277 48.7615C200.823 49.3153 200.502 49.9654 200.338 50.6623C200.175 51.3592 200.172 52.0844 200.332 52.7823Z" fill="#F5F5F5"/>
<path d="M184.756 52.7829C185.051 54.3556 185.874 55.7804 187.089 56.8221C188.304 57.8637 189.838 58.4599 191.437 58.5122C192.146 58.5212 192.848 58.3691 193.489 58.0675C194.131 57.7659 194.696 57.3226 195.141 56.771C195.587 56.2193 195.901 55.5738 196.061 54.883C196.221 54.1922 196.222 53.4741 196.064 52.7829C195.766 51.2107 194.942 49.7866 193.728 48.744C192.514 47.7015 190.982 47.1025 189.382 47.0453C188.672 47.036 187.97 47.1882 187.327 47.4903C186.685 47.7923 186.12 48.2365 185.674 48.7891C185.228 49.3417 184.914 49.9884 184.755 50.6803C184.596 51.3722 184.596 52.0911 184.756 52.7829Z" fill="#F5F5F5"/>
<path d="M296.134 66.5291C296.428 68.095 297.245 69.5146 298.451 70.5555C299.658 71.5964 301.182 72.1968 302.774 72.2584C303.489 72.2793 304.199 72.136 304.85 71.8393C305.501 71.5427 306.075 71.1007 306.529 70.5473C306.982 69.994 307.302 69.344 307.465 68.6473C307.628 67.9507 307.629 67.2261 307.467 66.5291C307.173 64.9632 306.356 63.5436 305.15 62.5027C303.944 61.4618 302.42 60.8614 300.828 60.7999C300.113 60.7789 299.402 60.9222 298.751 61.2189C298.1 61.5155 297.526 61.9575 297.073 62.5109C296.619 63.0643 296.299 63.7143 296.136 64.4109C295.974 65.1075 295.973 65.8322 296.134 66.5291Z" fill="#F5F5F5"/>
<path d="M290.661 70.8962C292.685 68.8303 292.341 65.2114 289.893 62.8131C287.444 60.4149 283.819 60.1455 281.795 62.2114C279.771 64.2774 280.115 67.8963 282.564 70.2945C285.012 72.6928 288.637 72.9621 290.661 70.8962Z" fill="#F5F5F5"/>
<path d="M264.974 66.529C265.268 68.0949 266.085 69.5146 267.291 70.5555C268.497 71.5963 270.021 72.1967 271.613 72.2583C272.329 72.2789 273.039 72.1354 273.69 71.8388C274.341 71.5422 274.916 71.1004 275.37 70.5473C275.824 69.9942 276.145 69.3444 276.309 68.6479C276.473 67.9514 276.475 67.2265 276.315 66.529C276.021 64.9631 275.204 63.5435 273.998 62.5026C272.792 61.4618 271.268 60.8614 269.676 60.7998C268.96 60.7792 268.25 60.9227 267.599 61.2193C266.948 61.5159 266.373 61.9577 265.919 62.5108C265.465 63.0639 265.144 63.7137 264.98 64.4102C264.816 65.1067 264.814 65.8315 264.974 66.529Z" fill="#F5F5F5"/>
<path d="M259.495 70.8423C261.518 68.776 261.174 65.1571 258.725 62.7593C256.276 60.3615 252.651 60.0928 250.628 62.1591C248.604 64.2253 248.949 67.8442 251.397 70.242C253.846 72.6398 257.471 72.9086 259.495 70.8423Z" fill="#F5F5F5"/>
<path d="M233.814 66.5292C234.112 68.1005 234.936 69.5236 236.15 70.5647C237.365 71.6059 238.897 72.2031 240.495 72.2584C241.21 72.2794 241.921 72.136 242.572 71.8394C243.222 71.5428 243.797 71.1008 244.25 70.5474C244.703 69.994 245.024 69.344 245.187 68.6474C245.349 67.9508 245.35 67.2261 245.189 66.5292C244.895 64.9633 244.078 63.5436 242.871 62.5027C241.665 61.4619 240.141 60.8615 238.549 60.7999C237.831 60.7741 237.117 60.9137 236.461 61.208C235.806 61.5023 235.227 61.9434 234.769 62.4972C234.311 63.051 233.987 63.7027 233.822 64.4018C233.656 65.101 233.653 65.8288 233.814 66.5292Z" fill="#F5F5F5"/>
<path d="M218.237 66.529C218.531 68.0949 219.348 69.5146 220.555 70.5555C221.761 71.5963 223.285 72.1967 224.877 72.2583C225.592 72.2789 226.303 72.1354 226.954 71.8388C227.605 71.5422 228.18 71.1004 228.634 70.5473C229.088 69.9942 229.409 69.3444 229.573 68.6479C229.737 67.9514 229.739 67.2265 229.579 66.529C229.285 64.9631 228.468 63.5435 227.262 62.5026C226.055 61.4618 224.531 60.8614 222.939 60.7998C222.224 60.7792 221.514 60.9227 220.862 61.2193C220.211 61.5159 219.637 61.9577 219.183 62.5108C218.729 63.0639 218.408 63.7137 218.244 64.4102C218.08 65.1067 218.078 65.8315 218.237 66.529Z" fill="#F5F5F5"/>
<path d="M202.662 66.529C202.958 68.1017 203.781 69.5265 204.996 70.5682C206.21 71.6098 207.744 72.206 209.344 72.2583C210.059 72.2789 210.769 72.1354 211.42 71.8388C212.072 71.5422 212.646 71.1004 213.1 70.5473C213.554 69.9942 213.875 69.3444 214.039 68.6479C214.203 67.9514 214.205 67.2265 214.046 66.529C213.75 64.9564 212.927 63.5316 211.712 62.4899C210.497 61.4483 208.964 60.8521 207.364 60.7998C206.649 60.7792 205.938 60.9227 205.287 61.2193C204.636 61.5159 204.061 61.9577 203.607 62.5108C203.154 63.0639 202.832 63.7137 202.668 64.4102C202.505 65.1067 202.502 65.8315 202.662 66.529Z" fill="#F5F5F5"/>
<path d="M187.086 66.5292C187.38 68.0951 188.197 69.5148 189.403 70.5556C190.61 71.5965 192.134 72.1969 193.726 72.2585C194.441 72.2791 195.151 72.1356 195.803 71.839C196.454 71.5424 197.028 71.1006 197.482 70.5475C197.936 69.9944 198.257 69.3446 198.421 68.6481C198.585 67.9515 198.587 67.2267 198.428 66.5292C198.129 64.9579 197.305 63.5348 196.091 62.4937C194.877 61.4525 193.345 60.8553 191.746 60.8C191.034 60.7842 190.327 60.9314 189.681 61.2303C189.034 61.5291 188.464 61.9718 188.015 62.5245C187.565 63.0772 187.248 63.7253 187.087 64.4194C186.926 65.1134 186.926 65.8351 187.086 66.5292Z" fill="#F5F5F5"/>
<path d="M311.326 21.1553H162.791L163.359 24.9887L305.939 28.939L314.741 78.4311L321.005 78.2306L311.326 21.1553Z" fill="#F0F0F0"/>
<path d="M311.325 21.1553L324.195 26.6924L329.089 69.7119L321.005 78.2306L311.325 21.1553Z" fill="#EBEBEB"/>
<path d="M166.842 226.397L179.845 268.64L329.599 226.397L351.339 274.369H27.2852L166.842 226.397Z" fill="#E0E0E0"/>
<path d="M166.841 226.397H17.7387L1.56152 274.369H150.664L166.841 226.397Z" fill="#EBEBEB"/>
<path d="M32.7637 256.338L34.7013 254.726C34.8804 255.326 35.2562 255.849 35.7682 256.209C36.2803 256.57 36.8988 256.748 37.5241 256.714C39.42 256.714 40.7896 255.562 41.5496 253.315L44.74 243.869H38.685L39.3866 241.781H47.8134L43.9633 253.156C42.6938 256.898 40.2468 258.735 36.8309 258.735C34.8766 258.752 33.3149 257.892 32.7637 256.338Z" fill="white"/>
<path d="M49.3251 251.327L52.5488 241.798H54.9207L51.722 251.235C50.4609 254.943 51.5967 256.622 54.6117 256.622C57.6266 256.622 59.915 254.952 61.1761 251.235L64.3748 241.798H66.6965L63.4644 251.327C61.7941 256.196 58.2948 258.752 53.8684 258.752C49.442 258.752 47.6714 256.196 49.3251 251.327Z" fill="white"/>
<path d="M86.0301 241.798L80.351 258.56H78.3883L72.5422 246.032L68.3079 258.56H65.9443L71.6235 241.798H73.5861L79.4323 254.325L83.6666 241.798H86.0301Z" fill="white"/>
<path d="M91.0502 241.798H93.4472L87.768 258.56H85.3711L91.0502 241.798Z" fill="white"/>
<path d="M94.265 250.183C95.145 247.728 96.7455 245.596 98.8569 244.066C100.968 242.535 103.493 241.678 106.099 241.605C111.194 241.605 113.741 245.247 112.071 250.183C111.198 252.632 109.607 254.76 107.504 256.289C105.401 257.819 102.885 258.677 100.287 258.751C95.142 258.751 92.603 255.093 94.265 250.183ZM109.682 250.183C110.935 246.466 109.089 243.743 105.373 243.743C103.444 243.816 101.581 244.469 100.03 245.618C98.4782 246.767 97.3102 248.358 96.6787 250.183C95.4176 253.891 97.2716 256.622 101.03 256.622C102.951 256.539 104.803 255.881 106.346 254.733C107.889 253.585 109.051 251.999 109.682 250.183Z" fill="white"/>
<path d="M124.089 258.56L122.227 253.415C121.885 253.415 121.517 253.465 121.158 253.465H116.982L115.253 258.56H112.856L118.536 241.798H125.075C129.426 241.798 131.314 244.003 130.086 247.644C129.664 248.901 128.946 250.039 127.993 250.96C127.039 251.882 125.878 252.56 124.607 252.939L126.678 258.56H124.089ZM127.722 247.644C128.558 245.247 127.388 243.886 124.332 243.886H120.256L117.7 251.402H121.776C124.833 251.427 126.912 250.041 127.722 247.644Z" fill="white"/>
<path d="M329.599 226.397H180.497L164.319 274.369H313.422L329.599 226.397Z" fill="#EBEBEB"/>
<path d="M196.549 255.403L198.035 253.574C198.644 254.218 199.387 254.721 200.21 255.049C201.034 255.376 201.919 255.52 202.804 255.47C205.635 255.47 207.222 254.367 207.707 252.964C209.068 248.964 198.278 251.494 200.34 245.397C201.176 242.892 203.898 240.712 208.208 240.712C209.921 240.628 211.609 241.141 212.985 242.165L211.574 244.044C210.419 243.148 208.992 242.676 207.531 242.708C204.742 242.708 203.155 243.877 202.671 245.306C201.309 249.314 212.091 246.809 210.045 252.822C209.21 255.328 206.454 257.491 202.128 257.491C199.622 257.466 197.451 256.622 196.549 255.403Z" fill="white"/>
<path d="M213.393 249.072C214.261 246.679 215.83 244.602 217.894 243.113C219.959 241.623 222.424 240.79 224.969 240.721C229.98 240.721 232.444 244.287 230.815 249.072C229.956 251.462 228.397 253.537 226.341 255.027C224.285 256.517 221.828 257.352 219.29 257.424C214.254 257.466 211.765 253.891 213.393 249.072ZM228.468 249.072C229.696 245.448 227.892 242.775 224.292 242.775C222.402 242.845 220.577 243.483 219.056 244.606C217.535 245.73 216.388 247.286 215.765 249.072C214.538 252.705 216.35 255.378 220.025 255.378C221.902 255.295 223.711 254.649 225.217 253.525C226.723 252.4 227.855 250.849 228.468 249.072Z" fill="white"/>
<path d="M233.054 249.072C233.91 246.682 235.469 244.605 237.525 243.115C239.582 241.625 242.04 240.79 244.579 240.721C247.084 240.721 249.022 241.556 249.949 243.276L247.92 244.704C247.502 244.05 246.913 243.522 246.217 243.179C245.52 242.836 244.743 242.69 243.969 242.759C242.073 242.823 240.24 243.459 238.711 244.582C237.182 245.706 236.028 247.265 235.4 249.056C234.164 252.689 236.002 255.361 239.702 255.361C241.634 255.325 243.497 254.63 244.98 253.39L245.999 254.868C243.994 256.526 241.476 257.438 238.875 257.449C233.914 257.466 231.417 253.891 233.054 249.072Z" fill="white"/>
<path d="M249.631 249.072C250.488 246.682 252.047 244.605 254.103 243.115C256.159 241.625 258.618 240.79 261.156 240.721C263.662 240.721 265.591 241.556 266.518 243.276L264.497 244.704C264.079 244.05 263.49 243.523 262.794 243.18C262.097 242.837 261.32 242.691 260.547 242.759C258.649 242.823 256.815 243.458 255.285 244.582C253.755 245.705 252.599 247.265 251.97 249.056C250.742 252.689 252.571 255.361 256.271 255.361C258.204 255.327 260.066 254.631 261.549 253.39L262.576 254.868C260.57 256.525 258.053 257.436 255.452 257.449C250.491 257.466 247.986 253.891 249.631 249.072Z" fill="white"/>
<path d="M277.693 255.235L277.008 257.273H265.115L270.669 240.879H282.228L281.543 242.917H272.314L270.644 247.928H278.862L278.186 249.915H269.968L268.18 255.21L277.693 255.235Z" fill="white"/>
<path d="M291.749 257.273L289.92 252.262C289.586 252.262 289.227 252.312 288.876 252.312H284.825L283.155 257.323H280.816L286.37 240.929H292.759C297.019 240.929 298.864 243.083 297.662 246.641C297.248 247.871 296.545 248.982 295.612 249.884C294.679 250.785 293.543 251.448 292.3 251.819L294.321 257.323L291.749 257.273ZM295.298 246.591C296.092 244.253 294.981 242.916 291.958 242.916H287.974L285.468 250.291H289.452C292.475 250.291 294.505 248.938 295.298 246.591Z" fill="white"/>
<path d="M180.195 311.15C269.627 311.15 342.126 306.918 342.126 301.696C342.126 296.475 269.627 292.242 180.195 292.242C90.7635 292.242 18.2646 296.475 18.2646 301.696C18.2646 306.918 90.7635 311.15 180.195 311.15Z" fill="#F5F5F5"/>
<path d="M308.736 205.342C308.787 205.29 308.823 205.226 308.841 205.155C308.859 205.085 308.857 205.011 308.837 204.941C308.808 204.852 308.749 204.775 308.67 204.724L297.812 106.567C297.804 106.464 297.757 106.369 297.681 106.299C297.606 106.229 297.506 106.191 297.403 106.191H248.964L248.905 105.64C248.898 105.585 248.881 105.532 248.854 105.484C248.827 105.436 248.791 105.394 248.747 105.359C248.704 105.325 248.654 105.3 248.601 105.285C248.548 105.27 248.492 105.266 248.437 105.273C248.383 105.279 248.33 105.296 248.281 105.323C248.233 105.351 248.191 105.387 248.157 105.43C248.123 105.474 248.097 105.523 248.083 105.577C248.068 105.63 248.063 105.685 248.07 105.74L248.128 106.191H173.297L173.189 105.615C173.167 105.506 173.103 105.41 173.01 105.348C172.918 105.285 172.806 105.261 172.696 105.281C172.642 105.292 172.591 105.313 172.546 105.344C172.5 105.375 172.461 105.414 172.431 105.46C172.401 105.506 172.38 105.557 172.369 105.611C172.359 105.665 172.359 105.72 172.37 105.774L172.454 106.191H64.475C64.4095 106.192 64.3451 106.209 64.287 106.239C64.229 106.269 64.179 106.313 64.141 106.367C64.1029 106.419 64.0777 106.479 64.0675 106.543C64.0574 106.607 64.0625 106.673 64.0825 106.734L69.8786 125.567C70.0372 126.402 72.0416 137.46 69.0434 147.281L65.3102 126.862C65.3003 126.807 65.2797 126.754 65.2496 126.708C65.2195 126.661 65.1805 126.62 65.1347 126.588C65.089 126.557 65.0374 126.534 64.983 126.522C64.9285 126.51 64.8723 126.509 64.8174 126.519C64.7626 126.529 64.7102 126.55 64.6634 126.58C64.6165 126.61 64.576 126.649 64.5442 126.695C64.5124 126.74 64.4899 126.792 64.478 126.846C64.4662 126.901 64.4652 126.957 64.475 127.012L68.4755 148.935C67.5917 151.428 66.2679 153.742 64.5669 155.767C64.528 155.805 64.4971 155.85 64.476 155.901C64.4549 155.951 64.4441 156.005 64.4441 156.059C64.4441 156.114 64.4549 156.167 64.476 156.218C64.4971 156.268 64.528 156.313 64.5669 156.351C64.6517 156.423 64.7611 156.459 64.8719 156.451C64.9826 156.443 65.086 156.392 65.1599 156.31C66.6379 154.554 67.8378 152.583 68.7177 150.463L72.7682 172.044C70.5711 173.861 67.7928 174.824 64.9427 174.758C64.832 174.758 64.7257 174.802 64.6474 174.881C64.5691 174.959 64.5251 175.065 64.5251 175.176C64.5251 175.287 64.5691 175.393 64.6474 175.471C64.7257 175.55 64.832 175.594 64.9427 175.594C67.8242 175.658 70.6423 174.743 72.9353 172.996L78.8482 205.326C74.0751 207.226 69.0447 208.403 63.9238 208.817C63.8689 208.821 63.8154 208.836 63.7663 208.861C63.7172 208.886 63.6736 208.92 63.6379 208.962C63.6022 209.004 63.5751 209.053 63.5583 209.105C63.5414 209.157 63.5351 209.213 63.5396 209.268C63.5502 209.378 63.6032 209.479 63.6874 209.551C63.7716 209.623 63.8803 209.659 63.9906 209.652C69.1458 209.237 74.2115 208.064 79.0236 206.169L86.607 247.652C79.0992 250.347 71.3238 252.229 63.4144 253.264C63.3048 253.279 63.2055 253.336 63.1381 253.424C63.0708 253.512 63.041 253.622 63.0552 253.732C63.0602 253.787 63.0765 253.841 63.1032 253.889C63.1299 253.938 63.1664 253.98 63.2104 254.014C63.2543 254.048 63.3048 254.072 63.3586 254.085C63.4124 254.099 63.4683 254.1 63.5229 254.091C71.4457 253.054 79.2348 251.173 86.7573 248.479L91.9771 277.275H64.475C64.3643 277.275 64.2581 277.319 64.1797 277.398C64.1014 277.476 64.0574 277.582 64.0574 277.693C64.0596 277.803 64.1043 277.908 64.1821 277.986C64.26 278.064 64.3649 278.108 64.475 278.11H316.328C316.387 278.111 316.445 278.098 316.498 278.074C316.552 278.049 316.599 278.013 316.637 277.968C316.677 277.925 316.708 277.873 316.726 277.817C316.745 277.761 316.752 277.702 316.746 277.643L308.736 205.342ZM173.598 277.275L169.572 259.628C180.572 261.348 191.662 262.419 202.787 262.835L205.577 277.275H173.598ZM144.659 277.275L138.053 252.604C148.107 255.539 158.336 257.837 168.679 259.486L172.746 277.275H144.659ZM106.008 240.044C109.775 242.065 120.389 247.335 137.11 252.329L143.791 277.275H117.475L106.008 240.044ZM93.0879 198.068C93.1299 198.029 93.1746 197.993 93.2215 197.959C94.8918 198.377 106.634 201.217 124.298 204.474L136.826 251.352C119.153 246.032 108.43 240.436 105.624 238.866L93.0879 198.068ZM70.864 125.926C73.7621 126.285 86.2144 127.772 104.187 129.409L113.374 163.851C102.149 161.807 91.0381 159.184 80.0843 155.992L70.864 125.926ZM303.316 163.759L307.834 204.799C306.392 205.234 304.931 205.649 303.45 206.044L299.558 164.528C300.752 164.294 301.947 164.068 303.141 163.818C303.204 163.815 303.264 163.795 303.316 163.759ZM302.631 206.286C297.027 207.781 291.231 209.025 285.285 210.061L281.293 167.776C287.044 166.891 292.86 165.881 298.74 164.745L302.631 206.286ZM284.467 210.211C277.017 211.481 269.358 212.408 261.575 213.059L256.622 170.917C264.417 170.132 272.365 169.129 280.466 167.91L284.467 210.211ZM226.13 214.187C215.273 214.053 204.416 213.527 193.976 212.725L186.276 172.938C196.782 173.355 208.032 173.489 219.875 173.188L226.13 214.187ZM220.718 173.163C231.934 172.863 243.669 172.169 255.795 170.967L260.756 213.101C249.615 213.995 238.257 214.312 226.965 214.195L220.718 173.163ZM193.116 212.658C180.814 211.706 168.98 210.387 158.039 208.925L149.128 170.098C159.784 171.309 171.978 172.336 185.399 172.896L193.116 212.658ZM157.112 208.792C145.135 207.171 134.237 205.376 124.958 203.689L114.56 164.912C123.505 166.582 133.936 168.253 145.603 169.672L148.251 169.981L157.112 208.792ZM157.329 209.744L168.503 258.576C158.141 256.913 147.895 254.592 137.828 251.627L125.208 204.616C134.504 206.336 145.403 208.132 157.329 209.752V209.744ZM158.214 209.861C161.78 210.337 165.438 210.804 169.172 211.239C176.688 212.116 184.773 212.909 193.266 213.577L202.62 261.95C191.472 261.528 180.359 260.449 169.339 258.718L158.214 209.861ZM194.126 213.644C204.382 214.404 215.198 214.93 226.239 215.047L233.346 261.591C227.425 261.975 221.127 262.184 214.429 262.184C210.696 262.184 207.046 262.109 203.48 261.983L194.126 213.644ZM227.09 215.055C228.368 215.055 229.646 215.055 230.932 215.055C240.846 215.055 250.901 214.705 260.84 213.903L265.942 257.273C255.475 259.418 244.87 260.833 234.206 261.507L227.09 215.055ZM261.675 213.853C269.408 213.201 277.067 212.274 284.542 211.005L288.333 251.034C281.292 253.552 274.087 255.586 266.769 257.123L261.675 213.853ZM256.522 170.056L252.112 132.583C260.823 131.814 269.133 130.779 276.825 129.434L280.416 167.033C272.298 168.28 264.333 169.291 256.522 170.065V170.056ZM255.687 170.132C243.535 171.326 231.784 172.019 220.568 172.32L214.772 134.361C227.299 134.186 239.651 133.652 251.277 132.691L255.687 170.132ZM219.724 172.345C207.865 172.645 196.607 172.512 186.092 172.086L178.734 134.044C190.377 134.386 202.236 134.528 213.928 134.378L219.724 172.345ZM185.207 172.044C171.761 171.476 159.559 170.441 148.902 169.221L140.459 132.223C152.268 132.983 164.921 133.626 177.849 134.019L185.207 172.044ZM148.025 169.121L145.703 168.845C133.869 167.417 123.313 165.714 114.301 164.018L105.047 129.484C115.069 130.394 126.854 131.346 139.582 132.165L148.025 169.121ZM113.625 164.736L124.022 203.53C105.407 200.114 93.5723 197.183 93.1881 197.082C93.1207 197.067 93.0505 197.068 92.9836 197.085C92.9167 197.103 92.855 197.136 92.8039 197.183L80.41 156.936C83.3916 157.846 95.2593 161.262 113.65 164.745L113.625 164.736ZM203.639 262.835C207.152 262.963 210.749 263.027 214.429 263.027C221.169 263.027 227.508 262.81 233.471 262.426L235.734 277.275H206.428L203.639 262.835ZM234.306 262.368C244.971 261.69 255.575 260.272 266.043 258.125L268.289 277.275H236.553L234.306 262.368ZM266.878 257.949C274.19 256.42 281.389 254.394 288.425 251.886L290.805 277.275H269.133L266.878 257.949ZM289.235 251.594C295.099 249.495 300.766 246.885 306.173 243.793L309.313 277.2H291.649L289.235 251.594ZM289.16 250.759L285.385 210.888C291.315 209.852 297.078 208.599 302.732 207.113L306.072 242.891C300.676 246.014 295.011 248.644 289.143 250.75L289.16 250.759ZM303.55 206.904C305.026 206.503 306.49 206.086 307.943 205.651L311.66 239.35C311.592 239.328 311.519 239.322 311.449 239.336C311.379 239.349 311.313 239.38 311.259 239.425C309.868 240.519 308.406 241.517 306.882 242.415L303.55 206.904ZM297.078 107.035L303.249 163.074C303.17 163.031 303.079 163.017 302.991 163.033C301.821 163.275 300.66 163.5 299.5 163.726L298.723 155.424C298.71 155.314 298.655 155.213 298.569 155.143C298.484 155.073 298.374 155.039 298.263 155.049C298.153 155.061 298.053 155.116 297.982 155.202C297.912 155.288 297.878 155.397 297.888 155.508L298.673 163.86C292.804 165.006 286.989 166.023 281.226 166.908L277.668 129.275C284.701 128.071 291.642 126.377 298.439 124.206C298.55 124.17 298.642 124.092 298.695 123.989C298.748 123.886 298.758 123.765 298.723 123.655C298.687 123.544 298.609 123.452 298.506 123.398C298.403 123.345 298.282 123.335 298.172 123.371C291.437 125.517 284.561 127.191 277.593 128.382L275.655 107.953C275.65 107.899 275.634 107.845 275.608 107.797C275.582 107.748 275.546 107.705 275.504 107.67C275.461 107.635 275.412 107.609 275.359 107.593C275.306 107.577 275.251 107.572 275.196 107.578C275.141 107.583 275.088 107.599 275.04 107.625C274.991 107.651 274.948 107.687 274.913 107.729C274.878 107.772 274.852 107.821 274.836 107.874C274.82 107.927 274.815 107.982 274.82 108.037L276.75 128.615C269.049 129.968 260.739 131.004 252.02 131.772L249.106 107.035H297.078ZM251.185 131.839C239.543 132.833 227.199 133.368 214.646 133.51L210.596 106.993H248.262L251.185 131.839ZM209.769 107.026C209.769 107.026 209.769 107.076 209.769 107.102L213.811 133.56C202.119 133.71 190.235 133.56 178.576 133.217L173.514 107.026H209.769ZM177.69 133.192C164.745 132.791 152.084 132.148 140.258 131.388L134.696 107.026H172.679L177.69 133.192ZM133.861 107.026C133.857 107.062 133.857 107.099 133.861 107.135L139.381 131.355C126.628 130.52 114.869 129.576 104.805 128.657L99.4602 108.713C99.4466 108.66 99.4226 108.61 99.3896 108.566C99.3566 108.522 99.3152 108.485 99.2679 108.457C99.2205 108.429 99.1682 108.411 99.1138 108.403C99.0593 108.396 99.0039 108.399 98.9507 108.413C98.8441 108.444 98.7539 108.515 98.6993 108.612C98.6447 108.709 98.63 108.823 98.6584 108.931L103.92 128.582C85.1872 126.862 72.526 125.317 70.5634 125.074L65.0095 107.051L133.861 107.026ZM69.3691 148.977C71.741 142.371 71.6825 134.946 71.29 130.211L79.3577 156.41C79.2992 157.42 78.6562 166.432 73.5115 171.443L69.3691 148.977ZM73.6535 172.412C78.0799 168.445 79.4997 161.83 79.9841 158.456L92.1024 197.776C88.2892 200.773 84.0717 203.216 79.5749 205.033L73.6535 172.412ZM79.7669 205.868C84.2767 204.046 88.5145 201.613 92.3613 198.636L104.605 238.373C104.527 238.388 104.453 238.419 104.388 238.465C104.304 238.54 98.7002 243.125 87.3503 247.385L79.7669 205.868ZM87.4922 248.211C97.8149 244.361 103.502 240.202 104.68 239.292L104.922 239.425L116.615 277.242H92.829L87.4922 248.211ZM310.131 277.275L306.949 243.359C308.613 242.392 310.209 241.312 311.726 240.127L315.819 277.275H310.131Z" fill="#263238"/>
<g opacity="0.6">
<path d="M308.736 205.342C308.787 205.29 308.823 205.226 308.841 205.155C308.859 205.085 308.857 205.011 308.837 204.941C308.808 204.852 308.749 204.775 308.67 204.724L297.812 106.567C297.804 106.464 297.757 106.369 297.681 106.299C297.606 106.229 297.506 106.191 297.403 106.191H248.964L248.905 105.64C248.898 105.585 248.881 105.532 248.854 105.484C248.827 105.436 248.791 105.394 248.747 105.359C248.704 105.325 248.654 105.3 248.601 105.285C248.548 105.27 248.492 105.266 248.437 105.273C248.383 105.279 248.33 105.296 248.281 105.323C248.233 105.351 248.191 105.387 248.157 105.43C248.123 105.474 248.097 105.523 248.083 105.577C248.068 105.63 248.063 105.685 248.07 105.74L248.128 106.191H173.297L173.189 105.615C173.167 105.506 173.103 105.41 173.01 105.348C172.918 105.285 172.806 105.261 172.696 105.281C172.642 105.292 172.591 105.313 172.546 105.344C172.5 105.375 172.461 105.414 172.431 105.46C172.401 105.506 172.38 105.557 172.369 105.611C172.359 105.665 172.359 105.72 172.37 105.774L172.454 106.191H64.475C64.4095 106.192 64.3451 106.209 64.287 106.239C64.229 106.269 64.179 106.313 64.141 106.367C64.1029 106.419 64.0777 106.479 64.0675 106.543C64.0574 106.607 64.0625 106.673 64.0825 106.734L69.8786 125.567C70.0372 126.402 72.0416 137.46 69.0434 147.281L65.3102 126.862C65.3003 126.807 65.2797 126.754 65.2496 126.708C65.2195 126.661 65.1805 126.62 65.1347 126.588C65.089 126.557 65.0374 126.534 64.983 126.522C64.9285 126.51 64.8723 126.509 64.8174 126.519C64.7626 126.529 64.7102 126.55 64.6634 126.58C64.6165 126.61 64.576 126.649 64.5442 126.695C64.5124 126.74 64.4899 126.792 64.478 126.846C64.4662 126.901 64.4652 126.957 64.475 127.012L68.4755 148.935C67.5917 151.428 66.2679 153.742 64.5669 155.767C64.528 155.805 64.4971 155.85 64.476 155.901C64.4549 155.951 64.4441 156.005 64.4441 156.059C64.4441 156.114 64.4549 156.167 64.476 156.218C64.4971 156.268 64.528 156.313 64.5669 156.351C64.6517 156.423 64.7611 156.459 64.8719 156.451C64.9826 156.443 65.086 156.392 65.1599 156.31C66.6379 154.554 67.8378 152.583 68.7177 150.463L72.7682 172.044C70.5711 173.861 67.7928 174.824 64.9427 174.758C64.832 174.758 64.7257 174.802 64.6474 174.881C64.5691 174.959 64.5251 175.065 64.5251 175.176C64.5251 175.287 64.5691 175.393 64.6474 175.471C64.7257 175.55 64.832 175.594 64.9427 175.594C67.8242 175.658 70.6423 174.743 72.9353 172.996L78.8482 205.326C74.0751 207.226 69.0447 208.403 63.9238 208.817C63.8689 208.821 63.8154 208.836 63.7663 208.861C63.7172 208.886 63.6736 208.92 63.6379 208.962C63.6022 209.004 63.5751 209.053 63.5583 209.105C63.5414 209.157 63.5351 209.213 63.5396 209.268C63.5502 209.378 63.6032 209.479 63.6874 209.551C63.7716 209.623 63.8803 209.659 63.9906 209.652C69.1458 209.237 74.2115 208.064 79.0236 206.169L86.607 247.652C79.0992 250.347 71.3238 252.229 63.4144 253.264C63.3048 253.279 63.2055 253.336 63.1381 253.424C63.0708 253.512 63.041 253.622 63.0552 253.732C63.0602 253.787 63.0765 253.841 63.1032 253.889C63.1299 253.938 63.1664 253.98 63.2104 254.014C63.2543 254.048 63.3048 254.072 63.3586 254.085C63.4124 254.099 63.4683 254.1 63.5229 254.091C71.4457 253.054 79.2348 251.173 86.7573 248.479L91.9771 277.275H64.475C64.3643 277.275 64.2581 277.319 64.1797 277.398C64.1014 277.476 64.0574 277.582 64.0574 277.693C64.0596 277.803 64.1043 277.908 64.1821 277.986C64.26 278.064 64.3649 278.108 64.475 278.11H316.328C316.387 278.111 316.445 278.098 316.498 278.074C316.552 278.049 316.599 278.013 316.637 277.968C316.677 277.925 316.708 277.873 316.726 277.817C316.745 277.761 316.752 277.702 316.746 277.643L308.736 205.342ZM173.598 277.275L169.572 259.628C180.572 261.348 191.662 262.419 202.787 262.835L205.577 277.275H173.598ZM144.659 277.275L138.053 252.604C148.107 255.539 158.336 257.837 168.679 259.486L172.746 277.275H144.659ZM106.008 240.044C109.775 242.065 120.389 247.335 137.11 252.329L143.791 277.275H117.475L106.008 240.044ZM93.0879 198.068C93.1299 198.029 93.1746 197.993 93.2215 197.959C94.8918 198.377 106.634 201.217 124.298 204.474L136.826 251.352C119.153 246.032 108.43 240.436 105.624 238.866L93.0879 198.068ZM70.864 125.926C73.7621 126.285 86.2144 127.772 104.187 129.409L113.374 163.851C102.149 161.807 91.0381 159.184 80.0843 155.992L70.864 125.926ZM303.316 163.759L307.834 204.799C306.392 205.234 304.931 205.649 303.45 206.044L299.558 164.528C300.752 164.294 301.947 164.068 303.141 163.818C303.204 163.815 303.264 163.795 303.316 163.759ZM302.631 206.286C297.027 207.781 291.231 209.025 285.285 210.061L281.293 167.776C287.044 166.891 292.86 165.881 298.74 164.745L302.631 206.286ZM284.467 210.211C277.017 211.481 269.358 212.408 261.575 213.059L256.622 170.917C264.417 170.132 272.365 169.129 280.466 167.91L284.467 210.211ZM226.13 214.187C215.273 214.053 204.416 213.527 193.976 212.725L186.276 172.938C196.782 173.355 208.032 173.489 219.875 173.188L226.13 214.187ZM220.718 173.163C231.934 172.863 243.669 172.169 255.795 170.967L260.756 213.101C249.615 213.995 238.257 214.312 226.965 214.195L220.718 173.163ZM193.116 212.658C180.814 211.706 168.98 210.387 158.039 208.925L149.128 170.098C159.784 171.309 171.978 172.336 185.399 172.896L193.116 212.658ZM157.112 208.792C145.135 207.171 134.237 205.376 124.958 203.689L114.56 164.912C123.505 166.582 133.936 168.253 145.603 169.672L148.251 169.981L157.112 208.792ZM157.329 209.744L168.503 258.576C158.141 256.913 147.895 254.592 137.828 251.627L125.208 204.616C134.504 206.336 145.403 208.132 157.329 209.752V209.744ZM158.214 209.861C161.78 210.337 165.438 210.804 169.172 211.239C176.688 212.116 184.773 212.909 193.266 213.577L202.62 261.95C191.472 261.528 180.359 260.449 169.339 258.718L158.214 209.861ZM194.126 213.644C204.382 214.404 215.198 214.93 226.239 215.047L233.346 261.591C227.425 261.975 221.127 262.184 214.429 262.184C210.696 262.184 207.046 262.109 203.48 261.983L194.126 213.644ZM227.09 215.055C228.368 215.055 229.646 215.055 230.932 215.055C240.846 215.055 250.901 214.705 260.84 213.903L265.942 257.273C255.475 259.418 244.87 260.833 234.206 261.507L227.09 215.055ZM261.675 213.853C269.408 213.201 277.067 212.274 284.542 211.005L288.333 251.034C281.292 253.552 274.087 255.586 266.769 257.123L261.675 213.853ZM256.522 170.056L252.112 132.583C260.823 131.814 269.133 130.779 276.825 129.434L280.416 167.033C272.298 168.28 264.333 169.291 256.522 170.065V170.056ZM255.687 170.132C243.535 171.326 231.784 172.019 220.568 172.32L214.772 134.361C227.299 134.186 239.651 133.652 251.277 132.691L255.687 170.132ZM219.724 172.345C207.865 172.645 196.607 172.512 186.092 172.086L178.734 134.044C190.377 134.386 202.236 134.528 213.928 134.378L219.724 172.345ZM185.207 172.044C171.761 171.476 159.559 170.441 148.902 169.221L140.459 132.223C152.268 132.983 164.921 133.626 177.849 134.019L185.207 172.044ZM148.025 169.121L145.703 168.845C133.869 167.417 123.313 165.714 114.301 164.018L105.047 129.484C115.069 130.394 126.854 131.346 139.582 132.165L148.025 169.121ZM113.625 164.736L124.022 203.53C105.407 200.114 93.5723 197.183 93.1881 197.082C93.1207 197.067 93.0505 197.068 92.9836 197.085C92.9167 197.103 92.855 197.136 92.8039 197.183L80.41 156.936C83.3916 157.846 95.2593 161.262 113.65 164.745L113.625 164.736ZM203.639 262.835C207.152 262.963 210.749 263.027 214.429 263.027C221.169 263.027 227.508 262.81 233.471 262.426L235.734 277.275H206.428L203.639 262.835ZM234.306 262.368C244.971 261.69 255.575 260.272 266.043 258.125L268.289 277.275H236.553L234.306 262.368ZM266.878 257.949C274.19 256.42 281.389 254.394 288.425 251.886L290.805 277.275H269.133L266.878 257.949ZM289.235 251.594C295.099 249.495 300.766 246.885 306.173 243.793L309.313 277.2H291.649L289.235 251.594ZM289.16 250.759L285.385 210.888C291.315 209.852 297.078 208.599 302.732 207.113L306.072 242.891C300.676 246.014 295.011 248.644 289.143 250.75L289.16 250.759ZM303.55 206.904C305.026 206.503 306.49 206.086 307.943 205.651L311.66 239.35C311.592 239.328 311.519 239.322 311.449 239.336C311.379 239.349 311.313 239.38 311.259 239.425C309.868 240.519 308.406 241.517 306.882 242.415L303.55 206.904ZM297.078 107.035L303.249 163.074C303.17 163.031 303.079 163.017 302.991 163.033C301.821 163.275 300.66 163.5 299.5 163.726L298.723 155.424C298.71 155.314 298.655 155.213 298.569 155.143C298.484 155.073 298.374 155.039 298.263 155.049C298.153 155.061 298.053 155.116 297.982 155.202C297.912 155.288 297.878 155.397 297.888 155.508L298.673 163.86C292.804 165.006 286.989 166.023 281.226 166.908L277.668 129.275C284.701 128.071 291.642 126.377 298.439 124.206C298.55 124.17 298.642 124.092 298.695 123.989C298.748 123.886 298.758 123.765 298.723 123.655C298.687 123.544 298.609 123.452 298.506 123.398C298.403 123.345 298.282 123.335 298.172 123.371C291.437 125.517 284.561 127.191 277.593 128.382L275.655 107.953C275.65 107.899 275.634 107.845 275.608 107.797C275.582 107.748 275.546 107.705 275.504 107.67C275.461 107.635 275.412 107.609 275.359 107.593C275.306 107.577 275.251 107.572 275.196 107.578C275.141 107.583 275.088 107.599 275.04 107.625C274.991 107.651 274.948 107.687 274.913 107.729C274.878 107.772 274.852 107.821 274.836 107.874C274.82 107.927 274.815 107.982 274.82 108.037L276.75 128.615C269.049 129.968 260.739 131.004 252.02 131.772L249.106 107.035H297.078ZM251.185 131.839C239.543 132.833 227.199 133.368 214.646 133.51L210.596 106.993H248.262L251.185 131.839ZM209.769 107.026C209.769 107.026 209.769 107.076 209.769 107.102L213.811 133.56C202.119 133.71 190.235 133.56 178.576 133.217L173.514 107.026H209.769ZM177.69 133.192C164.745 132.791 152.084 132.148 140.258 131.388L134.696 107.026H172.679L177.69 133.192ZM133.861 107.026C133.857 107.062 133.857 107.099 133.861 107.135L139.381 131.355C126.628 130.52 114.869 129.576 104.805 128.657L99.4602 108.713C99.4466 108.66 99.4226 108.61 99.3896 108.566C99.3566 108.522 99.3152 108.485 99.2679 108.457C99.2205 108.429 99.1682 108.411 99.1138 108.403C99.0593 108.396 99.0039 108.399 98.9507 108.413C98.8441 108.444 98.7539 108.515 98.6993 108.612C98.6447 108.709 98.63 108.823 98.6584 108.931L103.92 128.582C85.1872 126.862 72.526 125.317 70.5634 125.074L65.0095 107.051L133.861 107.026ZM69.3691 148.977C71.741 142.371 71.6825 134.946 71.29 130.211L79.3577 156.41C79.2992 157.42 78.6562 166.432 73.5115 171.443L69.3691 148.977ZM73.6535 172.412C78.0799 168.445 79.4997 161.83 79.9841 158.456L92.1024 197.776C88.2892 200.773 84.0717 203.216 79.5749 205.033L73.6535 172.412ZM79.7669 205.868C84.2767 204.046 88.5145 201.613 92.3613 198.636L104.605 238.373C104.527 238.388 104.453 238.419 104.388 238.465C104.304 238.54 98.7002 243.125 87.3503 247.385L79.7669 205.868ZM87.4922 248.211C97.8149 244.361 103.502 240.202 104.68 239.292L104.922 239.425L116.615 277.242H92.829L87.4922 248.211ZM310.131 277.275L306.949 243.359C308.613 242.392 310.209 241.312 311.726 240.127L315.819 277.275H310.131Z" fill="white"/>
</g>
<path d="M297.437 282.52C296.772 282.52 296.135 282.256 295.665 281.786C295.195 281.317 294.931 280.679 294.931 280.015V109.115H66.9807V280.015C66.9807 280.679 66.7168 281.317 66.2469 281.786C65.777 282.256 65.1397 282.52 64.4752 282.52C63.8107 282.52 63.1734 282.256 62.7036 281.786C62.2337 281.317 61.9697 280.679 61.9697 280.015V106.609C61.9697 105.945 62.2337 105.307 62.7036 104.837C63.1734 104.367 63.8107 104.104 64.4752 104.104H297.437C298.101 104.104 298.739 104.367 299.209 104.837C299.678 105.307 299.942 105.945 299.942 106.609V280.015C299.942 280.679 299.678 281.317 299.209 281.786C298.739 282.256 298.101 282.52 297.437 282.52Z" fill="#11377F"/>
<g opacity="0.5">
<path d="M297.437 282.52C296.772 282.52 296.135 282.256 295.665 281.786C295.195 281.317 294.931 280.679 294.931 280.015V109.115H66.9807V280.015C66.9807 280.679 66.7168 281.317 66.2469 281.786C65.777 282.256 65.1397 282.52 64.4752 282.52C63.8107 282.52 63.1734 282.256 62.7036 281.786C62.2337 281.317 61.9697 280.679 61.9697 280.015V106.609C61.9697 105.945 62.2337 105.307 62.7036 104.837C63.1734 104.367 63.8107 104.104 64.4752 104.104H297.437C298.101 104.104 298.739 104.367 299.209 104.837C299.678 105.307 299.942 105.945 299.942 106.609V280.015C299.942 280.679 299.678 281.317 299.209 281.786C298.739 282.256 298.101 282.52 297.437 282.52Z" fill="white"/>
</g>
<path d="M41.9258 304.143H72.3509C69.5111 303.011 66.4707 302.469 63.4146 302.548C63.4146 302.548 66.7052 297.612 65.3773 296.101C64.0494 294.589 60.7505 299.333 60.7505 299.333C60.7505 299.333 62.4208 292.242 59.0801 291.106C55.7395 289.97 55.1131 299.333 55.1131 299.333C55.1131 299.333 52.1399 294.405 50.1605 295.332C48.1812 296.259 49.3922 302.398 49.3922 302.398C48.0942 302.175 46.7646 302.214 45.4821 302.514C44.1996 302.814 42.9903 303.368 41.9258 304.143Z" fill="#11377F"/>
<path d="M23.3179 289.87H0C2.1762 289.002 4.50602 288.584 6.84837 288.642C6.84837 288.642 4.34287 284.867 5.34507 283.707C6.34727 282.546 8.88618 286.212 8.88618 286.212C8.88618 286.212 7.62508 280.784 10.1556 279.907C12.6862 279.03 13.1622 286.179 13.1622 286.179C13.1622 286.179 15.4422 282.412 16.9623 283.114C18.4823 283.815 17.5469 288.534 17.5469 288.534C18.5492 288.354 19.5775 288.38 20.5696 288.61C21.5616 288.839 22.4966 289.268 23.3179 289.87Z" fill="#11377F"/>
<path d="M358.838 297.578H335.537C337.713 296.71 340.043 296.292 342.385 296.351C342.385 296.351 339.88 292.567 340.882 291.415C341.884 290.262 344.432 293.92 344.432 293.92C344.432 293.92 343.162 288.484 345.693 287.615C348.223 286.746 348.733 293.92 348.733 293.92C348.733 293.92 351.013 290.146 352.533 290.855C354.053 291.565 353.117 296.276 353.117 296.276C354.11 296.098 355.127 296.122 356.11 296.346C357.093 296.57 358.021 296.989 358.838 297.578Z" fill="#11377F"/>
<g opacity="0.3">
<path d="M41.9258 304.143H72.3509C69.5111 303.011 66.4707 302.469 63.4146 302.548C63.4146 302.548 66.7052 297.612 65.3773 296.101C64.0494 294.589 60.7505 299.333 60.7505 299.333C60.7505 299.333 62.4208 292.242 59.0801 291.106C55.7395 289.97 55.1131 299.333 55.1131 299.333C55.1131 299.333 52.1399 294.405 50.1605 295.332C48.1812 296.259 49.3922 302.398 49.3922 302.398C48.0942 302.175 46.7646 302.214 45.4821 302.514C44.1996 302.814 42.9903 303.368 41.9258 304.143Z" fill="white"/>
<path d="M23.3179 289.87H0C2.1762 289.002 4.50602 288.584 6.84837 288.642C6.84837 288.642 4.34287 284.867 5.34507 283.707C6.34727 282.546 8.88618 286.212 8.88618 286.212C8.88618 286.212 7.62508 280.784 10.1556 279.907C12.6862 279.03 13.1622 286.179 13.1622 286.179C13.1622 286.179 15.4422 282.412 16.9623 283.114C18.4823 283.815 17.5469 288.534 17.5469 288.534C18.5492 288.354 19.5775 288.38 20.5696 288.61C21.5616 288.839 22.4966 289.268 23.3179 289.87Z" fill="white"/>
<path d="M358.838 297.578H335.537C337.713 296.71 340.043 296.292 342.385 296.351C342.385 296.351 339.88 292.567 340.882 291.415C341.884 290.262 344.432 293.92 344.432 293.92C344.432 293.92 343.162 288.484 345.693 287.615C348.223 286.746 348.733 293.92 348.733 293.92C348.733 293.92 351.013 290.146 352.533 290.855C354.053 291.565 353.117 296.276 353.117 296.276C354.11 296.098 355.127 296.122 356.11 296.346C357.093 296.57 358.021 296.989 358.838 297.578Z" fill="white"/>
</g>
<path d="M239.417 228.502C239.417 228.502 221.645 233.312 208.073 252.63C207.347 253.657 206.645 254.718 205.952 255.828C202.479 261.399 199.718 267.384 197.734 273.642L193.851 271.388C194.429 264.549 195.883 257.812 198.177 251.344C198.695 249.882 199.262 248.395 199.906 246.892C204.683 235.651 213.185 223.591 228.301 218.054L239.417 228.502Z" fill="#EBB376"/>
<path d="M208.073 252.629C207.347 253.656 206.645 254.717 205.952 255.828C202.479 261.399 199.718 267.384 197.734 273.642L193.851 271.387C194.429 264.548 195.883 257.812 198.177 251.343C198.695 249.882 199.262 248.395 199.906 246.892L208.073 252.629Z" fill="#263238"/>
<path opacity="0.3" d="M205.952 255.829C202.479 261.4 199.718 267.384 197.734 273.643L193.851 271.388C194.429 264.549 195.883 257.812 198.177 251.344C200.749 252.814 203.522 254.417 205.952 255.829Z" fill="white"/>
<path d="M270.218 273.735C270.494 286.705 271.304 295.708 271.304 295.708H266.218C264.314 288.634 262.702 281.209 261.357 273.935C258.434 257.756 256.365 241.433 255.16 225.036L272.699 225.921C270.227 242.358 269.934 260.205 270.218 273.735Z" fill="#EBB376"/>
<path d="M271.304 295.708H266.218C264.673 289.97 263.32 284.015 262.151 278.077C261.875 276.691 261.608 275.313 261.357 273.902C263.955 273.81 267.279 273.743 270.26 273.701C270.26 275.422 270.344 277.042 270.394 278.645C270.695 288.968 271.304 295.708 271.304 295.708Z" fill="#263238"/>
<path opacity="0.3" d="M271.304 295.708H266.218C264.673 289.97 263.32 284.015 262.15 278.077C264.564 278.227 267.813 278.445 270.393 278.678C270.694 288.968 271.304 295.708 271.304 295.708Z" fill="white"/>
<path d="M252.254 166.766C249.264 165.363 240.561 147.107 239.233 136.909L235.951 139.064C235.951 139.064 237.705 164.679 248.103 178.567C258.501 192.456 252.254 166.766 252.254 166.766Z" fill="#EBB376"/>
<path d="M279.012 172.37C282.294 172.704 299.115 161.513 305.52 153.437L307.191 156.969C307.191 156.969 292.534 178.049 276.482 184.622C260.43 191.194 279.012 172.37 279.012 172.37Z" fill="#EBB376"/>
<path d="M277.809 188.046C277.567 191.612 277.2 195.562 276.665 199.738C276.081 204.281 275.304 209.042 274.252 213.702L236.076 207.756C236.076 207.756 244.737 186.401 245.814 173.881C245.94 172.43 246.551 171.063 247.55 170.002C248.549 168.941 249.876 168.248 251.318 168.035C254.762 167.614 258.246 167.642 261.682 168.119C273.375 169.538 278.386 173.13 278.386 173.13C278.386 173.13 278.436 179.31 277.809 188.046Z" fill="#263238"/>
<path opacity="0.3" d="M277.809 188.046C277.567 191.612 277.2 195.562 276.665 199.738C276.081 204.281 275.304 209.042 274.252 213.702L236.076 207.756C236.076 207.756 244.737 186.401 245.814 173.881C245.94 172.43 246.551 171.063 247.55 170.002C248.549 168.941 249.876 168.248 251.318 168.035C254.762 167.614 258.246 167.642 261.682 168.119C273.375 169.538 278.386 173.13 278.386 173.13C278.386 173.13 278.436 179.31 277.809 188.046Z" fill="white"/>
<path d="M261.507 164.419C261.548 165.246 261.403 166.071 261.082 166.835C260.761 167.598 260.273 168.279 259.653 168.829C259.354 169.089 259.036 169.326 258.701 169.538C259.364 170.762 260.398 171.745 261.654 172.345C262.909 172.945 264.323 173.132 265.692 172.879L270.343 172.044L271.362 171.852C270.793 170.582 270.499 169.206 270.499 167.814C270.499 166.422 270.793 165.046 271.362 163.776C271.926 162.465 272.696 161.253 273.642 160.185L264.589 160.652L260.463 160.861C261.064 161.958 261.42 163.171 261.507 164.419Z" fill="#EBB376"/>
<path opacity="0.2" d="M261.507 164.42C261.548 165.246 261.403 166.072 261.082 166.835C260.761 167.598 260.273 168.28 259.653 168.829C264.489 169.456 268.957 166.04 271.346 163.751C271.91 162.441 272.679 161.228 273.626 160.16L264.572 160.628L260.447 160.837C261.057 161.94 261.419 163.162 261.507 164.42Z" fill="black"/>
<path d="M263.061 135.589C263.061 135.589 252.204 140.683 260.163 151.19C269.116 163.066 263.061 135.589 263.061 135.589Z" fill="#263238"/>
<path d="M281.669 153.311C279.414 160.101 273.567 166.766 267.571 166.34C256.572 165.563 252.972 162.498 253.799 154.406C254.509 147.106 259.829 136.633 269.041 136.792C278.253 136.951 284.8 143.899 281.669 153.311Z" fill="#EBB376"/>
<path d="M260.847 139.924C264.135 140.881 267.53 141.419 270.952 141.527C270.952 141.527 274.911 144.868 272.79 149.395C270.668 153.921 275.521 157.88 274.134 164.202C274.134 164.202 280.883 165.037 285.384 151.591C288.675 141.769 280.966 135.723 272.021 133.585C264.488 131.831 257.865 135.873 260.847 139.924Z" fill="#263238"/>
<path d="M265.382 151.291C265.132 152.126 264.455 152.735 263.879 152.56C263.303 152.385 263.044 151.541 263.328 150.673C263.612 149.804 264.255 149.236 264.823 149.403C265.391 149.57 265.633 150.422 265.382 151.291Z" fill="#263238"/>
<path d="M258.525 148.886C258.275 149.721 257.632 150.264 257.089 150.097C256.546 149.929 256.312 149.128 256.554 148.293C256.797 147.457 257.44 146.923 257.991 147.082C258.542 147.24 258.768 148.05 258.525 148.886Z" fill="#263238"/>
<path d="M264.08 147.206C264.003 147.167 263.937 147.11 263.888 147.039C263.844 146.941 263.84 146.83 263.875 146.729C263.911 146.628 263.984 146.545 264.08 146.496C264.656 146.194 265.296 146.036 265.947 146.036C266.597 146.036 267.237 146.194 267.813 146.496C267.905 146.553 267.97 146.644 267.995 146.748C268.02 146.853 268.003 146.964 267.947 147.056C267.887 147.144 267.797 147.207 267.694 147.233C267.591 147.259 267.482 147.247 267.387 147.198C266.925 146.965 266.412 146.848 265.895 146.856C265.377 146.865 264.869 146.999 264.414 147.248C264.301 147.276 264.182 147.261 264.08 147.206Z" fill="#263238"/>
<path d="M257.581 143.297C257.547 143.219 257.533 143.133 257.54 143.047C257.572 142.942 257.645 142.854 257.742 142.803C257.839 142.751 257.952 142.74 258.058 142.771C258.685 142.935 259.264 143.249 259.743 143.685C260.223 144.122 260.591 144.668 260.814 145.277C260.842 145.381 260.83 145.492 260.778 145.587C260.727 145.682 260.641 145.753 260.538 145.786C260.434 145.811 260.325 145.797 260.231 145.746C260.137 145.695 260.065 145.611 260.029 145.511C259.843 145.027 259.542 144.597 259.152 144.256C258.761 143.916 258.294 143.675 257.79 143.556C257.692 143.498 257.618 143.406 257.581 143.297Z" fill="#263238"/>
<path d="M260.012 150.589L258.826 154.364C257.877 154.066 257.043 153.483 256.438 152.693C257.746 152.212 258.956 151.499 260.012 150.589Z" fill="#D58745"/>
<path d="M272.815 155.524C272.815 155.524 275.789 151.791 277.609 153.721C279.43 155.65 277.067 162.59 273.818 161.696C270.569 160.803 270.728 157.395 272.815 155.524Z" fill="#EBB376"/>
<path d="M257.907 140.792C257.907 140.792 262.016 132.774 266.651 131.53C271.287 130.285 277.642 132.365 283.355 137.802C289.067 143.239 288.224 150.371 283.764 155.7C283.756 155.7 274.268 138.403 257.907 140.792Z" fill="#263238"/>
<path opacity="0.4" d="M283.756 155.7C281.676 152.19 279.022 149.054 275.905 146.421C271.537 142.78 265.457 139.69 257.907 140.792C257.907 140.792 262.016 132.775 266.651 131.53C269.25 130.937 271.967 131.135 274.452 132.098C274.97 132.282 275.496 132.491 276.022 132.733C278.727 133.994 281.198 135.705 283.33 137.794C289.042 143.264 288.215 150.371 283.756 155.7Z" fill="black"/>
<path opacity="0.5" d="M275.905 146.421C271.537 142.78 265.457 139.69 257.907 140.792C257.907 140.792 262.016 132.775 266.651 131.53C269.25 130.937 271.967 131.135 274.452 132.098C274.994 132.26 275.52 132.473 276.022 132.733C277.059 133.212 277.977 133.914 278.712 134.789C279.447 135.664 279.98 136.69 280.273 137.794C281.25 141.886 276.54 145.903 275.905 146.421Z" fill="white"/>
<path d="M257.908 140.792C257.908 140.792 254.024 133.927 255.402 130.043C256.78 126.16 273.325 134.921 275.805 146.488C275.83 146.488 264.89 139.213 257.908 140.792Z" fill="#263238"/>
<path d="M265.474 157.47L260.104 159.8L259.962 159.441L258.701 156.176L259.311 156.076C260.597 155.884 263.528 155.474 264.322 155.7C264.551 155.763 264.757 155.89 264.915 156.067C264.995 156.155 265.062 156.253 265.115 156.36C265.312 156.7 265.435 157.079 265.474 157.47Z" fill="#263238"/>
<path d="M265.474 157.47L260.104 159.8L259.962 159.441C261.006 157.871 262.693 156.101 264.973 156.101C265.266 156.501 265.44 156.976 265.474 157.47Z" fill="#DE5753"/>
<path d="M265.14 156.36L259.653 157.028L259.319 156.076C260.605 155.884 263.537 155.474 264.33 155.7C264.559 155.763 264.765 155.89 264.923 156.067C265.009 156.154 265.082 156.252 265.14 156.36Z" fill="white"/>
<path d="M304.919 156.502C304.919 156.502 303.115 151.215 303.173 150.831C303.232 150.447 313.095 144.358 313.621 144.843C314.147 145.327 316.235 152.752 315.91 153.412C315.584 154.071 309.529 161.605 307.224 158.331" fill="#263238"/>
<path d="M237.822 141.895C237.822 141.895 242.833 139.448 243.066 139.139C243.3 138.83 240.669 127.538 239.951 127.496C239.233 127.455 232.493 131.221 232.268 131.923C232.042 132.624 232.936 142.947 236.886 142.271" fill="#263238"/>
<path d="M261.015 295.29C260.91 295.181 260.837 295.046 260.803 294.899C260.77 294.752 260.776 294.598 260.823 294.455C260.837 294.348 260.88 294.247 260.948 294.163C261.015 294.079 261.105 294.015 261.207 293.979C262.042 293.67 263.854 294.914 264.063 295.056C264.086 295.073 264.104 295.096 264.114 295.123C264.125 295.149 264.127 295.178 264.122 295.207C264.12 295.236 264.108 295.263 264.088 295.284C264.069 295.306 264.042 295.32 264.013 295.323C263.445 295.469 262.862 295.553 262.276 295.574C261.835 295.644 261.383 295.543 261.015 295.29ZM261.282 294.321C261.239 294.341 261.201 294.371 261.172 294.409C261.142 294.447 261.123 294.491 261.115 294.538C261.087 294.631 261.082 294.729 261.101 294.823C261.12 294.918 261.162 295.007 261.224 295.081C261.541 295.374 262.393 295.407 263.554 295.165C262.794 294.697 261.708 294.154 261.282 294.33V294.321Z" fill="#11377F"/>
<path d="M262.233 293.219C262.26 293.067 262.328 292.927 262.43 292.812C262.532 292.697 262.663 292.612 262.81 292.567C262.894 292.522 262.989 292.498 263.085 292.498C263.181 292.498 263.276 292.522 263.361 292.567C264.079 293.035 264.138 295.265 264.146 295.515C264.144 295.545 264.134 295.573 264.118 295.598C264.102 295.623 264.08 295.643 264.054 295.657C264.031 295.673 264.003 295.681 263.975 295.681C263.946 295.681 263.919 295.673 263.895 295.657C263.446 295.28 263.04 294.854 262.684 294.388C262.392 294.069 262.231 293.651 262.233 293.219ZM263.169 292.876C263.128 292.852 263.082 292.839 263.035 292.839C262.988 292.839 262.942 292.852 262.902 292.876C262.81 292.906 262.728 292.958 262.662 293.028C262.596 293.098 262.549 293.184 262.526 293.277C262.467 293.703 262.935 294.421 263.804 295.223C263.745 294.329 263.553 293.135 263.169 292.893V292.876Z" fill="#11377F"/>
<path d="M264.548 294.48L271.847 294.429C271.907 294.426 271.968 294.435 272.025 294.455C272.082 294.475 272.134 294.506 272.179 294.546C272.224 294.586 272.261 294.635 272.287 294.69C272.313 294.744 272.328 294.803 272.332 294.864L272.732 300.643C272.733 300.945 272.615 301.236 272.404 301.452C272.194 301.669 271.907 301.795 271.605 301.804C269.058 301.804 267.838 301.645 264.631 301.637C261.774 301.771 258.91 301.704 256.062 301.436C253.365 301.027 253.849 298.371 255.027 298.305C257.816 298.146 261.608 296.309 263.429 294.855C263.75 294.61 264.144 294.478 264.548 294.48Z" fill="#263238"/>
<path opacity="0.2" d="M277.81 188.046C277.568 191.612 277.2 195.563 276.666 199.739C272.398 196.707 273.133 181.975 273.133 181.975C273.952 185.248 277.075 187.52 277.81 188.046Z" fill="black"/>
<path d="M189.716 268.865C189.67 268.722 189.663 268.568 189.697 268.421C189.731 268.274 189.804 268.139 189.908 268.03C189.965 267.951 190.04 267.887 190.128 267.845C190.215 267.802 190.312 267.783 190.409 267.788C191.245 267.846 192.397 269.767 192.531 269.984C192.545 270.01 192.553 270.039 192.553 270.068C192.553 270.097 192.545 270.126 192.531 270.151C192.516 270.176 192.493 270.195 192.465 270.206C192.438 270.216 192.408 270.218 192.38 270.21C191.807 270.094 191.247 269.918 190.71 269.684C190.287 269.547 189.932 269.254 189.716 268.865ZM190.376 268.105C190.329 268.1 190.281 268.108 190.238 268.129C190.195 268.149 190.159 268.182 190.134 268.222C190.066 268.291 190.018 268.377 189.994 268.471C189.971 268.565 189.973 268.664 190 268.757C190.151 269.158 190.911 269.55 192.063 269.834C191.579 269.082 190.827 268.164 190.393 268.105H190.376Z" fill="#11377F"/>
<path d="M191.704 267.504C191.797 267.375 191.925 267.274 192.073 267.215C192.221 267.156 192.382 267.14 192.539 267.17C192.636 267.171 192.73 267.196 192.815 267.243C192.899 267.289 192.971 267.356 193.023 267.437C193.474 268.164 192.572 270.21 192.464 270.436C192.449 270.461 192.428 270.482 192.403 270.498C192.379 270.514 192.351 270.524 192.322 270.527C192.292 270.526 192.264 270.515 192.24 270.498C192.216 270.48 192.198 270.455 192.188 270.427C191.943 269.893 191.761 269.333 191.645 268.757C191.512 268.346 191.533 267.901 191.704 267.504ZM192.706 267.604C192.68 267.563 192.645 267.529 192.602 267.506C192.56 267.483 192.512 267.47 192.464 267.471C192.368 267.458 192.271 267.47 192.181 267.507C192.092 267.544 192.014 267.603 191.954 267.679C191.712 268.03 191.837 268.882 192.272 269.985C192.606 269.149 192.948 267.988 192.706 267.604Z" fill="#11377F"/>
<path d="M193.249 269.642L199.864 272.724C199.92 272.746 199.972 272.779 200.016 272.821C200.059 272.864 200.094 272.915 200.117 272.971C200.141 273.027 200.152 273.087 200.152 273.148C200.151 273.209 200.139 273.269 200.114 273.325L197.993 278.712C197.867 278.987 197.638 279.202 197.354 279.308C197.071 279.414 196.757 279.404 196.481 279.28C194.184 278.161 193.141 277.518 190.251 276.14C187.611 275.033 185.052 273.744 182.592 272.281C180.337 270.753 181.908 268.565 183.002 269.007C185.591 270.06 189.808 270.026 192.08 269.5C192.474 269.412 192.887 269.463 193.249 269.642Z" fill="#263238"/>
<path d="M275.83 205.902L272.548 252.462H253.097L249.28 226.798C243.257 229.43 237.456 232.545 231.934 236.11C229.607 237.615 227.36 239.24 225.202 240.979L212.675 224.735C212.675 224.735 224.543 212.116 233.028 207.597L239.45 198.845L275.83 205.902Z" fill="#263238"/>
<path d="M235.316 144.776L241.263 142.271C241.263 142.271 246.232 161.797 257.899 167.793L245.28 177.89C245.28 177.89 236.644 160.552 235.316 144.776Z" fill="#263238"/>
<path opacity="0.3" d="M235.316 144.776L241.263 142.271C241.263 142.271 246.232 161.797 257.899 167.793L245.28 177.89C245.28 177.89 236.644 160.552 235.316 144.776Z" fill="white"/>
<path d="M273.65 170.9C289.068 168.904 302.614 155.7 302.614 155.7L306.03 161.271C306.03 161.271 292.876 182.551 277.81 185.407L273.65 170.9Z" fill="#263238"/>
<path opacity="0.3" d="M273.65 170.9C289.068 168.904 302.614 155.7 302.614 155.7L306.03 161.271C306.03 161.271 292.876 182.551 277.81 185.407L273.65 170.9Z" fill="white"/>
<path d="M270.519 167.777L261.257 171.184L260.973 167.108L257.256 167.802L255.118 174.374L259.244 172.395L259.653 175.368L262.092 173.606L263.629 178.341L274.77 170.733L270.519 167.777Z" fill="#263238"/>
<path d="M253.69 182.684C253.69 182.684 256.362 179.661 260.104 180.546C263.845 181.431 266.167 184.613 264.346 188.255C262.526 191.896 256.437 195.078 256.437 195.078L262.417 196.289L262.083 198.277L250.524 196.18V193.675C250.524 193.675 261.315 190.994 261.975 186.935C262.634 182.876 257.732 181.231 255.118 184.53L253.69 182.684Z" fill="white"/>
<path d="M259.67 236.06C260.079 235.471 260.628 234.994 261.269 234.673C261.91 234.352 262.621 234.197 263.337 234.222C265.658 234.44 267.32 236.152 266.535 238.49C265.75 240.829 262.36 243.259 262.36 243.259L266.051 243.476V244.695L258.935 244.42L258.727 242.9C258.727 242.9 264.965 240.394 265.024 237.889C265.082 235.383 261.992 234.824 260.706 237.054L259.67 236.06Z" fill="white"/>
<path d="M241.497 140.041L241.964 141.611L234.773 144.117V141.427L241.497 140.041Z" fill="#263238"/>
<path d="M303.174 154.364L304.243 153.437L308.911 158.924L307.224 161.103L303.174 154.364Z" fill="#263238"/>
<path opacity="0.2" d="M249.28 226.798C243.257 229.43 237.456 232.544 231.934 236.11C234.82 231.96 238.481 228.406 242.716 225.645L245.046 217.227L249.28 226.798Z" fill="black"/>
<path d="M176.129 113.934C176.129 113.934 175.394 113.742 174.074 113.449" stroke="#11377F" stroke-width="0.835168" stroke-linecap="round" stroke-linejoin="round"/>
<path d="M171.544 112.906C164.235 111.384 156.823 110.401 149.37 109.966" stroke="#11377F" stroke-width="0.835168" stroke-linecap="round" stroke-linejoin="round"/>
<path d="M146.062 109.85C145.344 109.85 144.634 109.85 143.916 109.85" stroke="#11377F" stroke-width="0.835168" stroke-linecap="round" stroke-linejoin="round"/>
<path d="M140.868 109.883C140.25 109.883 139.632 109.933 139.014 109.966" stroke="#11377F" stroke-width="0.835168" stroke-linecap="round" stroke-linejoin="round"/>
<path d="M193.634 107.16C193.634 107.16 185.908 104.922 176.496 102.984" stroke="#11377F" stroke-width="0.835168" stroke-linecap="round" stroke-linejoin="round"/>
<path d="M174.032 102.491C172.053 102.107 170.023 101.748 168.002 101.431" stroke="#11377F" stroke-width="0.835168" stroke-linecap="round" stroke-linejoin="round"/>
<path d="M161.246 100.554C160.303 100.462 159.367 100.387 158.457 100.328" stroke="#11377F" stroke-width="0.835168" stroke-linecap="round" stroke-linejoin="round"/>
<path d="M154.982 121.2C154.982 121.2 158.908 121.066 164.562 121.475" stroke="#11377F" stroke-width="0.835168" stroke-linecap="round" stroke-linejoin="round"/>
<path d="M167.242 121.7C169.856 121.959 172.713 122.327 175.661 122.869" stroke="#11377F" stroke-width="0.835168" stroke-linecap="round" stroke-linejoin="round"/>
<path d="M177.131 123.153C179.958 123.714 182.747 124.45 185.483 125.358" stroke="#11377F" stroke-width="0.835168" stroke-linecap="round" stroke-linejoin="round"/>
<path d="M210.861 116.862C212.876 108.324 207.588 99.7684 199.05 97.7531C190.512 95.7379 181.956 101.026 179.941 109.564C177.926 118.103 183.214 126.658 191.752 128.673C200.29 130.689 208.846 125.401 210.861 116.862Z" fill="#11377F"/>
<path opacity="0.6" d="M211.289 113.224C211.291 114.032 211.23 114.839 211.105 115.637C211.03 116.155 210.922 116.648 210.805 117.141C210.214 119.448 209.114 121.593 207.585 123.418C206.055 125.244 204.136 126.703 201.969 127.689C201.635 127.839 201.292 127.99 200.941 128.115C199.172 128.771 197.3 129.107 195.413 129.109C192.039 129.107 188.755 128.024 186.042 126.019C184.039 124.539 182.41 122.612 181.286 120.39C180.162 118.168 179.574 115.714 179.569 113.224C179.566 111.879 179.741 110.539 180.087 109.24C180.967 105.833 182.954 102.816 185.735 100.661C188.517 98.507 191.936 97.3383 195.454 97.3389C195.889 97.3389 196.289 97.3389 196.732 97.3973C200.71 97.7165 204.421 99.5226 207.126 102.456C209.832 105.389 211.333 109.233 211.331 113.224H211.289Z" fill="white"/>
<path d="M211.097 115.646C211.022 116.163 210.913 116.656 210.797 117.149L210.705 116.999C209.477 117.057 208.283 117.082 207.155 117.082H205.928L201.401 123.321C201.618 124.607 201.827 126.093 201.96 127.705C201.626 127.856 201.284 128.006 200.933 128.131C200.8 126.519 200.599 125.008 200.382 123.705L193.701 121.533C191.318 122.829 188.796 123.852 186.184 124.582L186.034 126.027C184.488 124.887 183.166 123.471 182.134 121.851L185.884 123.521C188.16 122.869 190.371 122.008 192.49 120.949V112.915L184.698 107.394L180.079 109.215C180.891 106.053 182.662 103.22 185.149 101.105L185.483 106.634L192.999 111.979L200.349 109.582L200.474 109.215C200.926 106.368 201.063 103.481 200.883 100.604L196.707 97.3721C199.036 97.5559 201.296 98.2548 203.322 99.4182L201.977 100.337C202.19 103.39 202.039 106.457 201.526 109.474L201.384 109.916L205.786 115.955C207.339 115.955 209.126 115.955 210.913 115.879L211.097 115.646Z" fill="#263238"/>
<path opacity="0.2" d="M193.633 121.934C200.169 121.934 205.467 116.636 205.467 110.1C205.467 103.564 200.169 98.2656 193.633 98.2656C187.097 98.2656 181.799 103.564 181.799 110.1C181.799 116.636 187.097 121.934 193.633 121.934Z" fill="white"/>
<path d="M107.227 157.572C107.227 157.572 107.343 145.144 108.22 141.503C109.097 137.862 114.977 132.684 114.977 132.684L118.1 134.529C118.1 134.529 112.722 142.706 112.739 144.702C112.755 146.698 113.874 158.064 113.874 158.064L107.227 157.572Z" fill="#B97964"/>
<path d="M115.378 134.22L118.201 134.905C119.221 134.839 120.219 134.578 121.141 134.136C122.185 133.493 124.874 129.175 124.874 129.175C124.874 129.175 120.03 125.434 119.161 125.701C118.293 125.968 114.084 131.197 113.958 131.606C113.833 132.015 115.378 134.22 115.378 134.22Z" fill="#B97964"/>
<path d="M129.501 196.265C129.501 196.265 132.741 208.266 134.512 211.565C136.283 214.864 143.265 218.405 143.265 218.405L145.82 215.833C145.82 215.833 138.563 209.268 138.078 207.331C137.594 205.393 135.815 194.102 135.815 194.102L129.501 196.265Z" fill="#B97964"/>
<path d="M116.806 164.002C115.971 161.162 115.47 154.915 115.47 154.915L104.195 156.335L103.21 174.901L116.806 164.002Z" fill="#11377F"/>
<path d="M127.579 196.265C125.266 198.988 122.568 201.986 119.695 205.034C116.539 208.375 113.089 211.716 109.481 214.847L88.8193 178.1C88.8193 178.1 101.89 175.319 110.175 165.882C111.147 164.805 112.453 164.087 113.883 163.841C115.312 163.596 116.783 163.838 118.059 164.529C121.079 166.231 123.866 168.317 126.352 170.734C134.904 178.793 136.825 184.639 136.825 184.639C136.825 184.639 133.234 189.634 127.579 196.265Z" fill="#11377F"/>
<path opacity="0.3" d="M127.579 196.265C125.266 198.988 122.568 201.986 119.695 205.034C116.539 208.375 113.089 211.716 109.481 214.847L88.8193 178.1C88.8193 178.1 101.89 175.319 110.175 165.882C111.147 164.805 112.453 164.087 113.883 163.841C115.312 163.596 116.783 163.838 118.059 164.529C121.079 166.231 123.866 168.317 126.352 170.734C134.904 178.793 136.825 184.639 136.825 184.639C136.825 184.639 133.234 189.634 127.579 196.265Z" fill="white"/>
<path d="M110.493 176.028L112.163 177.456L102.91 184.288L103.678 185.608L102.467 186.718L99.5439 182.693L99.9365 181.975L101.482 182.86L108.856 178.175L107.645 176.805L108.413 176.028C109.081 176.295 109.825 176.295 110.493 176.028Z" fill="white"/>
<path d="M119.387 184.071L114.568 179.562L110.041 182.635C110.041 182.635 114.885 186.376 111.252 188.69C107.619 191.003 105.749 186.911 105.749 186.911L104.195 188.03C104.775 188.928 105.548 189.683 106.459 190.241C107.37 190.799 108.394 191.145 109.457 191.254C112.914 191.471 116.581 187.078 112.146 182.994L114.234 181.399L118.184 184.973L119.387 184.071Z" fill="white"/>
<path d="M86.949 91.7354C86.949 91.7354 96.1776 118.995 93.5301 162.432L78.8896 164.529C78.8896 164.529 87.1411 105.073 82.9569 95.7776L86.949 91.7354Z" fill="#B97964"/>
<path d="M122.953 167.25C122.695 167.904 122.309 168.5 121.819 169.003C121.329 169.506 120.743 169.907 120.097 170.182C119.871 170.274 119.637 170.357 119.387 170.432C119.009 170.535 118.624 170.608 118.234 170.65C118.307 172.041 118.817 173.374 119.694 174.457C120.57 175.54 121.766 176.318 123.112 176.679L127.68 177.907L128.682 178.174C128.712 176.782 129.037 175.412 129.634 174.154C130.232 172.896 131.088 171.778 132.148 170.875C133.223 169.936 134.441 169.174 135.756 168.62L127.405 165.146L123.596 163.567C123.651 164.827 123.431 166.084 122.953 167.25Z" fill="#B97964"/>
<path opacity="0.2" d="M122.953 167.25C122.695 167.904 122.309 168.5 121.819 169.003C121.329 169.506 120.743 169.907 120.097 170.182C119.871 170.274 119.637 170.357 119.387 170.432C123.479 173.072 128.991 171.911 132.148 170.875C133.223 169.936 134.441 169.174 135.756 168.62L127.404 165.146L123.596 163.567C123.651 164.827 123.431 166.084 122.953 167.25Z" fill="black"/>
<path d="M136.767 141.879C136.767 141.879 124.799 141.829 127.447 154.724C130.403 169.289 136.767 141.879 136.767 141.879Z" fill="#263238"/>
<path d="M145.954 165.881C141.001 171.034 132.858 174.541 127.63 171.585C118.026 166.165 116.088 161.847 120.314 154.882C124.089 148.593 133.393 141.419 141.644 145.528C149.896 149.637 152.802 158.723 145.954 165.881Z" fill="#B97964"/>
<path d="M132.875 144.843C134.733 147.899 137.39 150.391 140.558 152.05C140.558 152.05 143.448 155.391 139.598 158.523C135.748 161.655 138.42 167.359 134.453 172.47C134.453 172.47 140.166 176.162 150.029 165.923C157.22 158.456 152.877 149.645 145.678 143.908C139.648 139.097 131.906 139.89 132.875 144.843Z" fill="#263238"/>
<path d="M132.09 157.054C131.488 157.722 130.628 157.956 130.185 157.547C129.743 157.137 129.893 156.286 130.494 155.609C131.096 154.933 131.948 154.715 132.399 155.108C132.85 155.5 132.691 156.377 132.09 157.054Z" fill="#263238"/>
<path d="M126.937 151.934C126.361 152.577 125.534 152.769 125.117 152.41C124.699 152.05 124.833 151.199 125.409 150.556C125.985 149.912 126.804 149.72 127.23 150.079C127.655 150.439 127.513 151.29 126.937 151.934Z" fill="#263238"/>
<path d="M132.683 152.786C132.625 152.72 132.588 152.639 132.574 152.552C132.579 152.444 132.624 152.342 132.702 152.268C132.78 152.193 132.884 152.151 132.992 152.151C133.642 152.138 134.287 152.283 134.869 152.574C135.451 152.865 135.953 153.293 136.332 153.822C136.39 153.914 136.408 154.025 136.385 154.131C136.362 154.237 136.298 154.33 136.207 154.39C136.115 154.443 136.006 154.461 135.901 154.44C135.796 154.418 135.703 154.359 135.639 154.273C135.326 153.861 134.918 153.532 134.449 153.312C133.981 153.092 133.467 152.989 132.95 153.012C132.891 152.998 132.836 152.97 132.789 152.931C132.743 152.892 132.706 152.842 132.683 152.786Z" fill="#263238"/>
<path d="M128.416 146.513C128.417 146.428 128.44 146.345 128.482 146.271C128.555 146.19 128.656 146.139 128.765 146.129C128.873 146.12 128.982 146.153 129.067 146.221C129.574 146.626 129.976 147.147 130.239 147.74C130.502 148.333 130.619 148.981 130.579 149.629C130.566 149.736 130.512 149.834 130.427 149.901C130.343 149.968 130.235 150 130.128 149.988C130.022 149.971 129.927 149.916 129.86 149.832C129.794 149.749 129.761 149.643 129.768 149.537C129.791 149.02 129.688 148.506 129.468 148.037C129.248 147.569 128.919 147.161 128.507 146.848C128.47 146.801 128.442 146.748 128.427 146.69C128.411 146.633 128.407 146.572 128.416 146.513Z" fill="#263238"/>
<path d="M127.58 154.113L124.849 157.011C124.118 156.346 123.61 155.471 123.396 154.506C124.803 154.636 126.221 154.503 127.58 154.113Z" fill="#A24E3F"/>
<path d="M136.984 164.069C136.984 164.069 141.277 161.973 142.096 164.495C142.914 167.017 137.795 172.279 135.247 170.082C132.7 167.886 134.262 164.863 136.984 164.069Z" fill="#B97964"/>
<path d="M145.812 149.721C145.77 146.38 138.629 142.772 137.878 139.649C137.126 136.525 139.122 135.164 139.122 135.164C139.122 135.164 134.679 136.108 133.735 140.05L132.591 136.918C132.591 136.918 126.085 145.437 140.567 152.051L145.812 149.721Z" fill="#263238"/>
<path d="M122.494 159.4C122.494 159.4 125.275 158.515 126.996 160.553" stroke="#263238" stroke-width="0.835168" stroke-linecap="round" stroke-linejoin="round"/>
<path d="M91.71 92.2275C91.8606 92.2517 92.0017 92.3166 92.118 92.4152C92.2343 92.5139 92.3214 92.6425 92.3698 92.7871C92.4165 92.8729 92.4411 92.9691 92.4411 93.0669C92.4411 93.1646 92.4165 93.2608 92.3698 93.3467C91.9271 94.0733 89.6972 94.1818 89.4383 94.1818C89.4103 94.1784 89.3835 94.1683 89.3603 94.1523C89.337 94.1363 89.3179 94.1149 89.3047 94.09C89.2864 94.0676 89.2764 94.0396 89.2764 94.0106C89.2764 93.9817 89.2864 93.9537 89.3047 93.9313C89.6724 93.4745 90.0898 93.0599 90.5491 92.6952C90.8654 92.4019 91.2787 92.2354 91.71 92.2275ZM92.0775 93.1629C92.1025 93.1213 92.1157 93.0737 92.1157 93.0251C92.1157 92.9766 92.1025 92.9289 92.0775 92.8873C92.0469 92.7967 91.993 92.7158 91.9211 92.6528C91.8493 92.5897 91.762 92.5467 91.6682 92.5282C91.2423 92.4697 90.5408 92.9625 89.7557 93.8478C90.641 93.7726 91.8353 93.5555 92.0775 93.1629Z" fill="#11377F"/>
<path d="M91.9772 94.6159C92.0395 94.7494 92.0653 94.897 92.0521 95.0436C92.0389 95.1903 91.9871 95.3309 91.9021 95.4511C91.8576 95.537 91.7922 95.6104 91.712 95.6644C91.6317 95.7184 91.5391 95.7513 91.4427 95.7601C90.6076 95.8186 89.2045 94.0898 89.0458 93.8643C89.0312 93.8389 89.0234 93.8101 89.0234 93.7808C89.0234 93.7515 89.0312 93.7227 89.0458 93.6973C89.0583 93.6716 89.0792 93.651 89.105 93.6389C89.1309 93.6267 89.1601 93.6238 89.1878 93.6305C89.773 93.6647 90.3527 93.7627 90.9166 93.9228C91.3448 94.012 91.7236 94.2596 91.9772 94.6159ZM91.426 95.4511C91.4734 95.4476 91.519 95.4319 91.5585 95.4056C91.5981 95.3792 91.6301 95.3431 91.6515 95.3008C91.7099 95.2226 91.7461 95.1302 91.7564 95.0332C91.7667 94.9362 91.7507 94.8382 91.71 94.7496C91.5096 94.3737 90.7078 94.0814 89.5219 93.9144C90.1065 94.5992 90.9751 95.4344 91.426 95.4094V95.4511Z" fill="#11377F"/>
<path d="M89.3711 94.9838L83.5249 99.4018C83.4787 99.4405 83.4251 99.4694 83.3675 99.487C83.3098 99.5046 83.2492 99.5104 83.1893 99.5042C83.1293 99.498 83.0712 99.4798 83.0184 99.4507C82.9656 99.4217 82.9192 99.3823 82.8818 99.335L79.1403 94.942C78.9555 94.7016 78.8738 94.3977 78.9129 94.0971C78.9521 93.7964 79.1089 93.5236 79.3491 93.3385C81.4036 91.8352 82.4643 91.2172 85.0366 89.2963C87.2392 87.4865 89.5668 85.8344 92.0019 84.3521C94.4072 83.066 95.6098 85.4796 94.7078 86.2396C92.5614 88.0435 90.6322 91.7851 90.0392 94.0401C89.9244 94.4186 89.69 94.7497 89.3711 94.9838Z" fill="#263238"/>
<path d="M109.457 214.88C109.457 214.88 94.9252 222.18 80.3014 215.866C78.8979 215.26 77.5413 214.551 76.2425 213.745C60.3743 203.89 71.8829 179.979 71.8829 179.979L73.1607 168.286L74.2548 158.223L95.2676 155.016L97.2219 175.235L109.457 214.88Z" fill="#11377F"/>
<path d="M73.8207 157.746L95.8441 154.113V158.206L73.2695 161.162L73.8207 157.746Z" fill="#11377F"/>
<path opacity="0.3" d="M73.8207 157.746L95.8441 154.113V158.206L73.2695 161.162L73.8207 157.746Z" fill="white"/>
<path opacity="0.2" d="M77.1194 199.354C75.3489 205.551 77.8544 211.732 80.3014 215.866C78.8979 215.26 77.5413 214.551 76.2425 213.744C60.3743 203.889 71.8829 179.978 71.8829 179.978L73.1607 168.286C83.3331 168.378 92.6368 178.191 92.6368 178.191L99.9195 191.462L95.3595 186.117L77.1194 199.354Z" fill="black"/>
<path d="M44.5557 200.808C44.5557 200.808 54.7614 178.083 64.9421 172.045C75.1228 166.006 84.8692 169.23 92.678 184.906L78.4802 195.989C78.4802 195.989 71.3645 184.363 68.9259 183.336C66.4872 182.309 48.8818 203.004 48.8818 203.004L44.5557 200.808Z" fill="#B97964"/>
<path d="M41.1149 197.693C41.0674 197.55 41.0594 197.397 41.0918 197.25C41.1241 197.103 41.1956 196.968 41.2986 196.858C41.3538 196.777 41.429 196.712 41.5169 196.67C41.6048 196.628 41.7023 196.609 41.7997 196.616C42.6349 196.674 43.7958 198.587 43.9211 198.812C43.935 198.836 43.9423 198.864 43.9423 198.891C43.9423 198.919 43.935 198.947 43.9211 198.971C43.9058 198.996 43.8829 199.015 43.8557 199.025C43.8286 199.036 43.7987 199.037 43.7707 199.029C43.1949 198.921 42.6341 198.745 42.1004 198.503C41.6777 198.374 41.3233 198.083 41.1149 197.693ZM41.7663 196.933C41.7194 196.931 41.6728 196.941 41.6305 196.961C41.5882 196.981 41.5517 197.012 41.5241 197.05C41.459 197.121 41.4126 197.207 41.3893 197.3C41.366 197.394 41.3664 197.491 41.3905 197.584C41.5492 197.985 42.3008 198.42 43.4534 198.67C42.9773 197.91 42.2257 196.958 41.783 196.933H41.7663Z" fill="#11377F"/>
<path d="M43.0942 196.34C43.186 196.208 43.3135 196.107 43.4615 196.046C43.6096 195.985 43.772 195.968 43.9294 195.997C44.0264 195.996 44.122 196.02 44.2069 196.067C44.2918 196.114 44.3631 196.182 44.4138 196.264C44.8648 196.999 43.9628 199.037 43.8626 199.271C43.8468 199.297 43.8247 199.318 43.7983 199.332C43.772 199.347 43.7424 199.355 43.7122 199.355C43.6832 199.355 43.6549 199.346 43.631 199.33C43.6071 199.313 43.5888 199.29 43.5786 199.263C43.3428 198.725 43.161 198.166 43.0357 197.592C42.9002 197.182 42.921 196.736 43.0942 196.34ZM44.0964 196.431C44.0731 196.391 44.0388 196.357 43.9974 196.335C43.9561 196.313 43.9094 196.303 43.8626 196.306C43.7662 196.291 43.6675 196.301 43.5766 196.336C43.4856 196.372 43.4056 196.43 43.3448 196.507C43.1109 196.866 43.2278 197.709 43.6621 198.812C43.9962 197.977 44.3386 196.824 44.0964 196.431Z" fill="#11377F"/>
<path d="M44.6395 198.469L51.254 201.559C51.3108 201.581 51.3625 201.614 51.4061 201.657C51.4497 201.699 51.4842 201.75 51.5076 201.806C51.5311 201.863 51.5429 201.923 51.5423 201.984C51.5418 202.045 51.5289 202.105 51.5046 202.161L49.3832 207.547C49.2559 207.823 49.0248 208.038 48.7401 208.144C48.4554 208.251 48.1403 208.24 47.8632 208.115C45.5749 206.996 44.5226 206.353 41.6329 204.967C38.9954 203.862 36.439 202.573 33.9827 201.108C31.7278 199.572 33.3063 197.383 34.392 197.834C36.9893 198.887 41.1986 198.853 43.4702 198.327C43.865 198.244 44.2762 198.294 44.6395 198.469Z" fill="#263238"/>
<path d="M93.4221 205.652C90.8547 201.682 88.7953 197.406 87.2919 192.924L96.1781 186.084L94.0067 180.639L74.9648 196.265L76.9358 200.908L83.7425 195.672C86.3268 200.115 89.3184 204.309 92.6788 208.199C94.2707 210.04 96.3297 211.417 98.6388 212.186C100.948 212.955 103.422 213.086 105.799 212.567C103.327 212.522 100.903 211.867 98.7442 210.66C96.5852 209.454 94.7571 207.734 93.4221 205.652Z" fill="#11377F"/>
<path opacity="0.3" d="M93.4221 205.652C90.8547 201.682 88.7953 197.406 87.2919 192.924L96.1781 186.084L94.0067 180.639L74.9648 196.265L76.9358 200.908L83.7425 195.672C86.3268 200.115 89.3184 204.309 92.6788 208.199C94.2707 210.04 96.3297 211.417 98.6388 212.186C100.948 212.955 103.422 213.086 105.799 212.567C103.327 212.522 100.903 211.867 98.7442 210.66C96.5852 209.454 94.7571 207.734 93.4221 205.652Z" fill="white"/>
<path d="M120.181 173.932H131.13L132.658 178.175L119.387 181.532V176.028L117.099 176.137L118.185 173.932L112.814 172.044L116.882 168.27H121.617L120.181 173.932Z" fill="#11377F"/>
<path d="M136.826 184.614C138.137 188.69 139.014 200.808 139.014 200.808L129.935 203.673L126.595 196.991C126.595 196.991 127.814 191.521 130.57 187.888C133.326 184.255 136.826 184.614 136.826 184.614Z" fill="#11377F"/>
<path d="M143.256 216.852L145.812 215.482C146.815 215.286 147.848 215.286 148.852 215.482C150.029 215.841 153.712 219.349 153.712 219.349C153.712 219.349 149.962 224.193 149.06 224.143C148.158 224.092 142.763 220.1 142.538 219.733C142.312 219.365 143.256 216.852 143.256 216.852Z" fill="#B97964"/>
<path d="M97.3301 98.8423C97.3301 98.8423 103.176 107.587 99.9191 120.223C99.9191 120.223 107.519 116.439 112.814 125.484C112.814 125.484 107.227 114.026 118.101 115.345C118.101 115.345 104.212 105.323 132.574 102.191C132.574 102.191 117.299 101.506 115.67 99.5021C114.042 97.4977 118.234 91.735 118.234 91.735C118.234 91.735 111.177 96.746 107.227 95.7856C103.276 94.8251 103.226 83.6172 103.226 83.6172C103.226 83.6172 102.617 95.5601 97.3301 98.8423Z" fill="#11377F"/>
<path opacity="0.7" d="M97.3301 98.8423C97.3301 98.8423 103.176 107.587 99.9191 120.223C99.9191 120.223 107.519 116.439 112.814 125.484C112.814 125.484 107.227 114.026 118.101 115.345C118.101 115.345 104.212 105.323 132.574 102.191C132.574 102.191 117.299 101.506 115.67 99.5021C114.042 97.4977 118.234 91.735 118.234 91.735C118.234 91.735 111.177 96.746 107.227 95.7856C103.276 94.8251 103.226 83.6172 103.226 83.6172C103.226 83.6172 102.617 95.5601 97.3301 98.8423Z" fill="white"/>
</g>
</svg>
