<svg width="15" height="15" viewBox="0 0 15 15" fill="none" xmlns="http://www.w3.org/2000/svg">
<path fill-rule="evenodd" clip-rule="evenodd" d="M0 1.60714C0 1.1809 0.169323 0.772119 0.470721 0.470721C0.772119 0.169323 1.1809 0 1.60714 0L9.10714 0C9.53338 0 9.94217 0.169323 10.2436 0.470721C10.545 0.772119 10.7143 1.1809 10.7143 1.60714V3.68464C10.2796 4.03285 9.99748 4.53666 9.92786 5.08929H6.16071C5.84414 5.08929 5.53066 5.15164 5.23817 5.27279C4.94569 5.39394 4.67994 5.57151 4.45608 5.79537C4.23223 6.01922 4.05465 6.28498 3.93351 6.57746C3.81236 6.86994 3.75 7.18342 3.75 7.5C3.75 7.81658 3.81236 8.13006 3.93351 8.42254C4.05465 8.71502 4.23223 8.98078 4.45608 9.20463C4.67994 9.42849 4.94569 9.60606 5.23817 9.72721C5.53066 9.84836 5.84414 9.91071 6.16071 9.91071H9.92786C9.99748 10.4633 10.2796 10.9671 10.7143 11.3154V13.3929C10.7143 13.8191 10.545 14.2279 10.2436 14.5293C9.94217 14.8307 9.53338 15 9.10714 15H1.60714C1.1809 15 0.772119 14.8307 0.470721 14.5293C0.169323 14.2279 0 13.8191 0 13.3929L0 1.60714ZM11.7461 4.61464C11.5992 4.67547 11.4737 4.77848 11.3854 4.91064C11.2971 5.04281 11.25 5.19819 11.25 5.35714V6.42857H6.16071C5.87655 6.42857 5.60403 6.54145 5.4031 6.74239C5.20217 6.94332 5.08929 7.21584 5.08929 7.5C5.08929 7.78416 5.20217 8.05668 5.4031 8.25761C5.60403 8.45855 5.87655 8.57143 6.16071 8.57143H11.25V9.64286C11.2501 9.80169 11.2973 9.95691 11.3857 10.0889C11.474 10.2209 11.5994 10.3238 11.7462 10.3846C11.8929 10.4454 12.0544 10.4613 12.2101 10.4303C12.3659 10.3994 12.5091 10.323 12.6214 10.2107L14.7643 8.06786C14.9148 7.91719 14.9993 7.71295 14.9993 7.5C14.9993 7.28705 14.9148 7.08281 14.7643 6.93214L12.6214 4.78929C12.5091 4.6769 12.366 4.60033 12.2102 4.56924C12.0544 4.53816 11.8929 4.55396 11.7461 4.61464Z" fill="white"/>
</svg>
