<svg width="22" height="20" viewBox="0 0 22 20" fill="none" xmlns="http://www.w3.org/2000/svg">
<path d="M5.73748 0.211011H5.73679L0.787864 1.53713C0.352598 1.6536 0 2.11353 0 2.56387V18.8761C0 19.3264 0.352598 19.5968 0.787864 19.4803L4.48557 18.4895L6.52466 17.9432V17.1277V0.815497V0L5.73748 0.211011Z" fill="#11377F"/>
<path d="M14.6343 0.131348C12.3755 0.131348 10.5454 1.96216 10.5454 4.22025C10.5454 5.04374 10.7904 5.80831 11.2093 6.44979L14.6476 12.3736V12.3686L14.6485 12.3736L18.1943 6.24243L18.1847 6.24381C18.5259 5.64686 18.7232 4.95696 18.7232 4.22002C18.7232 1.96239 16.8924 0.131348 14.6343 0.131348ZM14.6343 5.82612C13.7469 5.82612 13.0289 5.107 13.0289 4.22025C13.0289 3.3335 13.7471 2.61438 14.6343 2.61438C15.5215 2.61438 16.2402 3.33373 16.2402 4.22025C16.2402 5.10677 15.5215 5.82612 14.6343 5.82612Z" fill="#11377F"/>
<path d="M11.2094 8.42649C11.0991 8.25705 11.0004 8.07892 10.9155 7.89349L10.3751 6.96244C9.84602 6.14283 9.56672 5.19557 9.56672 4.22044C9.56672 2.93725 10.0468 1.76504 10.836 0.871218L7.58496 0V17.9432L14.1096 19.6916V13.4234L11.2094 8.42649Z" fill="#11377F"/>
<path d="M20.9072 0.211194L18.9215 0.743288L18.4351 0.873914C19.2227 1.76751 19.7021 2.9388 19.7021 4.22085C19.7021 5.05005 19.4963 5.87103 19.1047 6.6034C19.0873 6.64793 19.0661 6.69109 19.0419 6.73334L18.225 8.14533C18.2118 8.17045 18.1994 8.19649 18.185 8.22138L18.1946 8.22024L15.1699 13.4489V18.876V19.6918L15.9576 19.4808C15.9576 19.4808 15.9576 19.4808 15.958 19.4803L20.9072 18.1539C21.3422 18.0375 21.6948 17.578 21.6948 17.1277V0.815452C21.6948 0.365342 21.3422 0.094499 20.9072 0.211194Z" fill="#11377F"/>
</svg>
