<svg width="15" height="18" viewBox="0 0 15 18" fill="none" xmlns="http://www.w3.org/2000/svg">
<path d="M7.33987 0C5.88212 0.00170912 4.48456 0.581556 3.45377 1.61234C2.42299 2.64313 1.84314 4.04069 1.84143 5.49844V5.61468C1.84143 7.74763 1.33495 9.91195 0.336741 12.0486C0.113824 12.5244 -0.00116343 13.0435 8.87446e-06 13.569C8.87446e-06 13.7525 0.0729066 13.9285 0.202666 14.0582C0.332426 14.188 0.508418 14.2609 0.691926 14.2609H13.985C14.1686 14.2609 14.3445 14.188 14.4743 14.0582C14.6041 13.9285 14.677 13.7525 14.677 13.569C14.6784 13.0436 14.5637 12.5245 14.3411 12.0486C13.3439 9.91564 12.8383 7.75316 12.8383 5.62114V5.49844C12.8368 4.04061 12.2571 2.64291 11.2262 1.61207C10.1954 0.581234 8.7977 0.0014654 7.33987 0Z" fill="#5A5A5A"/>
<path d="M6.08519 15.3707C5.90168 15.3707 5.72569 15.4436 5.59593 15.5734C5.46617 15.7031 5.39327 15.8791 5.39327 16.0626C5.39327 16.5765 5.59739 17.0692 5.96072 17.4326C6.32404 17.7959 6.81682 18 7.33064 18C7.84446 18 8.33724 17.7959 8.70057 17.4326C9.0639 17.0692 9.26801 16.5765 9.26801 16.0626C9.26801 15.8791 9.19511 15.7031 9.06535 15.5734C8.93559 15.4436 8.7596 15.3707 8.57609 15.3707H6.08519Z" fill="#5A5A5A"/>
</svg>
