<svg width="375" height="351" viewBox="0 0 375 351" fill="none" xmlns="http://www.w3.org/2000/svg">
<path d="M356.898 185.112C370.25 99.7175 299.01 13.6406 205.471 2.96025C204.307 2.82384 203.144 2.70347 201.972 2.5831C136.59 -3.9166 76.8732 46.0107 59.7894 84.0862C42.7056 122.162 -1.99786 158.391 14.5724 228.973C31.1426 299.555 76.159 337.149 181.703 348.279C287.247 359.409 306.706 329.229 334.727 263.285C345.242 238.217 352.686 211.969 356.898 185.112Z" fill="#2254B2"/>
<path opacity="0.8" d="M356.898 185.112C370.25 99.7175 299.01 13.6406 205.471 2.96025C204.307 2.82384 203.144 2.70347 201.972 2.5831C136.59 -3.9166 76.8732 46.0107 59.7894 84.0862C42.7056 122.162 -1.99786 158.391 14.5724 228.973C31.1426 299.555 76.159 337.149 181.703 348.279C287.247 359.409 306.706 329.229 334.727 263.285C345.242 238.217 352.686 211.969 356.898 185.112Z" fill="white"/>
<path d="M361.542 83.5104H222.77L234.967 79.0168C235.44 77.9656 238.176 72.3887 243.24 70.8641C246.393 69.9172 249.972 71.2332 252.869 72.2844C254.779 72.9905 256.584 73.6485 257.106 73.0868C257.599 72.4925 258.009 71.8338 258.325 71.1289C259.832 67.7298 262.488 64.9708 265.828 63.3372C269.519 61.4997 273.7 62.6792 277.062 63.6261C279.678 64.3644 281.941 65.0063 282.992 63.9551C283.645 63.1048 284.155 62.1534 284.501 61.1386C286.306 56.8616 289.315 49.6959 303.759 49.2706C321.364 48.7731 330.713 65.552 331.571 67.1648C334.275 68.4808 337.188 68.4086 340.205 68.3364C343.086 68.2722 346.055 68.2 349.201 69.2431C355.757 71.4338 361.069 82.4672 361.293 82.9326L361.542 83.5104ZM227.271 82.708H360.234C359.039 80.397 354.304 71.8109 348.896 70.0055C345.887 69.0024 342.982 69.0746 340.181 69.1388C336.972 69.2191 333.971 69.2913 331.05 67.8309L330.929 67.7667L330.865 67.6463C330.777 67.4698 321.621 49.5274 303.735 50.073C289.821 50.4823 287.036 57.0863 285.199 61.4515C284.822 62.5631 284.255 63.6004 283.522 64.5168C282.133 65.905 279.662 65.2069 276.805 64.3965C273.411 63.4416 269.583 62.3503 266.157 64.0514C262.962 65.6012 260.426 68.2424 259.007 71.498C258.657 72.29 258.195 73.0277 257.635 73.6886C256.745 74.5793 254.987 73.9293 252.548 73.0387C249.787 72.0276 246.345 70.7597 243.448 71.6264C238.297 73.1751 235.641 79.426 235.616 79.4902L235.544 79.6507L227.271 82.708Z" fill="#263238"/>
<path d="M157.364 25.8396H60.7432L69.7545 22.5175C70.1396 21.7151 72.0254 17.9196 75.5159 16.9005C77.7307 16.2425 80.2262 17.1572 82.2243 17.8875C83.3878 18.3208 84.7118 18.8022 85.0248 18.4893C85.349 18.0791 85.6187 17.6287 85.8272 17.1492C86.8793 14.7823 88.7317 12.8617 91.0591 11.7248C93.6429 10.4329 96.5557 11.2513 98.8908 11.9174C100.656 12.4149 102.181 12.8482 102.855 12.1661C103.296 11.5949 103.64 10.9551 103.874 10.2724C105.126 7.28734 107.228 2.30423 117.266 2.00733C129.359 1.67031 135.827 13.0568 136.525 14.3808C138.354 15.2555 140.312 15.1833 142.391 15.1833C144.493 15.0173 146.608 15.232 148.634 15.8172C153.207 17.3418 156.899 24.997 157.051 25.326L157.364 25.8396ZM65.2448 25.0371H156.072C155.125 23.2317 151.98 17.7109 148.417 16.5233C146.479 15.9676 144.456 15.7665 142.447 15.9295C140.224 15.9857 138.13 16.0338 136.092 15.0148L135.971 14.9506L135.915 14.8302C135.851 14.7098 129.544 2.3925 117.315 2.79372C107.79 3.07457 105.896 7.60831 104.636 10.5613C104.377 11.3415 103.977 12.0677 103.457 12.7038C102.454 13.7148 100.712 13.2253 98.7062 12.6556C96.3872 11.9976 93.7552 11.2514 91.4843 12.4069C89.3061 13.4664 87.5765 15.2671 86.6056 17.4862C86.3612 18.0457 86.0338 18.5651 85.6346 19.0269C84.9686 19.701 83.7168 19.2436 81.9996 18.6097C80.1059 17.9196 77.7547 17.0529 75.7968 17.6387C72.3062 18.6899 70.4927 22.9508 70.4767 22.9909L70.4044 23.1514L65.2448 25.0371Z" fill="#263238"/>
<path d="M123.726 136.952H58.2793L64.9395 134.497C65.2524 133.831 66.5444 131.399 68.8473 130.701C70.3639 130.244 72.0571 130.87 73.4051 131.367C73.9588 131.568 75.01 131.945 75.1304 131.801C75.3407 131.535 75.5161 131.244 75.652 130.934C76.3696 129.328 77.6275 128.025 79.2067 127.251C80.9801 126.368 82.9461 126.922 84.5269 127.371C85.6663 127.692 86.6533 127.973 87.0465 127.58C87.3263 127.207 87.5456 126.793 87.6965 126.352C88.547 124.33 89.9754 120.952 96.7559 120.735C104.78 120.518 109.137 127.957 109.723 129.024C110.938 129.482 112.244 129.647 113.535 129.506C114.954 129.398 116.38 129.545 117.748 129.939C120.853 130.974 123.365 136.134 123.445 136.358L123.726 136.952ZM62.7408 136.15H122.402C121.671 134.794 119.681 131.464 117.467 130.725C116.187 130.364 114.853 130.231 113.527 130.332C112.063 130.496 110.582 130.28 109.226 129.706L109.105 129.65L109.049 129.53C109.001 129.45 104.844 121.337 96.7559 121.562C90.4889 121.746 89.2371 124.699 88.4106 126.665C88.2341 127.201 87.9623 127.702 87.6082 128.142C86.878 128.872 85.6904 128.535 84.3022 128.142C82.7776 127.716 81.0523 127.227 79.5598 127.973C78.1235 128.66 76.9836 129.842 76.3501 131.303C76.1783 131.687 75.9512 132.044 75.676 132.362C75.1625 132.876 74.3039 132.555 73.1082 132.114C71.9126 131.672 70.3158 131.094 69.0479 131.472C66.7771 132.154 65.5975 134.938 65.5814 134.962L65.5172 135.131L62.7408 136.15Z" fill="#263238"/>
<path d="M355.42 201.893H289.989L296.665 199.437C296.97 198.779 298.27 196.348 300.565 195.65C302.09 195.193 303.775 195.811 305.131 196.308C305.685 196.509 306.736 196.886 306.856 196.741C307.066 196.478 307.241 196.19 307.378 195.883C308.091 194.274 309.35 192.969 310.933 192.2C312.698 191.317 314.672 191.871 316.253 192.32C317.392 192.641 318.379 192.914 318.772 192.521C319.051 192.147 319.27 191.733 319.422 191.293C320.273 189.279 321.693 185.9 328.474 185.676H328.851C336.635 185.676 340.888 192.898 341.441 193.973C342.659 194.433 343.967 194.6 345.261 194.462C346.68 194.351 348.107 194.497 349.474 194.896C352.579 195.931 355.091 201.09 355.171 201.315L355.42 201.893ZM294.435 201.09H354.096C353.365 199.742 351.375 196.404 349.161 195.666C347.881 195.304 346.546 195.173 345.221 195.281C343.757 195.445 342.276 195.229 340.92 194.655L340.799 194.599L340.735 194.478C340.735 194.398 336.643 186.494 328.787 186.494H328.442C322.175 186.679 320.931 189.64 320.105 191.598C319.93 192.137 319.658 192.64 319.302 193.082C318.572 193.812 317.376 193.475 315.996 193.082C314.471 192.649 312.746 192.159 311.254 192.906C309.822 193.599 308.684 194.78 308.044 196.236C307.876 196.622 307.651 196.982 307.378 197.303C306.864 197.809 305.998 197.496 304.802 197.054C303.607 196.613 302.01 196.027 300.75 196.412C298.487 197.086 297.291 199.879 297.283 199.903L297.211 200.063L294.435 201.09Z" fill="#263238"/>
<path d="M375.378 323.508H0V324.31H375.378V323.508Z" fill="#263238"/>
<path d="M333.306 253.127C333.306 253.127 334.43 250.663 320.668 245.103C306.906 239.542 292.92 242.952 287.391 250.326C281.862 257.701 276.069 258.624 271.591 261.697C267.114 264.77 264.602 270.612 268.863 276.759C273.124 282.905 269.553 285.674 271.27 289.357C272.987 293.04 281.084 296.458 285.04 295.19C288.996 293.923 296.523 290.584 303.6 290.889C310.678 291.194 320.499 297.959 331.621 299.186C342.743 300.414 349.21 293.658 349.01 289.044C348.809 284.43 354.45 286.893 353.937 274.905C353.423 262.917 333.306 253.127 333.306 253.127Z" fill="#2254B2"/>
<path d="M282.183 279.03C281.266 277.839 280.018 276.946 278.596 276.462C277.424 276.153 276.205 276.066 275.001 276.205C275.746 277.091 276.61 277.869 277.569 278.516C279.366 279.792 282.183 279.03 282.183 279.03Z" fill="#263238"/>
<path d="M284.302 271.936C283.711 270.553 282.725 269.375 281.469 268.55C280.412 267.962 279.256 267.576 278.059 267.41C278.552 268.453 279.193 269.421 279.96 270.283C281.381 271.976 284.302 271.936 284.302 271.936Z" fill="#263238"/>
<path d="M293.506 267.466C293.438 265.965 292.93 264.516 292.045 263.301C291.266 262.376 290.322 261.604 289.261 261.022C289.36 262.175 289.616 263.309 290.023 264.393C290.753 266.471 293.506 267.466 293.506 267.466Z" fill="#263238"/>
<path d="M302.557 264.594C303.325 263.305 303.694 261.816 303.616 260.317C303.47 259.114 303.1 257.949 302.525 256.883C301.981 257.893 301.578 258.973 301.329 260.093C300.799 262.259 302.557 264.594 302.557 264.594Z" fill="#263238"/>
<path d="M318.044 264.409C319.194 263.448 320.032 262.165 320.451 260.726C320.715 259.543 320.753 258.32 320.564 257.123C319.71 257.901 318.97 258.795 318.365 259.779C317.137 261.625 318.044 264.409 318.044 264.409Z" fill="#263238"/>
<path d="M329.759 269.385C330.907 268.418 331.744 267.134 332.166 265.694C332.425 264.512 332.461 263.293 332.271 262.099C331.42 262.879 330.68 263.773 330.072 264.755C328.876 266.6 329.759 269.385 329.759 269.385Z" fill="#263238"/>
<path d="M334.791 275.764C336.244 275.349 337.54 274.511 338.514 273.356C339.246 272.396 339.79 271.308 340.119 270.146C339.022 270.504 337.98 271.012 337.022 271.655C335.12 272.859 334.791 275.764 334.791 275.764Z" fill="#263238"/>
<path d="M336.901 282.255C338.356 282.626 339.888 282.562 341.307 282.07C342.419 281.595 343.432 280.915 344.292 280.064C343.164 279.823 342.008 279.739 340.857 279.816C338.651 279.912 336.901 282.255 336.901 282.255Z" fill="#263238"/>
<path d="M328.131 287.206C329.394 288.03 330.875 288.458 332.384 288.434C333.588 288.339 334.764 288.017 335.85 287.487C334.848 286.897 333.767 286.451 332.641 286.163C330.53 285.545 328.131 287.206 328.131 287.206Z" fill="#263238"/>
<path d="M310.87 273.308C311.635 272.015 312.001 270.524 311.921 269.023C311.777 267.823 311.409 266.661 310.838 265.597C310.294 266.607 309.892 267.687 309.642 268.806C309.113 270.973 310.87 273.308 310.87 273.308Z" fill="#263238"/>
<path d="M283.435 283.916C282.122 283.185 280.624 282.856 279.126 282.969C277.928 283.147 276.774 283.547 275.724 284.149C276.755 284.671 277.854 285.047 278.99 285.264C281.148 285.729 283.435 283.916 283.435 283.916Z" fill="#263238"/>
<path d="M292.671 279.559C291.36 278.824 289.861 278.495 288.362 278.612C287.165 278.79 286.011 279.19 284.96 279.792C285.993 280.307 287.092 280.68 288.226 280.899C290.384 281.372 292.671 279.559 292.671 279.559Z" fill="#263238"/>
<path d="M291.563 275.772C291.563 275.772 302.172 286.524 305.068 289.598C307.965 292.671 309.474 299.123 309.081 304.354C308.687 309.586 305.317 324.022 305.317 324.022H315.46C315.46 324.022 314.754 314.802 314.657 305.277C314.561 295.752 315.62 292.061 316.479 290.521C317.338 288.98 322.505 280.683 322.505 280.683L329.519 272.081L318.284 283.146L316.944 270.893C316.936 270.854 316.914 270.818 316.883 270.793C316.851 270.768 316.812 270.754 316.772 270.754C316.732 270.754 316.692 270.768 316.661 270.793C316.63 270.818 316.608 270.854 316.599 270.893L314.994 285.337L311.568 291.483L303.913 285.064L308.126 278.693C308.165 278.645 308.184 278.583 308.178 278.522C308.172 278.46 308.141 278.403 308.094 278.364C308.046 278.324 307.984 278.306 307.922 278.312C307.861 278.318 307.804 278.348 307.765 278.396L302.38 283.756L291.563 275.772Z" fill="#263238"/>
<path d="M70.0924 253.127C70.0924 253.127 71.2158 250.663 57.4541 245.103C43.6924 239.542 29.698 242.952 24.1773 250.326C18.6565 257.701 12.8549 258.616 8.37736 261.689C3.89979 264.762 1.38818 270.604 5.64107 276.75C9.89396 282.897 6.33918 285.666 8.04836 289.349C9.75755 293.032 17.83 296.458 21.8422 295.19C25.8543 293.923 33.325 290.584 40.4105 290.889C47.4959 291.194 57.2696 297.959 68.3832 299.186C79.4969 300.414 85.9725 293.658 85.78 289.044C85.5874 284.43 91.2124 286.893 90.6989 274.905C90.1853 262.917 70.0924 253.127 70.0924 253.127Z" fill="#2254B2"/>
<path d="M18.9699 279.029C18.0513 277.837 16.8004 276.944 15.375 276.462C14.2061 276.151 12.9892 276.064 11.7881 276.205C12.5307 277.089 13.3921 277.867 14.3478 278.516C16.1453 279.792 18.9699 279.029 18.9699 279.029Z" fill="#263238"/>
<path d="M21.0879 271.936C20.4958 270.552 19.5074 269.373 18.2473 268.55C17.1913 267.961 16.0347 267.575 14.8369 267.41C15.336 268.452 15.9788 269.419 16.7467 270.283C18.159 271.976 21.0879 271.936 21.0879 271.936Z" fill="#263238"/>
<path d="M30.2837 267.466C30.221 265.965 29.7157 264.516 28.8313 263.301C28.0519 262.376 27.1078 261.604 26.0469 261.022C26.1409 262.176 26.3976 263.311 26.8092 264.393C27.5394 266.471 30.2837 267.466 30.2837 267.466Z" fill="#263238"/>
<path d="M39.3428 264.593C40.1012 263.312 40.4667 261.836 40.394 260.348C40.2484 259.147 39.8811 257.982 39.3107 256.914C38.7668 257.924 38.3645 259.004 38.1151 260.124C37.5855 262.258 39.3428 264.593 39.3428 264.593Z" fill="#263238"/>
<path d="M54.8299 264.409C55.9776 263.445 56.8151 262.164 57.2372 260.726C57.4959 259.542 57.534 258.321 57.3495 257.123C56.4946 257.902 55.7519 258.796 55.1429 259.779C53.9392 261.625 54.8299 264.409 54.8299 264.409Z" fill="#263238"/>
<path d="M66.5455 269.385C67.6952 268.419 68.533 267.135 68.9528 265.694C69.2156 264.513 69.2538 263.293 69.0651 262.099C68.2116 262.877 67.4715 263.771 66.8664 264.755C65.6628 266.6 66.5455 269.385 66.5455 269.385Z" fill="#263238"/>
<path d="M71.5928 275.764C73.0458 275.349 74.3422 274.511 75.3161 273.356C76.0474 272.396 76.5918 271.308 76.9209 270.146C75.821 270.503 74.7758 271.011 73.8155 271.655C71.8977 272.859 71.5928 275.764 71.5928 275.764Z" fill="#263238"/>
<path d="M73.6797 282.255C75.1345 282.626 76.6664 282.562 78.085 282.071C79.1985 281.593 80.2135 280.913 81.0781 280.064C79.9477 279.823 78.7891 279.739 77.6357 279.816C75.437 279.912 73.6797 282.255 73.6797 282.255Z" fill="#263238"/>
<path d="M64.9082 287.206C66.1792 288.034 67.6689 288.461 69.1852 288.434C70.3926 288.34 71.5714 288.018 72.6597 287.487C71.6575 286.897 70.5769 286.451 69.45 286.163C67.3155 285.545 64.9082 287.206 64.9082 287.206Z" fill="#263238"/>
<path d="M47.6483 273.308C48.4175 272.016 48.7861 270.525 48.7075 269.023C48.5629 267.823 48.1955 266.661 47.6242 265.597C47.075 266.605 46.6699 267.686 46.4205 268.806C45.915 270.973 47.6483 273.308 47.6483 273.308Z" fill="#263238"/>
<path d="M20.2375 283.916C18.9279 283.185 17.432 282.856 15.9365 282.969C14.7383 283.145 13.584 283.545 12.5342 284.149C13.5653 284.671 14.6646 285.047 15.8001 285.264C17.9345 285.73 20.2375 283.916 20.2375 283.916Z" fill="#263238"/>
<path d="M29.4575 279.559C28.1464 278.824 26.6468 278.495 25.1484 278.612C23.9507 278.79 22.7968 279.19 21.7461 279.792C22.7913 280.313 23.904 280.685 25.0521 280.899C27.1625 281.372 29.4575 279.559 29.4575 279.559Z" fill="#263238"/>
<path d="M28.3496 275.771C28.3496 275.771 38.9497 286.524 41.8465 289.597C44.7433 292.67 46.2519 299.122 45.8587 304.354C45.4655 309.586 42.0953 324.021 42.0953 324.021H52.246C52.246 324.021 51.5399 314.801 51.4436 305.277C51.3473 295.752 52.4146 292.061 53.2651 290.52C54.1157 288.979 59.2994 280.682 59.2994 280.682L66.3047 272.08L55.0706 283.145L53.7305 270.892C53.7305 270.846 53.7119 270.801 53.6788 270.768C53.6457 270.734 53.6008 270.716 53.554 270.716C53.5072 270.716 53.4623 270.734 53.4292 270.768C53.3961 270.801 53.3775 270.846 53.3775 270.892L51.7726 285.336L48.3542 291.483L40.699 285.063L44.9038 278.692C44.9233 278.668 44.9379 278.641 44.9469 278.612C44.9558 278.582 44.9589 278.551 44.9559 278.521C44.9529 278.49 44.9439 278.461 44.9295 278.434C44.915 278.406 44.8954 278.382 44.8717 278.363C44.848 278.344 44.8207 278.329 44.7913 278.32C44.7619 278.311 44.7311 278.308 44.7005 278.311C44.67 278.314 44.6403 278.323 44.6132 278.337C44.5862 278.352 44.5622 278.371 44.5427 278.395L39.1664 283.755L28.3496 275.771Z" fill="#263238"/>
<path d="M284.478 211.208C284.478 211.208 285.602 208.744 271.84 203.184C258.078 197.623 244.084 201.033 238.563 208.407C233.042 215.782 227.265 216.737 222.763 219.81C218.261 222.883 215.774 228.725 220.035 234.872C224.296 241.018 220.725 243.787 222.442 247.47C224.159 251.153 232.272 254.539 236.22 253.312C240.168 252.084 247.695 248.698 254.78 249.01C261.866 249.323 271.679 256.08 282.801 257.308C293.923 258.535 300.382 251.771 300.19 247.165C299.997 242.559 305.63 245.014 305.109 233.026C304.587 221.038 284.478 211.208 284.478 211.208Z" fill="#2254B2"/>
<path d="M233.356 237.142C232.436 235.954 231.185 235.063 229.761 234.583C228.592 234.273 227.375 234.185 226.174 234.326C226.918 235.212 227.783 235.989 228.742 236.637C230.531 237.881 233.356 237.142 233.356 237.142Z" fill="#263238"/>
<path d="M235.474 230.049C234.88 228.668 233.892 227.492 232.633 226.671C231.577 226.082 230.42 225.696 229.223 225.531C229.724 226.572 230.367 227.539 231.132 228.404C232.545 230.089 235.474 230.049 235.474 230.049Z" fill="#263238"/>
<path d="M244.669 225.587C244.607 224.086 244.101 222.637 243.217 221.422C242.438 220.497 241.494 219.725 240.433 219.144C240.526 220.295 240.783 221.427 241.195 222.506C241.925 224.592 244.669 225.587 244.669 225.587Z" fill="#263238"/>
<path d="M253.745 222.714C254.514 221.422 254.883 219.931 254.804 218.429C254.659 217.229 254.289 216.066 253.713 215.003C253.169 216.013 252.767 217.093 252.517 218.213C251.972 220.379 253.745 222.714 253.745 222.714Z" fill="#263238"/>
<path d="M269.216 222.53C270.363 221.563 271.201 220.279 271.623 218.839C271.882 217.658 271.92 216.439 271.736 215.244C270.881 216.023 270.138 216.917 269.529 217.9C268.333 219.746 269.216 222.53 269.216 222.53Z" fill="#263238"/>
<path d="M280.932 227.506C282.081 226.54 282.919 225.256 283.339 223.814C283.596 222.635 283.628 221.419 283.435 220.228C282.582 221.006 281.842 221.9 281.237 222.884C280.049 224.713 280.932 227.506 280.932 227.506Z" fill="#263238"/>
<path d="M285.946 233.869C287.394 233.465 288.689 232.641 289.67 231.502C290.401 230.542 290.945 229.453 291.274 228.292C290.175 228.654 289.131 229.165 288.169 229.809C286.291 230.98 285.946 233.869 285.946 233.869Z" fill="#263238"/>
<path d="M288.065 240.368C289.522 240.744 291.057 240.683 292.479 240.192C293.589 239.713 294.601 239.033 295.464 238.186C294.333 237.944 293.175 237.86 292.021 237.937C289.855 238.033 288.065 240.368 288.065 240.368Z" fill="#263238"/>
<path d="M279.295 245.327C280.556 246.143 282.03 246.57 283.532 246.555C284.738 246.457 285.917 246.136 287.006 245.608C286.004 245.017 284.923 244.569 283.797 244.276C281.702 243.666 279.295 245.327 279.295 245.327Z" fill="#263238"/>
<path d="M262.034 231.461C262.802 230.169 263.171 228.678 263.093 227.176C262.949 225.977 262.581 224.815 262.01 223.75C261.461 224.758 261.056 225.839 260.807 226.96C260.277 229.094 262.034 231.461 262.034 231.461Z" fill="#263238"/>
<path d="M234.615 242.037C233.304 241.303 231.804 240.973 230.306 241.091C229.107 241.266 227.953 241.667 226.903 242.27C227.936 242.788 229.035 243.16 230.169 243.378C232.32 243.851 234.615 242.037 234.615 242.037Z" fill="#263238"/>
<path d="M243.843 237.68C242.532 236.945 241.033 236.616 239.534 236.733C238.338 236.911 237.184 237.308 236.132 237.905C237.163 238.427 238.262 238.803 239.398 239.02C241.548 239.486 243.843 237.68 243.843 237.68Z" fill="#263238"/>
<path d="M242.735 233.869C242.735 233.869 253.335 244.63 256.232 247.703C259.129 250.776 260.646 257.228 260.244 262.452C259.843 267.676 256.481 323.974 256.481 323.974H266.624C266.624 323.974 265.918 272.907 265.821 263.374C265.725 253.842 266.792 250.158 267.651 248.626C268.509 247.093 273.677 238.788 273.677 238.788L280.682 230.186L269.448 241.251L268.14 229.054C268.14 229.008 268.122 228.963 268.089 228.93C268.056 228.897 268.011 228.878 267.964 228.878C267.917 228.878 267.872 228.897 267.839 228.93C267.806 228.963 267.787 229.008 267.787 229.054L266.182 243.498L262.764 249.645L255.109 243.185L259.314 236.822C259.341 236.773 259.35 236.716 259.34 236.662C259.33 236.607 259.301 236.557 259.259 236.521C259.216 236.485 259.162 236.465 259.106 236.464C259.05 236.463 258.996 236.482 258.953 236.517L253.576 241.877L242.735 233.869Z" fill="#263238"/>
<path d="M179.328 211.208C179.328 211.208 180.451 208.744 166.689 203.184C152.928 197.623 138.941 201.033 133.412 208.407C127.884 215.782 122.09 216.705 117.613 219.778C113.135 222.851 110.623 228.693 114.884 234.84C119.145 240.986 115.574 243.755 117.292 247.438C119.009 251.121 127.129 254.507 131.069 253.279C135.009 252.052 142.552 248.665 149.63 248.978C156.707 249.291 166.529 256.048 177.651 257.276C188.772 258.503 195.24 251.739 195.039 247.133C194.839 242.527 200.48 244.982 199.966 232.994C199.453 221.006 179.328 211.208 179.328 211.208Z" fill="#2254B2"/>
<path d="M128.204 237.143C127.286 235.956 126.038 235.066 124.617 234.583C123.446 234.274 122.226 234.187 121.022 234.326C121.767 235.212 122.631 235.99 123.59 236.637C125.356 237.881 128.204 237.143 128.204 237.143Z" fill="#263238"/>
<path d="M130.323 230.049C129.731 228.669 128.746 227.494 127.49 226.671C126.434 226.083 125.278 225.697 124.08 225.531C124.576 226.573 125.216 227.54 125.982 228.404C127.402 230.089 130.323 230.049 130.323 230.049Z" fill="#263238"/>
<path d="M139.527 225.587C139.46 224.086 138.952 222.637 138.067 221.422C137.287 220.497 136.343 219.725 135.282 219.144C135.381 220.294 135.638 221.425 136.045 222.506C136.775 224.592 139.527 225.587 139.527 225.587Z" fill="#263238"/>
<path d="M148.578 222.714C149.347 221.422 149.716 219.931 149.637 218.429C149.492 217.229 149.122 216.066 148.546 215.003C148.002 216.013 147.6 217.093 147.35 218.213C146.821 220.379 148.578 222.714 148.578 222.714Z" fill="#263238"/>
<path d="M164.065 222.53C165.215 221.565 166.053 220.28 166.472 218.839C166.735 217.658 166.773 216.439 166.585 215.244C165.731 216.022 164.991 216.916 164.386 217.9C163.182 219.746 164.065 222.53 164.065 222.53Z" fill="#263238"/>
<path d="M175.78 227.506C176.928 226.538 177.765 225.255 178.188 223.814C178.454 222.637 178.497 221.421 178.316 220.228C177.465 221.008 176.726 221.902 176.117 222.884C174.898 224.713 175.78 227.506 175.78 227.506Z" fill="#263238"/>
<path d="M180.796 233.869C182.243 233.465 183.539 232.641 184.519 231.502C185.251 230.542 185.795 229.453 186.124 228.292C185.028 228.656 183.986 229.166 183.027 229.809C181.141 230.98 180.796 233.869 180.796 233.869Z" fill="#263238"/>
<path d="M182.923 240.368C184.377 240.744 185.909 240.682 187.328 240.191C188.44 239.716 189.453 239.036 190.313 238.185C189.185 237.944 188.03 237.86 186.879 237.937C184.672 238.033 182.923 240.368 182.923 240.368Z" fill="#263238"/>
<path d="M174.151 245.327C175.412 246.145 176.886 246.572 178.388 246.555C179.592 246.456 180.768 246.135 181.855 245.608C180.852 245.017 179.772 244.569 178.645 244.276C176.551 243.666 174.151 245.327 174.151 245.327Z" fill="#263238"/>
<path d="M156.892 231.461C157.655 230.167 158.021 228.677 157.943 227.176C157.798 225.977 157.431 224.815 156.86 223.75C156.316 224.76 155.913 225.84 155.664 226.96C155.134 229.094 156.892 231.461 156.892 231.461Z" fill="#263238"/>
<path d="M129.464 242.037C128.153 241.303 126.654 240.973 125.155 241.091C123.958 241.268 122.804 241.668 121.753 242.27C122.786 242.786 123.885 243.158 125.019 243.378C127.169 243.851 129.464 242.037 129.464 242.037Z" fill="#263238"/>
<path d="M138.692 237.68C137.381 236.945 135.881 236.616 134.383 236.733C133.185 236.902 132.029 237.291 130.973 237.881C132.005 238.402 133.104 238.777 134.239 238.996C136.405 239.486 138.692 237.68 138.692 237.68Z" fill="#263238"/>
<path d="M137.585 233.869C137.585 233.869 148.193 244.629 151.09 247.703C153.987 250.776 155.495 257.228 155.102 262.451C154.709 267.675 151.339 323.974 151.339 323.974H161.465C161.465 323.974 160.767 272.907 160.663 263.374C160.559 253.841 161.626 250.158 162.484 248.625C163.343 247.093 168.519 238.788 168.519 238.788L175.524 230.186L164.29 241.251L162.99 229.054C162.981 229.015 162.96 228.979 162.928 228.954C162.897 228.929 162.858 228.915 162.817 228.915C162.777 228.915 162.738 228.929 162.707 228.954C162.675 228.979 162.653 229.015 162.645 229.054L161.04 243.498L157.614 249.645L149.958 243.185L154.171 236.822C154.316 236.589 154.003 236.324 153.81 236.517L148.426 241.877L137.585 233.869Z" fill="#263238"/>
<path d="M350.542 81.5104H211.77L223.967 77.0168C224.44 75.9656 227.176 70.3887 232.24 68.8641C235.393 67.9172 238.972 69.2332 241.869 70.2844C243.779 70.9905 245.584 71.6485 246.106 71.0868C246.599 70.4925 247.009 69.8338 247.325 69.1289C248.832 65.7298 251.488 62.9708 254.828 61.3372C258.519 59.4997 262.7 60.6792 266.062 61.6261C268.678 62.3644 270.941 63.0063 271.992 61.9551C272.645 61.1048 273.155 60.1534 273.501 59.1386C275.306 54.8616 278.315 47.6959 292.759 47.2706C310.364 46.7731 319.713 63.552 320.571 65.1648C323.275 66.4808 326.188 66.4086 329.205 66.3364C332.086 66.2722 335.055 66.2 338.201 67.2431C344.757 69.4338 350.069 80.4672 350.293 80.9326L350.542 81.5104ZM216.271 80.708H349.234C348.039 78.397 343.304 69.8109 337.896 68.0055C334.887 67.0024 331.982 67.0746 329.181 67.1388C325.972 67.2191 322.971 67.2913 320.05 65.8309L319.929 65.7667L319.865 65.6463C319.777 65.4698 310.621 47.5274 292.735 48.073C278.821 48.4823 276.036 55.0863 274.199 59.4515C273.822 60.5631 273.255 61.6004 272.522 62.5168C271.133 63.905 268.662 63.2069 265.805 62.3965C262.411 61.4416 258.583 60.3503 255.157 62.0514C251.962 63.6012 249.426 66.2424 248.007 69.498C247.657 70.29 247.195 71.0277 246.635 71.6886C245.745 72.5793 243.987 71.9293 241.548 71.0387C238.787 70.0276 235.345 68.7597 232.448 69.6264C227.297 71.1751 224.641 77.426 224.616 77.4902L224.544 77.6507L216.271 80.708Z" fill="#263238"/>
<path d="M146.364 23.8396H49.7432L58.7545 20.5175C59.1396 19.7151 61.0254 15.9196 64.5159 14.9005C66.7307 14.2425 69.2262 15.1572 71.2243 15.8875C72.3878 16.3208 73.7118 16.8022 74.0248 16.4893C74.349 16.0791 74.6187 15.6287 74.8272 15.1492C75.8793 12.7823 77.7317 10.8617 80.0591 9.72478C82.6429 8.43287 85.5557 9.25135 87.8908 9.91737C89.6561 10.4149 91.1808 10.8482 91.8548 10.1661C92.2958 9.59488 92.6401 8.95513 92.8739 8.27238C94.1257 5.28734 96.2281 0.304232 106.266 0.00733241C118.359 -0.329689 124.827 11.0568 125.525 12.3808C127.354 13.2555 129.312 13.1833 131.391 13.1833C133.493 13.0173 135.608 13.232 137.634 13.8172C142.207 15.3418 145.899 22.997 146.051 23.326L146.364 23.8396ZM54.2448 23.0371H145.072C144.125 21.2317 140.98 15.7109 137.417 14.5233C135.479 13.9676 133.456 13.7665 131.447 13.9295C129.224 13.9857 127.13 14.0338 125.092 13.0148L124.971 12.9506L124.915 12.8302C124.851 12.7098 118.544 0.392499 106.315 0.793716C96.7898 1.07457 94.896 5.60831 93.6362 8.56126C93.3773 9.34153 92.9775 10.0677 92.4566 10.7038C91.4536 11.7148 89.7123 11.2253 87.7062 10.6556C85.3872 9.99761 82.7552 9.25135 80.4843 10.4069C78.3061 11.4664 76.5765 13.2671 75.6056 15.4862C75.3612 16.0457 75.0338 16.5651 74.6346 17.0269C73.9686 17.701 72.7168 17.2436 70.9996 16.6097C69.1059 15.9196 66.7547 15.0529 64.7968 15.6387C61.3062 16.6899 59.4927 20.9508 59.4767 20.9909L59.4044 21.1514L54.2448 23.0371Z" fill="#263238"/>
<path d="M112.726 134.952H47.2793L53.9395 132.497C54.2524 131.831 55.5444 129.399 57.8473 128.701C59.3639 128.244 61.0571 128.87 62.4051 129.367C62.9588 129.568 64.01 129.945 64.1304 129.801C64.3407 129.535 64.5161 129.244 64.652 128.934C65.3696 127.328 66.6275 126.025 68.2067 125.251C69.9801 124.368 71.9461 124.922 73.5269 125.371C74.6663 125.692 75.6533 125.973 76.0465 125.58C76.3263 125.207 76.5456 124.793 76.6965 124.352C77.547 122.33 78.9754 118.952 85.7559 118.735C93.7802 118.518 98.1374 125.957 98.7232 127.024C99.9383 127.482 101.244 127.647 102.535 127.506C103.954 127.398 105.38 127.545 106.748 127.939C109.853 128.974 112.365 134.134 112.445 134.358L112.726 134.952ZM51.7408 134.15H111.402C110.671 132.794 108.681 129.464 106.467 128.725C105.187 128.364 103.853 128.231 102.527 128.332C101.063 128.496 99.582 128.28 98.2257 127.706L98.1053 127.65L98.0492 127.53C98.001 127.45 93.8444 119.337 85.7559 119.562C79.4889 119.746 78.2371 122.699 77.4106 124.665C77.2341 125.201 76.9623 125.702 76.6082 126.142C75.878 126.872 74.6904 126.535 73.3022 126.142C71.7776 125.716 70.0523 125.227 68.5598 125.973C67.1235 126.66 65.9836 127.842 65.3501 129.303C65.1783 129.687 64.9512 130.044 64.676 130.362C64.1625 130.876 63.3039 130.555 62.1082 130.114C60.9126 129.672 59.3158 129.094 58.0479 129.472C55.7771 130.154 54.5975 132.938 54.5814 132.962L54.5172 133.131L51.7408 134.15Z" fill="#263238"/>
<path d="M344.42 199.893H278.989L285.665 197.437C285.97 196.779 287.27 194.348 289.565 193.65C291.09 193.193 292.775 193.811 294.131 194.308C294.685 194.509 295.736 194.886 295.856 194.741C296.066 194.478 296.241 194.19 296.378 193.883C297.091 192.274 298.35 190.969 299.933 190.2C301.698 189.317 303.672 189.871 305.253 190.32C306.392 190.641 307.379 190.914 307.772 190.521C308.051 190.147 308.27 189.733 308.422 189.293C309.273 187.279 310.693 183.9 317.474 183.676H317.851C325.635 183.676 329.888 190.898 330.441 191.973C331.659 192.433 332.967 192.6 334.261 192.462C335.68 192.351 337.107 192.497 338.474 192.896C341.579 193.931 344.091 199.09 344.171 199.315L344.42 199.893ZM283.435 199.09H343.096C342.365 197.742 340.375 194.404 338.161 193.666C336.881 193.304 335.546 193.173 334.221 193.281C332.757 193.445 331.276 193.229 329.92 192.655L329.799 192.599L329.735 192.478C329.735 192.398 325.643 184.494 317.787 184.494H317.442C311.175 184.679 309.931 187.64 309.105 189.598C308.93 190.137 308.658 190.64 308.302 191.082C307.572 191.812 306.376 191.475 304.996 191.082C303.471 190.649 301.746 190.159 300.254 190.906C298.822 191.599 297.684 192.78 297.044 194.236C296.876 194.622 296.651 194.982 296.378 195.303C295.864 195.809 294.998 195.496 293.802 195.054C292.607 194.613 291.01 194.027 289.75 194.412C287.487 195.086 286.291 197.879 286.283 197.903L286.211 198.063L283.435 199.09Z" fill="#263238"/>
<path d="M109.99 213.888H86.4463V216.086H109.99V213.888Z" fill="#2254B2"/>
<path d="M110.391 216.495H86.0371V213.486H110.383L110.391 216.495ZM86.8476 215.693H109.588V214.289H86.8395L86.8476 215.693Z" fill="#263238"/>
<path d="M109.99 213.888H105.81V323.909H109.99V213.888Z" fill="#2254B2"/>
<path d="M110.391 324.31H105.408V213.486H110.391V324.31ZM106.211 323.508H109.589V214.289H106.211V323.508Z" fill="#263238"/>
<path d="M101.188 213.888H97.0068V323.909H101.188V213.888Z" fill="#2254B2"/>
<path d="M101.589 324.31H96.6055V213.486H101.589V324.31ZM97.4079 323.508H100.786V214.289H97.4079V323.508Z" fill="#263238"/>
<path d="M90.627 213.888H86.4463V323.909H90.627V213.888Z" fill="#2254B2"/>
<path d="M91.0282 324.31H86.0371V213.486H91.0202L91.0282 324.31ZM86.8476 323.508H90.2258V214.289H86.8395L86.8476 323.508Z" fill="#263238"/>
<path d="M189.455 246.707C189.455 246.707 190.876 264.778 191.405 276.83C191.716 284.047 192.664 291.222 194.238 298.271C194.238 298.271 188.749 294.548 184.32 293.457C179.89 292.365 165.535 292.75 160.038 290.624C154.541 288.497 154.188 287.077 153.306 286.548C152.423 286.018 147.103 280.409 143.01 286.074C138.918 291.739 143.364 302.026 142.481 303.447C141.598 304.867 138.581 310.179 139.464 316.029C140.346 321.879 141.414 325.064 143.364 324.358C145.313 323.652 151.693 312.659 153.29 309.473C154.165 307.687 155.17 305.968 156.299 304.329C156.299 304.329 172.604 310.885 181.286 314.962C189.969 319.038 206.804 322.047 209.997 316.382C213.191 310.717 219.739 299.37 220.429 286.612C221.119 273.853 225.565 245.495 225.565 245.495L189.455 246.707Z" fill="#2254B2"/>
<path d="M142.866 324.856C142.565 324.857 142.27 324.774 142.015 324.616C140.739 323.861 139.889 321.406 139.086 316.086C138.187 310.156 141.205 304.747 142.151 303.247C142.36 302.926 142.047 301.305 141.766 299.869C140.964 295.856 139.832 289.846 142.697 285.858C143.128 285.171 143.699 284.583 144.372 284.131C145.045 283.679 145.806 283.373 146.605 283.234C149.325 282.873 151.813 284.911 153.024 285.89C153.249 286.075 153.418 286.219 153.522 286.283C153.782 286.454 154.019 286.656 154.228 286.885C154.934 287.583 156.114 288.747 160.19 290.328C163.4 291.579 169.819 291.932 175.436 292.294C178.435 292.372 181.424 292.656 184.383 293.144C187.858 293.947 191.886 296.354 193.603 297.445C192.179 290.677 191.301 283.804 190.979 276.895C190.458 264.995 189.046 246.964 189.029 246.788V246.37H189.447L226.078 245.103L226.006 245.584C225.957 245.865 221.568 274.062 220.87 286.652C220.172 299.243 213.953 310.228 210.615 316.158L210.358 316.599C206.916 322.722 189.495 319.271 181.134 315.347C173.197 311.624 158.714 305.758 156.467 304.844C155.427 306.384 154.492 307.993 153.666 309.658C152.631 311.72 145.827 323.901 143.516 324.744C143.307 324.818 143.087 324.856 142.866 324.856ZM147.247 283.98C147.068 283.968 146.888 283.968 146.709 283.98C146.02 284.109 145.366 284.38 144.789 284.777C144.211 285.174 143.723 285.687 143.355 286.283C140.691 289.991 141.814 295.816 142.553 299.668C142.994 301.947 143.187 303.062 142.833 303.624C141.927 305.084 139.022 310.276 139.881 315.933C140.338 318.974 141.108 323.115 142.424 323.893C142.544 323.966 142.679 324.008 142.819 324.018C142.958 324.028 143.098 324.004 143.227 323.95C144.832 323.348 150.954 313.213 152.928 309.257C153.816 307.454 154.835 305.719 155.977 304.065L156.162 303.808L156.451 303.929C156.611 303.993 172.868 310.533 181.455 314.569C190.506 318.814 206.691 321.406 209.644 316.174L209.893 315.733C213.207 309.859 219.361 298.922 220.052 286.58C220.701 274.857 224.537 249.668 225.123 245.905L189.872 247.117C190.089 249.901 191.308 265.934 191.79 276.807C192.104 283.996 193.049 291.144 194.614 298.167L194.863 299.178L193.997 298.601C193.948 298.561 188.516 294.901 184.207 293.874C181.286 293.409 178.337 293.141 175.38 293.072C169.683 292.735 163.215 292.35 159.861 291.05C155.632 289.445 154.372 288.177 153.626 287.431C153.457 287.25 153.269 287.089 153.064 286.949C152.928 286.861 152.735 286.709 152.471 286.492C151.476 285.657 149.429 283.98 147.247 283.98Z" fill="#263238"/>
<path d="M190.948 258.431C190.948 258.431 195.104 254.274 204.011 251.602C212.918 248.93 223.895 254.868 223.895 254.868L225.95 243.778L198.964 244.18L189.455 246.707L190.948 258.431Z" fill="#263238"/>
<path d="M190.651 259.289L189.046 246.45L198.988 243.786L226.463 243.377L224.225 255.494L223.743 255.229C223.631 255.173 212.798 249.403 204.156 252.019C195.514 254.635 191.317 258.703 191.261 258.744L190.651 259.289ZM189.896 247.036L191.245 257.62C192.681 256.4 196.765 253.359 203.891 251.201C211.915 248.793 221.344 253.118 223.599 254.25L225.46 244.171L199.02 244.565L189.896 247.036Z" fill="#263238"/>
<path d="M195.275 253.442L194.485 253.584L197.18 268.558L197.969 268.416L195.275 253.442Z" fill="#263238"/>
<path d="M198.599 271.365L197.809 271.505L198.707 276.594L199.497 276.454L198.599 271.365Z" fill="#263238"/>
<path d="M153.835 292.871C154.38 291.339 155.467 290.06 156.892 289.276C154.348 287.928 153.979 287.013 153.305 286.612C152.423 286.075 147.102 280.409 143.026 286.075C138.95 291.74 143.379 302.027 142.496 303.447C141.614 304.868 138.597 310.18 139.479 316.029C140.362 321.879 141.429 325.065 143.379 324.359C145.329 323.652 151.708 312.659 153.305 309.473C154.121 307.811 155.043 306.203 156.066 304.659C154.854 301.353 153.016 295.535 153.835 292.871Z" fill="white"/>
<path d="M142.866 324.856C142.565 324.857 142.27 324.773 142.015 324.615C140.739 323.861 139.889 321.405 139.086 316.085C138.187 310.155 141.205 304.747 142.151 303.246C142.36 302.925 142.047 301.305 141.766 299.868C140.964 295.856 139.832 289.846 142.705 285.858C143.134 285.17 143.703 284.582 144.375 284.129C145.047 283.677 145.807 283.372 146.605 283.234C149.325 282.873 151.813 284.911 153.024 285.89C153.249 286.074 153.418 286.219 153.522 286.283C153.783 286.455 154.022 286.657 154.236 286.885C155.067 287.721 156.029 288.415 157.085 288.939L157.703 289.268L157.109 289.629C155.766 290.359 154.74 291.559 154.228 292.999C153.426 295.575 155.287 301.353 156.451 304.562L156.523 304.763L156.411 304.932C155.396 306.448 154.482 308.03 153.674 309.666C152.639 311.728 145.835 323.909 143.524 324.752C143.312 324.824 143.089 324.86 142.866 324.856ZM147.247 283.98C147.068 283.968 146.888 283.968 146.709 283.98C146.02 284.109 145.366 284.38 144.789 284.777C144.211 285.173 143.723 285.686 143.355 286.283C140.691 289.99 141.814 295.816 142.553 299.668C142.994 301.947 143.187 303.062 142.833 303.624C141.927 305.084 139.022 310.276 139.881 315.933C140.338 318.974 141.108 323.115 142.424 323.893C142.544 323.965 142.679 324.008 142.819 324.018C142.958 324.028 143.098 324.004 143.227 323.949C144.832 323.347 150.954 313.213 152.928 309.257C153.726 307.652 154.621 306.098 155.608 304.603C154.156 300.59 152.631 295.326 153.434 292.719C153.912 291.306 154.85 290.094 156.098 289.276C155.196 288.771 154.369 288.141 153.642 287.406C153.473 287.226 153.285 287.064 153.081 286.925C152.944 286.837 152.752 286.684 152.487 286.468C151.476 285.657 149.429 283.98 147.247 283.98Z" fill="#263238"/>
<path d="M160.037 290.688C160.037 290.688 155.608 295.503 155.223 299.515L158.946 299.692C158.946 299.692 159.652 293.312 163.761 291.892L160.037 290.688Z" fill="#263238"/>
<path d="M159.332 300.141L154.822 299.924V299.507C155.183 295.342 159.525 290.608 159.717 290.415L159.886 290.223L164.973 291.916L163.858 292.301C160.07 293.625 159.348 299.707 159.34 299.764L159.332 300.141ZM155.705 299.162L158.626 299.306C158.834 297.998 159.717 293.729 162.638 291.988L160.126 291.145C159.388 292.036 156.219 295.816 155.705 299.162Z" fill="#263238"/>
<path d="M181.479 293.168C181.479 293.168 178.999 295.118 177.764 300.253L181.655 300.607C181.655 300.607 183.26 295.792 185.908 294.227C185.908 294.227 182.546 292.815 181.479 293.168Z" fill="#263238"/>
<path d="M181.936 301.04L177.258 300.614L177.37 300.157C178.63 294.949 181.126 292.935 181.23 292.847L181.358 292.783C182.498 292.406 185.483 293.585 186.069 293.858L186.799 294.163L186.117 294.572C183.621 296.073 182.056 300.687 182.04 300.735L181.936 301.04ZM178.261 299.9L181.382 300.181C181.751 299.178 183.051 295.976 185.074 294.331C184 293.853 182.846 293.58 181.671 293.529C181.318 293.842 179.376 295.72 178.261 299.9Z" fill="#263238"/>
<path d="M140.193 300.077C140.193 300.077 150.473 304.683 157.045 307.162C163.616 309.642 179.922 316.735 189.278 319.568C198.635 322.4 213.022 319.391 215.863 317.794C218.703 316.197 221.528 312.659 220.677 310.709C219.827 308.759 218.904 308.759 212.172 307.339C205.439 305.918 194.63 302.027 191.613 301.497C188.596 300.967 185.234 298.287 174.072 298.287C162.91 298.287 152.808 298.111 148.555 297.934C144.302 297.758 139.126 297.597 140.193 300.077Z" fill="white"/>
<path d="M198.483 321.125C195.337 321.181 192.2 320.787 189.166 319.953C182.626 317.979 172.933 314.031 165.149 310.853C161.787 309.481 158.882 308.294 156.884 307.539C150.393 305.084 140.13 300.486 140.033 300.446L139.889 300.382L139.833 300.237C139.705 299.997 139.643 299.726 139.655 299.454C139.666 299.182 139.75 298.918 139.897 298.689C140.828 297.34 144.214 297.373 148.547 297.549C152.88 297.726 162.887 297.902 174.048 297.902C182.273 297.902 186.366 299.355 189.07 300.309C189.912 300.644 190.778 300.912 191.662 301.112C193.002 301.345 195.835 302.227 199.116 303.254C203.273 304.546 208.449 306.159 212.228 306.962L213.986 307.323C219.193 308.406 220.132 308.599 221.015 310.532C222.082 312.876 218.792 316.607 216.064 318.14C213.986 319.311 206.186 321.125 198.483 321.125ZM140.507 299.78C141.807 300.358 151.131 304.506 157.165 306.793C159.179 307.547 162.084 308.735 165.454 310.107C173.222 313.277 182.891 317.225 189.391 319.183C198.555 321.951 212.79 319.062 215.663 317.449C218.335 315.949 221.039 312.555 220.277 310.878C219.578 309.337 219.073 309.192 213.817 308.101L212.06 307.732C208.24 306.93 203.04 305.325 198.868 304.009C195.61 302.998 192.801 302.115 191.509 301.89C190.583 301.696 189.673 301.427 188.789 301.088C186.141 300.149 182.129 298.721 174.04 298.721C162.863 298.721 152.736 298.544 148.507 298.368C145.642 298.247 141.285 298.071 140.547 299.17C140.492 299.261 140.46 299.364 140.453 299.47C140.446 299.576 140.464 299.682 140.507 299.78Z" fill="#263238"/>
<path d="M193.563 319.463C186.59 310.524 189.551 302.323 189.607 302.243L190.354 302.524C190.354 302.604 187.513 310.404 194.197 318.966L193.563 319.463Z" fill="#263238"/>
<path d="M188.933 314.986C185.884 309.609 186.887 301.938 186.935 301.617L187.737 301.73C187.737 301.802 186.726 309.457 189.639 314.568L188.933 314.986Z" fill="#263238"/>
<path d="M235.073 134.295C235.073 134.295 227.578 134.134 224.641 133.155C221.704 132.176 213.407 128.918 208.512 130.226C203.617 131.534 201.667 133.155 198.883 136.581C196.099 140.008 185.242 166.271 185.362 174.376C185.299 176.578 185.992 178.735 187.327 180.487C188.662 182.239 190.557 183.481 192.696 184.005C192.696 184.005 180.66 202.574 181.775 203.713C182.891 204.852 230.001 225.708 233.588 224.408C237.175 223.108 238.804 220.331 239.285 217.073C239.767 213.816 254.764 195.079 254.764 195.079L267.804 175.692C267.804 175.692 276.438 162.661 274.32 157.445C272.201 152.229 253.785 143.434 253.785 143.434L235.073 134.295Z" fill="#2254B2"/>
<path d="M233.22 224.841C229.962 224.841 217.171 219.754 206.627 215.332C194.871 210.389 182.193 204.668 181.511 203.986C180.395 202.871 186.566 192.752 192.079 184.222C189.987 183.576 188.163 182.266 186.882 180.492C185.601 178.717 184.932 176.573 184.977 174.384C184.809 166.055 195.802 139.767 198.619 136.325C201.435 132.882 203.433 131.173 208.44 129.833C212.926 128.638 219.923 131.077 223.687 132.393L224.81 132.778C227.651 133.725 235.041 133.894 235.121 133.894L235.282 133.934L254.019 143.057C254.773 143.418 272.595 151.988 274.745 157.284C276.896 162.58 268.551 175.363 268.189 175.901L255.158 195.288C250.985 200.503 240.128 214.546 239.743 217.122C239.166 220.965 237.159 223.541 233.781 224.769C233.6 224.828 233.41 224.852 233.22 224.841ZM182.113 203.448C183.084 204.138 194.631 209.426 207.092 214.682C229.56 224.103 232.955 224.223 233.468 224.039C236.55 222.915 238.379 220.556 238.909 217.025C239.406 213.695 253.858 195.609 254.468 194.838L267.483 175.476C267.564 175.355 275.973 162.564 273.959 157.605C271.945 152.646 253.818 143.892 253.633 143.804L234.977 134.72C234.078 134.72 227.338 134.503 224.545 133.565L223.414 133.171C220.003 131.984 212.894 129.504 208.649 130.636C203.834 131.912 201.949 133.516 199.245 136.855C196.725 139.968 185.651 166.272 185.812 174.392C185.767 176.496 186.435 178.554 187.709 180.23C188.982 181.905 190.786 183.1 192.825 183.62L193.403 183.741L193.082 184.23C187.529 192.704 181.976 202.156 182.113 203.448Z" fill="#263238"/>
<path d="M267.82 175.676C267.82 175.676 276.454 162.644 274.336 157.429C272.218 152.213 253.802 143.418 253.802 143.418L235.073 134.295C235.073 134.295 227.578 134.134 224.641 133.155C221.704 132.176 213.407 128.918 208.512 130.226C203.618 131.534 201.668 133.155 198.883 136.581C196.099 140.008 185.242 166.271 185.362 174.376C185.341 176.567 186.034 178.705 187.336 180.467C205.263 168.31 236.084 148.209 240.738 150.536C245.392 152.863 251.748 179.303 255.062 194.621L267.82 175.676Z" fill="#263238"/>
<path d="M254.886 195.625L254.693 194.71C249.02 168.518 243.876 152.55 240.57 150.897C237.264 149.244 217.998 160.165 187.61 180.804L187.297 181.012L187.064 180.715C185.717 178.881 184.996 176.661 185.01 174.384C184.841 166.055 195.835 139.767 198.651 136.325C201.468 132.882 203.466 131.173 208.473 129.833C212.958 128.638 219.956 131.077 223.719 132.393L224.842 132.778C227.683 133.725 235.073 133.894 235.154 133.894L235.314 133.934L254.051 143.057C254.805 143.418 272.627 151.988 274.778 157.284C276.928 162.58 268.583 175.363 268.222 175.901L254.886 195.625ZM239.856 149.974C240.225 149.96 240.592 150.029 240.931 150.175C245.433 152.43 251.178 174.826 255.271 193.619L267.484 175.46C267.596 175.283 275.973 162.532 273.959 157.581C271.945 152.63 253.818 143.868 253.634 143.779L234.977 134.696C234.078 134.696 227.338 134.479 224.546 133.54L223.414 133.147C220.004 131.96 212.894 129.48 208.649 130.612C203.835 131.887 201.949 133.492 199.245 136.83C196.725 139.944 185.652 166.248 185.812 174.368C185.799 176.345 186.381 178.279 187.481 179.921C208.064 165.943 233.091 149.974 239.856 149.974Z" fill="#263238"/>
<path d="M229.945 153.745C229.098 147.483 229.722 141.109 231.767 135.129L232.513 135.418C230.519 141.267 229.912 147.5 230.74 153.625L229.945 153.745Z" fill="white"/>
<path d="M249.228 160.622L248.61 160.108C249.294 159.292 249.919 158.429 250.48 157.524L251.162 157.95C250.577 158.882 249.931 159.775 249.228 160.622Z" fill="white"/>
<path d="M252.342 155.784L251.611 155.439C253.045 152.533 253.719 149.311 253.569 146.075L254.372 145.986C254.553 149.373 253.854 152.748 252.342 155.784Z" fill="white"/>
<path d="M255.487 154.138L254.725 153.881C255.407 151.555 255.678 149.127 255.527 146.708L256.329 146.644C256.499 149.172 256.214 151.711 255.487 154.138Z" fill="white"/>
<path d="M191.011 201.733L190.345 202.18L196.114 210.784L196.78 210.337L191.011 201.733Z" fill="#263238"/>
<path d="M187.183 195.966L186.517 196.413L188.894 199.959L189.56 199.512L187.183 195.966Z" fill="#263238"/>
<path d="M195.013 204.136L194.317 204.536L198.065 211.054L198.761 210.654L195.013 204.136Z" fill="#263238"/>
<path d="M193.523 194.692L192.869 195.157L198.898 203.631L199.552 203.166L193.523 194.692Z" fill="#263238"/>
<path d="M233.821 128.749C234.407 128.749 233.973 139.614 232.954 144.967C231.935 150.319 234.84 159.162 240.048 159.306C245.255 159.451 249.749 153.513 251.057 149.46C251.711 147.636 252.194 145.756 252.501 143.843L234.848 125.885L233.821 128.749Z" fill="white"/>
<path d="M240.241 159.7H240.04C239.146 159.637 238.276 159.377 237.493 158.938C236.711 158.5 236.035 157.894 235.514 157.164C233.107 154.187 231.823 148.795 232.561 144.887C233.532 139.751 233.885 130.644 233.581 129.143H233.26L234.672 125.131L252.943 143.651V143.836C252.638 145.791 252.146 147.712 251.475 149.573C250.111 153.697 245.657 159.7 240.241 159.7ZM234.271 128.686C234.84 130.339 234.19 140.578 233.348 145.039C232.65 148.738 233.877 153.866 236.14 156.658C236.586 157.3 237.17 157.834 237.849 158.222C238.528 158.609 239.285 158.84 240.064 158.897C244.919 159.042 249.356 153.425 250.672 149.324C251.283 147.572 251.752 145.775 252.077 143.948L235.001 126.591L234.271 128.686Z" fill="#263238"/>
<path d="M233.372 142.23L246.845 140.425L234.006 129.03C234.255 130.499 233.998 137.223 233.372 142.23Z" fill="#263238"/>
<path d="M232.883 142.696L232.947 142.182C233.589 137.095 233.822 130.507 233.549 129.111L233.316 127.947L247.76 140.706L232.883 142.696ZM234.488 130.01C234.533 133.937 234.324 137.864 233.862 141.765L245.954 140.16L234.488 130.01Z" fill="#263238"/>
<path d="M234.695 115.71C234.695 115.71 238.026 113.11 246.13 112.677C254.235 112.243 258.728 113.832 263.069 115.277C265.326 115.979 267.509 116.9 269.585 118.029C269.585 118.029 276.807 118.751 277.12 117.307C277.433 115.862 270.749 112.38 270.749 112.38C270.749 112.38 271.254 102.446 267.924 97.3744C264.594 92.303 251.202 89.9438 244.83 92.1104C238.459 94.277 234.262 98.915 232.794 103.698C231.733 107.859 231.247 112.147 231.349 116.44C231.51 116.873 234.695 115.71 234.695 115.71Z" fill="#263238"/>
<path d="M273.189 118.631C271.833 118.631 270.453 118.519 269.546 118.431L269.385 118.374C267.338 117.266 265.188 116.357 262.966 115.662L262.589 115.534C258.352 114.122 253.979 112.653 246.179 113.07C238.379 113.488 235.001 116.007 234.945 116.031L234.841 116.088C233.493 116.577 231.775 117.107 231.262 116.89C231.134 116.828 231.036 116.719 230.989 116.585C230.847 112.21 231.333 107.838 232.433 103.602C234.038 98.2495 238.644 93.8281 244.711 91.7578C251.307 89.503 264.852 91.9825 268.27 97.1822C271.367 101.901 271.223 110.535 271.167 112.172C273.349 113.327 277.819 115.887 277.522 117.412C277.313 118.374 275.275 118.631 273.189 118.631ZM269.714 117.636C273.285 117.989 276.607 117.797 276.728 117.227C276.848 116.657 273.967 114.515 270.565 112.741L270.332 112.621V112.364C270.332 112.268 270.79 102.494 267.572 97.5995C264.354 92.7047 251.162 90.3776 244.943 92.496C239.126 94.478 234.728 98.7069 233.18 103.81C231.848 108.2 231.639 114.812 231.711 116.136C232.66 115.956 233.589 115.687 234.488 115.333C234.969 114.98 238.411 112.661 246.099 112.252C254.043 111.827 258.496 113.311 262.805 114.747L263.183 114.876C265.442 115.588 267.629 116.512 269.714 117.636Z" fill="#263238"/>
<path d="M236.14 109.636C236.14 109.636 248.883 105.72 254.099 106.426C259.314 107.132 269.297 111.923 269.297 111.923C269.297 111.923 273.935 114.386 275.379 115.253C276.823 116.119 278.589 116.705 277.12 117.283L275.668 117.861C275.668 117.861 274.801 116.994 270.46 114.964C266.119 112.934 256.265 108.159 252.502 108.159C248.738 108.159 235.418 111.778 235.418 111.778L236.14 109.636Z" fill="white"/>
<path d="M275.571 118.358L275.387 118.166C275.387 118.166 274.448 117.291 270.283 115.357L269.152 114.82C264.514 112.645 255.88 108.585 252.501 108.585C248.834 108.585 235.65 112.156 235.522 112.188L234.8 112.388L235.827 109.307L236.028 109.251C236.549 109.09 248.915 105.319 254.146 106.041C259.378 106.763 269.064 111.385 269.473 111.578C269.674 111.69 274.143 114.065 275.587 114.924C275.876 115.1 276.181 115.269 276.47 115.421C277.417 115.927 278.075 116.288 278.075 116.866C278.075 117.315 277.61 117.54 277.273 117.668L275.571 118.358ZM252.501 107.782C256.056 107.782 264.466 111.73 269.489 114.097L270.628 114.627C272.421 115.388 274.134 116.326 275.74 117.428L276.968 116.93L277.208 116.818C276.86 116.554 276.486 116.325 276.093 116.136C275.796 115.975 275.475 115.807 275.17 115.622C273.75 114.771 269.16 112.332 269.112 112.3C269.064 112.268 259.13 107.55 254.042 106.843C249.316 106.193 238.082 109.467 236.453 109.957L236.036 111.225C238.892 110.462 249.195 107.782 252.501 107.782Z" fill="#263238"/>
<path d="M269.586 118.029C269.586 118.029 268.43 118.607 267.708 122.226C266.986 126.365 265.912 130.435 264.498 134.391C262.613 139.607 255.23 145.248 250.6 145.537C245.97 145.826 239.735 139.751 238.146 136.999C236.558 134.247 233.821 128.75 233.821 128.75L232.377 114.707C232.377 114.707 238.171 110.8 242.512 110.222C246.853 109.644 255.254 110.222 259.884 111.377C264.514 112.533 269.586 118.029 269.586 118.029Z" fill="white"/>
<path d="M250.287 145.954C245.408 145.954 239.374 139.887 237.825 137.199C236.276 134.511 233.492 128.982 233.468 128.926L233.428 128.782L231.951 114.498L232.152 114.37C232.393 114.209 238.074 110.358 242.455 109.812C246.836 109.266 255.294 109.812 259.98 110.984C264.666 112.155 269.673 117.532 269.882 117.756L270.243 118.149L269.778 118.382C269.722 118.382 268.743 119.096 268.101 122.306L267.916 123.237C267.229 127.078 266.22 130.855 264.899 134.527C263.045 139.655 255.583 145.633 250.648 145.938L250.287 145.954ZM234.238 128.629C234.559 129.263 237.063 134.246 238.539 136.798C240.016 139.35 246.074 145.408 250.616 145.143C254.917 144.87 262.259 139.526 264.169 134.254C265.478 130.622 266.477 126.885 267.154 123.084L267.338 122.154C267.844 119.618 268.574 118.486 269.032 117.997C267.9 116.849 263.663 112.717 259.812 111.762C255.19 110.607 246.82 110.045 242.591 110.607C238.836 111.112 233.877 114.218 232.826 114.9L234.238 128.629Z" fill="#263238"/>
<path d="M257.758 125.339C257.004 120.854 260.462 117.05 260.606 116.89L261.192 117.435C261.192 117.435 257.862 121.11 258.544 125.203L257.758 125.339Z" fill="#263238"/>
<path d="M232.08 107.605C232.08 107.605 229.472 111.224 229.183 114.121C228.894 117.018 229.761 123.534 230.339 127.008C230.917 130.483 233.966 132.625 235.266 132.071C236.566 131.518 240.329 128.453 240.329 126.864C240.329 125.275 237.874 124.256 236.71 119.77C235.547 115.285 234.977 112.821 236.132 109.635C237.288 106.45 237.44 104.018 235.844 104.564C234.247 105.11 232.08 107.605 232.08 107.605Z" fill="white"/>
<path d="M234.792 132.569C234.297 132.551 233.815 132.41 233.387 132.16C232.476 131.616 231.696 130.879 231.103 129.999C230.509 129.12 230.117 128.121 229.953 127.073C229.383 123.646 228.493 117.05 228.79 114.081C229.086 111.112 231.654 107.525 231.759 107.373C231.855 107.269 234.021 104.829 235.69 104.219C235.899 104.115 236.134 104.077 236.365 104.11C236.596 104.143 236.811 104.246 236.982 104.404C237.921 105.343 237.079 108.191 236.493 109.804C235.394 112.83 235.907 115.149 237.087 119.698C237.547 121.509 238.405 123.195 239.598 124.633C240.213 125.241 240.606 126.038 240.714 126.896C240.714 128.782 236.701 131.903 235.41 132.473C235.212 132.547 235.002 132.58 234.792 132.569ZM232.384 107.854C232.2 108.119 229.841 111.506 229.576 114.162C229.287 117.05 230.162 123.55 230.731 126.944C230.877 127.87 231.223 128.753 231.744 129.531C232.264 130.31 232.949 130.966 233.749 131.454C233.944 131.586 234.164 131.677 234.396 131.721C234.628 131.765 234.866 131.762 235.097 131.711C236.493 131.085 239.911 128.124 239.911 126.896C239.911 126.359 239.518 125.845 238.964 125.131C237.704 123.604 236.797 121.818 236.308 119.899C235.089 115.189 234.559 112.773 235.739 109.523C236.701 106.892 236.766 105.319 236.413 104.974C236.34 104.893 236.188 104.893 235.963 104.974C234.575 105.479 232.585 107.654 232.4 107.887L232.384 107.854Z" fill="#263238"/>
<path d="M251.996 145.304C249.814 145.296 247.66 144.805 245.691 143.864C243.722 142.923 241.986 141.557 240.609 139.863C236.95 135.562 233.139 129.014 233.388 123.51V123.165H233.733C234.76 123.068 258.961 120.966 268.967 132.858L269.144 133.067L269.016 133.307C268.831 133.669 264.369 142.134 257.059 144.542C255.42 145.052 253.713 145.309 251.996 145.304ZM234.214 123.935C234.118 129.135 237.745 135.289 241.227 139.374C243.57 142.126 248.714 146.355 256.867 143.739C263.206 141.717 267.459 134.559 268.237 133.171C259.025 122.547 237.247 123.686 234.214 123.935Z" fill="#263238"/>
<path d="M242.576 130.82L241.87 130.435C242.434 129.413 242.787 128.289 242.909 127.128C243.03 125.968 242.917 124.795 242.576 123.679L243.323 123.39C243.717 124.613 243.854 125.904 243.726 127.183C243.597 128.462 243.206 129.7 242.576 130.82Z" fill="#263238"/>
<path d="M242.745 141.091L242.279 140.433C244.243 138.825 245.878 136.852 247.094 134.624C249.501 130.612 249.22 124.192 249.212 124.128H250.015C250.015 124.401 250.28 130.812 247.792 135.057C246.521 137.38 244.806 139.43 242.745 141.091Z" fill="#263238"/>
<path d="M257.758 143.868C257.503 141.895 257.554 139.895 257.91 137.938C258.488 134.888 261.289 128.012 261.409 127.723L262.147 128.028C262.147 128.1 259.259 135.121 258.697 138.09C258.366 139.944 258.317 141.838 258.552 143.707L257.758 143.868Z" fill="#263238"/>
<path d="M263.76 136.308L262.958 136.236C263.147 134.054 264.191 132.035 265.863 130.619L266.352 131.261C264.87 132.547 263.942 134.355 263.76 136.308Z" fill="#263238"/>
<path d="M264.699 138.755C252.117 128.436 237.416 131.277 237.232 131.309L237.071 130.506C237.224 130.506 252.318 127.554 265.213 138.122L264.699 138.755Z" fill="#263238"/>
<path d="M251.186 119.025C251.017 120.004 250.384 120.718 249.734 120.629C249.084 120.541 248.731 119.634 248.931 118.647C249.132 117.66 249.734 116.954 250.376 117.043C251.017 117.131 251.338 118.038 251.186 119.025Z" fill="#263238"/>
<path d="M263.776 121.528C263.607 122.515 262.973 123.229 262.332 123.132C261.69 123.036 261.328 122.145 261.529 121.158C261.73 120.171 262.332 119.457 262.973 119.554C263.615 119.65 263.944 120.573 263.776 121.528Z" fill="#263238"/>
<path d="M254.123 117.178C250.352 113.968 247.19 115.694 247.054 115.774L246.652 115.076C246.652 115.076 250.424 112.949 254.677 116.568L254.123 117.178Z" fill="#263238"/>
<path d="M265.887 119.12C264.282 118.061 261.569 118.454 261.537 118.462L261.417 117.66C261.545 117.66 264.49 117.21 266.336 118.462L265.887 119.12Z" fill="#263238"/>
<path d="M255.688 130.018C254.744 129.979 253.825 129.703 253.016 129.215L253.441 128.533C254.124 128.937 254.895 129.165 255.688 129.199C256.642 129.087 257.558 128.761 258.368 128.244L258.801 128.918C257.866 129.527 256.798 129.904 255.688 130.018Z" fill="#263238"/>
<path d="M177.234 133.645C177.234 133.645 178.534 141.3 181.96 143.418C185.386 145.537 186.028 147.166 186.028 147.166L184.078 152.871C184.078 152.871 185.218 154.989 189.615 155.479C194.013 155.968 194.992 154.34 194.992 154.34C195.408 152.227 196.007 150.154 196.781 148.145C197.76 146.026 198.386 142.439 197.92 140.329C197.455 138.219 188.291 125.011 188.291 125.011C188.291 125.011 185.194 119.795 182.425 120.934C179.657 122.074 176.07 124.192 176.391 126.969C176.712 129.745 177.234 133.645 177.234 133.645Z" fill="white"/>
<path d="M191.156 155.968C190.62 155.966 190.084 155.934 189.551 155.872C184.994 155.367 183.75 153.152 183.702 153.064L183.613 152.903L185.571 147.198C185.347 146.797 184.432 145.44 181.72 143.763C178.189 141.573 176.865 134.03 176.817 133.717C176.817 133.717 176.327 129.809 176.014 127.033C175.637 123.823 179.778 121.624 182.289 120.613C185.339 119.353 188.516 124.625 188.653 124.85C189.006 125.372 197.808 138.114 198.282 140.281C198.811 142.568 198.089 146.259 197.118 148.361C196.355 150.339 195.764 152.38 195.353 154.46L195.305 154.588C195.297 154.612 194.438 155.968 191.156 155.968ZM184.52 152.823C184.857 153.264 186.197 154.701 189.664 155.086C193.267 155.487 194.414 154.412 194.615 154.179C195.029 152.064 195.633 149.991 196.42 147.984C197.343 145.994 198.025 142.479 197.536 140.425C197.15 138.748 190.506 128.902 187.979 125.243C187.176 123.855 184.608 120.493 182.602 121.319C180.749 122.074 176.488 124.144 176.817 126.936C177.146 129.729 177.619 133.356 177.619 133.605C177.619 133.853 178.983 141.123 182.161 143.097C185.652 145.256 186.366 146.965 186.398 147.037L186.454 147.174L184.52 152.823Z" fill="#263238"/>
<path d="M194.991 154.339C194.991 154.339 195.256 153.007 195.665 151.474C191.83 151.755 187.641 150.415 185.234 149.46L184.07 152.87C184.07 152.87 185.21 154.989 189.607 155.478C194.004 155.968 194.991 154.339 194.991 154.339Z" fill="#263238"/>
<path d="M191.156 155.968C190.62 155.966 190.084 155.934 189.551 155.871C184.993 155.366 183.75 153.151 183.702 153.063L183.613 152.902L184.977 148.938L185.371 149.091C187.545 149.95 191.79 151.354 195.618 151.073H196.179L196.027 151.619C195.634 153.119 195.361 154.443 195.361 154.451L195.313 154.58C195.297 154.612 194.438 155.968 191.156 155.968ZM184.52 152.822C184.857 153.264 186.197 154.7 189.664 155.085C193.267 155.486 194.414 154.411 194.615 154.178C194.679 153.889 194.863 152.991 195.144 151.915C191.843 151.88 188.578 151.23 185.515 149.998L184.52 152.822Z" fill="#263238"/>
<path d="M264.234 183.989L259.299 182.136L265.277 179.479L264.234 183.989Z" fill="#263238"/>
<path d="M264.522 184.527L258.239 182.168L265.854 178.781L264.522 184.527ZM260.358 182.119L263.945 183.467L264.747 180.186L260.358 182.119Z" fill="#263238"/>
<path d="M247.454 164.763L235.233 166.063C235.233 166.063 229.528 158.568 222.202 154.027C214.876 149.485 203.465 137.898 203.465 137.898L200.039 134.15L193.691 139.527C193.691 139.527 201.997 151.098 203.136 153.048C204.275 154.998 209.981 169.016 215.847 174.713C221.712 180.411 226.439 186.124 228.685 185.947C230.932 185.771 244.485 184.343 250.351 184.343C256.217 184.343 263.062 180.924 263.551 180.274C264.041 179.624 265.501 177.337 263.062 173.429C261.122 170.274 258.435 167.644 255.238 165.774C253.32 164.763 247.454 164.763 247.454 164.763Z" fill="white"/>
<path d="M228.622 186.348C226.736 186.348 223.807 183.371 219.843 179.287C218.479 177.89 217.075 176.454 215.566 174.986C210.88 170.436 206.274 160.542 204.06 155.84C203.482 154.604 203.024 153.633 202.792 153.232C201.676 151.322 193.443 139.863 193.363 139.743L193.146 139.446L200.079 133.58L203.763 137.592C203.867 137.697 215.205 149.171 222.411 153.641C229.087 157.789 234.488 164.434 235.411 165.613L247.447 164.329C247.688 164.329 253.425 164.329 255.471 165.348C258.731 167.257 261.47 169.938 263.448 173.156C265.799 176.911 264.756 179.335 263.921 180.45C263.279 181.309 256.218 184.679 250.4 184.679C245.955 184.679 236.919 185.546 232.064 186.011C230.46 186.155 229.304 186.268 228.758 186.308L228.622 186.348ZM194.23 139.574C195.57 141.444 202.439 151.033 203.482 152.83C203.731 153.256 204.172 154.195 204.782 155.503C206.98 160.197 211.546 169.946 216.128 174.416C217.637 175.884 219.049 177.329 220.413 178.725C223.984 182.376 227.081 185.546 228.614 185.546H228.686C229.232 185.546 230.411 185.393 231.968 185.241C236.839 184.775 245.898 183.909 250.384 183.909C256.218 183.909 262.838 180.506 263.263 179.993C263.969 179.054 264.868 176.96 262.749 173.573C260.858 170.475 258.228 167.895 255.094 166.063C253.305 165.164 247.872 165.124 247.471 165.124L235.05 166.464L234.913 166.287C234.857 166.207 229.168 158.792 221.986 154.323C214.804 149.853 203.289 138.274 203.177 138.138L199.967 134.663L194.23 139.574Z" fill="#263238"/>
<path d="M267.162 154.339C267.162 154.339 259.017 157.428 253.641 160.855C248.265 164.281 247.454 164.763 247.454 164.763C247.454 164.763 256.088 167.531 259.836 172.418C263.583 177.305 264.233 183.989 264.233 183.989C264.233 183.989 274.336 180.081 277.593 170.299C280.851 160.518 278.243 157.597 275.475 155.31C272.707 153.023 268.959 153.85 268.959 153.85" fill="#2254B2"/>
<path d="M263.88 184.551L263.832 184.03C263.832 183.957 263.142 177.401 259.515 172.667C255.888 167.933 247.414 165.172 247.326 165.148L246.523 164.859L247.286 164.402C247.286 164.402 248.176 163.864 253.464 160.502C258.752 157.14 266.977 153.978 267.066 153.946L267.347 154.693C267.266 154.693 259.178 157.814 253.898 161.176C250.784 163.158 249.204 164.153 248.417 164.643C250.68 165.445 257.043 168.061 260.189 172.162C263.334 176.262 264.362 181.678 264.602 183.396C266.624 182.481 274.496 178.437 277.249 170.164C280.37 160.815 278.091 157.943 275.259 155.615C272.675 153.489 269.12 154.227 269.08 154.235L268.911 153.433C269.072 153.433 272.883 152.63 275.772 154.982C278.661 157.333 281.293 160.599 278.011 170.404C274.729 180.21 264.522 184.294 264.418 184.335L263.88 184.551Z" fill="#263238"/>
<path d="M193.13 144.06C192.955 144.06 192.78 144.044 192.608 144.011C192.216 143.936 191.844 143.78 191.517 143.552C191.189 143.323 190.913 143.029 190.706 142.687L186.181 135.209L191.982 132.184L195.698 139.999C195.973 140.588 196.04 141.253 195.887 141.885C195.734 142.516 195.37 143.077 194.855 143.474C194.361 143.855 193.754 144.061 193.13 144.06ZM187.312 135.53L191.388 142.27C191.539 142.512 191.739 142.72 191.975 142.879C192.212 143.038 192.48 143.145 192.761 143.193C193.131 143.266 193.514 143.235 193.867 143.102C194.22 142.97 194.529 142.742 194.76 142.444C194.991 142.145 195.134 141.789 195.173 141.414C195.213 141.039 195.147 140.66 194.983 140.32L191.621 133.259L187.312 135.53Z" fill="#263238"/>
<path d="M139.383 30.0508L127.347 39.4874L163.304 102.671L168.118 104.428C168.118 104.428 171.85 105.303 173.174 103.554C174.498 101.804 174.923 94.3336 174.923 94.3336L139.383 30.0508Z" fill="white"/>
<path d="M170.108 105.038C169.399 105.034 168.692 104.959 167.998 104.813L162.982 102.992L162.91 102.863L126.801 39.3748L139.519 29.4326L175.3 94.2451V94.3654C175.3 94.6703 174.842 101.964 173.47 103.802C172.7 104.789 171.304 105.038 170.108 105.038ZM168.222 104.043C168.222 104.043 171.681 104.845 172.82 103.305C173.815 101.964 174.353 96.548 174.489 94.4136L139.255 30.6443L127.828 39.5834L163.536 102.334L168.222 104.043Z" fill="#263238"/>
<path d="M173.142 103.545C174.458 101.788 174.891 94.325 174.891 94.325L173.422 91.6448L162.822 87.2314L163.264 102.662L168.078 104.42C168.078 104.42 171.818 105.294 173.142 103.545Z" fill="#2254B2"/>
<path d="M170.108 105.038C169.398 105.034 168.691 104.959 167.997 104.813L162.87 102.952L162.404 86.6221L173.703 91.3243L175.307 94.2291V94.3495C175.307 94.6544 174.85 101.949 173.478 103.786C172.7 104.789 171.303 105.038 170.108 105.038ZM168.222 104.043C168.222 104.043 171.68 104.845 172.82 103.305C173.815 101.965 174.353 96.5482 174.489 94.4137L173.133 91.9582L163.247 87.8257L163.656 102.374L168.222 104.035V104.043Z" fill="#263238"/>
<path d="M181.631 103.994C181.631 103.994 177.394 99.1075 171.2 100.576C165.005 102.044 162.566 109.531 163.705 111.81C164.844 114.089 167.284 113.415 168.913 112.3L175.926 107.413L182.602 105.134L181.631 103.994Z" fill="white"/>
<path d="M166.08 113.744C165.809 113.748 165.539 113.716 165.277 113.647C164.851 113.535 164.456 113.328 164.121 113.042C163.787 112.756 163.521 112.398 163.343 111.994C162.742 110.783 163.03 108.48 164.058 106.273C164.694 104.792 165.658 103.475 166.877 102.42C168.096 101.365 169.538 100.6 171.095 100.183C177.45 98.6741 181.872 103.681 181.92 103.729L183.284 105.334L176.062 107.782L169.105 112.596C168.227 113.259 167.177 113.658 166.08 113.744ZM173.502 100.704C172.759 100.706 172.019 100.792 171.295 100.961C167.38 101.892 165.446 105.222 164.796 106.578C163.769 108.777 163.656 110.767 164.074 111.601C164.201 111.9 164.394 112.167 164.638 112.381C164.883 112.595 165.173 112.751 165.486 112.837C166.054 112.914 166.632 112.875 167.184 112.72C167.736 112.565 168.25 112.299 168.696 111.938L175.701 107.051L175.797 107.003L181.92 104.917L181.326 104.227C181.27 104.195 178.156 100.704 173.502 100.704Z" fill="#263238"/>
<path d="M175.765 123.542C175.765 123.542 170.389 120.613 169.089 117.845C167.789 115.076 168.6 109.018 173.976 105.624C179.352 102.229 185.21 104.155 189.126 107.092C193.042 110.029 196.621 116.866 198.41 124.031C200.199 131.197 201.347 135.434 201.347 135.434L203.626 138.21L196.95 144.558C195.178 143.311 193.634 141.769 192.384 140C189.976 136.742 187.168 129.087 185.378 125.5C183.589 121.913 180.331 121.424 179.681 122.082C179.031 122.74 175.765 123.542 175.765 123.542Z" fill="white"/>
<path d="M196.998 145.063L196.733 144.902C194.921 143.628 193.341 142.051 192.063 140.24C190.402 138.017 188.629 133.885 187.064 130.234C186.31 128.492 185.612 126.855 185.018 125.676C184.657 124.837 184.108 124.094 183.411 123.503C182.715 122.913 181.892 122.492 181.006 122.274C180.672 122.172 180.313 122.204 180.003 122.362C179.304 123.06 176.464 123.79 175.902 123.967H175.75L175.613 123.894C175.389 123.774 170.109 120.869 168.768 118.013C167.356 115.02 168.335 108.761 173.8 105.286C180.644 100.929 187.441 105.286 189.407 106.771C193.251 109.651 196.958 116.4 198.844 123.935C200.448 130.474 201.58 134.615 201.748 135.249L204.212 138.242L196.998 145.063ZM180.524 121.431C180.715 121.432 180.905 121.448 181.094 121.479C182.114 121.715 183.065 122.185 183.871 122.852C184.678 123.519 185.318 124.365 185.74 125.323C186.334 126.51 187.048 128.171 187.794 129.921C189.343 133.524 191.1 137.616 192.705 139.759C193.886 141.385 195.3 142.829 196.902 144.044L203.08 138.17L200.962 135.538C200.962 135.498 199.799 131.221 198.025 124.127C196.18 116.753 192.593 110.189 188.885 107.413C187.056 106.04 180.596 101.884 174.193 105.96C169.114 109.17 168.167 114.939 169.451 117.668C170.574 120.075 174.987 122.643 175.822 123.116C177.058 122.795 179.032 122.193 179.393 121.792C179.71 121.532 180.115 121.402 180.524 121.431Z" fill="#263238"/>
<path d="M196.95 144.558L203.626 138.21L201.347 135.434L201.187 134.832L193.114 140.922C194.204 142.319 195.497 143.544 196.95 144.558Z" fill="#263238"/>
<path d="M196.998 145.063L196.733 144.903C195.244 143.864 193.919 142.609 192.801 141.18L192.536 140.851L201.419 134.15L201.708 135.25L204.171 138.243L196.998 145.063ZM193.692 140.987C194.637 142.129 195.715 143.155 196.901 144.044L203.08 138.171L200.954 135.515L193.692 140.987Z" fill="#263238"/>
<path d="M170.79 119.345L169.987 119.273C169.987 119.176 170.918 109.523 178.581 107.196C186.245 104.869 189.206 106.666 189.334 106.747L188.917 107.429C188.917 107.429 185.996 105.776 178.814 107.958C171.632 110.141 170.798 119.248 170.79 119.345Z" fill="#263238"/>
<path d="M174.513 122.209L173.759 121.945C173.887 121.576 176.969 112.765 182.184 111.425C187.159 110.141 191.18 110.029 194.63 113.656L194.052 114.209C190.843 110.855 187.216 110.951 182.385 112.203C177.554 113.455 174.545 122.121 174.513 122.209Z" fill="#263238"/>
<path d="M184.078 152.871C184.078 152.871 178.533 166.063 176.744 172.747C174.954 179.432 178.044 190.016 181.31 190.505C184.575 190.995 198.249 178.284 200.367 172.258L202.486 166.232L195.32 157.758L194.991 154.34C194.991 154.34 191.083 156.129 184.078 152.871Z" fill="white"/>
<path d="M181.47 190.914C181.396 190.923 181.32 190.923 181.246 190.914C180.387 190.786 179.553 190.112 178.766 188.908C176.495 185.442 174.947 177.915 176.359 172.659C178.132 166.031 183.653 152.863 183.709 152.735L183.87 152.35L184.247 152.526C190.971 155.648 194.791 154.003 194.823 153.987L195.337 153.762L195.706 157.614L202.928 166.159L200.785 172.394C198.715 178.172 185.37 190.914 181.47 190.914ZM184.287 153.409C183.364 155.624 178.726 166.906 177.129 172.852C175.773 177.907 177.258 185.129 179.432 188.451C179.627 188.842 179.899 189.19 180.231 189.474C180.563 189.758 180.949 189.972 181.366 190.104H181.535C184.825 190.104 197.92 178.011 199.991 172.105L202.029 166.296L194.927 157.902L194.638 154.869C193.363 155.23 189.792 155.872 184.287 153.409Z" fill="#263238"/>
<path d="M194.366 178.557L193.563 178.332C194.679 174.521 194.847 157.918 194.855 157.758H195.658C195.714 158.44 195.545 174.641 194.366 178.557Z" fill="#263238"/>
<path d="M181.792 203.696C178.822 208.438 176.21 213.395 173.976 218.525C171.208 225.37 173.487 233.844 175.445 238.73C177.403 243.617 185.379 249.162 198.25 250.454C211.121 251.746 212.75 250.454 218.126 248.665C223.502 246.875 225.621 247.862 225.621 247.862C225.621 247.862 227.226 248.512 226.921 254.209C226.616 259.907 227.9 272.946 231.816 278.491C235.731 284.036 242.247 299.017 244.358 302.925C246.468 306.833 246.765 318.893 246.765 320.851C246.796 321.691 247.156 322.486 247.767 323.063C248.377 323.641 249.19 323.956 250.031 323.941C251.491 323.941 274.465 325.409 274.465 325.409C274.465 325.409 284.399 324.607 284.567 321.822C284.736 319.038 282.963 320.217 279.681 317.914C276.399 315.612 268.302 309.296 268.302 309.296C268.302 309.296 266.023 304.546 260.165 294.772C254.308 284.999 249.581 250.294 245.994 242.967C242.408 235.641 239.639 229.438 234.913 225.859C230.187 222.281 223.181 219.015 210.84 214.938C198.499 210.862 190.314 207.612 190.314 207.612L181.792 203.696Z" fill="#2254B2"/>
<path d="M274.529 325.803C274.24 325.803 251.499 324.334 250.063 324.334C249.116 324.343 248.204 323.983 247.519 323.33C246.834 322.676 246.431 321.782 246.396 320.836C246.396 318.196 245.97 306.745 243.988 303.11C243.322 301.882 242.207 299.531 240.915 296.803C238.058 290.769 234.135 282.496 231.471 278.708C227.362 272.891 226.199 259.65 226.511 254.186C226.8 248.994 225.452 248.224 225.436 248.216C225.42 248.208 223.342 247.341 218.214 249.018L216.537 249.596C212.268 251.088 209.693 252.003 198.17 250.824C184.962 249.492 177.025 243.842 175.027 238.843C173.567 235.2 170.51 225.9 173.567 218.341C175.811 213.192 178.434 208.217 181.415 203.456L181.607 203.159L190.394 207.211C190.458 207.211 198.651 210.509 210.88 214.53C222.957 218.502 230.203 221.752 235.114 225.507C239.559 228.877 242.335 234.558 245.545 241.13L246.348 242.735C247.88 245.873 249.557 253.72 251.523 262.796C254.163 275.033 257.14 288.907 260.503 294.5C265.887 303.479 268.286 308.262 268.623 308.944C269.426 309.578 276.888 315.363 279.937 317.506C280.859 318.145 281.871 318.645 282.939 318.99C284.198 319.44 285.113 319.793 285.001 321.767C284.824 324.872 275.58 325.715 274.529 325.803ZM223.727 247.165C224.427 247.132 225.127 247.232 225.789 247.461C225.966 247.534 227.659 248.384 227.322 254.202C226.985 260.02 228.325 272.826 232.137 278.227C234.849 282.062 238.781 290.376 241.661 296.442C242.945 299.146 244.069 301.489 244.711 302.701C247.054 307.034 247.198 320.683 247.198 320.812C247.233 321.545 247.552 322.235 248.086 322.738C248.62 323.241 249.329 323.517 250.063 323.508C251.523 323.508 273.582 324.92 274.521 324.976C278.172 324.672 284.094 323.532 284.198 321.767C284.279 320.37 283.909 320.234 282.666 319.793C281.522 319.421 280.44 318.88 279.456 318.188C276.246 315.925 268.118 309.602 268.037 309.538L267.965 309.481L267.917 309.401C267.917 309.353 265.574 304.587 259.788 294.957C256.37 289.252 253.369 275.306 250.721 263.005C248.851 254.346 247.094 246.153 245.601 243.12L244.799 241.515C241.653 235.032 238.925 229.479 234.632 226.181C229.818 222.514 222.596 219.264 210.639 215.324C198.386 211.312 190.169 208.014 190.089 207.982L181.952 204.178C179.064 208.799 176.522 213.627 174.345 218.622C171.4 225.9 174.394 234.968 175.814 238.522C177.659 243.144 185.483 248.705 198.282 250.005C209.628 251.153 212.14 250.27 216.305 248.81L217.99 248.232C219.835 247.582 221.771 247.23 223.727 247.189V247.165Z" fill="#263238"/>
<path d="M279.712 317.907C276.454 315.628 268.302 309.297 268.302 309.297C268.302 309.297 267.595 307.829 265.958 304.852L265.461 305.365C265.461 305.365 256.554 306.85 255.366 309.522L254.179 312.194L246.411 313.052C246.724 316.639 246.796 319.921 246.796 320.868C246.828 321.707 247.186 322.5 247.795 323.077C248.404 323.655 249.215 323.971 250.054 323.957C251.523 323.957 274.496 325.426 274.496 325.426C274.496 325.426 284.43 324.624 284.599 321.839C284.767 319.055 282.97 320.186 279.712 317.907Z" fill="white"/>
<path d="M274.528 325.803C274.239 325.803 251.498 324.334 250.062 324.334C249.116 324.343 248.203 323.983 247.518 323.329C246.833 322.676 246.43 321.781 246.395 320.836C246.395 319.977 246.331 316.695 246.01 313.068V312.675L253.938 311.792L255.029 309.329C256.225 306.641 263.904 305.204 265.292 304.964L266.095 304.161L266.351 304.643C267.756 307.202 268.486 308.655 268.662 309.024C269.465 309.658 276.927 315.443 279.977 317.586C280.899 318.225 281.91 318.726 282.978 319.07C284.238 319.52 285.152 319.873 285.04 321.847C284.823 324.872 275.579 325.714 274.528 325.803ZM246.844 313.381C247.133 316.888 247.197 320.001 247.197 320.836C247.233 321.569 247.551 322.259 248.085 322.762C248.62 323.265 249.328 323.541 250.062 323.532C251.522 323.532 273.581 324.944 274.52 325C278.171 324.695 284.093 323.556 284.198 321.791C284.278 320.394 283.909 320.258 282.665 319.817C281.521 319.445 280.439 318.904 279.455 318.212C276.245 315.949 268.117 309.626 268.037 309.561L267.964 309.505L267.916 309.425C267.916 309.425 267.274 308.085 265.846 305.469L265.629 305.686H265.501C263.094 306.087 256.61 307.58 255.711 309.61L254.427 312.49L246.844 313.381Z" fill="#263238"/>
<path d="M236.212 213.149C236.212 213.149 229.528 213.952 225.62 215.597C221.712 217.242 220.733 218.855 220.733 220.155C220.733 221.455 225.949 243.778 225.949 243.778C225.949 243.778 224.97 246.876 225.62 247.855C226.27 248.834 226.27 249.459 226.92 249.644C227.57 249.829 229.528 268.22 234.904 277.504C240.281 286.789 245.657 296.891 247.286 305.525C248.915 314.16 251.852 319.375 256.249 319.536C260.646 319.696 261.296 311.72 262.275 309.762C263.254 307.804 268.302 309.273 268.302 309.273C268.302 309.273 269.449 308.294 267.82 303.567C266.191 298.841 260.165 289.068 258.56 284.51C256.955 279.952 256.153 257.628 253.184 246.876L251.884 240.681C251.884 240.681 251.884 238.562 251.234 237.752L250.576 236.95C250.576 236.95 245.689 224.111 243.739 219.681C241.789 215.252 240.104 213.478 236.212 213.149Z" fill="white"/>
<path d="M256.386 319.937H256.233C251.804 319.776 248.658 314.946 246.893 305.597C245.288 297.011 240.008 287.142 234.56 277.705C230.724 271.077 228.622 259.875 227.49 253.857C227.161 252.091 226.84 250.422 226.688 249.989C226.475 249.884 226.285 249.738 226.129 249.559C225.973 249.38 225.855 249.171 225.781 248.946C225.646 248.641 225.485 248.348 225.3 248.071C224.618 247.052 225.3 244.5 225.548 243.762C224.906 241.026 220.349 221.446 220.349 220.155C220.349 218.301 222.074 216.64 225.484 215.22C229.4 213.615 235.916 212.812 236.181 212.748H236.261C240.522 213.101 242.183 215.212 244.085 219.505C245.986 223.798 250.552 235.778 250.913 236.733L251.531 237.535C252.213 238.386 252.261 240.296 252.269 240.673L253.561 246.827C255.166 252.822 256.161 262.218 257.004 270.515C257.654 276.935 258.215 282.431 258.922 284.405C260.231 287.524 261.718 290.565 263.375 293.513C265.186 296.717 266.794 300.033 268.19 303.439C269.794 308.181 268.783 309.385 268.559 309.578L268.39 309.722L268.19 309.658C266.962 309.305 263.303 308.591 262.629 309.939C262.336 310.661 262.105 311.408 261.939 312.169C261.136 315.275 259.917 319.937 256.386 319.937ZM236.221 213.55C235.659 213.623 229.432 214.441 225.789 215.958C222.708 217.242 221.151 218.646 221.151 220.146C221.151 221.069 224.264 234.727 226.351 243.682V243.786V243.89C225.974 245.102 225.605 247.06 225.982 247.622C226.179 247.931 226.356 248.252 226.511 248.585C226.752 249.066 226.832 249.195 227.049 249.243C227.458 249.347 227.538 249.644 228.301 253.704C229.424 259.674 231.51 270.78 235.282 277.296C240.762 286.764 246.067 296.731 247.704 305.445C249.341 314.159 252.334 318.982 256.29 319.126C259.307 319.239 260.438 314.858 261.192 311.961C261.37 311.137 261.623 310.331 261.947 309.553C262.926 307.579 266.954 308.462 268.15 308.751C268.326 308.334 268.615 306.994 267.459 303.648C266.082 300.278 264.49 297 262.693 293.834C261.006 290.844 259.498 287.758 258.175 284.59C257.437 282.52 256.867 276.959 256.217 270.515C255.375 262.242 254.412 252.862 252.791 246.924L251.475 240.625C251.506 239.699 251.314 238.779 250.913 237.944L250.199 237.022C250.151 236.893 245.288 224.11 243.362 219.769C241.308 215.268 239.711 213.855 236.221 213.55Z" fill="#263238"/>
<path d="M228.212 248.874L227.915 248.128C228.629 247.847 245.464 241.259 251.787 240.288L251.908 241.091C245.673 242.037 228.388 248.81 228.212 248.874Z" fill="#263238"/>
<path d="M227.739 245.447L227.41 244.717C227.531 244.661 239.607 239.301 248.338 237.198L248.522 238.001C239.864 240.063 227.86 245.391 227.739 245.447Z" fill="#263238"/>
<path d="M229.327 260.027L226.848 260.733L227.201 264.104L230.033 263.751L229.327 260.027Z" fill="#263238"/>
<path d="M226.848 264.554L226.415 260.445L229.625 259.522L230.491 264.096L226.848 264.554ZM227.282 261.031L227.554 263.655L229.561 263.406L229.015 260.534L227.282 261.031Z" fill="#263238"/>
<path d="M240.851 288.562L237.48 289.798L239.077 292.992L242.086 291.572L240.851 288.562Z" fill="#263238"/>
<path d="M238.893 293.521L236.895 289.581L241.043 288.049L242.576 291.772L238.893 293.521ZM238.042 290.039L239.254 292.446L241.573 291.355L240.626 289.052L238.042 290.039Z" fill="#263238"/>
<path d="M183.749 138.531C183.749 138.531 196.588 134.294 196.588 129.704C196.588 125.114 191.862 118.783 190.722 117.323C189.583 115.862 185.996 114.225 184.696 114.554C183.396 114.883 177.041 120.091 175.733 123.51C174.425 126.928 178.501 137.849 179.48 138.988" fill="white"/>
<path d="M179.208 139.286C178.245 138.154 174.016 127.017 175.396 123.398C176.72 119.923 183.132 114.571 184.632 114.194C186.133 113.817 189.832 115.518 191.052 117.107C192.448 118.904 196.998 125.131 196.998 129.737C196.998 134.551 184.392 138.74 183.854 138.917L183.597 138.154C187.104 136.999 196.195 133.235 196.195 129.737C196.195 125.259 191.381 118.84 190.418 117.596C189.311 116.176 185.884 114.707 184.801 114.972C183.718 115.237 177.37 120.405 176.119 123.686C174.923 126.816 178.815 137.617 179.794 138.764L179.208 139.286Z" fill="#263238"/>
<path d="M176.031 123.847L175.501 123.245C175.878 122.908 184.793 115.061 190.185 116.746L189.945 117.548C184.97 115.967 176.127 123.767 176.031 123.847Z" fill="#263238"/>
<path d="M179.737 133.492L179.288 132.826C179.745 132.521 190.434 125.403 196.252 127.209L196.011 128.011C190.554 126.286 179.85 133.42 179.737 133.492Z" fill="#263238"/>
<path d="M178.759 127.305L178.317 126.631C178.759 126.342 189.086 119.706 192.761 120.38L192.617 121.183C189.255 120.549 178.863 127.233 178.759 127.305Z" fill="#263238"/>
<path d="M179.625 231.742C176.76 231.742 173.205 226.992 173.021 226.791L173.662 226.31C174.625 227.593 177.578 230.94 179.625 230.94C180.998 230.76 182.344 230.418 183.637 229.921C189.078 228.019 194.775 226.95 200.536 226.751C211.866 226.446 216.938 228.195 217.146 228.268L216.881 229.022C216.833 229.022 211.706 227.256 200.56 227.553C194.893 227.748 189.288 228.795 183.934 230.659C182.551 231.207 181.102 231.571 179.625 231.742Z" fill="#263238"/>
</svg>
