<?xml version="1.0" encoding="utf-8"?>
<!-- Generator: Adobe Illustrator 23.0.3, SVG Export Plug-In . SVG Version: 6.00 Build 0)  -->
<svg version="1.1" xmlns="http://www.w3.org/2000/svg" xmlns:xlink="http://www.w3.org/1999/xlink" x="0px" y="0px"
	 viewBox="0 0 256 256" style="enable-background:new 0 0 256 256;" xml:space="preserve">
<style type="text/css">
	.st0{fill:#878787;}
	.st1{fill:#F2E1D6;}
	.st2{fill:#FFFFFF;}
	.st3{fill:#F0C020;}
	.st4{fill:#F9E5AF;}
	.st5{fill:#72C1E8;}
	.st6{fill:#C5E5FF;}
	.st7{fill:#13BF6D;}
	.st8{fill:#76FFBA;}
	.st9{fill:#EFEFEF;}
	.st10{fill:#FC5D3D;}
	.st11{fill:#FFCBC2;}
	.st12{fill:#FFB69F;}
	.st13{fill:#AFAFAF;}
	.st14{fill:#7C7B7A;}
	.st15{fill:#D6C0B4;}
	.st16{fill:#7A7380;}
	.st17{fill:#F0AB20;}
	.st18{fill:#FBE0E2;}
	.st19{fill:#4C4945;}
	.st20{fill:#68B0D4;}
	.st21{fill:#B35034;}
	.st22{fill:#EDAF85;}
	.st23{fill:#139C6D;}
</style>
<g id="Layer_2">
</g>
<g id="Layer_1">
	<g>
		<g>
			<g>
				<g>
					<g>
						<g>
							<g>
								<path class="st13" d="M53.281,212.735c-3.229-1.697-5.273-5.021-5.329-8.668l-0.117-7.622
									c-0.146-9.485-5.558-18.052-14.478-22.917l-7.412-4.042c-3.202-1.746-5.194-5.102-5.194-8.749V39.344
									c0-3.647,1.992-7.003,5.194-8.749l11.729-6.397c1.471-0.802,2.715-1.962,3.619-3.372l7.01-10.94
									c1.832-2.859,4.995-4.589,8.391-4.589h142.611c3.396,0,6.558,1.73,8.391,4.589l7.01,10.94
									c0.904,1.41,2.148,2.57,3.619,3.372l11.729,6.397c3.202,1.746,5.194,5.102,5.194,8.749v121.392
									c0,3.647-1.992,7.003-5.194,8.749l-7.412,4.042c-8.92,4.865-14.332,13.432-14.478,22.917l-0.117,7.622
									c-0.056,3.647-2.1,6.972-5.329,8.668l-70.083,36.826c-2.902,1.525-6.369,1.525-9.271,0L53.281,212.735z"/>
							</g>
							<g>
								<circle class="st9" cx="103.181" cy="22.124" r="5.676"/>
							</g>
							<g>
								<circle class="st9" cx="152.819" cy="22.124" r="5.676"/>
							</g>
							<g>
								<circle class="st9" cx="128" cy="233.077" r="5.676"/>
							</g>
							<g>
								<circle class="st9" cx="36.473" cy="82.697" r="5.676"/>
							</g>
							<g>
								<circle class="st9" cx="219.527" cy="82.697" r="5.676"/>
							</g>
							<g>
								<circle class="st9" cx="36.473" cy="135.178" r="5.676"/>
							</g>
							<g>
								<circle class="st9" cx="219.527" cy="135.178" r="5.676"/>
							</g>
							<g>
								<circle class="st9" cx="47.824" cy="36.423" r="5.676"/>
							</g>
							<g>
								<circle class="st9" cx="208.176" cy="36.423" r="5.676"/>
							</g>
							<g>
								<circle class="st9" cx="57.461" cy="177.619" r="5.676"/>
							</g>
							<g>
								<circle class="st9" cx="198.539" cy="177.619" r="5.676"/>
							</g>
							<g>
								<circle class="st9" cx="85.144" cy="212.449" r="5.676"/>
							</g>
							<g>
								<circle class="st9" cx="170.856" cy="212.449" r="5.676"/>
							</g>
							<g>
								<path class="st3" d="M78.042,186.133c-1.728-12.767-9.131-23.93-19.801-31.266c-2.751-1.891-4.453-4.963-4.453-8.301V61.083
									c0-3.337,1.701-6.408,4.451-8.299c4.008-2.756,7.554-6.051,10.513-9.769c1.911-2.401,4.781-3.836,7.85-3.836h102.795
									c3.069,0,5.939,1.435,7.85,3.836c2.958,3.718,6.505,7.013,10.513,9.769c2.75,1.891,4.451,4.962,4.451,8.299v85.483
									c0,3.338-1.703,6.409-4.453,8.301c-10.67,7.336-18.074,18.499-19.801,31.266c-0.44,3.253-2.351,6.12-5.257,7.646
									l-40.065,21.053c-2.902,1.525-6.369,1.525-9.271,0L83.299,193.78C80.394,192.253,78.483,189.386,78.042,186.133z"/>
							</g>
						</g>
					</g>
				</g>
				<g>
					<path class="st4" d="M126.836,205.899l-38.17-20.058c-1.222-0.642-1.692-2.154-1.05-3.376c0.643-1.223,2.155-1.692,3.376-1.05
						l37.007,19.446l35.907-18.868c0.655-3.723,1.69-7.405,3.084-10.962c0.504-1.285,1.951-1.921,3.24-1.416
						c1.285,0.503,1.919,1.954,1.416,3.24c-1.416,3.613-2.427,7.364-3.004,11.149c-0.12,0.785-0.605,1.466-1.309,1.835
						l-38.172,20.058C128.434,206.281,127.564,206.281,126.836,205.899z"/>
				</g>
				<g>
					<path class="st4" d="M182.683,151.709c-0.927-1.023-0.85-2.604,0.174-3.531c1.536-1.392,3.157-2.721,4.832-3.963V63.436
						c-4.188-3.101-7.955-6.678-11.215-10.647c-0.876-1.067-0.721-2.643,0.347-3.519c1.065-0.875,2.641-0.722,3.519,0.346
						c3.248,3.957,7.049,7.492,11.297,10.506c0.66,0.469,1.053,1.229,1.053,2.039v83.328c0,0.81-0.393,1.569-1.053,2.039
						c-1.888,1.341-3.712,2.806-5.422,4.355C185.19,152.81,183.609,152.731,182.683,151.709z"/>
				</g>
			</g>
			<g>
				<g>
					<path class="st16" d="M115.598,115.064l10.187,10.187l-6.41,6.41c-1.496,1.505-2.185,3.652-1.777,5.73
						c1.311,6.701-0.622,13.917-5.817,19.103c-5.332,5.341-12.81,7.235-19.666,5.701c-1.476-0.33-1.991-2.185-0.923-3.253
						l12.072-12.071c0.748-0.758,0.748-1.981,0-2.739l-6.546-6.546c-0.758-0.748-1.981-0.748-2.739,0l-12.071,12.071
						c-1.068,1.068-2.923,0.554-3.253-0.923c-1.534-6.856,0.359-14.334,5.701-19.666c5.186-5.196,12.402-7.128,19.103-5.817
						c2.078,0.408,4.225-0.282,5.73-1.777L115.598,115.064z"/>
				</g>
				<g>
					<path class="st16" d="M171.644,96.631c-5.186,5.196-12.402,7.128-19.103,5.817c-2.078-0.408-4.225,0.282-5.73,1.777l-6.41,6.41
						l-10.187-10.187l6.41-6.41c1.495-1.505,2.185-3.652,1.777-5.73c-1.311-6.701,0.622-13.917,5.817-19.103
						c5.332-5.341,12.81-7.235,19.666-5.701c1.476,0.33,1.991,2.185,0.923,3.253L152.735,78.83c-0.748,0.758-0.748,1.981,0,2.739
						l6.546,6.546c0.758,0.748,1.981,0.748,2.739,0l12.071-12.072c1.068-1.068,2.923-0.554,3.253,0.923
						C178.879,83.822,176.985,91.3,171.644,96.631z"/>
				</g>
				<g>
					<path class="st5" d="M161.792,132.037L161.792,132.037l-14.602,14.614l-21.402-21.397l-10.186-10.186l-24.08-24.08
						l-6.394-6.383c-2.507-2.528-2.507-6.615,0-9.133l5.488-5.488c2.518-2.517,6.605-2.517,9.133,0l6.394,6.394l24.069,24.07
						l10.186,10.186L161.792,132.037z"/>
				</g>
				<g>
					<path class="st10" d="M106.143,76.377l-14.621,14.61l-6.394-6.383c-2.507-2.528-2.507-6.615,0-9.133l5.488-5.488
						c2.518-2.517,6.605-2.517,9.133,0L106.143,76.377z"/>
				</g>
				<g>
					<polygon class="st12" points="172.75,157.601 158.56,151.521 147.19,146.651 161.792,132.037 166.67,143.411 					"/>
				</g>
			</g>
		</g>
		<g>
			<polygon class="st16" points="172.75,157.601 158.56,151.521 166.67,143.411 			"/>
		</g>
		<path d="M237.75,39.341c0-4.56-2.49-8.75-6.5-10.94l-11.73-6.4c-1.1-0.6-2.04-1.47-2.71-2.52l-7.01-10.94
			c-2.3-3.6-6.23-5.74-10.49-5.74H56.689c-4.26,0-8.189,2.14-10.489,5.74l-7.011,10.94c-0.67,1.05-1.609,1.92-2.71,2.52l-11.729,6.4
			c-4.01,2.19-6.5,6.38-6.5,10.94v121.4c0,4.56,2.49,8.75,6.5,10.94l7.41,4.04c8.109,4.44,13.029,12.2,13.17,20.76l0.12,7.62
			c0.069,4.57,2.63,8.73,6.67,10.85l70.08,36.82c3.593,1.898,7.979,1.912,11.6,0l70.08-36.82c4.04-2.13,6.6-6.28,6.67-10.85
			l0.11-7.62c0.14-8.56,5.069-16.32,13.18-20.76l7.41-4.04c4.01-2.19,6.5-6.38,6.5-10.94v-45.28c0-1.38-1.12-2.5-2.5-2.5
			s-2.5,1.12-2.5,2.5v45.28c0,2.73-1.49,5.24-3.891,6.55l-7.409,4.04c-9.693,5.275-15.637,14.713-15.78,25.07l-0.12,7.63
			c-0.05,2.73-1.58,5.22-3.99,6.49l-70.09,36.83c-2.14,1.12-4.82,1.12-6.939,0l-70.091-36.83c-2.42-1.27-3.949-3.76-3.989-6.49
			l-0.12-7.62c-0.144-10.431-6.145-19.836-15.78-25.08l-7.41-4.04c-2.399-1.31-3.89-3.82-3.89-6.55v-121.4
			c0-2.73,1.49-5.24,3.89-6.55l11.73-6.4c1.83-1,3.399-2.46,4.529-4.22l7.011-10.94c1.38-2.15,3.729-3.43,6.279-3.43h142.62
			c2.55,0,4.9,1.28,6.28,3.43l7.01,10.94c1.13,1.76,2.7,3.22,4.53,4.22l11.729,6.4c2.4,1.31,3.891,3.82,3.891,6.55v56.12
			c0,1.38,1.12,2.5,2.5,2.5s2.5-1.12,2.5-2.5V39.341z"/>
		<circle cx="235.25" cy="105.461" r="2.5"/>
		<circle cx="53.79" cy="111.481" r="2.5"/>
		<path d="M199.17,156.93c3.47-2.38,5.54-6.26,5.54-10.36v-85.49c0-4.11-2.07-7.98-5.53-10.36c-3.82-2.62-7.17-5.74-9.979-9.26
			c-2.41-3.04-5.98-4.78-9.801-4.78H76.6c-3.819,0-7.39,1.74-9.81,4.78c-2.8,3.52-6.15,6.64-9.971,9.26
			c-3.46,2.38-5.529,6.25-5.529,10.36v40.4c0,1.37,1.12,2.5,2.5,2.5s2.5-1.13,2.5-2.5v-40.4c0-2.45,1.26-4.78,3.37-6.24
			c4.22-2.9,7.93-6.36,11.05-10.27c1.46-1.84,3.609-2.89,5.89-2.89h102.8c2.28,0,4.431,1.05,5.891,2.89
			c3.12,3.92,6.84,7.37,11.05,10.27c2.11,1.46,3.37,3.79,3.37,6.24v85.49c0,2.45-1.26,4.78-3.37,6.24
			c-11.51,7.923-19.068,19.771-20.86,32.99c-0.34,2.49-1.81,4.65-3.939,5.76l-40.07,21.06c-2.14,1.12-4.82,1.12-6.939,0
			l-40.07-21.06c-2.13-1.11-3.601-3.27-3.94-5.76c-1.786-13.187-9.324-25.048-20.859-32.99c-2.11-1.46-3.37-3.79-3.37-6.24v-25.09
			c0-1.38-1.12-2.5-2.5-2.5s-2.5,1.12-2.5,2.5v25.09c0,4.1,2.069,7.98,5.529,10.36c10.341,7.1,17.171,17.87,18.74,29.54
			c0.55,4.09,3.01,7.65,6.58,9.52l40.061,21.05c3.593,1.898,7.979,1.912,11.6,0l40.06-21.05c3.57-1.87,6.03-5.43,6.58-9.52
			C182.01,174.801,188.84,164.031,199.17,156.93z"/>
		<path d="M111.357,22.124c0-4.508-3.668-8.176-8.176-8.176s-8.176,3.667-8.176,8.176s3.668,8.176,8.176,8.176
			S111.357,26.632,111.357,22.124z M100.006,22.124c0-1.751,1.425-3.176,3.176-3.176s3.176,1.425,3.176,3.176
			s-1.425,3.176-3.176,3.176S100.006,23.875,100.006,22.124z"/>
		<path d="M160.994,22.124c0-4.508-3.668-8.176-8.176-8.176s-8.176,3.667-8.176,8.176s3.668,8.176,8.176,8.176
			S160.994,26.632,160.994,22.124z M149.643,22.124c0-1.751,1.425-3.176,3.176-3.176s3.176,1.425,3.176,3.176
			s-1.425,3.176-3.176,3.176S149.643,23.875,149.643,22.124z"/>
		<path d="M128,224.902c-4.508,0-8.176,3.667-8.176,8.176s3.668,8.176,8.176,8.176s8.176-3.667,8.176-8.176
			S132.508,224.902,128,224.902z M128,236.253c-1.751,0-3.176-1.425-3.176-3.176s1.425-3.176,3.176-3.176s3.176,1.425,3.176,3.176
			S129.751,236.253,128,236.253z"/>
		<path d="M36.473,74.521c-4.508,0-8.176,3.667-8.176,8.176s3.668,8.176,8.176,8.176s8.176-3.667,8.176-8.176
			S40.98,74.521,36.473,74.521z M36.473,85.873c-1.751,0-3.176-1.425-3.176-3.176s1.425-3.176,3.176-3.176s3.176,1.425,3.176,3.176
			S38.224,85.873,36.473,85.873z"/>
		<path d="M219.527,74.521c-4.508,0-8.176,3.667-8.176,8.176s3.668,8.176,8.176,8.176s8.176-3.667,8.176-8.176
			S224.035,74.521,219.527,74.521z M219.527,85.873c-1.751,0-3.176-1.425-3.176-3.176s1.425-3.176,3.176-3.176
			s3.176,1.425,3.176,3.176S221.278,85.873,219.527,85.873z"/>
		<path d="M36.473,127.002c-4.508,0-8.176,3.667-8.176,8.176s3.668,8.176,8.176,8.176s8.176-3.667,8.176-8.176
			S40.98,127.002,36.473,127.002z M36.473,138.354c-1.751,0-3.176-1.425-3.176-3.176s1.425-3.176,3.176-3.176
			s3.176,1.425,3.176,3.176S38.224,138.354,36.473,138.354z"/>
		<path d="M219.527,127.002c-4.508,0-8.176,3.667-8.176,8.176s3.668,8.176,8.176,8.176s8.176-3.667,8.176-8.176
			S224.035,127.002,219.527,127.002z M219.527,138.354c-1.751,0-3.176-1.425-3.176-3.176s1.425-3.176,3.176-3.176
			s3.176,1.425,3.176,3.176S221.278,138.354,219.527,138.354z"/>
		<path d="M56,36.423c0-4.508-3.668-8.176-8.176-8.176s-8.176,3.667-8.176,8.176s3.668,8.176,8.176,8.176S56,40.931,56,36.423z
			 M44.648,36.423c0-1.751,1.425-3.176,3.176-3.176S51,34.672,51,36.423s-1.425,3.176-3.176,3.176S44.648,38.174,44.648,36.423z"/>
		<path d="M216.352,36.423c0-4.508-3.668-8.176-8.176-8.176S200,31.915,200,36.423s3.668,8.176,8.176,8.176
			S216.352,40.931,216.352,36.423z M205,36.423c0-1.751,1.425-3.176,3.176-3.176s3.176,1.425,3.176,3.176s-1.425,3.176-3.176,3.176
			S205,38.174,205,36.423z"/>
		<path d="M76.968,212.449c0,4.508,3.668,8.175,8.176,8.175s8.176-3.667,8.176-8.175c0-4.508-3.668-8.176-8.176-8.176
			S76.968,207.941,76.968,212.449z M88.319,212.449c0,1.751-1.425,3.175-3.176,3.175s-3.176-1.424-3.176-3.175
			s1.425-3.176,3.176-3.176S88.319,210.698,88.319,212.449z"/>
		<path d="M162.681,212.449c0,4.508,3.668,8.175,8.176,8.175s8.176-3.667,8.176-8.175c0-4.508-3.668-8.176-8.176-8.176
			S162.681,207.941,162.681,212.449z M174.032,212.449c0,1.751-1.425,3.175-3.176,3.175s-3.176-1.424-3.176-3.175
			s1.425-3.176,3.176-3.176S174.032,210.698,174.032,212.449z"/>
		<path d="M57.46,169.441c-4.51,0.01-8.17,3.67-8.17,8.18c0,4.5,3.66,8.17,8.17,8.17s8.17-3.67,8.18-8.17
			C65.63,173.111,61.97,169.45,57.46,169.441z M57.46,180.801c-1.75-0.01-3.17-1.43-3.18-3.18c0.01-1.75,1.43-3.17,3.18-3.18
			c1.75,0.01,3.17,1.43,3.18,3.18C60.63,179.37,59.21,180.791,57.46,180.801z"/>
		<path d="M198.54,185.791c4.51,0,8.17-3.66,8.17-8.17c0-4.51-3.66-8.18-8.17-8.18s-8.181,3.67-8.181,8.18
			C190.359,182.131,194.03,185.791,198.54,185.791z M198.54,174.441c1.75,0.01,3.17,1.43,3.17,3.18s-1.42,3.17-3.17,3.18
			c-1.75-0.01-3.17-1.43-3.181-3.18C195.37,175.87,196.79,174.45,198.54,174.441z"/>
		<path d="M103.939,120.801c-7.283-1.456-15.41,0.547-21.35,6.5c-5.983,5.956-8.096,14.3-6.38,21.98
			c0.766,3.398,5.048,4.591,7.46,2.15l11.68-11.68l5.75,5.75l-11.67,11.67c-2.426,2.368-1.312,6.691,2.14,7.46
			c7.389,1.685,15.849-0.224,21.98-6.37c4.48-4.47,6.95-10.43,6.94-16.77c0-1.53-0.141-3.07-0.44-4.58
			c-0.245-1.132,0.125-2.501,1.1-3.49l4.637-4.637l19.643,19.637c0.19,0.19,0.518,0.419,0.81,0.543l25.526,10.935
			c2.069,0.888,4.167-1.216,3.282-3.282l-10.929-25.478c-0.131-0.341-0.4-0.71-0.559-0.868l-19.627-19.633l4.647-4.647
			c0.91-0.9,2.16-1.35,3.479-1.09c7.392,1.468,15.501-0.638,21.351-6.5c5.967-5.968,8.099-14.288,6.37-21.98
			c-0.772-3.414-5.02-4.61-7.461-2.14l-11.67,11.67l-5.75-5.75l11.67-11.67c2.461-2.458,1.256-6.703-2.14-7.46
			c-7.443-1.708-15.889,0.266-21.979,6.37c-5.863,5.849-7.983,13.955-6.5,21.35c0.236,1.356-0.216,2.594-1.101,3.49l-4.635,4.635
			L101.52,68.211c-3.566-3.545-9.227-3.442-12.67,0l-5.49,5.49c-3.485,3.486-3.489,9.16-0.01,12.66l28.713,28.704l-4.643,4.636
			C106.51,120.611,105.189,121.041,103.939,120.801z M138.39,95.811c2.213-2.239,3.002-5.28,2.46-7.98
			c-1.172-6.129,0.641-12.373,5.13-16.85c4.425-4.437,10.528-6.203,16.311-5.24l-11.32,11.32c-1.722,1.721-1.735,4.536-0.01,6.26
			l6.55,6.56c1.724,1.703,4.507,1.731,6.26,0.02l11.34-11.34c0.985,6.211-1.055,12.126-5.229,16.3h-0.01
			c-4.595,4.607-11.011,6.308-16.851,5.13c-3.137-0.561-5.975,0.466-7.97,2.46l-4.65,4.65l-6.649-6.65L138.39,95.811z M98.83,87.215
			l52.128,52.128l-3.768,3.768L95.052,90.99L98.83,87.215z M160.949,136.427l2.753,6.416l-5.713,5.713l-6.419-2.75L160.949,136.427z
			 M162.938,150.677l2.886-2.886l2.167,5.051L162.938,150.677z M154.493,135.807l-52.127-52.127l3.777-3.775l52.117,52.135
			L154.493,135.807z M86.899,77.24l5.48-5.49c1.558-1.537,4.023-1.544,5.61,0l4.619,4.63c-3.114,3.108-6.009,5.998-11.09,11.07
			l-4.63-4.62C85.392,81.311,85.344,78.798,86.899,77.24z M115.6,118.6l6.65,6.65l-4.641,4.64c-2.183,2.197-3.025,5.209-2.46,8
			c0.23,1.17,0.341,2.38,0.341,3.6c0,5.01-1.94,9.7-5.48,13.23c-4.14,4.164-10.029,6.222-16.3,5.24l11.32-11.32
			c0.829-0.84,1.3-1.98,1.289-3.14c0.011-1.16-0.46-2.3-1.279-3.13l-6.561-6.55c-1.737-1.738-4.545-1.725-6.26-0.01l-11.33,11.33
			c-0.967-5.748,0.795-11.877,5.23-16.3c4.529-4.542,10.84-6.314,16.859-5.14c2.667,0.545,5.731-0.236,7.971-2.45L115.6,118.6z"/>
	</g>
</g>
</svg>
