<svg xmlns="http://www.w3.org/2000/svg" viewBox="0 0 512 512"><title>Contract_Payment</title><g id="Contract_Payment" data-name="Contract Payment"><g id="Contract_Payment-2" data-name="Contract Payment"><path d="M304.7606,96.52H170.2882a41.9184,41.9184,0,0,0-41.8751,41.8684V373.6119A41.9178,41.9178,0,0,0,170.2882,415.48h171.43a41.9151,41.9151,0,0,0,41.8684-41.8684V184.6189Zm58.8763,277.0922A21.9432,21.9432,0,0,1,341.7185,395.53h-171.43a21.9464,21.9464,0,0,1-21.9251-21.9184V138.3881A21.9458,21.9458,0,0,1,170.2882,116.47H290.3235v81.9375h73.3134Z"/><rect x="224.688" y="229.3962" width="91.9932" height="19.95"/><rect x="224.688" y="275.3914" width="91.9932" height="19.95"/><rect x="270.6832" y="319.1816" width="45.998" height="19.95"/><rect x="186.308" y="229.3962" width="19.1282" height="19.95"/><rect x="186.308" y="275.3914" width="19.1282" height="19.95"/></g></g></svg>