<?xml version="1.0" encoding="utf-8"?>
<!-- Generator: Adobe Illustrator 18.0.0, SVG Export Plug-In . SVG Version: 6.00 Build 0)  -->
<!DOCTYPE svg PUBLIC "-//W3C//DTD SVG 1.1//EN" "http://www.w3.org/Graphics/SVG/1.1/DTD/svg11.dtd">
<svg version="1.1" id="ecommerce_1_" xmlns="http://www.w3.org/2000/svg" xmlns:xlink="http://www.w3.org/1999/xlink" x="0px"
	 y="0px" viewBox="0 0 115 115" style="enable-background:new 0 0 115 115;" xml:space="preserve">
<style type="text/css">
	.st0{fill:#FFEEAD;}
	.st1{fill:#C9B77D;}
	.st2{fill:#99734A;}
	.st3{fill:#FF6F69;}
	.st4{fill:#96CEB4;}
	.st5{fill:none;}
	.st6{fill:#AA9865;}
	.st7{fill:#71A58A;}
	.st8{fill:#FFCC5C;}
	.st9{fill:#825E3B;}
	.st10{fill:#639376;}
	.st11{fill:#E05858;}
	.st12{fill:#C1821E;}
	.st13{fill:#D6A041;}
	.st14{fill:#B28559;}
	.st15{fill:#BF4343;}
	.st16{fill:#D3C089;}
	.st17{fill:#7C5C3C;}
	.st18{fill:#FDCC5C;}
	.st19{fill:#FFFFFF;}
</style>
<g id="terms__x26__conditions_1_">
	<g>
		<g>
			<path class="st1" d="M73.827,0H12.482C8.68,0,5.598,3.082,5.598,6.884v86.887c0,3.802,3.082,6.884,6.884,6.884h61.345
				c3.802,0,6.884-3.082,6.884-6.884V6.884C80.711,3.082,77.629,0,73.827,0z"/>
		</g>
	</g>
	<g>
		<g>
			<path class="st6" d="M36.172,19.346c-3.802,0-6.884,3.082-6.884,6.884v74.424h44.54c3.802,0,6.884-3.082,6.884-6.884V19.346
				H36.172z"/>
		</g>
	</g>
	<g>
		<g>
			<g>
				<path class="st0" d="M94.547,14.345H41.173c-3.802,0-6.884,3.082-6.884,6.884v86.887c0,3.802,3.082,6.884,6.884,6.884h61.345
					c3.802,0,6.884-3.082,6.884-6.884V27.884L94.547,14.345z"/>
			</g>
		</g>
		<g>
			<g>
				<path class="st4" d="M94.547,14.345v6.654c0,3.802,3.082,6.884,6.884,6.884h7.97L94.547,14.345z"/>
			</g>
		</g>
	</g>
	<g>
		<g>
			<path class="st3" d="M97.754,42.349H47.266c-0.917,0-1.667,0.75-1.667,1.667c0,0.917,0.75,1.667,1.667,1.667h50.488
				c0.917,0,1.667-0.75,1.667-1.667C99.421,43.099,98.671,42.349,97.754,42.349z"/>
		</g>
	</g>
	<g>
		<g>
			<path class="st3" d="M97.754,53.304H47.266c-0.917,0-1.667,0.75-1.667,1.667c0,0.917,0.75,1.667,1.667,1.667h50.488
				c0.917,0,1.667-0.75,1.667-1.667C99.421,54.054,98.671,53.304,97.754,53.304z"/>
		</g>
	</g>
	<g>
		<g>
			<path class="st3" d="M97.754,64.259H47.266c-0.917,0-1.667,0.75-1.667,1.667s0.75,1.667,1.667,1.667h50.488
				c0.917,0,1.667-0.75,1.667-1.667S98.671,64.259,97.754,64.259z"/>
		</g>
	</g>
	<g>
		<g>
			<path class="st3" d="M97.754,75.214H47.266c-0.917,0-1.667,0.75-1.667,1.667s0.75,1.667,1.667,1.667h50.488
				c0.917,0,1.667-0.75,1.667-1.667S98.671,75.214,97.754,75.214z"/>
		</g>
	</g>
	<g>
		<g>
			<path class="st3" d="M97.754,86.168H47.266c-0.917,0-1.667,0.75-1.667,1.667c0,0.917,0.75,1.667,1.667,1.667h50.488
				c0.917,0,1.667-0.75,1.667-1.667C99.421,86.919,98.671,86.168,97.754,86.168z"/>
		</g>
	</g>
	<g>
		<g>
			<path class="st3" d="M97.754,97.123H47.266c-0.917,0-1.667,0.75-1.667,1.667s0.75,1.667,1.667,1.667h50.488
				c0.917,0,1.667-0.75,1.667-1.667S98.671,97.123,97.754,97.123z"/>
		</g>
	</g>
	<g>
		<g>
			<g>
				<path class="st7" d="M60.757,25.966c-0.359-0.462-0.874-0.48-1.371-0.48h-4.267c-0.479,0-0.959,0-1.319,0.446
					c-0.154,0.154-0.274,0.412-0.274,0.77c0,0.188,0.017,0.548,0.308,0.84c0.377,0.412,0.823,0.395,1.285,0.395h0.634v7.728
					c0,0.583,0,1.217,0.548,1.68c0.36,0.292,0.754,0.343,0.994,0.343c1.457,0,1.474-1.405,1.474-2.109v-7.643h0.652
					c0.463,0,0.959-0.018,1.319-0.463c0.188-0.24,0.257-0.513,0.257-0.772C60.997,26.498,60.962,26.225,60.757,25.966z"/>
			</g>
		</g>
		<g>
			<g>
				<g>
					<path class="st7" d="M74.268,35.461c-0.137-0.085-0.291-0.137-0.428-0.223c-0.172-0.102-0.223-0.188-0.291-0.308
						c0.891-1.25,1.045-1.457,1.045-1.936c0-0.703-0.566-1.217-1.234-1.217c-0.737,0-1.062,0.582-1.302,1.028l-1.028-1.508
						c0.891-0.788,1.954-1.732,1.954-3.188c0-1.439-1.165-2.656-3.17-2.656c-0.377,0-1.268,0-2.074,0.634
						c-0.977,0.755-0.994,1.783-0.994,2.092c0,1.114,0.446,1.85,1.028,2.672c-0.754,0.635-1.971,1.663-1.971,3.497
						c0,1.457,0.754,2.177,1.183,2.502c0.891,0.702,1.799,0.772,2.399,0.772c1.285,0,1.851-0.428,2.382-0.84
						c0.274,0.325,0.686,0.84,1.731,0.84c1.217,0,1.319-0.977,1.319-1.183C74.816,36.352,74.816,35.786,74.268,35.461z
						 M69.435,35.529c-0.6,0-1.114-0.48-1.114-1.234c0-0.772,0.411-1.165,0.771-1.49l1.388,2.09
						C70.377,35.049,70.069,35.529,69.435,35.529z M69.795,29.412c-0.411-0.652-0.599-0.977-0.599-1.32
						c0-0.412,0.257-0.702,0.668-0.702c0.411,0,0.719,0.257,0.719,0.719C70.583,28.692,70.138,29.085,69.795,29.412z"/>
				</g>
			</g>
		</g>
		<g>
			<g>
				<path class="st7" d="M86.408,32.856c-0.823,0-1.217,0.463-1.371,0.857c-0.069,0.206-0.086,0.428-0.103,0.652
					c-0.034,0.308-0.085,0.925-0.908,0.925c-0.805,0-0.942-0.65-0.977-0.839c-0.12-0.548-0.12-1.972-0.12-2.64
					c0-0.377,0-2.33,0.086-2.982c0.052-0.29,0.154-1.028,1.063-1.028c0.84,0,0.874,0.583,0.926,1.217
					c0.017,0.327,0.051,0.652,0.308,0.927c0.171,0.188,0.497,0.359,1.011,0.359c1.474,0,1.491-1.37,1.491-1.85
					c0-0.908-0.188-1.885-1.285-2.537c-0.617-0.359-1.354-0.582-2.588-0.582c-0.532,0-1.697,0.033-2.657,0.72
					c-1.37,1.01-1.405,2.553-1.405,5.517c0,3.634,0.257,4.714,1.474,5.519c0.308,0.205,1.045,0.652,2.673,0.652
					c1.114,0,2.245-0.24,3.017-1.028c0.548-0.567,0.822-1.337,0.822-2.125C87.864,33.542,87.385,32.856,86.408,32.856z"/>
			</g>
		</g>
	</g>
</g>
</svg>
