<svg width="17" height="19" viewBox="0 0 17 19" fill="none" xmlns="http://www.w3.org/2000/svg">
<path fill-rule="evenodd" clip-rule="evenodd" d="M0.0854837 4.55275L1.77337 2.86487C1.82876 2.81025 1.90343 2.77963 1.98122 2.77963C2.05901 2.77963 2.13368 2.81025 2.18907 2.86487C2.24384 2.92018 2.27457 2.99487 2.27457 3.07271C2.27457 3.15056 2.24384 3.22525 2.18907 3.28056L0.50118 4.96845C0.44587 5.02323 0.371175 5.05395 0.293332 5.05395C0.215489 5.05395 0.140794 5.02323 0.0854837 4.96845C0.0307222 4.91318 0 4.83852 0 4.76071C0 4.6829 0.0307222 4.60824 0.0854837 4.55297V4.55275ZM6.66046 0.000432761H9.66836C9.78296 0.000719251 9.89276 0.0464434 9.97369 0.127577C10.0546 0.20871 10.1001 0.318628 10.1001 0.433225C10.0997 0.547558 10.054 0.657089 9.97316 0.737895C9.89227 0.818701 9.7827 0.864217 9.66836 0.864502H6.66046C6.54586 0.864502 6.43594 0.819053 6.35481 0.738123C6.27368 0.657192 6.22795 0.547388 6.22767 0.432792C6.22767 0.318008 6.27326 0.207926 6.35443 0.126762C6.43559 0.0455976 6.54567 0 6.66046 0V0.000432761ZM7.83203 10.6114C7.90876 10.5347 8.00971 10.487 8.11768 10.4764C8.22565 10.4658 8.33396 10.4929 8.42415 10.5532C8.51435 10.6135 8.58084 10.7032 8.61231 10.807C8.64378 10.9109 8.63828 11.0224 8.59674 11.1226C8.5552 11.2228 8.48019 11.3056 8.38449 11.3567C8.2888 11.4078 8.17834 11.4241 8.07194 11.403C7.96554 11.3818 7.86978 11.3243 7.80098 11.2404C7.73217 11.1566 7.69458 11.0514 7.69461 10.9429C7.69455 10.8813 7.70666 10.8203 7.73024 10.7635C7.75382 10.7066 7.78841 10.6549 7.83203 10.6114ZM8.40201 6.94674C8.40201 6.88361 8.37694 6.82307 8.33229 6.77843C8.28765 6.73379 8.22711 6.70871 8.16398 6.70871C8.10085 6.70871 8.0403 6.73379 7.99566 6.77843C7.95102 6.82307 7.92594 6.88361 7.92594 6.94674V10.0278C7.78435 10.0645 7.65322 10.1336 7.54284 10.2296C7.43246 10.3256 7.34585 10.4459 7.28981 10.581C7.23377 10.7161 7.20984 10.8624 7.21989 11.0083C7.22994 11.1543 7.2737 11.2959 7.34773 11.422L5.75895 13.0108C5.7368 13.0331 5.71925 13.0595 5.7073 13.0885C5.69535 13.1175 5.68923 13.1486 5.6893 13.18C5.68938 13.2114 5.69563 13.2425 5.70771 13.2715C5.71979 13.3005 5.73746 13.3268 5.75971 13.3489C5.78196 13.3711 5.80836 13.3886 5.83739 13.4006C5.86643 13.4125 5.89753 13.4186 5.92893 13.4186C5.96032 13.4185 5.9914 13.4123 6.02038 13.4002C6.04936 13.3881 6.07568 13.3704 6.09783 13.3482L7.68661 11.7594C7.80324 11.8279 7.93323 11.8706 8.06778 11.8847C8.20233 11.8987 8.33833 11.8837 8.46659 11.8407C8.59485 11.7977 8.71239 11.7276 8.81128 11.6353C8.91017 11.543 8.9881 11.4305 9.03983 11.3055C9.09155 11.1805 9.11585 11.0459 9.1111 10.9107C9.10635 10.7755 9.07265 10.6429 9.01227 10.5218C8.9519 10.4007 8.86627 10.294 8.76114 10.2089C8.65601 10.1237 8.53384 10.0621 8.40288 10.0282V6.94674H8.40201ZM3.99684 6.43865L4.6047 7.04564C4.64943 7.09034 4.67458 7.15099 4.6746 7.21424C4.67462 7.27749 4.64951 7.33815 4.6048 7.38289C4.5601 7.42763 4.49945 7.45277 4.4362 7.45279C4.37295 7.45281 4.31229 7.42771 4.26755 7.383L3.66164 6.77579C2.66629 7.84846 2.08874 9.24259 2.03391 10.7049H2.89257C2.9557 10.7049 3.01625 10.73 3.06089 10.7746C3.10553 10.8193 3.13061 10.8798 3.13061 10.9429C3.13061 11.0061 3.10553 11.0666 3.06089 11.1112C3.01625 11.1559 2.9557 11.181 2.89257 11.181H2.03197C2.0868 12.6433 2.66435 14.0375 3.6597 15.1103L4.26669 14.5031C4.31151 14.4583 4.3723 14.4331 4.43569 14.4331C4.49908 14.4331 4.55987 14.4583 4.6047 14.5031C4.64952 14.5479 4.6747 14.6087 4.6747 14.6721C4.6747 14.7355 4.64952 14.7963 4.6047 14.8411L3.99879 15.4483C5.07148 16.4436 6.46561 17.0211 7.92789 17.0758V16.2171C7.92789 16.154 7.95297 16.0935 7.99761 16.0488C8.04225 16.0042 8.10279 15.9791 8.16593 15.9791C8.22906 15.9791 8.2896 16.0042 8.33424 16.0488C8.37888 16.0935 8.40396 16.154 8.40396 16.2171V17.0758C9.86625 17.0211 11.2604 16.4436 12.3331 15.4483L11.7241 14.8411C11.6794 14.7964 11.6543 14.7357 11.6543 14.6725C11.6543 14.6093 11.6794 14.5486 11.7241 14.5039C11.7688 14.4592 11.8295 14.4341 11.8927 14.4341C11.9559 14.4341 12.0166 14.4592 12.0613 14.5039L12.6685 15.1111C13.6637 14.0383 14.2411 12.6442 14.296 11.1818H13.4382C13.3751 11.1818 13.3145 11.1567 13.2699 11.1121C13.2252 11.0675 13.2002 11.0069 13.2002 10.9438C13.2002 10.8807 13.2252 10.8201 13.2699 10.7755C13.3145 10.7308 13.3751 10.7058 13.4382 10.7058H14.2969C14.2423 9.24318 13.6648 7.84873 12.6693 6.77579L12.0621 7.383C12.0174 7.42782 11.9567 7.45304 11.8934 7.4531C11.83 7.45316 11.7693 7.42806 11.7244 7.38332C11.6796 7.33858 11.6544 7.27787 11.6544 7.21455C11.6543 7.15122 11.6794 7.09046 11.7241 7.04564L12.3311 6.43973C11.2588 5.44422 9.86501 4.8663 8.40288 4.81091V5.67001C8.40288 5.73314 8.3778 5.79368 8.33316 5.83832C8.28852 5.88296 8.22797 5.90804 8.16484 5.90804C8.10171 5.90804 8.04117 5.88296 7.99653 5.83832C7.95189 5.79368 7.92681 5.73314 7.92681 5.67001V4.81091C6.46452 4.8658 5.07041 5.44335 3.99771 6.43865H3.99684ZM8.16441 4.32943C6.63424 4.32943 5.15141 4.86 3.96858 5.83072C2.78574 6.80145 1.97609 8.15228 1.67756 9.65304C1.37904 11.1538 1.61013 12.7117 2.33144 14.0611C3.05276 15.4106 4.21967 16.4683 5.63336 17.0538C7.04705 17.6394 8.62004 17.7167 10.0843 17.2725C11.5486 16.8283 12.8136 15.8902 13.6637 14.6179C14.5138 13.3456 14.8965 11.8179 14.7465 10.2951C14.5965 8.77229 13.9232 7.3486 12.8412 6.26661C12.2277 5.65153 11.4987 5.16375 10.6961 4.8313C9.89351 4.49886 9.03313 4.3283 8.16441 4.32943ZM2.46779 5.24674C1.14979 6.56469 0.329549 8.29888 0.14683 10.1538C-0.0358888 12.0087 0.430218 13.8696 1.46573 15.4194C2.50124 16.9692 4.04209 18.112 5.82573 18.6531C7.60937 19.1941 9.52544 19.1 11.2475 18.3868C12.9695 17.6735 14.3909 16.3852 15.2696 14.7414C16.1482 13.0976 16.4297 11.1999 16.0661 9.37185C15.7024 7.54376 14.7162 5.89831 13.2754 4.71587C11.8346 3.53342 10.0283 2.88715 8.16441 2.88716C7.10631 2.88568 6.05835 3.09329 5.08074 3.49808C4.10312 3.90286 3.21513 4.49684 2.46779 5.24587V5.24674ZM8.16441 2.41022C7.95076 2.41022 7.73912 2.41801 7.52951 2.43359V1.34209H8.79932V2.43402C8.58984 2.41859 8.37821 2.4108 8.16441 2.41065V2.41022ZM1.8173 5.24024C1.91829 5.12729 2.02273 5.01707 2.13064 4.90959C2.23855 4.80211 2.3487 4.69774 2.46108 4.59647L2.00427 4.13944L1.36049 4.78278L1.8173 5.24024Z" fill="#009688"/>
</svg>
