<svg width="35" height="38" viewBox="0 0 35 38" fill="none" xmlns="http://www.w3.org/2000/svg">
<path d="M31.4552 9.99165C31.2961 9.76818 31.0455 9.62597 30.7713 9.60904L26.7183 9.37203L27.1991 7.29308H28.6347V5.40374L6.76856 5.42744L6.81935 5.22768C6.90399 4.90263 7.18164 4.66223 7.51684 4.62837L7.91977 4.58774L7.527 4.48616C7.20195 4.40151 6.96155 4.12387 6.92769 3.78867L6.88706 3.38574L6.78549 3.77851C6.70084 4.10355 6.4232 4.34395 6.08799 4.37781L5.68507 4.41844L6.07783 4.52002C6.40288 4.60467 6.64328 4.88231 6.67714 5.21752L6.69745 5.42744H6.36563V7.31339H7.80126L8.28544 9.38895L4.23251 9.63613C3.95825 9.65306 3.7077 9.79526 3.54856 10.0187C3.38942 10.2422 3.34541 10.5266 3.42328 10.7907L5.38034 17.3628C5.97964 19.5534 7.92654 21.7983 10.4016 21.7949C10.4829 21.7949 10.5642 21.7949 10.6488 21.7881C10.9772 21.7678 11.2921 21.7103 11.5935 21.6188C12.7176 23.5556 14.458 25.0657 16.4353 25.4788V26.0578H17.2175C17.1904 26.1966 17.1633 26.3354 17.1294 26.4878C16.7299 28.2891 15.9274 30.7337 14.3767 32.4707H13.7063V33.8657L21.3415 33.8589V32.4639H20.6677C19.1102 30.7303 18.3043 28.2891 17.9014 26.4878C17.8676 26.3388 17.8405 26.2 17.8134 26.0578H18.5989V25.4788C20.5729 25.0623 22.3133 23.5454 23.4306 21.6087C23.732 21.7001 24.0468 21.7577 24.3753 21.778C24.4599 21.7814 24.5412 21.7848 24.6224 21.7848C27.0975 21.7848 29.0377 19.5331 29.6268 17.3594L31.5771 10.7636C31.655 10.4995 31.6076 10.2151 31.4518 9.99165H31.4552ZM25.9226 10.1L26.1258 10.442L25.8177 10.1914C25.5637 9.98149 25.2048 9.9544 24.9204 10.1237L24.5784 10.3269L24.829 10.0187C25.0389 9.76479 25.066 9.40588 24.8967 9.12147L24.6935 8.77949L25.0017 9.03005C25.2556 9.23997 25.6145 9.26706 25.8989 9.09777L26.2409 8.89461L25.9904 9.20273C25.7804 9.45667 25.7533 9.81558 25.9226 10.1ZM10.5472 19.9936C9.13869 20.085 7.61842 18.6867 7.12069 16.8718L5.47853 11.3663L8.7053 11.1699L10.466 18.707C10.554 19.1302 10.6759 19.5467 10.8215 19.9598C10.7301 19.9767 10.6353 19.9902 10.5438 19.997L10.5472 19.9936ZM19.4996 18.7747L17.2107 17.461L14.8304 18.602L15.3721 16.0186L13.5505 14.1089L16.1746 13.8245L17.4274 11.5018L18.5075 13.9091L21.1045 14.3832L19.1474 16.154L19.4996 18.7713V18.7747ZM23.7455 12.1485L23.9961 11.8404C24.206 11.5864 24.2331 11.2275 24.0638 10.9431L23.8606 10.6011L24.1687 10.8517C24.4227 11.0616 24.7816 11.0887 25.066 10.9194L25.408 10.7162L25.1574 11.0243C24.9475 11.2783 24.9204 11.6372 25.0897 11.9216L25.2929 12.2636L24.9847 12.013C24.7308 11.8031 24.3719 11.776 24.0875 11.9453L23.7455 12.1485ZM27.8966 16.8684C27.409 18.6663 25.8922 20.0613 24.4836 19.9801C24.3922 19.9733 24.2974 19.9631 24.206 19.9428C24.3516 19.5331 24.4735 19.1133 24.5615 18.69L26.3086 11.1496L29.5354 11.3392L27.9 16.8684H27.8966Z" fill="#11377F"/>
</svg>
