<svg width="29" height="31" viewBox="0 0 29 31" fill="none" xmlns="http://www.w3.org/2000/svg">
<path d="M28.4552 6.99165C28.2961 6.76818 28.0455 6.62597 27.7712 6.60904L23.7183 6.37203L24.1991 4.29308H25.6347V2.40374L3.76856 2.42744L3.81935 2.22768C3.90399 1.90263 4.18164 1.66223 4.51684 1.62837L4.91977 1.58774L4.527 1.48616C4.20195 1.40151 3.96155 1.12387 3.92769 0.788665L3.88706 0.385742L3.78549 0.778507C3.70084 1.10355 3.42319 1.34395 3.08799 1.37781L2.68507 1.41844L3.07783 1.52002C3.40288 1.60467 3.64328 1.88231 3.67714 2.21752L3.69745 2.42744H3.36563V4.31339H4.80126L5.28544 6.38895L1.23251 6.63613C0.958255 6.65306 0.707698 6.79526 0.54856 7.01873C0.389423 7.2422 0.345406 7.52662 0.423281 7.79072L2.38034 14.3628C2.97964 16.5534 4.92654 18.7983 7.40163 18.7949C7.4829 18.7949 7.56416 18.7949 7.64881 18.7881C7.97724 18.7678 8.29213 18.7103 8.59347 18.6188C9.71759 20.5556 11.458 22.0657 13.4353 22.4788V23.0578H14.2175C14.1904 23.1966 14.1633 23.3354 14.1294 23.4878C13.7299 25.2891 12.9274 27.7337 11.3767 29.4707H10.7063V30.8657L18.3415 30.8589V29.4639H17.6677C16.1102 27.7303 15.3043 25.2891 14.9014 23.4878C14.8676 23.3388 14.8405 23.2 14.8134 23.0578H15.5989V22.4788C17.5729 22.0623 19.3133 20.5454 20.4306 18.6087C20.7319 18.7001 21.0468 18.7577 21.3753 18.778C21.4599 18.7814 21.5412 18.7848 21.6224 18.7848C24.0975 18.7848 26.0377 16.5331 26.6268 14.3594L28.5771 7.76363C28.655 7.49953 28.6076 7.21512 28.4518 6.99165H28.4552ZM22.9226 7.09999L23.1258 7.44197L22.8177 7.19141C22.5637 6.98149 22.2048 6.9544 21.9204 7.1237L21.5784 7.32685L21.829 7.01873C22.0389 6.76479 22.066 6.40588 21.8967 6.12147L21.6935 5.77949L22.0017 6.03005C22.2556 6.23997 22.6145 6.26706 22.8989 6.09777L23.2409 5.89461L22.9903 6.20273C22.7804 6.45667 22.7533 6.81558 22.9226 7.09999ZM7.54723 16.9936C6.13869 17.085 4.61842 15.6867 4.12069 13.8718L2.47853 8.36632L5.7053 8.16994L7.46597 15.707C7.554 16.1302 7.67589 16.5467 7.82149 16.9598C7.73007 16.9767 7.63526 16.9902 7.54384 16.997L7.54723 16.9936ZM16.4996 15.7747L14.2107 14.461L11.8304 15.602L12.3721 13.0186L10.5505 11.1089L13.1746 10.8245L14.4274 8.50176L15.5075 10.9091L18.1045 11.3832L16.1474 13.154L16.4996 15.7713V15.7747ZM20.7455 9.14847L20.996 8.84035C21.206 8.58641 21.2331 8.2275 21.0638 7.94309L20.8606 7.60111L21.1687 7.85167C21.4227 8.06159 21.7816 8.08868 22.066 7.91938L22.408 7.71623L22.1574 8.02435C21.9475 8.27829 21.9204 8.6372 22.0897 8.92161L22.2929 9.26359L21.9847 9.01303C21.7308 8.80311 21.3719 8.77602 21.0875 8.94531L20.7455 9.14847ZM24.8966 13.8684C24.409 15.6663 22.8922 17.0613 21.4836 16.9801C21.3922 16.9733 21.2974 16.9631 21.206 16.9428C21.3516 16.5331 21.4735 16.1133 21.5615 15.69L23.3086 8.14963L26.5354 8.33924L24.9 13.8684H24.8966Z" fill="#767676" fill-opacity="0.41"/>
</svg>
