<svg width="45" height="50" viewBox="0 0 45 50" fill="none" xmlns="http://www.w3.org/2000/svg">
<path d="M44.0959 29.4158H36.6082C34.3097 29.4158 32.4481 31.6089 32.4481 34.3166C32.4481 37.0243 34.3097 39.2175 36.6082 39.2175H44.0959C44.3164 39.2175 44.5285 39.1146 44.6846 38.9308C44.8406 38.747 44.9279 38.4971 44.9279 38.2373V30.3959C44.9279 30.1362 44.8406 29.8862 44.6846 29.7024C44.5286 29.5186 44.3164 29.4158 44.0959 29.4158ZM36.6082 36.2773C35.9342 36.2773 35.329 35.7995 35.071 35.0668C34.8131 34.3341 34.9566 33.4912 35.4309 32.93C35.9072 32.3713 36.6227 32.2022 37.2446 32.5061C37.8666 32.81 38.2721 33.523 38.2721 34.317C38.2721 34.8364 38.0974 35.3363 37.7854 35.7039C37.4734 36.0714 37.0491 36.2773 36.6082 36.2773ZM31.9989 10.7928C31.7784 11.6113 31.7784 12.4934 31.9989 13.3119C32.2485 14.1303 32.6936 14.8458 33.2801 15.3702C33.2656 15.478 33.2656 15.5858 33.2801 15.6936H18.3041L21.7819 8.06806C22.487 8.35231 23.2462 8.38907 23.97 8.17588C24.671 7.94064 25.295 7.45793 25.7588 6.79386L31.9989 10.7928ZM37.4984 9.01874L23.9616 0.403265C22.7968 -0.400445 21.2992 0.0332523 20.5837 1.38344L14.0773 15.6936H16.515C16.513 15.5343 16.5442 15.3751 16.6066 15.2329L20.6584 6.34271C20.7645 6.11237 20.9434 5.94329 21.1555 5.86977C21.3677 5.79626 21.5965 5.82567 21.7899 5.95064C22.3099 6.31575 22.9298 6.43337 23.5205 6.27409C24.0571 6.08786 24.5002 5.64189 24.7436 5.04889C24.8475 4.82101 25.0244 4.65193 25.2344 4.57841C25.4445 4.50245 25.6712 4.52695 25.8668 4.64703L33.4461 9.44984C33.6395 9.57236 33.7831 9.78064 33.8455 10.0281C33.9079 10.2781 33.8829 10.5452 33.7789 10.7731C33.4939 11.3416 33.4253 12.0228 33.5875 12.655C33.8059 13.3215 34.2323 13.8631 34.7773 14.1743C34.9707 14.2968 35.1143 14.5051 35.1767 14.7526C35.2411 15.0001 35.2203 15.2672 35.1184 15.4975L35.0269 15.6935H37.3399L38.6378 12.8609C39.214 11.4176 38.7085 9.6949 37.498 8.97939L37.4984 9.01874ZM41.6001 41.1784V43.1387C41.5918 43.945 41.5419 44.7511 41.4503 45.55C40.8929 48.1671 38.8982 50 36.6081 50H4.99201C2.23599 50 0 47.3658 0 44.119V15.2038C0 17.0979 1.30415 18.6344 2.91203 18.6344H36.608C39.364 18.6344 41.6 21.2686 41.6 24.5154V27.4559H36.608C33.3923 27.4559 30.7837 30.5287 30.7837 34.3174C30.7837 38.1061 33.392 41.179 36.608 41.179L41.6001 41.1784ZM7.68746 12.2143L8.00362 15.6939H5.94856L5.26634 8.21509C5.18938 6.61984 6.21065 5.24271 7.56267 5.11775L16.3321 4.00038C16.7003 3.95383 17.0684 4.0935 17.3471 4.38265L15.8079 7.75444C15.7871 7.4947 15.679 7.25455 15.5063 7.08793C15.3337 6.92375 15.1132 6.84533 14.8927 6.87229L11.207 7.34277C10.9823 7.35747 10.7702 7.48 10.6225 7.68093C10.4748 7.88186 10.4041 8.14651 10.4249 8.41118C10.5143 9.08748 10.35 9.77853 9.97142 10.3004C9.59494 10.8199 9.04373 11.1238 8.46136 11.1262C8.23464 11.1434 8.02248 11.2684 7.87685 11.4742C7.73125 11.68 7.6625 11.9471 7.68746 12.2143ZM9.65928 15.6939V15.5861L9.40968 12.9004C10.8782 12.4642 11.9494 10.9817 12.0804 9.20518L15.0673 8.83272C15.1713 8.81802 15.2732 8.78126 15.3668 8.7249L12.1885 15.6937L9.65928 15.6939Z" fill="white"/>
</svg>
