<svg width="50" height="45" viewBox="0 0 50 45" fill="none" xmlns="http://www.w3.org/2000/svg">
<path d="M9.74034 1.50966V4.32367H6.72101V1.50966C6.72101 1.10927 6.88007 0.725286 7.16319 0.44217C7.4463 0.159053 7.83029 0 8.23068 0C8.63106 0 9.01505 0.159053 9.29817 0.44217C9.58129 0.725286 9.74034 1.10927 9.74034 1.50966ZM21.5217 0.012077C21.1214 0.012077 20.7374 0.17113 20.4543 0.454247C20.1711 0.737363 20.0121 1.12135 20.0121 1.52174V4.33575H23.0314V1.50966C23.0282 1.11137 22.8678 0.730478 22.585 0.449968C22.3022 0.169459 21.92 0.0120642 21.5217 0.012077ZM34.8068 0.012077C34.4064 0.012077 34.0224 0.17113 33.7393 0.454247C33.4562 0.737363 33.2971 1.12135 33.2971 1.52174V4.33575H36.3164V1.50966C36.3156 1.3122 36.276 1.11683 36.1997 0.934707C36.1234 0.752582 36.0119 0.587268 35.8718 0.448204C35.7316 0.309141 35.5654 0.19905 35.3826 0.12422C35.1999 0.0493886 35.0042 0.0112824 34.8068 0.012077ZM50 32.965C50 35.2887 49.3107 37.5602 48.0193 39.4921C46.7279 41.424 44.8925 42.9294 42.7453 43.8178C40.5981 44.7062 38.2356 44.9378 35.9568 44.4831C33.678 44.0285 31.5852 42.908 29.9433 41.2636C28.3015 39.6192 27.1843 37.5248 26.7331 35.2452C26.282 32.9657 26.5172 30.6036 27.4089 28.4577C28.3007 26.3119 29.8089 24.4788 31.7428 23.1904C33.6766 21.902 35.9492 21.2162 38.2729 21.2198C41.3838 21.2278 44.3648 22.4684 46.5628 24.6698C48.7608 26.8712 49.9968 29.8541 50 32.965ZM42.8261 28.6353C42.6689 28.5146 42.4894 28.4262 42.2979 28.3751C42.1064 28.324 41.9067 28.3113 41.7103 28.3377C41.5139 28.3641 41.3246 28.429 41.1534 28.5288C40.9822 28.6286 40.8324 28.7612 40.7126 28.9191L38.0254 32.4396L37.029 31.0749C36.924 30.889 36.7808 30.7275 36.6088 30.6011C36.4368 30.4746 36.24 30.3861 36.0313 30.3413C35.8226 30.2965 35.6067 30.2965 35.398 30.3412C35.1893 30.386 34.9924 30.4745 34.8204 30.6009C34.6484 30.7273 34.5052 30.8888 34.4002 31.0746C34.2952 31.2605 34.2307 31.4665 34.2112 31.679C34.1916 31.8916 34.2174 32.1059 34.2867 32.3078C34.3561 32.5097 34.4675 32.6946 34.6135 32.8502L36.7995 35.8696C36.9398 36.0574 37.1221 36.2098 37.3318 36.3147C37.5415 36.4195 37.7728 36.4739 38.0072 36.4734C38.2415 36.473 38.4725 36.4182 38.6821 36.3134C38.8916 36.2086 39.074 36.0567 39.215 35.8696L43.1039 30.7548C43.225 30.5975 43.314 30.4178 43.3656 30.2261C43.4173 30.0344 43.4305 29.8343 43.4047 29.6374C43.3789 29.4405 43.3145 29.2507 43.2152 29.0787C43.116 28.9067 42.9837 28.756 42.8261 28.6353ZM44.7162 9.99396V19.692C42.0095 18.3766 38.9655 17.9196 35.992 18.3824C33.0184 18.8451 30.2572 20.2055 28.0783 22.2813C25.8994 24.357 24.4068 27.049 23.8006 29.9967C23.1943 32.9444 23.5032 36.007 24.686 38.7742H5.66425C4.16249 38.7726 2.72269 38.1753 1.66079 37.1134C0.59888 36.0515 0.00159847 34.6117 0 33.1099V9.99396C0.00159481 8.49164 0.598683 7.05122 1.66042 5.98836C2.72215 4.92549 4.16193 4.32687 5.66425 4.32367H6.74517V10.4106C6.74517 10.811 6.90422 11.195 7.18734 11.4781C7.47046 11.7612 7.85444 11.9203 8.25483 11.9203C8.65522 11.9203 9.03921 11.7612 9.32232 11.4781C9.60544 11.195 9.76449 10.811 9.76449 10.4106V4.32367H20.0302V10.4106C20.0302 10.811 20.1892 11.195 20.4724 11.4781C20.7555 11.7612 21.1395 11.9203 21.5399 11.9203C21.9402 11.9203 22.3242 11.7612 22.6073 11.4781C22.8905 11.195 23.0495 10.811 23.0495 10.4106V4.32367H33.3152V10.4106C33.3152 10.6089 33.3543 10.8052 33.4301 10.9884C33.506 11.1715 33.6172 11.3379 33.7574 11.4781C33.8976 11.6183 34.064 11.7295 34.2472 11.8054C34.4303 11.8812 34.6266 11.9203 34.8249 11.9203C35.0231 11.9203 35.2194 11.8812 35.4026 11.8054C35.5858 11.7295 35.7522 11.6183 35.8924 11.4781C36.0326 11.3379 36.1438 11.1715 36.2196 10.9884C36.2955 10.8052 36.3345 10.6089 36.3345 10.4106V4.32367H39.064C40.5642 4.33005 42.0009 4.93008 43.06 5.99261C44.1192 7.05513 44.7146 8.49373 44.7162 9.99396ZM13.6534 28.6413C13.6534 28.2409 13.4943 27.8569 13.2112 27.5738C12.9281 27.2907 12.5441 27.1316 12.1437 27.1316H10.2536C9.85324 27.1316 9.46925 27.2907 9.18613 27.5738C8.90302 27.8569 8.74396 28.2409 8.74396 28.6413C8.74396 29.0417 8.90302 29.4257 9.18613 29.7088C9.46925 29.9919 9.85324 30.151 10.2536 30.151H12.1437C12.5441 30.151 12.9281 29.9919 13.2112 29.7088C13.4943 29.4257 13.6534 29.0417 13.6534 28.6413ZM13.6534 18.3756C13.6534 17.9752 13.4943 17.5912 13.2112 17.3081C12.9281 17.025 12.5441 16.8659 12.1437 16.8659H10.2536C9.85324 16.8659 9.46925 17.025 9.18613 17.3081C8.90302 17.5912 8.74396 17.9752 8.74396 18.3756C8.74396 18.776 8.90302 19.16 9.18613 19.4431C9.46925 19.7262 9.85324 19.8853 10.2536 19.8853H12.1437C12.5441 19.8853 12.9281 19.7262 13.2112 19.4431C13.4943 19.16 13.6534 18.776 13.6534 18.3756ZM22.651 28.6413C22.651 28.2409 22.4919 27.8569 22.2088 27.5738C21.9257 27.2907 21.5417 27.1316 21.1413 27.1316H19.2512C18.8508 27.1316 18.4668 27.2907 18.1837 27.5738C17.9006 27.8569 17.7415 28.2409 17.7415 28.6413C17.7415 29.0417 17.9006 29.4257 18.1837 29.7088C18.4668 29.9919 18.8508 30.151 19.2512 30.151H21.1413C21.5417 30.151 21.9257 29.9919 22.2088 29.7088C22.4919 29.4257 22.651 29.0417 22.651 28.6413ZM22.651 18.3756C22.651 17.9752 22.4919 17.5912 22.2088 17.3081C21.9257 17.025 21.5417 16.8659 21.1413 16.8659H19.2512C18.8508 16.8659 18.4668 17.025 18.1837 17.3081C17.9006 17.5912 17.7415 17.9752 17.7415 18.3756C17.7415 18.776 17.9006 19.16 18.1837 19.4431C18.4668 19.7262 18.8508 19.8853 19.2512 19.8853H21.1413C21.5417 19.8853 21.9257 19.7262 22.2088 19.4431C22.4919 19.16 22.651 18.776 22.651 18.3756Z" fill="white"/>
</svg>
