<svg width="50" height="51" viewBox="0 0 50 51" fill="none" xmlns="http://www.w3.org/2000/svg">
<path d="M24.9937 0.765625C11.1787 0.765625 0 11.9464 0 25.7593C0 41.8814 14.9974 53.6946 30.5738 50.1263C31.0803 50.5191 31.7171 50.7528 32.4055 50.7528H46.9832C48.6392 50.7528 49.9851 49.4068 49.9851 47.7508L49.9872 31.7012C49.9872 31.1596 49.8425 30.6489 49.5882 30.2106C52.3627 14.8618 40.5743 0.765625 24.9937 0.765625ZM29.4035 31.7009V45.1125C17.0382 47.9325 5.14608 38.5089 5.14608 25.7572C5.14608 14.814 14.0505 5.90959 24.9937 5.90959C37.0636 5.90959 46.4185 16.6728 44.6243 28.6973L32.4077 28.6993C30.7516 28.6993 29.4035 30.0469 29.4035 31.7009ZM48.517 47.7483C48.517 48.5939 47.8286 49.2803 46.9851 49.2803L32.4074 49.2823C31.5618 49.2823 30.8754 48.5939 30.8754 47.7504V31.7008C30.8754 30.8552 31.5639 30.1688 32.4074 30.1688H46.9851C47.8307 30.1688 48.517 30.8573 48.517 31.7008V47.7483Z" fill="white"/>
<path d="M25.7294 22.1579V15.4674C25.7294 15.0622 25.4007 14.7314 24.9934 14.7314C24.5882 14.7314 24.2574 15.0602 24.2574 15.4674V22.1579C22.8184 22.4515 21.6834 23.5865 21.3919 25.0235H16.1715C15.7663 25.0235 15.4355 25.3522 15.4355 25.7595C15.4355 26.1647 15.7643 26.4955 16.1715 26.4955H21.3919C21.733 28.1701 23.2174 29.4354 24.9934 29.4354C27.0195 29.4354 28.6693 27.7876 28.6693 25.7595C28.6693 23.9835 27.4041 22.499 25.7294 22.1579Z" fill="white"/>
<path d="M35.2861 31.6396C34.0704 31.6396 33.0801 32.63 33.0801 33.8456C33.0801 35.0613 34.0704 36.0516 35.2861 36.0516C36.5018 36.0516 37.4921 35.0613 37.4921 33.8456C37.4921 32.63 36.5018 31.6396 35.2861 31.6396ZM35.2861 34.5796C34.8809 34.5796 34.5501 34.2509 34.5501 33.8436C34.5501 33.4384 34.8788 33.1076 35.2861 33.1076C35.6913 33.1076 36.0221 33.4363 36.0221 33.8436C36.02 34.2509 35.6913 34.5796 35.2861 34.5796Z" fill="white"/>
<path d="M35.2861 37.5205C34.0704 37.5205 33.0801 38.5108 33.0801 39.7265C33.0801 40.9422 34.0704 41.9325 35.2861 41.9325C36.5018 41.9325 37.4921 40.9422 37.4921 39.7265C37.4921 38.5088 36.5018 37.5205 35.2861 37.5205ZM35.2861 40.4604C34.8809 40.4604 34.5501 40.1317 34.5501 39.7244C34.5501 39.3192 34.8788 38.9884 35.2861 38.9884C35.6913 38.9884 36.0221 39.3172 36.0221 39.7244C36.02 40.1297 35.6913 40.4604 35.2861 40.4604Z" fill="white"/>
<path d="M35.2861 43.4004C34.0704 43.4004 33.0801 44.3907 33.0801 45.6064C33.0801 46.8221 34.0704 47.8124 35.2861 47.8124C36.5018 47.8124 37.4921 46.8221 37.4921 45.6064C37.4921 44.3907 36.5018 43.4004 35.2861 43.4004ZM35.2861 46.3403C34.8809 46.3403 34.5501 46.0116 34.5501 45.6043C34.5501 45.1991 34.8788 44.8683 35.2861 44.8683C35.6913 44.8683 36.0221 45.197 36.0221 45.6043C36.02 46.0116 35.6913 46.3403 35.2861 46.3403Z" fill="white"/>
<path d="M44.1074 31.6396C42.8917 31.6396 41.9014 32.63 41.9014 33.8456C41.9014 35.0613 42.8917 36.0516 44.1074 36.0516C45.323 36.0516 46.3134 35.0613 46.3134 33.8456C46.3113 32.63 45.323 31.6396 44.1074 31.6396ZM44.1074 34.5796C43.7021 34.5796 43.3714 34.2509 43.3714 33.8436C43.3714 33.4384 43.7001 33.1076 44.1074 33.1076C44.5126 33.1076 44.8434 33.4363 44.8434 33.8436C44.8413 34.2509 44.5126 34.5796 44.1074 34.5796Z" fill="white"/>
<path d="M44.1074 37.5205C42.8917 37.5205 41.9014 38.5108 41.9014 39.7265C41.9014 40.9422 42.8917 41.9325 44.1074 41.9325C45.323 41.9325 46.3134 40.9422 46.3134 39.7265C46.3113 38.5088 45.323 37.5205 44.1074 37.5205ZM44.1074 40.4604C43.7021 40.4604 43.3714 40.1317 43.3714 39.7244C43.3714 39.3192 43.7001 38.9884 44.1074 38.9884C44.5126 38.9884 44.8434 39.3172 44.8434 39.7244C44.8413 40.1297 44.5126 40.4604 44.1074 40.4604Z" fill="white"/>
<path d="M44.1074 43.4004C42.8917 43.4004 41.9014 44.3907 41.9014 45.6064C41.9014 46.8221 42.8917 47.8124 44.1074 47.8124C45.323 47.8124 46.3134 46.8221 46.3134 45.6064C46.3113 44.3907 45.323 43.4004 44.1074 43.4004ZM44.1074 46.3403C43.7021 46.3403 43.3714 46.0116 43.3714 45.6043C43.3714 45.1991 43.7001 44.8683 44.1074 44.8683C44.5126 44.8683 44.8434 45.197 44.8434 45.6043C44.8413 46.0116 44.5126 46.3403 44.1074 46.3403Z" fill="white"/>
<path d="M39.696 31.6396C39.2907 31.6396 38.96 31.9684 38.96 32.3757V47.0772C38.96 47.4824 39.2887 47.8132 39.696 47.8132C40.1012 47.8132 40.432 47.4844 40.432 47.0772V32.3757C40.432 31.9684 40.1032 31.6396 39.696 31.6396Z" fill="white"/>
<path d="M24.9938 11.0572C25.399 11.0572 25.7298 10.7285 25.7298 10.3212V8.85124C25.7298 8.44602 25.4011 8.11523 24.9938 8.11523C24.5886 8.11523 24.2578 8.44396 24.2578 8.85124V10.3212C24.2599 10.7285 24.5886 11.0572 24.9938 11.0572Z" fill="white"/>
<path d="M15.3264 13.7019C15.5662 14.0327 16.0252 14.103 16.3539 13.8652C16.6826 13.6275 16.755 13.1665 16.5172 12.8377L15.653 11.6489C15.4153 11.3202 14.9542 11.2478 14.6255 11.4856C14.2968 11.7234 14.2244 12.1844 14.4622 12.5131L15.3264 13.7019Z" fill="white"/>
<path d="M10.5408 20.2882L9.14323 19.8334C8.75661 19.7073 8.34313 19.9182 8.217 20.3048C8.09089 20.6914 8.30384 21.1049 8.68838 21.231L10.086 21.6858C10.4726 21.812 10.8861 21.6011 11.0122 21.2145C11.1383 20.8299 10.9274 20.4144 10.5408 20.2882Z" fill="white"/>
<path d="M10.0852 29.8305L8.6876 30.2853C8.30098 30.4114 8.09011 30.8249 8.21622 31.2115C8.34233 31.5982 8.75581 31.809 9.14244 31.6829L10.54 31.2281C10.9266 31.102 11.1375 30.6885 11.0114 30.3019C10.8853 29.9152 10.4718 29.7044 10.0852 29.8305Z" fill="white"/>
<path d="M16.3515 37.6536C16.0228 37.4158 15.5638 37.4882 15.324 37.8169L14.4618 39.0057C14.1062 39.4957 14.4639 40.1738 15.0552 40.1738C15.2826 40.1738 15.5059 40.0683 15.6506 39.8699L16.5148 38.6811C16.7526 38.3524 16.6802 37.8913 16.3515 37.6536Z" fill="white"/>
<path d="M24.9938 40.4609C24.5886 40.4609 24.2578 40.7897 24.2578 41.1969V42.6669C24.2578 43.0721 24.5865 43.4029 24.9938 43.4029C25.399 43.4029 25.7298 43.0742 25.7298 42.6669V41.1969C25.7298 40.7897 25.399 40.4609 24.9938 40.4609Z" fill="white"/>
<path d="M39.9022 21.6888L41.2998 21.2339C41.6864 21.1078 41.8973 20.6943 41.7712 20.3077C41.6451 19.9211 41.2316 19.7102 40.845 19.8363L39.4474 20.2912C39.0607 20.4173 38.8499 20.8308 38.976 21.2174C39.1021 21.6019 39.5156 21.8128 39.9022 21.6888Z" fill="white"/>
<path d="M33.6353 13.8652C33.964 14.103 34.423 14.0306 34.6628 13.7019L35.527 12.5131C35.7647 12.1844 35.6924 11.7254 35.3636 11.4856C35.0349 11.2478 34.5759 11.3202 34.3361 11.6489L33.4719 12.8377C33.2342 13.1664 33.3065 13.6254 33.6353 13.8652Z" fill="white"/>
</svg>
