<svg width="65" height="37" viewBox="0 0 65 37" fill="none" xmlns="http://www.w3.org/2000/svg">
<path d="M22.3418 37H31.1492V24.9737C28.0668 24.3607 25.7294 21.6943 25.7294 18.5C25.7294 15.3058 28.0668 12.6393 31.1492 12.0263V0H22.3418V37Z" fill="white"/>
<path d="M33.8574 12.0265C36.945 12.6405 39.2709 15.3066 39.2709 18.5C39.2709 21.6935 36.945 24.3595 33.8574 24.9735V37H42.6542V0H33.8574V12.0265Z" fill="white"/>
<path d="M64.9995 10.3799H54.1641V26.6306H64.9995V10.3799Z" fill="white"/>
<path d="M0 1.32143V7.73654H12.1854C12.9338 7.73654 13.5395 8.32821 13.5395 9.05796V27.9516C13.5395 28.6813 12.9338 29.273 12.1854 29.273H0V35.6786C0 36.4186 0.609392 37 1.35417 37H19.6333V0H1.35417C0.609392 0 0 0.594659 0 1.32143Z" fill="white"/>
<path d="M63.6457 0H45.3623V37H63.6457C64.3905 37 64.9999 36.4186 64.9999 35.6786V29.273H52.8102C52.0617 29.273 51.4561 28.6813 51.4561 27.9516V9.05796C51.4561 8.32821 52.0617 7.73654 52.8102 7.73654H64.9999V1.32143C64.9999 0.594659 64.3905 0 63.6457 0Z" fill="white"/>
<path d="M10.8312 10.3799H0V26.6306H10.8312V10.3799Z" fill="white"/>
</svg>
