<svg width="50" height="48" viewBox="0 0 50 48" fill="none" xmlns="http://www.w3.org/2000/svg">
<path fill-rule="evenodd" clip-rule="evenodd" d="M12.362 0.546474C12.0236 0.208063 11.5599 0 11.046 0C10.5346 0 10.0683 0.210565 9.72989 0.546474C9.39148 0.884886 9.18342 1.34864 9.18342 1.86254V8.95177C9.18342 9.46315 9.39399 9.92938 9.72989 10.2678C10.0683 10.6062 10.5321 10.8143 11.046 10.8143C11.5573 10.8143 12.0236 10.6037 12.362 10.2678C12.7004 9.92942 12.9085 9.46567 12.9085 8.95177V1.86254C12.9085 1.35116 12.6979 0.884924 12.362 0.546474ZM39.0665 0C38.5576 0 38.0939 0.208063 37.7579 0.546474C37.422 0.882383 37.2114 1.34614 37.2114 1.85503V9.07967C37.2114 9.58854 37.4195 10.0523 37.7579 10.3882C38.0938 10.7241 38.5576 10.9347 39.0665 10.9347C39.5754 10.9347 40.0391 10.7266 40.375 10.3882C40.7109 10.0523 40.9215 9.58856 40.9215 9.07967V1.85503C40.9215 1.34616 40.7134 0.882421 40.375 0.546474C40.0391 0.210565 39.5754 0 39.0665 0ZM14.3546 20.4501H18.6036C18.8041 20.4501 18.9671 20.6131 18.9671 20.8136V25.0626C18.9671 25.2631 18.8041 25.4261 18.6036 25.4261H14.3546C14.1541 25.4261 13.9911 25.2631 13.9911 25.0626V20.8136C13.9911 20.6131 14.1541 20.4501 14.3546 20.4501ZM22.8524 20.4501H27.1014C27.302 20.4501 27.4649 20.6131 27.4649 20.8136V25.0626C27.4649 25.2631 27.302 25.4261 27.1014 25.4261H22.8524C22.6519 25.4261 22.489 25.2631 22.489 25.0626V20.8136C22.489 20.6131 22.6519 20.4501 22.8524 20.4501ZM31.3503 20.4501H35.5992C35.7998 20.4501 35.9627 20.6131 35.9627 20.8136V25.0626C35.9627 25.2631 35.7998 25.4261 35.5992 25.4261H31.3503C31.1497 25.4261 30.9868 25.2631 30.9868 25.0626V20.8136C30.9868 20.6131 31.1497 20.4501 31.3503 20.4501ZM5.85421 28.9479H10.1032C10.3037 28.9479 10.4667 29.1109 10.4667 29.3114V33.5604C10.4667 33.7609 10.3037 33.9239 10.1032 33.9239H5.85421C5.65367 33.9239 5.49073 33.7609 5.49073 33.5604V29.3114C5.49073 29.1109 5.65367 28.9479 5.85421 28.9479ZM14.352 28.9479H18.601C18.8016 28.9479 18.9645 29.1109 18.9645 29.3114V33.5604C18.9645 33.7609 18.8016 33.9239 18.601 33.9239H14.352C14.1515 33.9239 13.9886 33.7609 13.9886 33.5604V29.3114C13.9886 29.1109 14.1515 28.9479 14.352 28.9479ZM22.8499 28.9479H27.0989C27.2994 28.9479 27.4623 29.1109 27.4623 29.3114V33.5604C27.4623 33.7609 27.2994 33.9239 27.0989 33.9239H22.8499C22.6493 33.9239 22.4864 33.7609 22.4864 33.5604V29.3114C22.4864 29.1109 22.6493 28.9479 22.8499 28.9479ZM31.3477 28.9479H35.5967C35.7972 28.9479 35.9602 29.1109 35.9602 29.3114V33.5604C35.9602 33.7609 35.7972 33.9239 35.5967 33.9239H31.3477C31.1472 33.9239 30.9842 33.7609 30.9842 33.5604V29.3114C30.9842 29.1109 31.1472 28.9479 31.3477 28.9479ZM5.85164 37.4458H10.1006C10.3012 37.4458 10.4641 37.6087 10.4641 37.8093V42.0582C10.4641 42.2588 10.3012 42.4217 10.1006 42.4217H5.85164C5.6511 42.4217 5.48816 42.2588 5.48816 42.0582V37.8093C5.48816 37.6087 5.6511 37.4458 5.85164 37.4458ZM14.3495 37.4458H18.5985C18.799 37.4458 18.9619 37.6087 18.9619 37.8093V42.0582C18.9619 42.2588 18.799 42.4217 18.5985 42.4217H14.3495C14.1489 42.4217 13.986 42.2588 13.986 42.0582V37.8093C13.986 37.6087 14.1489 37.4458 14.3495 37.4458ZM22.8473 37.4458H27.0963C27.2968 37.4458 27.4598 37.6087 27.4598 37.8093V42.0582C27.4598 42.2588 27.2968 42.4217 27.0963 42.4217H22.8473C22.6468 42.4217 22.4838 42.2588 22.4838 42.0582V37.8093C22.4838 37.6087 22.6468 37.4458 22.8473 37.4458ZM31.3451 37.4458H35.5941C35.7947 37.4458 35.9576 37.6087 35.9576 37.8093V42.0582C35.9576 42.2588 35.7947 42.4217 35.5941 42.4217H31.3451C31.1446 42.4217 30.9817 42.2588 30.9817 42.0582V37.8093C30.9817 37.6087 31.1446 37.4458 31.3451 37.4458ZM39.843 20.4475H44.0919C44.2925 20.4475 44.4554 20.6105 44.4554 20.811V25.06C44.4554 25.2606 44.2925 25.4235 44.0919 25.4235H39.843C39.6424 25.4235 39.4795 25.2606 39.4795 25.06V20.811C39.4795 20.6105 39.6424 20.4475 39.843 20.4475ZM39.843 28.9454H44.0919C44.2925 28.9454 44.4554 29.1083 44.4554 29.3089V33.5578C44.4554 33.7584 44.2925 33.9213 44.0919 33.9213H39.843C39.6424 33.9213 39.4795 33.7584 39.4795 33.5578V29.3089C39.4795 29.1083 39.6424 28.9454 39.843 28.9454ZM39.843 37.4432H44.0919C44.2925 37.4432 44.4554 37.6062 44.4554 37.8067V42.0557C44.4554 42.2562 44.2925 42.4192 44.0919 42.4192H39.843C39.6424 42.4192 39.4795 42.2562 39.4795 42.0557V37.8067C39.4795 37.6062 39.6424 37.4432 39.843 37.4432ZM0.00032069 15.6217V43.6347C0.00032069 44.7301 0.449034 45.7253 1.17097 46.4472C1.89291 47.1692 2.89062 47.6179 3.98356 47.6179H46.0145C47.11 47.6179 48.1052 47.1692 48.8271 46.4472C49.5491 45.7253 49.9978 44.7301 49.9978 43.6347V15.6217H0.00032069ZM13.6346 6.24406H36.4861V9.07674C36.4861 9.78617 36.7768 10.4304 37.2431 10.8991C37.7094 11.3654 38.3561 11.6562 39.0655 11.6562C39.7749 11.6562 40.4192 11.3654 40.8879 10.8991C41.3542 10.4329 41.645 9.78611 41.645 9.07674V6.24406H46.0168C47.1122 6.24406 48.1074 6.69278 48.8293 7.41471C49.5513 8.13665 50 9.13186 50 10.2273V14.8974H0V10.2273C0 9.13186 0.448712 8.13666 1.17065 7.41471C1.89259 6.69276 2.8903 6.24406 3.98324 6.24406H8.46035V8.94884C8.46035 9.66078 8.75114 10.3075 9.21991 10.7763C9.68868 11.2451 10.3354 11.5359 11.0474 11.5359C11.7593 11.5359 12.406 11.2451 12.8748 10.7763C13.3436 10.3075 13.6344 9.66078 13.6344 8.94884L13.6346 6.24406Z" fill="white"/>
</svg>
