<svg width="50" height="50" viewBox="0 0 50 50" fill="none" xmlns="http://www.w3.org/2000/svg">
<path d="M25.2284 0L20.3487 5.5724L13.4957 2.76346L11.7645 9.96571L4.3911 10.6637L6.20485 17.8449L0 21.8901L4.94422 27.4057L1.32939 33.8715L8.27012 36.4573L8.07446 43.8615L15.4213 42.9266L18.6893 49.5733L24.7598 45.3313L30.7427 49.6981L34.147 43.1202L41.4738 44.2074L41.4304 36.7999L48.4231 34.3579L44.9437 27.819L50 22.4074L43.8796 18.2341L45.8414 11.0925L38.4837 10.2422L36.9016 3.00642L29.9912 5.67257L25.2278 0.000541443L25.2284 0ZM35.47 13.9762C35.6335 13.9715 35.7946 14.0163 35.9322 14.1047C36.0699 14.193 36.1776 14.3209 36.2414 14.4715C36.3051 14.6221 36.3219 14.7885 36.2896 14.9488C36.2573 15.1091 36.1773 15.256 36.0601 15.3701L15.5325 35.8988C15.457 35.9742 15.3675 36.034 15.2689 36.0748C15.1703 36.1156 15.0646 36.1365 14.9579 36.1365C14.8512 36.1364 14.7456 36.1154 14.647 36.0745C14.5484 36.0336 14.4589 35.9737 14.3835 35.8983C14.3081 35.8228 14.2483 35.7332 14.2075 35.6346C14.1667 35.536 14.1457 35.4303 14.1458 35.3236C14.1458 35.2169 14.1669 35.1113 14.2077 35.0127C14.2486 34.9142 14.3085 34.8246 14.384 34.7492L34.9116 14.2216C35.0588 14.0704 35.2591 13.9824 35.47 13.9762ZM19.401 13.9773C22.2974 13.9773 24.6625 16.3423 24.6625 19.2387C24.6625 22.1351 22.2974 24.5002 19.401 24.5002C16.5046 24.5002 14.1395 22.1351 14.1395 19.2387C14.1395 16.3423 16.5046 13.9773 19.401 13.9773ZM19.401 15.6017C17.3825 15.6017 15.764 17.2203 15.764 19.2387C15.764 21.2572 17.3825 22.8758 19.401 22.8758C21.4195 22.8758 23.038 21.2572 23.038 19.2387C23.038 17.2203 21.4195 15.6017 19.401 15.6017ZM31.0429 25.6191C33.9393 25.6191 36.3054 27.9853 36.3054 30.8817C36.3054 33.7781 33.9393 36.1432 31.0429 36.1432C28.1465 36.1432 25.7814 33.7781 25.7814 30.8817C25.7814 27.9853 28.1465 25.6191 31.0429 25.6191ZM31.0429 27.2436C29.0244 27.2436 27.4058 28.8632 27.4058 30.8817C27.4058 32.9002 29.0244 34.5187 31.0429 34.5187C33.0613 34.5187 34.681 32.9002 34.681 30.8817C34.681 28.8632 33.0613 27.2436 31.0429 27.2436Z" fill="white"/>
</svg>
