<svg width="219" height="194" viewBox="0 0 219 194" fill="none" xmlns="http://www.w3.org/2000/svg">
<g opacity="0.05">
<path d="M121.788 98.2076C121.646 98.3501 121.503 98.3501 121.361 98.3501C121.218 98.3501 120.933 98.2076 120.933 98.0652L120.221 96.7829H120.079C119.794 96.7829 119.509 96.6404 119.366 96.4979L117.941 93.6483C117.656 93.6483 117.514 93.6483 117.229 93.6483C117.087 93.6483 116.802 93.5058 116.802 93.2209L115.519 90.3713C115.377 90.5138 115.234 90.5138 115.092 90.5138C114.807 90.5138 114.664 90.3713 114.664 90.0863L113.525 87.2368C113.382 87.3793 113.24 87.3792 112.955 87.3792C112.67 87.3792 112.527 87.0943 112.527 86.9518L111.53 83.6748C111.387 83.6748 111.245 83.8173 111.102 83.6748C110.96 83.6748 110.675 83.3898 110.675 83.2474L109.535 79.8279C109.393 79.9704 109.25 79.9704 108.965 79.9704C108.68 79.9704 108.538 79.6854 108.538 79.5429L107.398 75.696C107.256 75.8385 106.971 75.8385 106.686 75.8385C106.543 75.696 106.401 75.5535 106.258 75.2686L105.831 71.8491C105.688 71.8491 105.546 71.8491 105.261 71.8491C105.118 71.7066 104.976 71.5641 104.976 71.4216L104.406 68.0021H104.263C104.121 68.1446 103.836 68.1446 103.551 68.0021C103.409 67.8597 103.266 67.7172 103.124 67.4322L102.839 64.1552C102.696 64.2977 102.554 64.2977 102.554 64.2977C102.411 64.2977 102.269 64.2977 102.269 64.1552C102.126 64.0127 101.984 63.8702 101.984 63.5853L102.126 60.1658H101.984C101.841 60.3083 101.556 60.1658 101.414 60.1658C101.271 60.0233 101.129 59.8808 101.129 59.5959L101.271 56.0339L101.129 56.1764C100.986 56.3189 100.701 56.1764 100.559 56.1764C100.417 56.0339 100.274 55.8914 100.274 55.6065V51.6171H100.132C99.9891 51.7596 99.7041 51.6171 99.5617 51.4746C99.4192 51.3321 99.2767 51.1896 99.2767 50.9047L99.5617 48.4825C99.4192 48.4825 99.1342 48.4825 98.9917 48.3401C98.8493 48.1976 98.8493 47.9126 98.8493 47.7701L99.4192 45.4905H99.1342C98.9917 45.4905 98.8493 45.348 98.7068 45.2055C98.5643 45.063 98.5643 44.7781 98.7068 44.6356L99.4192 42.7834L99.1342 42.6409C98.9917 42.6409 98.7068 42.3559 98.7068 42.2135C98.7068 42.071 98.7068 41.786 98.8493 41.6436C98.7068 41.786 98.5643 41.786 98.4218 41.9285C98.1369 43.7807 97.9944 46.0604 98.2793 48.7675C98.9917 54.6091 101.129 63.3003 102.411 66.8623C103.124 68.857 104.263 71.7066 105.261 74.2712C106.258 76.6933 107.113 78.688 107.256 79.4004C107.54 80.6828 109.108 83.5323 111.53 87.2368C113.952 91.0837 118.226 96.7829 119.081 97.6377C119.224 97.7802 119.366 97.9227 119.509 98.0652C119.936 98.4926 120.649 99.205 121.503 99.9174C122.073 99.7749 122.501 99.6324 123.071 99.4899C122.928 99.4899 122.928 99.3475 122.928 99.3475L121.788 98.2076Z" fill="#009688"/>
<path d="M117.799 98.9201C116.659 97.9227 112.385 91.9386 109.963 88.2341C108.253 85.527 105.973 81.9651 105.546 80.1129C105.403 79.4005 104.549 77.4058 103.551 75.1261C102.554 72.5615 101.272 69.5694 100.702 67.5747C99.4193 63.8703 97.2821 55.1791 96.5697 49.1949C96.2847 46.9153 96.4272 44.7781 96.5697 43.0684C95.9998 43.3533 95.5723 43.7808 95.0024 44.2082C95.1449 44.3507 95.1449 44.4931 95.0024 44.7781L94.29 46.4879H94.4325C94.575 46.4879 94.7175 46.6303 94.86 46.7728C95.0024 46.9153 95.0024 47.0578 95.0024 47.3427L94.4325 49.3374C94.575 49.3374 94.7175 49.3374 94.86 49.4799C95.0024 49.6224 95.1449 49.7649 95.0024 50.0498L94.7175 52.3295C94.86 52.187 95.1449 52.3295 95.2874 52.472C95.4299 52.6144 95.5723 52.7569 95.5723 53.0419V56.6038L95.8573 56.4614C95.9998 56.3189 96.2847 56.4614 96.4272 56.4614C96.5697 56.6038 96.7122 56.7463 96.7122 57.0313V60.7357H96.8547C96.9971 60.5933 97.2821 60.7357 97.4246 60.7357C97.5671 60.8782 97.7095 61.0207 97.7095 61.3056L97.5671 64.5827C97.7095 64.5827 97.852 64.5827 97.9945 64.5827C98.137 64.7251 98.2794 64.8676 98.4219 65.1526L98.7069 68.4296C98.8494 68.2871 99.1343 68.2871 99.2768 68.4296C99.4193 68.5721 99.5618 68.7145 99.7042 68.857L100.274 72.419C100.417 72.419 100.702 72.419 100.844 72.419C100.987 72.5615 101.129 72.704 101.129 72.8464L101.556 76.1234C101.699 75.981 101.841 75.981 102.126 76.1234C102.269 76.1234 102.411 76.4084 102.554 76.5509L103.694 80.2553C103.836 80.1128 103.979 80.1129 104.264 80.1129C104.549 80.1129 104.691 80.3978 104.691 80.5403L105.831 84.2447C105.973 84.2447 106.116 84.1023 106.258 84.2447C106.401 84.2447 106.686 84.5297 106.686 84.6722L107.683 87.8067C107.826 87.8067 107.968 87.6642 108.11 87.8067C108.395 87.8067 108.538 87.9492 108.538 88.2341L109.678 91.0837C109.82 91.0837 109.963 91.0837 110.105 91.0837C110.39 91.0837 110.533 91.2262 110.675 91.5112L111.957 94.5032C112.1 94.3607 112.242 94.3607 112.527 94.3607C112.67 94.3607 112.955 94.5032 112.955 94.6457L114.095 96.9254C114.095 96.9254 114.237 96.9254 114.38 96.9254C114.665 96.9254 114.949 97.0678 115.092 97.2103L116.089 99.0625C116.232 98.9201 116.374 98.9201 116.517 98.9201C116.659 98.9201 116.802 99.0625 116.944 99.205L117.514 100.345H117.657C117.942 100.345 118.084 100.487 118.226 100.63L118.369 100.772C118.654 100.772 119.081 100.63 119.366 100.63C118.796 100.202 118.369 99.7749 118.084 99.3475C118.084 99.0625 117.942 98.9201 117.799 98.9201Z" fill="#009688"/>
<path d="M126.632 98.2082C126.347 98.3507 126.062 98.2082 125.92 97.9233L125.207 96.7834C125.065 96.7834 124.922 96.9259 124.922 96.9259C124.637 96.9259 124.495 96.7834 124.352 96.4985L123.783 95.2162C123.64 95.2162 123.498 95.3586 123.355 95.2162C123.213 95.2162 122.928 95.0737 122.928 94.9312L122.358 93.6489H122.215C121.93 93.6489 121.645 93.5064 121.503 93.2215L120.078 90.7993C119.936 90.7993 119.793 90.9418 119.508 90.7993C119.366 90.7993 119.081 90.6568 119.081 90.3719L117.941 87.6648C117.798 87.6648 117.656 87.6648 117.656 87.6648C117.371 87.6648 117.229 87.5223 117.086 87.2373L116.089 84.5302C115.946 84.5302 115.804 84.6727 115.661 84.5302C115.376 84.5302 115.234 84.2453 115.234 84.1028L114.379 81.1107C114.236 81.1107 114.094 81.1107 113.952 81.1107C113.667 81.1107 113.524 80.8258 113.524 80.6833L112.527 77.4063C112.384 77.5488 112.242 77.5488 112.099 77.5488C111.814 77.5488 111.672 77.2638 111.672 77.1213L110.674 73.4169C110.532 73.5594 110.247 73.5594 110.105 73.4169C109.82 73.2744 109.677 73.1319 109.677 72.847L109.25 69.57C109.107 69.57 108.965 69.57 108.822 69.57C108.68 69.4275 108.537 69.285 108.537 69.1425L107.967 66.008C107.825 66.1505 107.54 66.1505 107.255 66.008C106.97 65.8655 106.828 65.723 106.828 65.4381L106.543 62.446C106.4 62.5885 106.115 62.5885 105.973 62.446C105.688 62.3035 105.688 62.1611 105.688 61.8761L105.83 58.5991C105.688 58.7416 105.403 58.5991 105.118 58.5991C104.975 58.4566 104.833 58.3141 104.833 58.0292L104.975 54.6097H104.833C104.69 54.7522 104.405 54.7522 104.263 54.6097C104.12 54.4672 103.978 54.3247 103.978 54.0398V50.3353C103.836 50.4778 103.551 50.3353 103.408 50.1928C103.266 50.0504 103.123 49.9079 103.123 49.6229L103.408 47.3433C103.266 47.3433 102.981 47.3433 102.981 47.2008C102.838 47.0583 102.696 46.7734 102.838 46.6309L103.408 44.4937H103.266C103.123 44.4937 102.981 44.3512 102.838 44.2087C102.696 44.0663 102.696 43.7813 102.838 43.6388L103.551 41.9291L103.266 41.7866C103.123 41.7866 102.981 41.6441 102.838 41.3592C102.838 41.2167 102.838 40.9317 102.981 40.7892L103.693 39.7919C103.693 39.7919 103.551 39.7919 103.551 39.6494C102.838 39.9344 102.268 40.2193 101.698 40.3618C101.698 40.3618 101.698 40.5043 101.556 40.5043L100.701 41.6441C100.843 41.6441 100.986 41.7866 101.128 41.9291C101.271 42.0716 101.271 42.214 101.128 42.499L100.416 44.2087H100.558C100.701 44.2087 100.843 44.3512 100.986 44.4937C101.128 44.6362 101.128 44.7787 101.128 45.0636L100.558 47.0583C100.701 47.0583 100.843 47.2008 100.986 47.2008C101.128 47.3433 101.271 47.4857 101.128 47.7707L100.843 50.0504C100.986 49.9079 101.271 50.0504 101.413 50.1928C101.556 50.3353 101.698 50.4778 101.698 50.7628V54.6097L101.983 54.4672C102.126 54.3247 102.411 54.4672 102.553 54.4672C102.411 54.7522 102.411 54.8946 102.411 55.1796L102.268 58.7416H102.411C102.553 58.5991 102.838 58.7416 102.981 58.7416C103.123 58.8841 103.266 59.0265 103.266 59.3115V62.5885C103.408 62.5885 103.551 62.5885 103.693 62.5885C103.836 62.731 103.978 62.8735 104.12 63.1584L104.405 66.4354C104.548 66.293 104.833 66.293 104.975 66.4354C105.118 66.5779 105.26 66.7204 105.403 66.8629L105.973 70.2824C106.115 70.1399 106.4 70.2824 106.543 70.2824C106.685 70.4248 106.828 70.5673 106.828 70.7098L107.255 73.9868C107.397 73.8443 107.54 73.8443 107.825 73.9868C107.967 74.1293 108.11 74.2718 108.252 74.4142L109.535 77.9762C109.677 77.8337 109.82 77.8337 110.105 77.8337C110.39 77.8337 110.532 77.9762 110.532 78.2612L111.672 81.9656C111.814 81.9656 111.957 81.9656 112.099 81.9656C112.384 81.9656 112.527 82.2506 112.527 82.3931L113.524 85.3851C113.667 85.3851 113.809 85.2426 113.952 85.3851C114.094 85.3851 114.379 85.5276 114.379 85.8125L115.519 88.6621C115.661 88.6621 115.804 88.6621 115.946 88.6621C116.231 88.6621 116.374 88.8046 116.516 89.0896L117.798 92.0816C117.941 91.9391 118.083 91.9391 118.368 91.9391C118.511 91.9391 118.653 92.0816 118.796 92.2241L119.936 94.5038C119.936 94.5038 120.078 94.5038 120.221 94.5038C120.506 94.5038 120.79 94.6462 120.933 94.7887L121.93 96.6409C122.073 96.4985 122.215 96.4985 122.358 96.4985C122.5 96.4985 122.785 96.6409 122.785 96.7834L123.355 97.9233H123.498C123.783 97.9233 123.925 98.0657 124.067 98.2082L124.637 99.0631C125.35 98.7781 126.205 98.4932 126.917 98.0657H126.775C126.775 98.2082 126.775 98.2082 126.632 98.2082Z" fill="#009688"/>
<path d="M115.803 100.631C115.661 100.631 115.518 100.488 115.376 100.346L114.664 99.0632H114.521C114.236 99.0632 113.951 98.9208 113.809 98.7783L112.384 95.9287C112.241 96.0712 111.957 96.0712 111.814 96.0712C111.672 96.0712 111.387 95.9287 111.387 95.6438L110.104 92.7942C109.962 92.7942 109.819 92.9367 109.677 92.9367C109.392 92.9367 109.249 92.7942 109.107 92.5092L107.967 89.6596C107.825 89.8021 107.682 89.8021 107.397 89.8021C107.112 89.8021 106.97 89.5172 106.97 89.3747L105.972 86.2402C105.83 86.2402 105.687 86.3826 105.545 86.2402C105.26 86.2402 105.118 85.9552 105.118 85.8127L103.978 82.2507C103.835 82.3932 103.693 82.3932 103.408 82.3932C103.123 82.3932 102.98 82.1083 102.98 81.9658L101.841 78.1189C101.698 78.2613 101.413 78.2613 101.128 78.2613C100.986 78.1189 100.701 77.9764 100.701 77.6914L100.273 74.2719C100.131 74.2719 99.9883 74.2719 99.7033 74.2719C99.5608 74.1295 99.4184 73.987 99.4184 73.8445L98.8485 70.425H98.706C98.5635 70.5675 98.2785 70.5675 97.9936 70.425C97.8511 70.2825 97.7086 70.14 97.5661 69.8551L97.2812 66.5781C97.1387 66.7206 96.8537 66.7206 96.5688 66.5781C96.4263 66.4356 96.2838 66.2931 96.2838 66.0082L96.4263 62.4462L96.2838 62.5887C96.1414 62.7311 95.8564 62.5887 95.7139 62.5887C95.5714 62.4462 95.429 62.3037 95.429 62.0188L95.5714 58.3143L95.2865 58.1718C95.144 58.3143 94.859 58.1718 94.7166 58.1718C94.5741 58.0293 94.4316 57.8869 94.4316 57.6019V53.6125H94.2891C94.1467 53.755 93.8617 53.6125 93.7192 53.47C93.5767 53.3275 93.4343 53.1851 93.4343 52.9001L93.7192 50.478C93.5767 50.478 93.2918 50.478 93.1493 50.3355C93.0068 50.193 92.8643 49.9081 93.0068 49.7656L93.5767 47.4859H93.2918C93.1493 47.4859 92.8643 47.3434 92.8643 47.201C92.7219 47.0585 92.7219 46.7735 92.8643 46.631L93.2918 45.4912C93.0068 45.7762 92.5794 46.0611 92.2944 46.3461C92.4369 46.4886 92.4369 46.631 92.2944 46.916L91.582 48.7682H91.7245C91.867 48.7682 92.0095 48.9107 92.1519 49.0532C92.2944 49.1957 92.2944 49.3381 92.2944 49.6231L91.7245 51.6178C91.867 51.6178 92.0095 51.6178 92.1519 51.7603C92.2944 51.9028 92.4369 52.1877 92.4369 52.3302L92.1519 54.6099H92.2944C92.4369 54.4674 92.7219 54.6099 92.8643 54.6099C93.0068 54.7523 93.1493 54.8948 93.1493 55.1798V59.1692L93.4343 59.0267C93.5767 58.8842 93.8617 58.8842 94.1467 59.0267C94.2891 59.1692 94.4316 59.3117 94.4316 59.5966L94.2891 63.3011L94.4316 63.1586C94.5741 63.0161 94.859 63.1586 95.0015 63.1586C95.144 63.3011 95.2865 63.4435 95.2865 63.7285V67.0055C95.429 66.863 95.5714 67.0055 95.8564 67.0055C95.9989 67.148 96.1414 67.2905 96.2838 67.5754L96.5688 70.8524C96.7113 70.71 96.9962 70.71 97.1387 70.8524C97.2812 70.9949 97.4237 71.1374 97.5661 71.2799L98.1361 75.1268C98.2785 74.9843 98.5635 75.1268 98.706 75.1268C98.8485 75.2693 98.9909 75.4118 98.9909 75.5542L99.4184 78.6888C99.5608 78.5463 99.7033 78.5463 99.9883 78.6888C100.131 78.6888 100.273 78.9737 100.416 79.1162L101.556 82.6782C101.698 82.5357 101.841 82.5357 102.125 82.5357C102.41 82.5357 102.553 82.6782 102.553 82.9631L103.693 86.5251C103.835 86.5251 103.978 86.3826 104.12 86.5251C104.405 86.5251 104.548 86.8101 104.548 86.9525L105.545 89.8021C105.687 89.8021 105.83 89.6596 105.972 89.8021C106.115 89.8021 106.4 89.9446 106.4 90.2296L107.54 92.9367C107.682 92.9367 107.825 92.9367 107.967 92.9367C108.252 92.9367 108.395 93.0791 108.537 93.3641L109.819 96.2137C109.962 96.0712 110.104 96.0712 110.247 96.0712C110.389 96.0712 110.674 96.2137 110.674 96.3561L111.814 98.4933H111.957C112.241 98.4933 112.526 98.6358 112.669 98.7783L113.524 100.488C113.666 100.346 113.809 100.346 113.951 100.346C114.094 100.346 114.379 100.488 114.379 100.631L114.664 101.2C115.234 101.2 115.946 101.2 116.516 101.058L116.373 100.631C116.088 100.631 115.946 100.631 115.803 100.631Z" fill="#009688"/>
<path d="M128.342 96.4981C128.057 96.4981 127.915 96.3556 127.772 96.2131L126.775 94.9308C126.775 95.0733 126.49 95.0733 126.347 95.0733C126.205 95.0733 125.92 94.9308 125.92 94.6458L125.208 93.506H125.065C124.78 93.506 124.495 93.3635 124.353 93.221L123.07 90.5139C122.928 90.6564 122.786 90.6564 122.501 90.6564C122.358 90.6564 122.073 90.5139 122.073 90.229L120.933 87.5219C120.791 87.5219 120.648 87.5219 120.648 87.5219C120.363 87.5219 120.221 87.3794 120.078 87.0945L119.081 84.3874C118.939 84.5298 118.796 84.5298 118.654 84.3874C118.369 84.3874 118.226 84.1024 118.226 83.9599L117.371 80.9679C117.229 80.9679 117.086 80.9679 116.944 80.9679C116.659 80.9679 116.516 80.6829 116.516 80.5404L115.519 77.2634C115.377 77.4059 115.234 77.4059 115.092 77.2634C114.807 77.2634 114.664 76.9785 114.664 76.836L113.667 73.1315C113.524 73.274 113.239 73.274 113.097 73.1315C112.954 72.9891 112.812 72.8466 112.67 72.5616L112.242 69.2846C112.1 69.2846 111.957 69.2846 111.815 69.2846C111.672 69.1421 111.53 68.9996 111.387 68.8572L110.817 65.7226C110.675 65.8651 110.39 65.8651 110.105 65.7226C109.962 65.5802 109.82 65.4377 109.677 65.1527L109.393 62.1607C109.25 62.3031 108.965 62.3031 108.823 62.1607C108.538 62.0182 108.538 61.8757 108.538 61.5908V58.3137C108.395 58.4562 108.11 58.3137 107.968 58.3137C107.825 58.1713 107.683 58.0288 107.683 57.7438L107.825 54.3243H107.683C107.54 54.4668 107.255 54.4668 107.113 54.3243C106.97 54.1819 106.828 54.0394 106.828 53.7544V50.05C106.685 50.1924 106.4 50.05 106.258 49.9075C106.116 49.765 105.973 49.4801 105.973 49.3376L106.258 47.0579C106.116 47.0579 105.831 47.0579 105.688 46.9154C105.261 46.9154 105.261 46.773 105.261 46.488L105.831 44.3508H105.688C105.546 44.3508 105.403 44.2083 105.261 44.0659C105.118 43.9234 105.118 43.6384 105.261 43.4959L105.973 41.7862H105.688C105.546 41.7862 105.403 41.5012 105.261 41.3588C105.261 41.2163 105.261 40.9313 105.403 40.7888L106.116 39.7915C105.973 39.7915 105.831 39.5065 105.688 39.3641C105.688 39.2216 105.688 39.2216 105.688 39.0791C105.403 39.2216 104.976 39.2216 104.691 39.3641C104.691 39.3641 104.691 39.3641 104.691 39.5065C104.833 39.649 104.691 39.934 104.548 40.0765L103.836 40.9313C103.978 40.9313 104.121 41.0738 104.263 41.2163C104.406 41.3588 104.406 41.5012 104.263 41.7862L103.693 43.3535H103.836C103.978 43.3535 104.121 43.4959 104.263 43.6384C104.406 43.7809 104.406 43.9234 104.406 44.2083L103.836 46.0606C103.978 46.0606 104.121 46.203 104.121 46.203C104.263 46.3455 104.406 46.488 104.406 46.773L104.263 48.9101C104.406 48.9101 104.691 48.9101 104.833 49.0526C104.976 49.1951 105.118 49.3376 105.118 49.6225V53.327H105.261C105.403 53.1845 105.688 53.1845 105.831 53.327C105.973 53.4695 106.116 53.6119 106.116 53.8969L105.973 57.3164C106.115 57.1739 106.4 57.1739 106.543 57.3164C106.685 57.4589 106.828 57.6013 106.828 57.8863V61.0208C106.97 61.0208 107.113 61.0208 107.255 61.0208C107.398 61.1633 107.54 61.3058 107.683 61.5908L107.968 64.5828C108.11 64.4403 108.395 64.4403 108.538 64.5828C108.68 64.7253 108.965 64.8678 108.965 65.0102L109.535 68.2873C109.677 68.2873 109.82 68.2873 109.962 68.2873C110.105 68.4297 110.247 68.5722 110.247 68.7147L110.675 71.7067C110.817 71.7067 110.96 71.7067 111.102 71.7067C111.245 71.7067 111.53 71.9917 111.53 72.1342L112.527 75.5537C112.67 75.5537 112.812 75.4112 112.954 75.5537C113.239 75.5537 113.382 75.8386 113.382 75.9811L114.379 79.4006C114.522 79.4006 114.664 79.4006 114.807 79.4006C115.092 79.4006 115.234 79.6856 115.234 79.828L116.089 82.6776C116.231 82.6776 116.374 82.6776 116.374 82.6776C116.659 82.6776 116.801 82.8201 116.801 83.105L117.799 85.8121C117.941 85.8121 117.941 85.8121 118.084 85.8121C118.369 85.8121 118.511 85.9546 118.654 86.2396L119.793 89.0892C119.936 88.9467 120.078 88.9467 120.221 89.0892C120.363 89.0892 120.648 89.2316 120.648 89.3741L121.788 91.5113H121.931C122.216 91.5113 122.501 91.6538 122.643 91.9387L123.498 93.6485C123.64 93.6485 123.783 93.506 123.925 93.6485C124.068 93.6485 124.353 93.791 124.353 93.9334L124.923 95.0733H125.065C125.35 95.0733 125.493 95.2157 125.635 95.3582L126.347 96.3556C126.49 96.3556 126.632 96.3556 126.775 96.4981L127.772 97.3529C128.057 97.2104 128.2 97.3529 128.342 97.4954C128.485 97.3529 128.77 97.2104 128.912 97.2104L128.485 96.4981C128.627 96.3556 128.485 96.4981 128.342 96.4981Z" fill="#009688"/>
<path d="M111.815 100.487C111.53 100.487 111.245 100.345 111.103 100.203L109.678 97.6379C109.535 97.7804 109.393 97.7804 109.108 97.7804C108.966 97.7804 108.681 97.6379 108.681 97.3529L107.541 94.6458C107.398 94.6458 107.256 94.7883 107.113 94.7883C106.828 94.7883 106.686 94.6458 106.543 94.3609L105.404 91.6538C105.261 91.7963 105.119 91.7963 104.834 91.7963C104.549 91.7963 104.406 91.5113 104.406 91.3688L103.409 88.3768C103.266 88.3768 103.124 88.5192 102.981 88.3768C102.696 88.3768 102.554 88.0918 102.554 87.9493L101.557 84.5298C101.414 84.6723 101.272 84.6723 100.987 84.6723C100.702 84.6723 100.559 84.3874 100.559 84.2449L99.4194 80.398C99.2769 80.5404 98.992 80.5404 98.707 80.5404C98.5646 80.398 98.2796 80.2555 98.2796 79.9705L97.8522 76.551C97.7097 76.551 97.5672 76.551 97.2822 76.551C97.1398 76.4086 96.9973 76.2661 96.9973 76.1236L96.4274 72.8466L96.2849 72.9891C96.1424 73.1315 95.8575 73.1315 95.5725 72.9891C95.43 72.8466 95.2875 72.7041 95.1451 72.4191L94.8601 69.1421C94.7176 69.2846 94.4327 69.2846 94.1477 69.1421C93.8628 68.9997 93.8628 68.8572 93.8628 68.5722V65.0102L93.7203 65.1527C93.5778 65.2952 93.2928 65.2952 93.1504 65.1527C93.0079 65.0102 92.8654 64.8678 92.8654 64.5828L93.0079 60.8784H92.7229C92.5804 61.0208 92.2955 60.8784 92.153 60.8784C92.0105 60.7359 91.868 60.5934 91.868 60.3084V56.1766L91.7256 56.319C91.5831 56.4615 91.2981 56.319 91.1557 56.1766C91.0132 56.0341 91.0132 56.0341 90.8707 55.8916C90.8707 56.0341 90.8707 56.0341 90.8707 56.1766L90.3008 57.6013L91.1557 59.0261C91.2981 59.1686 91.2981 59.3111 91.2981 59.5961L91.0132 60.4509L92.153 62.7306C92.2955 63.0155 92.2955 63.158 92.0105 63.443L91.4406 64.1554L93.0079 66.72C93.1504 67.0049 93.1504 67.2899 93.0079 67.4324L92.7229 67.8598L94.2902 70.7094C94.4327 70.8519 94.4327 71.1368 94.2902 71.4218L94.0052 71.8492L96.1424 74.4138C96.2849 74.6988 96.2849 74.9838 96.1424 75.2687L95.2875 75.9811L97.1398 78.2608C97.2822 78.5457 97.2822 78.8307 97.1398 79.1156L96.8548 79.4006L98.8495 81.6803C99.1345 81.9652 99.1345 82.2502 98.8495 82.5351L98.4221 83.1051L100.559 85.2422C100.702 85.3847 100.844 85.6697 100.702 85.8122L100.559 86.952L102.411 88.6617C102.554 88.8042 102.696 88.9467 102.554 89.2316L102.411 90.6564L103.979 92.0812C104.121 92.2237 104.264 92.3662 104.264 92.6511C104.264 92.7936 104.121 92.9361 103.979 93.0786L105.688 94.6458C105.831 94.7883 105.973 95.0733 105.831 95.3582L105.688 96.0706L107.826 97.6379C108.111 97.7804 108.111 98.0653 108.111 98.3503V98.4928L109.108 98.7777C109.393 98.9202 109.678 99.2052 109.535 99.4901V100.06L111.53 100.772H111.673C111.958 100.772 112.243 100.772 112.385 100.772L112.1 100.203C111.958 100.487 111.958 100.487 111.815 100.487Z" fill="#009688"/>
<path d="M106.97 99.3478C106.828 99.3478 106.685 99.2053 106.543 99.0628C106.4 98.9203 106.4 98.7779 106.543 98.4929L106.685 98.2079L104.548 96.6407C104.263 96.4982 104.263 96.2132 104.263 95.9283L104.405 95.2159L102.411 93.3637C102.268 93.2212 102.126 93.0787 102.268 92.7938C102.268 92.6513 102.411 92.5088 102.411 92.3663L101.128 91.2265C100.986 91.084 100.843 90.9415 100.843 90.6566L100.986 89.2318L99.1337 87.522C98.9912 87.3796 98.8487 87.0946 98.9912 86.9521L99.1337 85.8123L97.139 83.6751C96.854 83.3901 96.854 83.1052 97.139 82.8202L97.7089 82.2503L95.7142 79.9707C95.4292 79.6857 95.4292 79.4007 95.7142 79.1158L95.9992 78.8308L94.1469 76.5512C94.0045 76.2662 94.0045 75.9812 94.1469 75.6963L94.8593 74.8414L92.8646 72.2768C92.7221 71.9918 92.7221 71.7069 92.8646 71.4219L93.2921 70.852L91.7248 68.0024C91.5823 67.7175 91.5823 67.4325 91.7248 67.29L92.0097 66.8626L90.4425 64.4405C90.3 64.1555 90.3 63.8705 90.4425 63.7281L91.0124 63.0157L89.5876 60.736C89.5876 60.5935 89.5876 60.4511 89.5876 60.3086L89.7301 59.4537L88.8752 58.0289C88.7327 57.8864 88.7327 57.6015 88.8752 57.459L89.4451 56.0342L88.5903 55.0369C88.4478 54.8944 88.4478 54.6094 88.4478 54.4669L88.8752 53.0422L88.3053 51.7598C88.3053 51.6174 88.1628 51.4749 88.3053 51.3324L88.4478 50.4775C84.4584 55.8917 82.1787 62.3033 82.1787 69.4272C82.1787 84.9574 93.2921 97.7805 108.11 100.488L108.252 99.7752L106.97 99.3478Z" fill="#009688"/>
<path d="M113.809 37.7969C111.671 37.7969 109.677 37.9394 107.682 38.3668L107.397 38.6517C107.539 38.6517 107.539 38.7942 107.682 38.9367C107.824 39.0792 107.682 39.3641 107.539 39.5066L106.827 40.504C106.97 40.504 107.112 40.6465 107.254 40.7889C107.397 40.9314 107.397 41.0739 107.254 41.3588L106.685 43.2111H106.827C106.97 43.2111 107.112 43.3535 107.254 43.496C107.397 43.6385 107.397 43.781 107.397 44.0659L106.97 45.9182C107.112 45.9182 107.254 46.0606 107.254 46.0606C107.397 46.2031 107.539 46.3456 107.397 46.6306L107.254 48.7677C107.397 48.7677 107.682 48.7677 107.824 48.9102C107.967 49.0527 108.109 49.1952 108.109 49.4801V53.1846L108.252 53.0421C108.394 52.8996 108.679 53.0421 108.822 53.0421C108.964 53.1846 109.107 53.3271 109.107 53.612L108.964 57.0315C109.107 56.889 109.392 57.0315 109.677 57.0315C109.819 57.174 109.962 57.3165 109.962 57.6014V60.736C110.104 60.736 110.247 60.736 110.389 60.736C110.674 60.8784 110.816 61.0209 110.816 61.3059L111.101 64.2979C111.244 64.1555 111.529 64.1555 111.671 64.2979C111.814 64.4404 112.099 64.5829 112.099 64.7254L112.384 68.0024C112.526 68.0024 112.669 68.0024 112.811 68.0024C112.954 68.1449 113.096 68.2873 113.096 68.4298L113.524 71.4219C113.666 71.4219 113.809 71.4219 113.951 71.4219C114.093 71.4219 114.378 71.7068 114.378 71.8493L115.376 75.2688C115.518 75.1263 115.661 75.1263 115.803 75.2688C116.088 75.2688 116.231 75.5538 116.231 75.6962L117.228 79.1157C117.37 79.1157 117.513 79.1157 117.655 79.1157C117.94 79.1157 118.083 79.4007 118.083 79.5432L118.938 82.3927C119.08 82.3927 119.223 82.3927 119.365 82.3927C119.65 82.3927 119.793 82.5352 119.793 82.8202L120.79 85.5273C120.932 85.5273 120.932 85.5273 121.075 85.5273C121.36 85.5273 121.502 85.6698 121.645 85.9547L122.785 88.8043C122.927 88.6618 123.07 88.6618 123.212 88.6618C123.355 88.6618 123.64 88.8043 123.64 88.9468L124.779 91.084H124.922C125.207 91.084 125.492 91.2264 125.634 91.5114L126.489 93.2211C126.632 93.2211 126.774 93.0787 126.917 93.2211C127.059 93.2211 127.202 93.3636 127.344 93.5061L128.199 94.5034C128.341 94.5034 128.341 94.361 128.484 94.361C128.769 94.361 128.911 94.5034 129.054 94.6459L129.766 95.6433C129.909 95.6433 130.051 95.6433 130.194 95.7858L130.479 96.0707C139.455 90.6565 145.439 80.683 145.439 69.4272C145.439 52.0448 131.333 37.7969 113.809 37.7969Z" fill="#009688"/>
<path d="M89.8728 50.0497L89.5879 51.4745L90.1578 52.7568C90.3003 52.8993 90.3003 53.0417 90.1578 53.1842L89.7304 54.4665L90.5852 55.4639C90.5852 55.6064 90.7277 55.6064 90.7277 55.7488V55.6064L91.0127 53.1842C90.8702 53.1842 90.5852 53.1842 90.4428 53.0417C90.3003 52.8993 90.1578 52.6143 90.3003 52.4718L90.8702 50.1922H90.5852C90.4428 50.1922 90.3003 50.0497 90.1578 49.9072C90.0153 49.7647 90.0153 49.4798 90.1578 49.3373L90.4428 48.4824C90.1578 48.7674 89.8728 49.1948 89.5879 49.4798V49.3373C89.8728 49.4798 90.0153 49.7647 89.8728 50.0497Z" fill="#009688"/>
<path fill-rule="evenodd" clip-rule="evenodd" d="M159.603 20.528C166.662 27.5864 171.989 35.91 175.385 44.9883C178.204 52.5794 179.691 60.7032 179.691 69.0712C179.691 74.1097 179.158 79.0595 178.093 83.8761C177.116 88.3375 175.695 92.688 173.853 96.8387C170.457 104.474 165.663 111.51 159.581 117.592C158.049 119.124 156.451 120.566 154.809 121.943C142.534 132.131 127.241 137.68 111.082 137.68C107.886 137.68 104.712 137.458 101.604 137.036C89.3521 135.349 77.8766 130.399 68.1991 122.631C66.2458 121.055 64.3591 119.368 62.5612 117.57C49.5986 104.607 42.4736 87.3831 42.4736 69.049C42.4736 50.7149 49.5986 33.4906 62.5612 20.528C75.5238 7.56542 92.7481 0.44043 111.082 0.44043C111.77 0.44043 112.436 0.44043 113.102 0.462627C123.09 0.751178 132.724 3.17057 141.469 7.49883C148.106 10.7617 154.232 15.1565 159.603 20.528ZM141.913 14.0467L142.778 26.7652L120.915 35.5549L121.214 38.6636C120.094 38.3161 118.949 38.0277 117.781 37.8021L117.43 34.1565L104.623 18.7745L80.1406 42.014L82.3173 55.7992C80.5189 59.6163 79.4447 63.8419 79.2719 68.2987L62.761 76.7067L78.8977 106.072L100.361 109.468L104.539 101.161C105.658 101.411 106.799 101.602 107.958 101.732L102.403 112.842L105.422 131.864C107.287 132.02 109.173 132.108 111.082 132.108C127.13 132.108 141.802 126.093 152.944 116.172L152.212 113.952L133.056 95.8398H130.516C132.344 94.5219 134.028 93.018 135.542 91.3558L134.988 93.0653L152.145 109.202L166.817 98.5478C169.436 93.598 171.434 88.2487 172.655 82.6553L159.98 67.4731L143.816 72.7395C143.917 71.6983 143.969 70.6426 143.969 69.5749C143.969 69.4354 143.968 69.2961 143.966 69.157L159.448 64.1214L170.169 47.0303C164.93 33.0023 154.831 21.3049 141.913 14.0467ZM104.29 14.4906L109.617 6.01169C87.0881 6.5222 67.4444 18.9077 56.7014 37.1308L77.0554 40.3493L104.29 14.4906ZM48.0227 69.049C48.0227 88.5151 56.879 105.939 70.796 117.526L75.9012 107.515L57.1009 73.3107H57.1231L48.2003 64.3878C48.0893 65.9415 48.0227 67.4953 48.0227 69.049Z" fill="#009688"/>
<path d="M212.308 188.464C212.308 187.998 211.989 187.532 211.352 187.066C210.714 186.576 209.734 185.963 208.41 185.228C207.11 184.492 206.069 183.867 205.284 183.352C204.499 182.813 203.813 182.212 203.225 181.55C202.661 180.864 202.379 180.128 202.379 179.344C202.379 178.461 202.796 177.518 203.629 176.512C204.487 175.507 205.529 174.661 206.755 173.975C207.981 173.289 209.108 172.945 210.138 172.945C211.388 172.945 212.847 173.092 214.514 173.387C216.206 173.656 217.432 173.963 218.192 174.306V180.447H215.875C215.213 179.221 214.416 178.265 213.485 177.579C212.577 176.892 211.634 176.549 210.653 176.549C210.163 176.549 209.77 176.696 209.476 176.99C209.182 177.26 209.035 177.591 209.035 177.983C209.035 178.498 209.354 179.001 209.991 179.491C210.653 179.981 211.695 180.631 213.117 181.44C215.004 182.47 216.451 183.401 217.456 184.235C218.486 185.068 219.001 186.024 219.001 187.103C219.001 188.01 218.559 188.966 217.677 189.972C216.819 190.952 215.752 191.786 214.477 192.472C213.227 193.159 212.075 193.502 211.021 193.502C209.672 193.502 208.067 193.367 206.203 193.097C204.365 192.803 203.053 192.484 202.269 192.141V185.779H204.585C205.321 187.079 206.228 188.096 207.307 188.832C208.385 189.542 209.452 189.898 210.506 189.898C211.045 189.898 211.474 189.763 211.793 189.493C212.136 189.199 212.308 188.856 212.308 188.464Z" fill="#009688"/>
<path d="M188.577 172.945C190.391 172.945 192.009 173.374 193.431 174.232C194.853 175.066 195.956 176.218 196.741 177.689C197.55 179.16 197.954 180.79 197.954 182.58C197.954 184.517 197.329 186.331 196.079 188.023C194.829 189.69 193.26 191.026 191.372 192.031C189.509 193.011 187.707 193.502 185.966 193.502C184.176 193.502 182.558 193.085 181.112 192.251C179.69 191.393 178.575 190.229 177.766 188.758C176.981 187.287 176.589 185.657 176.589 183.867C176.589 181.93 177.214 180.128 178.464 178.461C179.715 176.77 181.271 175.434 183.135 174.453C185.022 173.448 186.836 172.945 188.577 172.945ZM186.444 177.211C185.415 177.211 184.63 177.628 184.091 178.461C183.576 179.27 183.318 180.484 183.318 182.102C183.318 184.161 183.735 185.877 184.569 187.25C185.402 188.599 186.579 189.273 188.099 189.273C189.104 189.273 189.864 188.856 190.379 188.023C190.918 187.164 191.188 185.926 191.188 184.308C191.188 182.249 190.771 180.557 189.938 179.234C189.104 177.885 187.94 177.211 186.444 177.211Z" fill="#009688"/>
<path d="M167.739 178.167C166.857 178.167 165.974 178.559 165.092 179.344V189.273L170.681 190.744L169.505 193.134H155.567V191.075L158.84 188.317V179.969L155.567 177.91V175.85L163.216 172.614L164.614 176.696L167.96 173.239C168.475 173.043 169.076 172.945 169.762 172.945C171.037 172.945 172.128 173.239 173.035 173.828C173.966 174.416 174.616 175.225 174.984 176.255L171.454 180.668H169.137C169.112 179.785 168.99 179.16 168.769 178.792C168.548 178.4 168.205 178.204 167.739 178.204V178.167Z" fill="#009688"/>
<path d="M143.796 172.945C146.37 172.945 148.356 173.926 149.753 175.887C151.175 177.848 151.862 180.57 151.812 184.051H138.574C138.819 185.546 139.346 186.748 140.155 187.655C140.964 188.537 142.018 188.979 143.318 188.979C145.034 188.979 147.498 188.121 150.709 186.404L151.812 188.501L146.223 192.95C144.776 193.318 143.097 193.502 141.185 193.502C139.395 193.502 137.777 193.085 136.331 192.251C134.909 191.393 133.793 190.229 132.984 188.758C132.2 187.287 131.808 185.657 131.808 183.867C131.808 181.93 132.433 180.128 133.683 178.461C134.933 176.77 136.49 175.434 138.353 174.453C140.241 173.448 142.055 172.945 143.796 172.945ZM141.773 177.211C140.695 177.211 139.886 177.579 139.346 178.314C138.807 179.025 138.513 180.128 138.464 181.624H145.487C145.291 180.104 144.924 178.988 144.384 178.277C143.869 177.567 142.987 177.211 141.737 177.211H141.773Z" fill="#009688"/>
<path d="M127.344 193.097H114.327V191.038L117.783 188.133V180.116H105.317V189.53L109.399 190.707L108.222 193.097H95.2042V191.038L98.661 188.133V167.76L94.5791 166.584L95.7926 164.193H108.81V166.253L105.317 169.195V177.285H117.783V167.76L113.701 166.584L114.915 164.193H127.933V166.253L124.439 169.195V189.567L128.521 190.707L127.344 193.097Z" fill="#009688"/>
<path d="M91.1863 160.663C92.0444 160.663 93.025 160.773 94.1282 160.994C95.2314 161.215 96.0282 161.46 96.5185 161.73V168.312H94.2018C93.6134 167.233 92.8779 166.388 91.9954 165.775C91.1373 165.137 90.267 164.819 89.3844 164.819C88.4773 164.819 87.7786 165.199 87.2883 165.958C86.8225 166.718 86.5896 167.822 86.5896 169.268V174.416H92.7676V176.843H86.5896V189.273L92.1792 190.744L91.0025 193.134H77.0652V191.075L80.3381 188.317V176.843H76.4033V174.416H80.3381V171.585C80.3381 169.648 80.902 167.846 82.0297 166.179C83.1574 164.488 84.5671 163.151 86.2587 162.171C87.9748 161.166 89.6173 160.663 91.1863 160.663Z" fill="#009688"/>
<path d="M68.3 178.167C67.4174 178.167 66.5349 178.559 65.6523 179.344V189.273L71.2419 190.744L70.0651 193.134H56.1279V191.075L59.4008 188.317V179.969L56.1279 177.91V175.85L63.7768 172.614L65.1742 176.696L68.5206 173.239C69.0355 173.043 69.6361 172.945 70.3226 172.945C71.5974 172.945 72.6883 173.239 73.5954 173.828C74.527 174.416 75.1767 175.225 75.5444 176.255L72.0141 180.668H69.6974C69.6729 179.785 69.5503 179.16 69.3297 178.792C69.109 178.4 68.7658 178.204 68.3 178.204V178.167Z" fill="#009688"/>
<path d="M52.7905 193.134H44.4061V189.971L40.4346 193.244C39.7727 193.44 39.0249 193.539 38.1914 193.539C36.3037 193.539 34.8082 193.036 33.705 192.031C32.6018 191.001 32.0502 189.616 32.0502 187.875V179.969L28.7773 178.094V176.034L35.985 172.835H38.3017V185.117C38.3017 186.294 38.4733 187.115 38.8166 187.581C39.1598 188.047 39.7727 188.28 40.6552 188.28C41.9301 188.28 43.1804 187.863 44.4061 187.03V179.969L41.1333 178.094V176.034L48.3409 172.835H50.6577V189.641L53.9673 190.744L52.7905 193.134Z" fill="#009688"/>
<path d="M27.7641 173.681L25.7416 174.49L20.5565 167.025H17.1365V189.678L21.2552 190.744L20.0416 193.134H7.02377V191.075L10.4805 188.354V167.025H7.20764L2.02255 174.49L0 173.681V163.568L2.6477 164.23H25.1164L27.7641 163.568V173.681Z" fill="#009688"/>
</g>
</svg>
