<svg xmlns="http://www.w3.org/2000/svg" viewBox="0 0 32 32"><defs><style>.cls-1{fill:#231f20;}</style></defs><g id="wallet"><path class="cls-1" d="M28,16H27V13.12a3.11,3.11,0,0,0-1.13-2.41l-.05-.15-.18-.44L23.73,5.48l-.07-.16s0,0,0-.05l-.73-1.78A2.33,2.33,0,0,0,21.62,2.2a2.45,2.45,0,0,0-1.86,0L7.58,6.93A2.45,2.45,0,0,0,6.26,8.2a2.23,2.23,0,0,0,0,1.72l0,.08,0,.1-.13,0a3.13,3.13,0,0,0-2.16,3V26.88A3.08,3.08,0,0,0,7,30H24A3.08,3.08,0,0,0,27,26.88V24h1a1,1,0,0,0,1-1V17A1,1,0,0,0,28,16ZM22.27,7.11l1.1,2.69.08.2h-8.3l7.08-2.88ZM8.08,9a.44.44,0,0,1,.25-.23L20.5,4l.16,0a.66.66,0,0,1,.18,0,.49.49,0,0,1,.24.24l.42,1v0h0L9.83,10H8.37l-.08-.2-.21-.51A.45.45,0,0,1,8.08,9Zm17,17.92A1.11,1.11,0,0,1,24,28H7A1.11,1.11,0,0,1,6,26.88V13.12A1.11,1.11,0,0,1,6.89,12H24a1.11,1.11,0,0,1,1.1,1.12V16H22.37A3.44,3.44,0,0,0,19,19.5v1A3.44,3.44,0,0,0,22.37,24h2.68Zm2-4.88H22.37a1.48,1.48,0,0,1-1.45-1.5v-1A1.48,1.48,0,0,1,22.37,18h4.71Z"/></g></svg>